<?xml version="1.0" standalone="no"?>
<!DOCTYPE svg PUBLIC "-//W3C//DTD SVG 1.1//EN" "http://www.w3.org/Graphics/SVG/1.1/DTD/svg11.dtd" >
<svg xmlns="http://www.w3.org/2000/svg">
<metadata></metadata>
<defs>
<font id="farao_textitalic" horiz-adv-x="1736" >
<font-face units-per-em="2048" ascent="1638" descent="-410" />
<missing-glyph horiz-adv-x="456" />
<glyph unicode="&#xfb01;" horiz-adv-x="1376" d="M2 0l35 207h184l109 616h-254l18 101h96q92 0 147.5 47.5t68.5 122.5q31 174 174.5 281.5t341.5 107.5q187 0 283 -81t75 -200q-12 -72 -62.5 -110.5t-130.5 -38.5q-48 0 -78.5 36.5t-21.5 88.5q8 50 47.5 89t91.5 40q-63 73 -215 73q-120 0 -205 -62.5t-100 -154.5 q-15 -88 42.5 -139t176.5 -51h422l-135 -766h162l-35 -207h-553l35 207h147l109 616h-404l-108 -616h147l-34 -207h-576z" />
<glyph unicode="&#xfb02;" horiz-adv-x="1376" d="M2 0l35 207h184l109 616h-254l18 101h96q57 0 99 17.5t66 50t37 63.5t22 71q39 158 173.5 261.5t336.5 103.5q102 0 178.5 -28.5t117.5 -76t56.5 -107t3.5 -124.5l-168 -948h162l-35 -207h-553l35 207h147l166 934q40 233 -170 233q-110 0 -185 -71.5t-91 -165.5 q-15 -88 25 -150.5t130 -62.5h117l-18 -101h-269l-108 -616h147l-34 -207h-576z" />
<glyph unicode="&#xfb03;" horiz-adv-x="2017" d="M4 0l35 207h184l109 616h-254l18 103h94q94 0 150 48.5t70 131.5q32 184 153.5 281.5t280.5 97.5q127 0 186 -69t41 -169q-9 -50 -47 -81t-84 -31q-51 0 -76.5 27.5t-17.5 72.5q6 37 35 62.5t67 31.5q-49 49 -117 49q-98 0 -169 -65.5t-87 -159.5q-16 -95 31.5 -161 t161.5 -66h80q89 0 144 49.5t69 130.5q28 164 168.5 271.5t341.5 107.5q190 0 284 -85t70 -220q-10 -63 -61.5 -103.5t-114.5 -40.5q-62 0 -97.5 38.5t-23.5 99.5q9 52 50.5 90.5t95.5 44.5q-27 32 -83 51.5t-130 19.5q-120 0 -205.5 -62.5t-100.5 -154.5q-16 -85 40 -137.5 t178 -52.5h423l-135 -766h162l-35 -207h-551l35 207h146l108 616h-403l-109 -616h143l-34 -207h-533l35 207h145l109 616h-404l-108 -616h141l-35 -207h-569z" />
<glyph unicode="&#xfb04;" horiz-adv-x="2017" d="M4 0l35 207h184l109 616h-254l18 103h94q94 0 150 48.5t70 131.5q32 184 153.5 281.5t280.5 97.5q127 0 186 -69t41 -169q-9 -50 -47 -81t-84 -31q-51 0 -76.5 27.5t-17.5 72.5q6 37 35 62.5t67 31.5q-49 49 -117 49q-98 0 -169 -65.5t-87 -159.5q-10 -42 -3 -83 t25.5 -73t58.5 -51.5t96 -19.5h90q92 0 148.5 49.5t70.5 130.5q20 114 93.5 203t183 136.5t235.5 47.5q102 0 178.5 -28.5t117.5 -76.5t56.5 -107t3.5 -124l-168 -950h162l-35 -207h-551l35 207h146l165 936q40 233 -172 233q-107 0 -180.5 -68t-89.5 -161q-15 -91 35 -156 t164 -65h116l-18 -103h-315l-109 -616h143l-34 -207h-533l35 207h145l109 616h-404l-108 -616h141l-35 -207h-569z" />
<glyph horiz-adv-x="2048" />
<glyph horiz-adv-x="2048" />
<glyph unicode="&#xd;" horiz-adv-x="2048" />
<glyph unicode=" "  horiz-adv-x="456" />
<glyph unicode="&#x09;" horiz-adv-x="456" />
<glyph unicode="&#xa0;" horiz-adv-x="456" />
<glyph unicode="!" horiz-adv-x="782" d="M178 141q10 64 63.5 110t118.5 46q66 0 103 -45.5t26 -110.5q-12 -65 -65 -110t-119 -45q-65 0 -102 45.5t-25 109.5zM315 444q24 136 32.5 319t13 341t16.5 231q14 78 69.5 118t120.5 40t107 -40.5t28 -121.5q-12 -71 -61.5 -227.5t-103.5 -340t-78 -319.5h-144z" />
<glyph unicode="&#x22;" horiz-adv-x="933" d="M260 852l14 604h306l-193 -604h-127zM698 852l13 604h307l-195 -604h-125z" />
<glyph unicode="#" horiz-adv-x="1681" d="M-10 391l61 178h408l110 328h-407l59 176h408l129 383h217l-129 -383h309l129 383h215l-129 -383h420l-59 -176h-422l-111 -328h422l-64 -178h-417l-133 -391h-213l131 391h-310l-131 -391h-217l131 391h-407zM676 569h309l111 328h-310z" />
<glyph unicode="$" horiz-adv-x="1110" d="M70 203l61 354h238q-22 -130 29.5 -194t179.5 -64q87 0 140.5 38t65.5 107q5 33 -5 59.5t-30 45t-56.5 34.5t-72 26.5t-88.5 23.5q-69 16 -111 28.5t-99 40t-86.5 60t-46.5 86t-5 121.5q17 97 79.5 169.5t148 108t180.5 35.5l39 217h190l-69 -260q108 -64 96 -195h14 l31 205h194l-61 -350h-238q39 254 -190 254q-66 0 -112 -33t-56 -92q-6 -32 3.5 -58.5t28 -44t51 -33t63 -24.5t75.5 -20q167 -42 235 -75q171 -83 151 -249q-1 -10 -3 -20q-15 -84 -60 -149t-110 -103.5t-139.5 -58t-155.5 -19.5l-34 -211h-185l68 248q-117 63 -111 190 h-12l-29 -198h-196z" />
<glyph unicode="%" horiz-adv-x="1613" d="M31 0l1390 1456h230l-1389 -1456h-231zM156 1120q28 162 151 266.5t287 104.5q165 0 251 -104.5t58 -266.5q-28 -160 -152.5 -265t-287.5 -105t-249 104.5t-58 265.5zM362 1120q-23 -128 1.5 -179.5t123.5 -51.5q54 0 86.5 9.5t55.5 38.5t35.5 69.5t25.5 113.5 q15 80 14.5 132.5t-32 78t-103.5 25.5q-99 0 -141 -50t-66 -186zM805 356q29 162 151.5 266.5t286.5 104.5t251 -105t58 -266q-28 -160 -152.5 -264t-287.5 -104t-249 103.5t-58 264.5zM1012 356q-23 -128 1.5 -179.5t123.5 -51.5q103 0 140.5 45.5t61.5 185.5 q15 81 14.5 133.5t-31.5 77.5t-103 25q-99 0 -140.5 -49.5t-66.5 -186.5z" />
<glyph unicode="&#x26;" horiz-adv-x="1720" d="M57 336q14 78 50 144.5t93 120.5t119.5 96t145.5 85q-56 180 -29 334q20 116 103.5 203.5t194 129.5t227.5 42q136 0 217 -65t59 -187q-7 -39 -24 -76t-36.5 -65.5t-55.5 -60t-61.5 -51.5t-75 -49.5t-76 -44t-85 -45.5t-82.5 -44q55 -137 144.5 -268.5t191.5 -225.5 q193 160 240 387h-230l37 207h600l-36 -207h-187q-102 -266 -336 -460q100 -74 174 -74q60 0 108.5 33.5t59.5 97.5l23 131h110l-30 -178q-26 -145 -125 -215t-223 -70q-149 0 -318 131q-113 -64 -240.5 -99.5t-240.5 -35.5q-209 0 -322.5 101t-83.5 278zM338 379 q-26 -152 37 -223.5t190 -71.5q140 0 295 82q-103 91 -194 220t-154 273q-144 -120 -174 -280zM684 1139q-19 -109 25 -238q75 39 126.5 71.5t99 71.5t75.5 83t37 94q12 71 -24.5 111t-100.5 40q-79 0 -149 -61t-89 -172z" />
<glyph unicode="'" horiz-adv-x="499" d="M256 850l14 606h303l-192 -606h-125z" />
<glyph unicode="(" horiz-adv-x="778" d="M165.5 335q-18.5 182 20.5 392q49 279 173.5 507t294.5 357t350 129l-35 -190q-126 0 -236.5 -105.5t-188 -285.5t-118.5 -414q-32 -170 -29 -316.5t33.5 -254t96.5 -169t159 -61.5l-35 -192q-136 0 -242 76.5t-165.5 210.5t-78 316z" />
<glyph unicode=")" horiz-adv-x="778" d="M-131 -266l35 190q125 0 234.5 105.5t187 285.5t118.5 414q32 169 29 315.5t-33.5 254.5t-96.5 169.5t-159 61.5l33 192q137 0 243 -76.5t165.5 -210.5t77.5 -316t-21 -392q-37 -210 -118 -394.5t-188.5 -316t-239.5 -207t-267 -75.5z" />
<glyph unicode="*" horiz-adv-x="870" d="M156 995q28 15 65 20t71 6t93.5 16.5t126.5 47.5q-55 32 -109 47.5t-87.5 16.5t-68.5 7t-59 22l144 188q23 -15 40.5 -43.5t30 -57.5t47 -71.5t85.5 -81.5q9 73 3.5 127t-17.5 85t-19.5 65.5t-1.5 66.5h217q-6 -37 -34 -80t-64 -109t-58 -155q66 38 115 79.5t71.5 71 t51.5 58.5t59 45l74 -190q-34 -18 -81.5 -21.5t-118.5 -16.5t-157 -53q57 -30 110.5 -44.5t86.5 -15.5t67.5 -7.5t59.5 -22.5l-143 -188q-23 15 -40 43.5t-29 57.5t-46.5 71t-87.5 80q-10 -88 2.5 -152.5t25 -107t5.5 -82.5h-217q5 30 24.5 64.5t42 64.5t48.5 87t42 126 q-65 -39 -114.5 -80.5t-72.5 -70t-51.5 -56.5t-58.5 -45z" />
<glyph unicode="+" horiz-adv-x="1185" d="M66 487l30 170h449l80 449h170l-80 -449h446l-31 -170h-446l-78 -446h-170l78 446h-448z" />
<glyph unicode="," horiz-adv-x="616" d="M25 -250q78 12 139 51.5t91.5 85.5t39.5 93q10 57 0 73q-49 -49 -121 -49q-65 0 -101 46t-24 116q11 69 64.5 114.5t132.5 45.5q72 0 119.5 -41.5t63 -105.5t1.5 -138q-29 -165 -135 -274.5t-264 -118.5z" />
<glyph unicode="-" horiz-adv-x="606" d="M57 465l37 211h492l-37 -211h-492z" />
<glyph unicode="." horiz-adv-x="552" d="M45 158q12 70 72 121t131 51t112 -50.5t29 -121.5q-12 -72 -71.5 -122t-131.5 -50q-71 0 -112 50t-29 122z" />
<glyph unicode="/" horiz-adv-x="1116" d="M-70 0l1127 1456h229l-1124 -1456h-232z" />
<glyph unicode="0" horiz-adv-x="1304" d="M127 725q59 333 258 547.5t449 214.5q167 0 280 -97.5t154 -271t2 -393.5q-38 -218 -142.5 -392t-252 -271t-310.5 -97q-164 0 -277.5 97t-156 271t-4.5 392zM395 274q43 -139 199 -139q111 0 181 52t120.5 178.5t91.5 359.5q37 202 34 333.5t-55.5 195t-162.5 63.5 q-106 0 -177.5 -54t-124.5 -183t-93 -355q-56 -312 -13 -451z" />
<glyph unicode="1" horiz-adv-x="1304" d="M188 0l35 207h342l133 749h-360l29 160q217 3 342 98t153 242h166l-221 -1249h307l-35 -207h-891z" />
<glyph unicode="2" horiz-adv-x="1304" d="M45 0l16 94q9 53 29.5 102t44.5 87.5t62.5 79t70.5 68.5t83 63.5t85 57t91 57t87 55.5q143 91 228 182t108 217q13 70 -2 126t-51 90t-84 51.5t-104 17.5q-82 0 -157 -35t-108 -94q50 10 91 4q65 -12 95 -59t19 -107q-15 -89 -83.5 -145t-164.5 -56q-90 0 -135 62.5 t-26 168.5q13 72 58.5 143t117 130.5t177 96t224.5 36.5q99 0 183 -27.5t145.5 -79.5t88 -135.5t7.5 -187.5q-11 -64 -37 -120t-67 -102.5t-83.5 -84t-103 -74t-108 -62t-115.5 -57.5q-36 -19 -104.5 -53t-105.5 -53t-90 -50.5t-83 -55.5t-58 -56.5t-40 -65.5q72 50 180 50 q59 0 199 -23t202 -23q170 0 209 115q12 23 15 58l123 12q2 -42 -11 -125q-71 -313 -354 -313q-71 0 -149 21t-133 45.5t-117.5 45.5t-106.5 21q-115 0 -133 -113h-125z" />
<glyph unicode="3" horiz-adv-x="1304" d="M102 342q19 102 84 161.5t162 59.5q86 0 130 -52t30 -134q-11 -67 -71.5 -116.5t-151.5 -49.5q26 -54 88.5 -83.5t146.5 -29.5q126 0 226 79.5t124 213.5q22 126 -42.5 214.5t-190.5 88.5h-74l23 119h73q114 0 202 78.5t106 181.5q22 129 -42.5 205t-176.5 76 q-78 0 -148.5 -32t-105.5 -85q35 0 47 -4q59 -9 87 -54t19 -100q-12 -76 -70.5 -123t-142.5 -47q-92 0 -133.5 57t-24.5 154q28 161 183 266t364 105q225 0 340.5 -105t83.5 -288q-22 -127 -128.5 -221.5t-284.5 -108.5l-5 -18q183 -18 268 -124.5t58 -254.5 q-33 -190 -207 -303t-418 -113q-222 0 -340.5 107t-87.5 280z" />
<glyph unicode="4" horiz-adv-x="1304" d="M63 406l31 169l772 881h295l-155 -878h227l-31 -172h-227l-35 -199h162l-35 -207h-602l35 207h209l34 199h-680zM311 578h463l80 452q32 174 55 250z" />
<glyph unicode="5" horiz-adv-x="1304" d="M106 344q19 102 85 162.5t155 60.5q84 0 131.5 -49.5t30.5 -136.5q-11 -65 -69 -114.5t-138 -49.5q26 -53 86 -84t133 -31q153 0 248.5 90t124.5 257q30 171 -27.5 264.5t-206.5 93.5q-120 0 -237 -74h-137l127 727q203 -26 415 -26q294 0 465 36l-12 -69 q-38 -217 -512 -217q-110 0 -250 18l-59 -338q105 74 278 74q128 0 224 -40t149 -108.5t72 -155t2 -183.5q-13 -74 -46.5 -144.5t-90 -133t-129.5 -109t-170 -74t-207 -27.5q-224 0 -345 104.5t-90 276.5z" />
<glyph unicode="6" horiz-adv-x="1304" d="M141 692q38 214 148.5 394.5t279.5 291.5t361 111q185 0 280 -89.5t70 -230.5q-14 -82 -72.5 -127t-124.5 -45q-62 0 -97 37t-23 103q9 53 54 92t107 39q-41 100 -204 100q-180 0 -303.5 -143.5t-182.5 -470.5q60 91 161.5 139.5t219.5 48.5q90 0 167 -30t132.5 -85.5 t79 -145t4.5 -200.5q-40 -228 -210.5 -372t-401.5 -144q-176 0 -290 91t-153.5 255t-1.5 381zM395 504q-68 -389 211 -389q135 0 201.5 84.5t101.5 277.5q32 183 -16.5 267.5t-175.5 84.5q-113 0 -204 -87.5t-118 -237.5z" />
<glyph unicode="7" horiz-adv-x="1304" d="M201 1012l78 444h192l-51 -266h16q53 162 130.5 229.5t181.5 67.5q61 0 115 -21t87 -45.5t78.5 -45.5t91.5 -21q49 0 82 29t41 73h119l-10 -55q-11 -60 -29 -117t-47 -114t-54 -101.5t-67.5 -103t-68 -92.5t-75.5 -96.5t-71 -90.5q-118 -151 -191 -286t-102 -300 q-10 -62 -63.5 -98.5t-118.5 -36.5q-63 0 -102 36.5t-29 102.5q15 86 49.5 168.5t74.5 145.5t99.5 131t108.5 114.5t118 106.5q12 11 56.5 50t58 51t51 46t52 50t43.5 46t43 49.5t33 46.5t30.5 51.5t19.5 49.5q-60 -55 -176 -55q-52 0 -177 22.5t-193 22.5q-166 0 -199 -188 h-225z" />
<glyph unicode="8" horiz-adv-x="1304" d="M98 352q17 98 81 176.5t154 125t197 65.5q-128 42 -196.5 147.5t-44.5 241.5q13 74 55.5 141.5t110.5 122t167 87t214 32.5q216 0 326 -105t81 -260q-22 -126 -124 -207.5t-245 -109.5q159 -45 244.5 -159.5t59.5 -262.5q-34 -195 -201.5 -309.5t-431.5 -114.5 q-243 0 -360 109.5t-87 279.5zM362 379q-25 -143 36 -214t190 -71q133 0 210 67t99 189q23 134 -37 210.5t-229 121.5q-102 -23 -174.5 -99.5t-94.5 -203.5zM559 1137q-20 -115 33.5 -183t181.5 -106q99 22 153 84.5t74 177.5q45 254 -186 254q-104 0 -170.5 -60.5 t-85.5 -166.5z" />
<glyph unicode="9" horiz-adv-x="1304" d="M80 188l182 156q21 -72 91.5 -120t166.5 -48q172 0 287.5 124t173.5 407q-59 -93 -166 -148t-233 -55q-88 0 -165.5 30.5t-135.5 87t-83 148.5t-5 205q41 229 212.5 373.5t401.5 144.5q267 0 385 -194t59 -523q-30 -172 -98 -319.5t-165.5 -256.5t-228 -171t-278.5 -62 q-142 0 -246.5 56t-154.5 165zM485 977q-34 -190 17 -275.5t178 -85.5q111 0 201.5 88t119.5 250q33 193 -22.5 291t-190.5 98q-136 0 -203 -85t-100 -281z" />
<glyph unicode=":" horiz-adv-x="552" d="M45 158q12 70 72 121t131 51t112 -50.5t29 -121.5q-12 -72 -71.5 -122t-131.5 -50q-71 0 -112 50t-29 122zM172 883q14 71 73.5 121.5t129.5 50.5q72 0 113.5 -50.5t27.5 -121.5q-12 -72 -70.5 -122t-130.5 -50q-71 0 -113 50t-30 122z" />
<glyph unicode=";" horiz-adv-x="567" d="M25 -250q78 12 139 51.5t91.5 85.5t39.5 93q10 57 0 73q-49 -49 -121 -49q-65 0 -101 46t-24 116q11 69 64.5 114.5t132.5 45.5q72 0 119.5 -41.5t63 -105.5t1.5 -138q-29 -165 -135 -274.5t-264 -118.5zM180 883q14 71 73.5 121.5t131.5 50.5q70 0 111.5 -50.5 t27.5 -121.5q-12 -72 -69.5 -122t-128.5 -50q-72 0 -115 50t-31 122z" />
<glyph unicode="&#x3c;" horiz-adv-x="1173" d="M109 516l26 154l1059 538l-29 -159l-735 -439l586 -405l-33 -189z" />
<glyph unicode="=" horiz-adv-x="1187" d="M45 377l33 184h1065l-33 -184h-1065zM127 844l33 184h1065l-33 -184h-1065z" />
<glyph unicode="&#x3e;" horiz-adv-x="1173" d="M29 16l28 160l731 438l-583 406l35 188l874 -499l-29 -154z" />
<glyph unicode="?" horiz-adv-x="1089" d="M113 1010l80 446h223l-51 -262h12q41 142 170 220.5t284 78.5q81 0 151 -23.5t122.5 -67.5t75 -116t6.5 -162q-15 -86 -55.5 -155t-93.5 -114.5t-114 -83.5t-121.5 -71.5t-111.5 -67.5t-88 -82t-47 -106h-160q0 33 8 72q12 68 43 122.5t72 89.5t88 65t94 58.5t87.5 60.5 t70.5 80t41 108q19 104 -36.5 160.5t-153.5 56.5q-70 0 -136.5 -31.5t-123 -103.5t-76.5 -172h-260zM279 141q10 64 63.5 110t118.5 46q66 0 103 -45.5t26 -110.5q-12 -65 -65 -110t-119 -45q-65 0 -102 45.5t-25 109.5z" />
<glyph unicode="@" horiz-adv-x="1697" d="M78 483q28 160 114 305t210 253.5t289.5 172.5t342.5 64q211 0 363.5 -94t217.5 -255t30 -356q-23 -128 -70.5 -231.5t-108 -168t-127 -98.5t-131.5 -34q-75 0 -109.5 39t-21.5 117q3 20 27 106h-14q-45 -98 -135.5 -155.5t-219.5 -57.5q-152 0 -235 111t-51 288 q31 175 158 292.5t286 117.5q120 0 182 -56.5t70 -146.5h14q-3 63 12 176h189l-105 -591q-13 -72 50 -72q53 0 108.5 85.5t85.5 254.5q44 256 -94 416.5t-404 160.5q-141 0 -268 -50.5t-220.5 -137.5t-157 -202t-85.5 -244q-25 -127 -1 -237.5t83.5 -192t166 -128.5 t245.5 -47q193 0 340 68l37 -158q-203 -96 -426 -96q-237 0 -395.5 97t-220 273.5t-21.5 411.5zM670 492q-22 -121 20.5 -195t138.5 -74q99 0 172 73t95 196q22 125 -22.5 195.5t-143.5 70.5q-97 0 -167.5 -72t-92.5 -194z" />
<glyph unicode="A" horiz-adv-x="1566" d="M-102 0l36 207h195l721 1284h246l250 -1284h196l-35 -207h-704l35 207h211l-37 244h-502l-123 -244h207l-35 -207h-661zM600 627h383q-6 23 -45.5 287t-40.5 298q-12 -33 -147 -296.5t-150 -288.5z" />
<glyph unicode="B" horiz-adv-x="1554" d="M-16 0l34 207h213l185 1040h-213l37 209h862q119 0 207 -30t135.5 -81t64.5 -116q10 -37 10 -77q0 -30 -6 -62q-10 -59 -43 -115.5t-84 -103t-126.5 -75t-161.5 -28.5l-4 -18q99 0 174 -32t116 -84q40 -52 56 -115q9 -36 9 -72q0 -28 -5 -56q-14 -79 -57.5 -149 t-111.5 -124.5t-167 -86t-215 -31.5h-909zM504 207h350q139 0 223.5 64.5t100.5 158.5q3 19 3 37q-1 70 -49 123q-62 67 -196 67h-352zM621 856h344q104 0 171.5 56t82.5 135q3 17 3 33q0 63 -41 109q-51 58 -167 58h-324z" />
<glyph unicode="C" horiz-adv-x="1548" d="M143 715q27 151 90 280t146.5 219t183.5 154t201.5 94.5t198.5 30.5q171 0 275 -73t124 -208h16l39 263h232l-90 -517h-250q3 26 3 50q0 114 -78 184q-96 86 -257 86q-66 0 -133.5 -21t-132.5 -64t-118.5 -104t-93.5 -147t-57 -186q-12 -66 -12 -125q0 -163 90 -272 q122 -148 340 -148q125 0 243 61t202 172l149 -157q-101 -148 -270.5 -236t-364.5 -88q-253 0 -421 95q-166 96 -230 264q-39 104 -40 231q0 77 15 162z" />
<glyph unicode="D" horiz-adv-x="1685" d="M-16 0l34 207h222l184 1040h-221l37 209h702q377 0 563 -192q140 -145 140 -376q0 -76 -15 -161q-63 -354 -307.5 -540.5t-636.5 -186.5h-702zM512 207h211q120 0 215 26t174.5 85t133 161t79.5 246q12 73 12 136q0 51 -8 95q-18 98 -75 163t-142.5 96.5t-198.5 31.5 h-217z" />
<glyph unicode="E" horiz-adv-x="1517" d="M-16 0l34 207h222l184 1038h-221l37 211h1372l-90 -508h-179l25 144q3 19 3 36q1 44 -21 74q-30 42 -119 43h-535l-69 -389h460l-34 -194h-461l-80 -455h535q167 0 194 162l25 135h178l-88 -504h-1372z" />
<glyph unicode="F" horiz-adv-x="1449" d="M-16 0l34 207h222l184 1038h-221l37 211h1372l-90 -510h-179l25 146q3 19 3 36q1 44 -21 74q-30 42 -119 43h-535l-73 -420h520l-35 -194h-520l-76 -424h279l-35 -207h-772z" />
<glyph unicode="G" d="M142 393q-15 69 -15 148q0 82 16 174q28 156 94.5 287.5t153 220.5t190.5 151t207.5 90.5t202.5 28.5q159 0 272 -75t130 -210h18l39 267h231l-88 -510h-247q1 14 1 28q0 80 -39 141q-47 73 -127.5 108.5t-179.5 35.5q-70 0 -139.5 -19t-137.5 -61t-124 -103t-98.5 -151 t-61.5 -199q-14 -84 -14 -154q0 -49 7 -91q16 -104 69.5 -171t128 -99.5t168.5 -32.5q165 0 291.5 95.5t160.5 244.5h-409l32 192h865l-33 -192h-188l-95 -535h-139q16 92 25.5 202.5t9.5 162.5h-19q-33 -83 -84.5 -154t-122.5 -127.5t-167 -88.5t-205 -32q-148 0 -268 49 t-200.5 144t-110.5 235z" />
<glyph unicode="H" horiz-adv-x="1798" d="M-16 0l34 207h224l184 1040h-223l37 209h714l-36 -209h-220l-67 -387h676l67 387h-219l37 209h715l-37 -209h-223l-185 -1040h224l-35 -207h-715l35 207h219l80 448h-676l-80 -448h219l-35 -207h-714z" />
<glyph unicode="I" horiz-adv-x="849" d="M-16 0l34 207h224l184 1040h-223l37 209h718l-36 -209h-224l-184 -1040h223l-35 -207h-718z" />
<glyph unicode="J" horiz-adv-x="1179" d="M0 412q10 53 35 104.5t63.5 96t94 71.5t118.5 27q83 0 131 -57q38 -45 38 -106q0 -16 -3 -34q-15 -83 -80.5 -140t-148.5 -57q-46 0 -81.5 21.5t-53.5 56.5q-1 -16 -1 -30q0 -104 62 -163q70 -69 176 -69q52 0 103.5 17t98 50.5t81 89.5t47.5 128l147 829h-299l37 209 h768l-37 -209h-196l-144 -811q-21 -117 -80.5 -209.5t-140.5 -148t-171.5 -84.5t-180.5 -29q-92 0 -168 26.5t-132 79t-79 140.5q-13 48 -13 104q0 46 9 97z" />
<glyph unicode="K" horiz-adv-x="1638" d="M-16 0l34 207h224l184 1040h-223l37 209h694l-37 -209h-199l-96 -542l660 542h-193l37 209h627l-37 -209h-178l-551 -440l473 -600h143l-35 -207h-653l35 207h157l-331 434l-193 -154l-49 -280h201l-35 -207h-696z" />
<glyph unicode="L" horiz-adv-x="1388" d="M-16 0l34 207h224l184 1040h-223l37 209h718l-36 -209h-224l-184 -1040h422q122 0 179.5 56.5t78.5 176.5l29 154h188l-104 -594h-1323z" />
<glyph unicode="M" horiz-adv-x="2097" d="M-16 0l34 207h222l184 1038h-221l37 211h641q111 -632 172 -1114q266 573 551 1114h602l-37 -211h-223l-185 -1038h224l-35 -207h-680l35 207h200l133 747q32 186 68 326q-108 -233 -119 -256q-115 -225 -514 -1024h-209q-16 94 -55.5 312.5t-61 343t-48.5 303t-42 321.5 q-14 -133 -69 -434l-113 -639h201l-35 -207h-657z" />
<glyph unicode="N" horiz-adv-x="1732" d="M-16 0l34 207h224l184 1040h-223l37 209h637q196 -510 272 -729t100 -350q16 151 62 407l82 463h-199l37 209h618l-37 -209h-204l-224 -1261h-225l-411 1013q-56 129 -95 265q-8 -86 -45 -308l-133 -749h201l-35 -207h-657z" />
<glyph unicode="O" d="M145 727q38 215 167 390t323 275.5t412 100.5q223 0 381 -99.5t224 -273.5q41 -110 42 -237q0 -75 -15 -156q-39 -217 -168 -391.5t-321.5 -272.5t-411.5 -98q-165 0 -297.5 57.5t-216.5 157.5t-116 242q-17 75 -17 156q0 72 14 149zM471 727q-20 -111 -20 -200 q0 -143 52 -225q84 -134 310 -134q162 0 265 51.5t170 173.5t104 334q21 117 21 208q1 137 -47 215q-78 130 -316 130q-119 0 -204 -27t-151.5 -90.5t-110.5 -170t-73 -265.5z" />
<glyph unicode="P" horiz-adv-x="1482" d="M-16 0l34 207h222l184 1038h-221l37 211h845q246 0 379 -124q106 -98 106 -240q0 -36 -7 -76q-16 -88 -66.5 -166t-131 -140t-200 -98.5t-260.5 -36.5h-327l-66 -368h242l-35 -207h-735zM612 768h260q64 0 93 2q115 7 189 76.5t89 159.5q5 24 5 48q0 70 -43 122 q-57 69 -189 69h-320z" />
<glyph unicode="Q" horiz-adv-x="1753" d="M145 725q29 163 111.5 305.5t201 244t271.5 160t318 58.5q223 0 381 -100t224 -275q41 -110 41 -237q0 -75 -14 -156q-38 -219 -171 -394.5t-330 -273.5q13 -93 54 -154t111 -61q75 0 113.5 39.5t52.5 118.5h86q-30 -165 -108.5 -261.5t-210.5 -96.5q-56 0 -98.5 18.5 t-69.5 47t-46.5 78t-30 95.5t-21.5 115q-103 -33 -234 -33q-165 0 -297.5 57.5t-215 158t-115.5 241.5q-17 75 -17 156q0 72 14 149zM471 725q-18 -108 -18 -193q0 -104 27 -176q50 -129 182 -172q-41 39 -41 101q0 19 4 41q14 90 87.5 154.5t180.5 64.5q116 0 173.5 -74 t78.5 -207q79 67 127 172.5t80 288.5q20 117 20 207q0 139 -47 218q-78 130 -315 130q-116 0 -201 -27t-153 -91t-112.5 -171.5t-72.5 -265.5zM717 276q-1 -10 -1 -19q0 -35 20 -63q26 -36 79 -36q113 0 182 20q-5 37 -10.5 63.5t-16 54t-25.5 44.5t-38.5 28t-54.5 11 q-58 0 -92.5 -29.5t-42.5 -73.5z" />
<glyph unicode="R" horiz-adv-x="1626" d="M-16 0l34 207h222l184 1038h-221l37 211h878q120 0 213 -32t145 -85t74 -119q14 -42 14 -86q0 -26 -5 -53q-14 -74 -53.5 -137t-105.5 -114t-166.5 -80t-225.5 -29l-4 -21q82 0 142.5 -16t94 -43.5t53.5 -64.5t20 -80v-6q0 -40 -7 -84q-8 -50 -25.5 -114t-19.5 -81 q-3 -13 -3 -24q0 -46 48 -46q30 0 58 26.5t38 82.5l22 125h111l-25 -131q-21 -119 -112.5 -196t-218.5 -77q-112 0 -162 58q-36 41 -35 112q0 29 6 64q5 30 23 96t24 102q7 28 7 55q-1 16 -3 30q-6 40 -28 71t-73 48.5t-128 17.5h-225l-74 -418h211l-35 -207h-704zM618 805 h250q186 0 274 51.5t107 159.5q5 27 5 51q0 69 -40 115q-54 62 -202 63h-316z" />
<glyph unicode="S" horiz-adv-x="1388" d="M47 -6l86 489h285q-7 -39 -7 -74q-1 -46 11 -86q20 -71 64 -113.5t100.5 -64.5t120.5 -22q104 0 184 55.5t98 155.5q5 26 5 50q0 80 -54 130q-70 64 -254 117q-87 22 -148 43t-126.5 58t-101.5 83q-37 47 -54 117q-9 37 -9 79q0 37 7 79q22 127 106 220.5t193.5 137 t228.5 43.5q151 0 248 -73t96 -204h13q35 210 41 252h237l-86 -479h-280q6 41 6 77q-1 106 -55 170q-74 87 -199 87q-89 0 -162 -52t-86 -130q-5 -23 -4 -44q0 -67 46 -109q61 -54 255 -109q127 -36 214.5 -77.5t148 -98.5t81.5 -133q12 -42 12 -90q0 -39 -8 -83 q-19 -106 -77.5 -190t-139.5 -134t-171.5 -76t-182.5 -26q-105 0 -190 29t-140.5 95t-58.5 161h-16q-6 -47 -21 -134.5t-20 -125.5h-236z" />
<glyph unicode="T" horiz-adv-x="1499" d="M94 938l92 518h1473l-92 -518h-191l15 78q6 37 6 69q-1 66 -29 104q-42 56 -154 56h-192l-184 -1038h229l-35 -207h-731l35 207h229l185 1038h-195q-113 0 -174.5 -55t-81.5 -172l-14 -80h-191z" />
<glyph unicode="U" d="M186 1247l37 209h711l-37 -209h-227l-131 -743q-5 -30 -5 -57q0 -40 11 -75q19 -59 61.5 -95.5t100.5 -56t124 -19.5q92 0 175.5 33t146.5 103.5t80 166.5l131 743h-223l37 209h684l-37 -209h-213l-133 -758q-23 -126 -93.5 -228t-168.5 -165t-211 -96t-228 -33t-216 33 t-177 96t-110 165q-20 61 -20 130q0 47 9 98l133 758h-211z" />
<glyph unicode="V" horiz-adv-x="1566" d="M119 1249l37 207h712l-37 -207h-217l111 -616q32 -170 47 -406q61 153 193 408l311 614h-205l37 207h657l-36 -207h-197l-711 -1272h-246l-262 1272h-194z" />
<glyph unicode="W" horiz-adv-x="2246" d="M139 1247l37 209h696l-36 -209h-213l55 -616q21 -201 24 -377q32 80 172 381l295 612h-200l37 209h636l-36 -209h-203l80 -620q33 -270 35 -373q60 159 157 379l267 614h-201l37 209h651l-37 -209h-199l-616 -1270h-246q-77 526 -117 965q-133 -294 -469 -965h-243 l-168 1270h-195z" />
<glyph unicode="X" horiz-adv-x="1695" d="M-43 2l35 207h180l563 508l-383 532h-180l37 207h711l-37 -207h-183l238 -372l383 372h-186l36 207h662l-37 -207h-186l-557 -501l389 -539h172l-35 -207h-709l35 207h187l-242 375l-387 -375h190l-35 -207h-661z" />
<glyph unicode="Y" horiz-adv-x="1566" d="M109 1249l36 207h721l-37 -207h-200l227 -542l418 542h-193l37 207h651l-36 -207h-189l-612 -721l-58 -321h224l-35 -207h-719l35 207h223l51 282l-358 760h-186z" />
<glyph unicode="Z" horiz-adv-x="1587" d="M6 0l27 156q222 208 632 586.5t552 510.5h-488q-69 0 -122 -19t-87 -50t-59.5 -82.5t-40 -103.5t-27.5 -126h-166l103 584h1312l-28 -158l-1194 -1097h504q85 0 148.5 19t106 51t72.5 87t47.5 114.5t32.5 145.5h164l-109 -618h-1380z" />
<glyph unicode="[" horiz-adv-x="776" d="M18 -268l353 1988h633l-35 -190h-404l-282 -1606h403l-35 -192h-633z" />
<glyph unicode="\" horiz-adv-x="1116" d="M184 1456h230l614 -1456h-231z" />
<glyph unicode="]" horiz-adv-x="778" d="M-133 -266l33 190h401l283 1606h-404l35 192h635l-350 -1988h-633z" />
<glyph unicode="^" horiz-adv-x="1193" d="M18 522l680 934h170l326 -934h-203l-266 658l-545 -658h-162z" />
<glyph unicode="_" horiz-adv-x="1337" d="M-82 -246l29 158h1247l-29 -158h-1247z" />
<glyph unicode="`" horiz-adv-x="1210" d="M557 1456h279l204 -315h-108z" />
<glyph unicode="a" horiz-adv-x="1449" d="M76 518q41 232 213 392.5t375 160.5q165 0 252.5 -71t109.5 -189h12q18 190 23 221h237l-151 -825h201l-35 -207h-418q0 3 1 9.5t1 10.5q27 145 64 244h-13q-73 -133 -195 -214t-300 -81q-131 0 -227 70q-95 71 -136 197q-25 76 -25 163q0 57 11 119zM350 530 q-10 -55 -10 -103q0 -101 42 -171q62 -104 198 -104q140 0 247 104.5t136 273.5q10 54 10 101q-1 99 -45 165q-66 97 -205 97t-241.5 -99t-131.5 -264z" />
<glyph unicode="b" horiz-adv-x="1402" d="M117 -25l225 1270h-199l37 211h443l-17 -92q-72 -396 -129 -573h12q71 125 191.5 201.5t282.5 76.5q200 1 311 -155q81 -113 81 -272q0 -60 -12 -126q-19 -111 -80 -213t-144.5 -175.5t-186.5 -117t-203 -43.5q-182 0 -274 76t-113 201h-12q-55 -92 -90 -269h-123z M455 506q-9 -52 -9 -97q0 -104 48 -177q70 -105 213 -105q134 0 232 105t128 274q9 49 9 92q0 100 -48 170q-68 100 -205 100q-141 0 -239 -96t-129 -266z" />
<glyph unicode="c" horiz-adv-x="1075" d="M67 375q-2 19 -2 39q0 49 11 100q27 156 120 283.5t233 201.5t298 74q169 1 266 -69q80 -57 80 -150q0 -20 -4 -41q-15 -82 -80.5 -138.5t-144.5 -56.5q-82 0 -126 44q-34 34 -35 91q0 16 3 35q9 48 40.5 88.5t70.5 53.5q-40 18 -107 18q-96 0 -182 -57t-139 -143.5 t-70 -182.5q-7 -43 -8 -81q-1 -104 53 -180q72 -104 234 -103q87 0 167 39.5t140 115.5l121 -170q-92 -108 -215 -164.5t-263 -56.5q-87 0 -160.5 21t-126 58.5t-92 89t-58 112.5t-24.5 129z" />
<glyph unicode="d" horiz-adv-x="1449" d="M76 518q41 232 213 392.5t375 160.5q165 0 252.5 -71t109.5 -189h12q18 189 25 233l37 201h-211l37 211h442l-221 -1249h201l-35 -207h-418q0 3 1 9.5t1 10.5q27 145 64 244h-13q-73 -133 -195 -214t-300 -81q-131 0 -227 70q-95 71 -136 197q-25 76 -25 163q0 57 11 119 zM350 530q-10 -55 -10 -103q0 -101 42 -171q62 -104 198 -104q140 0 247 104.5t136 273.5q10 54 10 101q-1 99 -45 165q-66 97 -205 97t-241.5 -99t-131.5 -264z" />
<glyph unicode="e" horiz-adv-x="1179" d="M76 520q21 120 84.5 224.5t152 175.5t195.5 112t215 41q251 -1 355 -157q66 -100 67 -250q0 -84 -21 -183h-780q-2 -22 -2 -43q0 -132 72 -208q82 -86 229 -87q212 0 320 177l77 -50q-201 -307 -516 -307q-154 0 -266 74t-160 201q-31 82 -31 175q0 51 9 105zM371 608 h553q6 37 6 69q0 85 -42 142q-58 78 -186 78q-120 0 -212 -79t-119 -210z" />
<glyph unicode="f" horiz-adv-x="894" d="M4 0l35 207h184l109 616h-254l18 103h94q94 0 150 48.5t70 131.5q32 184 153.5 281.5t280.5 97.5q142 0 220 -69q60 -53 60 -140q0 -23 -4 -49q-11 -62 -60 -104t-112 -42t-98 37q-27 30 -27 71q0 12 2 25q9 47 46.5 84.5t84.5 44.5q-35 35 -118 35q-98 0 -166 -65 t-84 -154q-4 -21 -4 -41q0 -61 36 -110q47 -64 160 -64h152l-23 -121h-334l-108 -616h221l-35 -207h-649z" />
<glyph unicode="g" horiz-adv-x="1181" d="M-53 -190q16 87 89.5 145.5t176.5 79.5q-113 1 -159 43q-37 32 -37 80q0 13 3 28q13 76 83.5 140t150.5 92q-78 90 -78 196q0 30 6 60q30 168 178 280.5t347 112.5q45 0 118 -15.5t111 -15.5q70 0 127 50.5t67 109.5q6 31 -8 57q-20 -40 -57.5 -64t-79.5 -24 q-61 0 -93 37q-24 30 -24 72q0 13 2 26q13 69 66 114.5t141 45.5q110 0 156 -63q35 -48 35 -111q0 -21 -4 -43q-19 -96 -95.5 -174.5t-189.5 -89.5q120 -93 120 -240q0 -36 -7 -75q-31 -170 -165 -272.5t-329 -102.5q-147 0 -276 78q-50 0 -94.5 -33t-51.5 -78q-1 -8 -1 -16 q0 -29 21 -46q28 -20 78 -20q45 0 201 6t299 6q157 0 235 -63q62 -50 62 -133q0 -22 -4 -45q-29 -164 -204 -274.5t-447 -110.5q-268 0 -378 67q-94 57 -94 149q0 16 3 34zM139 -123q-1 -7 -1 -14q0 -52 69 -78q78 -29 252 -29q165 0 249 42t97 110q4 23 -0.5 40t-22 31 t-55 21.5t-94.5 7.5h-242q-126 0 -184.5 -38t-67.5 -93zM438 651q-5 -29 -5 -54q0 -72 41 -119q56 -64 163 -64q105 0 185 66.5t100 174.5q5 31 5 58q0 73 -39 121q-53 65 -161 65q-106 0 -188 -70t-101 -178z" />
<glyph unicode="h" horiz-adv-x="1376" d="M-35 0l35 207h199l186 1038h-199l37 211h443l-13 -67q-25 -141 -89 -368.5t-118 -377.5h21q38 108 100 192.5t133 134t143.5 74.5t141.5 25q147 0 211 -87q44 -60 44 -157q0 -44 -9 -96l-92 -522h149l-35 -207h-577l35 207h186l70 387q9 53 9 95q0 69 -25 107 q-41 60 -134 60q-105 0 -196 -78.5t-115 -212.5l-64 -358h160l-35 -207h-602z" />
<glyph unicode="i" horiz-adv-x="700" d="M-35 0l35 207h201l108 616h-198l36 209h443l-146 -825h160l-35 -207h-604zM371 1321q10 63 64.5 107.5t117.5 44.5q65 -1 103 -45q30 -35 30 -82q0 -12 -2 -25q-10 -63 -64.5 -108.5t-119.5 -45.5q-63 -1 -101 45q-30 36 -30 84q0 12 2 25z" />
<glyph unicode="j" horiz-adv-x="643" d="M-334 -180q10 63 62 105t116 42q58 0 91 -36q26 -28 26 -68q0 -11 -2 -23q-10 -63 -65 -104q-44 -35 -92 -35q-10 0 -21 2q18 -47 106 -47q220 0 271 291l153 876h-198l37 209h444l-180 -1030q-21 -115 -70 -200.5t-117 -133t-144 -70t-161 -22.5q-129 0 -203 64 q-58 51 -58 132q0 23 5 48zM375 1321q10 63 63.5 107.5t118.5 44.5q64 0 102 -45q29 -34 29 -80q0 -13 -2 -27q-11 -63 -64.5 -108.5t-117.5 -45.5t-102 45q-29 36 -29 82q0 13 2 27z" />
<glyph unicode="k" horiz-adv-x="1318" d="M-35 0l35 207h201l184 1040h-201l37 209h445l-172 -975l417 342h-184l37 209h575l-36 -209h-164l-297 -237l272 -379h127l-35 -207h-594l35 207h152l-160 227l-178 -135l-51 -299h-445z" />
<glyph unicode="l" horiz-adv-x="694" d="M-41 0l37 207h197l184 1040h-199l37 209h442l-221 -1249h162l-35 -207h-604z" />
<glyph unicode="m" horiz-adv-x="1968" d="M-29 0l35 207h199l108 616h-198l37 207h387q-36 -209 -90 -366h20q63 193 182 297t258 104q127 0 178 -83q34 -55 34 -142q0 -44 -9 -97q-9 -30 -12 -57h18q53 181 184.5 283t274.5 102q137 0 201 -88q44 -60 43 -155q0 -45 -9 -97l-92 -524h156l-35 -207h-549l35 207 h150l69 389q10 56 10 99q0 61 -21 95q-36 56 -118 56q-95 0 -169 -65t-95 -187l-70 -387h152l-35 -207h-545l35 207h152l76 422q10 55 10 97q0 55 -18 84q-30 52 -119 52q-101 0 -176.5 -72.5t-96.5 -195.5l-69 -387h141l-35 -207h-584z" />
<glyph unicode="n" horiz-adv-x="1376" d="M-35 0l35 207h201l108 616h-200l36 209h390q-22 -148 -91 -375h21q44 133 127 229t179.5 141.5t199.5 45.5q147 1 219 -87q51 -62 52 -164q0 -42 -9 -91l-92 -524h149l-35 -207h-577l35 207h184l68 385q10 54 10 96q0 67 -25 102q-40 58 -133 58q-108 0 -196.5 -69.5 t-110.5 -190.5l-68 -381h160l-35 -207h-602z" />
<glyph unicode="o" horiz-adv-x="1271" d="M76 520q43 238 233 395.5t432 157.5q163 0 280 -71.5t167 -197.5q32 -81 32 -175q0 -53 -10 -109q-27 -155 -122.5 -282t-238.5 -200t-302 -73q-160 0 -278 73t-169 200q-33 83 -33 178q0 50 9 104zM348 283q8 -87 60.5 -124.5t164.5 -37.5q88 0 142.5 16t93.5 63 t61.5 118t44.5 194q21 115 21 194v32q-6 88 -58 127.5t-167 39.5q-162 0 -233 -81.5t-111 -311.5q-21 -109 -21 -185q0 -24 2 -44z" />
<glyph unicode="p" horiz-adv-x="1439" d="M-109 -401l37 206h197l180 1020h-201l35 205h430q-23 -133 -65 -258h12q160 299 483 299q200 0 311 -157q80 -113 80 -271q0 -60 -12 -127q-27 -152 -116 -279.5t-215.5 -200.5t-260.5 -73q-167 0 -256 74t-110 194h-12q-6 -161 -52 -426h197l-37 -206h-625zM492 506 q-10 -54 -10 -101q0 -105 48 -177q69 -103 211 -103q134 0 232 104.5t129 276.5q9 49 9 92q0 101 -48 170q-68 100 -205 100q-140 0 -237.5 -96t-128.5 -266z" />
<glyph unicode="q" horiz-adv-x="1437" d="M76 518q41 232 213 392.5t375 160.5q87 0 153 -20.5t107.5 -59.5t66.5 -87t39 -111h12q4 116 21 237h430l-35 -205h-198l-181 -1020h170l-37 -206h-604l37 206h201l28 162q27 151 76 285h-12q-57 -123 -185 -206t-292 -83q-132 0 -230 70t-141 198q-25 77 -25 166 q0 58 11 121zM348 522q-9 -51 -9 -96q0 -103 47 -174q67 -100 204 -100q141 0 241 98.5t130 271.5q10 53 10 99q0 102 -47 172q-69 102 -209 102q-136 0 -236 -103t-131 -270z" />
<glyph unicode="r" horiz-adv-x="1048" d="M-16 0l34 207h179l108 616h-201l37 209h394q-7 -43 -86 -350h18q26 94 75 169.5t109 123t127 73t133 25.5q111 0 171 -60q46 -46 46 -118q0 -21 -4 -45q-18 -95 -82 -149t-145 -54q-71 1 -113 47q-32 36 -33 85q0 14 3 30q16 97 123 131q-8 2 -23 2q-21 0 -55 -4 q-93 -15 -180 -110t-113 -246l-68 -375h246l-35 -207h-665z" />
<glyph unicode="s" horiz-adv-x="1110" d="M33 -6l61 352h236q-6 -38 -6 -70q0 -188 219 -188q85 0 139 38t66 107q2 12 2 23q0 28 -13 50q-18 32 -54.5 52t-86 35.5t-104.5 29.5t-110 30t-102.5 41t-82 58.5t-48.5 86.5q-8 29 -8 61q0 28 6 60q17 96 81 168.5t147.5 107.5t171.5 35q125 0 199 -62q63 -53 63 -142 q0 -16 -2 -33h12q30 170 35 204h197l-62 -348h-239q6 36 6 67q0 185 -199 185q-62 0 -105.5 -31t-52.5 -84q-2 -14 -3 -27q0 -30 13 -52q18 -34 54.5 -54t85.5 -36.5t103.5 -30.5t109 -30t102.5 -41t82 -57.5t48 -84.5q8 -28 8 -61q0 -27 -5 -58q-15 -84 -60 -149.5 t-108.5 -103.5t-135 -57.5t-148.5 -19.5q-119 0 -197 59t-78 171h-14l-29 -201h-194z" />
<glyph unicode="t" horiz-adv-x="952" d="M57 823l21 109h10q94 0 160 18q70 20 128.5 71t97 142.5t63.5 231.5h96l-66 -363h398l-37 -209h-396l-94 -540q-2 -13 -2 -25q0 -40 26 -64q34 -32 91 -32q56 0 102 31.5t56 89.5l26 149h123l-33 -178q-17 -99 -76 -168.5t-134 -100t-158 -30.5q-81 0 -149 30 q-66 30 -104 92q-27 45 -28 100q0 20 4 42l107 604h-232z" />
<glyph unicode="u" horiz-adv-x="1378" d="M102 823l37 209h424l-108 -616q-7 -41 -8 -75q0 -157 161 -157q111 0 198 71.5t112 211.5l61 356h-234l37 209h478l-146 -825h170l-35 -207h-358q34 191 92 367h-20q-35 -100 -94.5 -178t-128.5 -125t-140.5 -71t-140.5 -24q-148 0 -222 87q-53 62 -53 165q0 42 9 90 l90 512h-181z" />
<glyph unicode="v" horiz-adv-x="1181" d="M43 825l35 207h561l-35 -207h-170q70 -236 144 -598q156 290 352 598h-158l35 207h493l-34 -207h-127l-557 -843h-150l-270 843h-119z" />
<glyph unicode="w" horiz-adv-x="1701" d="M47 825l35 207h557l-35 -207h-158q57 -311 91 -553q68 138 206.5 402t186.5 358h112q10 -52 35 -178t40 -203.5t33.5 -185.5t29.5 -193q115 252 270 553h-168l35 207h500l-35 -207h-127l-481 -843h-146q-88 333 -137 677q-137 -291 -352 -677h-150l-223 843h-119z" />
<glyph unicode="x" horiz-adv-x="1302" d="M-39 0l37 207h154l385 293l-312 325h-119l35 207h543l-35 -207h-129l180 -217l248 217h-137l35 207h516l-35 -207h-156l-378 -290l307 -328h117l-35 -207h-541l35 207h129l-178 219l-246 -219h135l-35 -207h-520z" />
<glyph unicode="y" horiz-adv-x="1153" d="M-164 -166q15 83 69 134.5t126 51.5q66 0 103 -44q29 -35 29 -82q0 -14 -3 -29q-12 -71 -74 -115q-49 -34 -99 -34q-14 0 -28 3q21 -29 48.5 -43t76.5 -14q99 0 170.5 72.5t161.5 275.5l-264 815h-119l35 207h559l-35 -207h-158q87 -301 150 -573q212 374 336 573h-158 l35 207h491l-35 -207h-127l-614 -936q-107 -163 -209 -239t-225 -76t-193 70q-54 53 -54 137q0 25 5 53z" />
<glyph unicode="z" horiz-adv-x="1265" d="M0 0l20 125l883 752h-278q-295 0 -355 -353h-133l88 508h1035l-21 -125l-870 -751h243q187 0 288.5 91.5t139.5 301.5h136l-97 -549h-1079z" />
<glyph unicode="{" horiz-adv-x="776" d="M94 629l33 192h68q61 0 90.5 46t48.5 145q2 13 10.5 81t15.5 105q11 64 26 117.5t40.5 107.5t58.5 96.5t81 80.5t108 63.5t139.5 40.5t175.5 16l-35 -192q-81 -1 -143.5 -19t-104.5 -47t-72 -74.5t-47 -95t-28 -114.5q-34 -189 -48 -238q-41 -146 -127 -191 q-33 -17 -73 -22q26 -4 47 -14t35 -23t23 -34.5t14 -40.5t5.5 -49.5t-0.5 -52.5t-6 -59t-8.5 -60.5t-10.5 -63.5q-10 -57 -15 -95.5t-5.5 -85t8 -76.5t27.5 -61t51 -48.5t81 -29t115 -12.5l-35 -190q-93 1 -166.5 15t-124.5 37.5t-86 59.5t-54 77t-26 93t-4 104.5t14 114.5 q7 39 22 108t19 89q10 63 11 107t-18.5 68t-63.5 24h-66z" />
<glyph unicode="|" horiz-adv-x="563" d="M8 -422l332 1878h227l-331 -1878h-228z" />
<glyph unicode="}" horiz-adv-x="776" d="M-121 -268l35 190q95 1 165.5 27.5t111.5 71t68 101.5t41 120.5t25 128t25 124t36 107.5t64 80.5t103 40.5q-72 10 -99 58t-24 130q1 49 8.5 110.5t16.5 110t14 102.5t3.5 94.5t-17 79t-45.5 63.5t-84 40.5t-131 16.5l34 192q103 -1 182.5 -18t130.5 -47t85 -72.5 t46.5 -94t15 -111t-8.5 -124.5q-8 -49 -26 -137t-23 -117q-21 -101 -1.5 -140.5t101.5 -39.5h41l-33 -190h-67q-61 0 -92.5 -44t-47.5 -132q-1 -6 -13.5 -98.5t-20.5 -137.5q-15 -71 -35.5 -128t-53 -113.5t-79.5 -98.5t-109.5 -75t-149 -51t-192.5 -19z" />
<glyph unicode="~" horiz-adv-x="1280" d="M248 762q39 155 124.5 235t196.5 80q55 0 98.5 -16.5t70.5 -40.5t50.5 -48t50.5 -40.5t58 -16.5q103 0 141 138l131 -9q-37 -151 -128 -238t-199 -87q-45 0 -83 17t-66 41.5t-54.5 49t-59.5 41.5t-71 17q-98 0 -131 -133z" />
<glyph unicode="&#xa1;" horiz-adv-x="782" d="M94 -268q13 72 114.5 391t133.5 495h141q-24 -136 -33 -319t-13 -340.5t-17 -230.5q-14 -78 -70 -118t-121 -40t-107 40.5t-28 121.5zM309 922q10 64 64 109.5t119 45.5q64 0 102 -45t27 -110q-12 -65 -66.5 -110.5t-118.5 -45.5q-65 0 -102 46t-25 110z" />
<glyph unicode="&#xa2;" horiz-adv-x="1091" d="M109 723q36 204 181 356t347 191l41 229h190l-57 -219q147 -11 228 -80.5t61 -181.5q-13 -81 -77.5 -136t-143.5 -55q-82 0 -127.5 47.5t-30.5 129.5q7 47 37.5 84t70.5 51q-80 32 -162 11t-150.5 -74.5t-118 -133.5t-64.5 -166q-27 -157 47.5 -261.5t234.5 -104.5 q180 0 302 155l120 -170q-85 -100 -195.5 -155.5t-236.5 -63.5l-39 -213h-184l57 221q-130 26 -214 107.5t-112 193t-5 238.5z" />
<glyph unicode="&#xa3;" horiz-adv-x="1437" d="M-14 174q15 94 99 154.5t202 60.5q91 0 186 -39q37 122 -8 281h-295l27 157h235q-25 149 -6 265q18 104 77.5 188.5t142 137.5t176.5 81.5t188 28.5q206 0 316.5 -76.5t86.5 -208.5q-15 -90 -74 -146.5t-137 -56.5q-82 0 -126 46.5t-29 128.5q8 47 37 85t67 50 q-50 47 -137 47q-126 0 -214.5 -82.5t-113.5 -224.5q-14 -77 -27 -263h406l-27 -157h-385q-14 -197 -65 -320q250 -110 403 -110q104 0 166.5 48.5t77.5 139.5l18 100h144l-31 -172q-29 -163 -134.5 -256.5t-252.5 -93.5q-121 0 -222 51t-239 158q-63 -94 -153 -143 t-197 -49q-100 0 -148 54t-34 136zM106 182q-7 -45 23 -70.5t80 -25.5q63 0 124 36.5t97 110.5q-75 58 -162 58q-64 0 -109 -31.5t-53 -77.5z" />
<glyph unicode="&#xa4;" horiz-adv-x="1382" d="M29 119l258 262q-110 149 -76 350q37 201 192 346l-163 258h209l104 -159q123 63 268 63q144 0 252 -68l162 164h209l-258 -262q100 -140 63 -342q-35 -202 -190 -344l172 -268h-213l-111 170q-126 -66 -264 -66q-134 0 -242 62l-161 -166h-211zM457.5 514.5 q8.5 -79.5 57 -113.5t153.5 -34q65 0 109 10.5t77 32.5t56 66t39 101t32 148q24 128 20 208.5t-51.5 117t-154.5 36.5q-150 0 -216.5 -75.5t-103.5 -286.5q-26 -131 -17.5 -210.5z" />
<glyph unicode="&#xa5;" horiz-adv-x="1566" d="M109 1247l36 209h721l-37 -209h-200l227 -542l418 542h-193l37 209h651l-36 -209h-191l-252 -299h238l-27 -157h-346l-141 -166h282l-26 -160h-348l-48 -258h222l-35 -207h-717l35 207h223l47 258h-358l26 160h269l-76 166h-334l27 157h229l-139 299h-184z" />
<glyph unicode="&#xa6;" horiz-adv-x="563" d="M8 -422l142 797h227l-141 -797h-228zM219 776l121 680h227l-121 -680h-227z" />
<glyph unicode="&#xa7;" horiz-adv-x="1316" d="M49 596q20 115 105 197t215 118q-42 69 -19 195q29 165 173 271t335 106q69 0 128 -15t104.5 -43.5t67 -75.5t11.5 -106q-12 -69 -70 -115.5t-134 -46.5q-63 0 -106 41t-32 105q16 93 99 127q-39 20 -99 20q-90 0 -160.5 -57t-84.5 -141q-8 -48 3.5 -86.5t33.5 -64 t65 -49t79 -37.5t95 -32q172 -54 227 -79q165 -73 203 -191q21 -68 6 -156q-20 -109 -101.5 -188.5t-215.5 -124.5q36 -77 16 -195q-29 -165 -173 -270.5t-337 -105.5q-145 0 -237 61.5t-72 175.5q12 70 70 116t133 46q63 0 106.5 -39.5t32.5 -103.5q-16 -95 -100 -129 q38 -21 100 -21q90 0 160 57.5t84 141.5q11 61 -5 104.5t-70.5 75.5t-92 46t-126.5 40q-31 9 -46 14q-90 27 -153 55.5t-125 75.5t-86 118.5t-7 164.5zM270 694q-10 -59 7 -102.5t68 -76t93.5 -50t124.5 -45.5q63 -20 92.5 -29.5t84.5 -31.5t87 -40.5t68 -48t59 -63.5 q96 59 119 178q11 64 -7 110.5t-77 81t-100 50.5t-136 45q-29 9 -44 14q-117 38 -196 79.5t-124 106.5q-100 -61 -119 -178z" />
<glyph unicode="&#xa8;" horiz-adv-x="1218" d="M379 1305q9 53 53 91t98 38t85 -38t22 -91q-9 -54 -53.5 -92.5t-98.5 -38.5t-84.5 38.5t-21.5 92.5zM834 1305q9 53 53 91t98 38t85 -38t22 -91q-9 -54 -53.5 -92.5t-98.5 -38.5t-84.5 38.5t-21.5 92.5z" />
<glyph unicode="&#xa9;" horiz-adv-x="1656" d="M131 725q27 153 111 292.5t201.5 240t266.5 160t302 59.5q203 0 356.5 -100.5t222.5 -273.5t33 -378q-27 -153 -111 -292.5t-201.5 -240.5t-266 -161t-300.5 -60t-280 60t-210.5 161t-116.5 240.5t-7 292.5zM274 723q-29 -166 27 -306.5t180.5 -222t288.5 -81.5 t317.5 81.5t259 222t134.5 306.5t-27 306.5t-180.5 222t-288.5 81.5t-317.5 -81.5t-259 -222t-134.5 -306.5zM442.5 584.5q-4.5 66.5 6.5 138.5q34 197 187.5 330t352.5 133q141 0 221 -58.5t62 -160.5q-12 -67 -66 -112.5t-119 -45.5q-69 0 -105 38t-24 107q6 40 30 71.5 t56 41.5q-67 23 -134.5 4.5t-124 -61.5t-97 -108.5t-53.5 -135.5q-23 -130 38.5 -217.5t196.5 -87.5q149 0 248 129l103 -141q-76 -89 -179 -136t-219 -47q-87 0 -157 25t-115 68t-74.5 101t-34 124.5z" />
<glyph unicode="&#xab;" horiz-adv-x="1269" d="M90 463l29 160l645 407l-25 -137l-346 -332l230 -336l-31 -168zM592 463l29 160l645 407l-25 -137l-346 -332l229 -336l-30 -168z" />
<glyph unicode="&#xad;" horiz-adv-x="606" d="M57 465l37 211h492l-37 -211h-492z" />
<glyph unicode="&#xae;" horiz-adv-x="1144" d="M147 997q25 141 116 261t223.5 190t273.5 70t248.5 -70t156 -190t23.5 -261q-37 -215 -216 -367.5t-394 -152.5q-141 0 -249 69.5t-157 189.5t-25 261zM238 997q-31 -182 71 -306t283 -124q182 0 328.5 124.5t177.5 305.5q32 181 -70.5 305.5t-284.5 124.5 q-181 0 -327 -124t-178 -306zM354 737l19 101h98l59 338h-98l17 98h342q91 0 134 -41t33 -98q-10 -58 -61 -96.5t-143 -39.5l-2 -6q70 0 100 -23t22 -73q-3 -20 -10 -45t-8 -31q-2 -7 3.5 -12.5t14.5 -5.5q13 0 24.5 9.5t14.5 29.5l11 57h53l-10 -57q-10 -59 -51.5 -88 t-100.5 -29q-45 0 -69 21t-17 63q3 16 10.5 40.5t10.5 39.5q10 65 -64 65h-65l-21 -116h86l-18 -101h-314zM633 1030h69q55 0 84.5 21t36.5 53q5 30 -14 51t-59 21h-91z" />
<glyph unicode="&#xaf;" horiz-adv-x="1052" d="M424 1229l29 162h524l-29 -162h-524z" />
<glyph unicode="&#xb0;" horiz-adv-x="827" d="M154 1120q28 162 151 266.5t287 104.5q165 0 251 -104.5t58 -266.5q-28 -160 -152.5 -265t-287.5 -105t-249 104.5t-58 265.5zM360 1120q-23 -128 1.5 -179.5t123.5 -51.5q54 0 86.5 9.5t55.5 38.5t35.5 69.5t25.5 113.5q15 80 14.5 132.5t-32 78t-103.5 25.5 q-99 0 -141 -50t-66 -186z" />
<glyph unicode="&#xb1;" horiz-adv-x="1185" d="M-18 0l28 170h1065l-28 -170h-1065zM109 723l28 170h449l80 448h170l-80 -448h446l-28 -170h-447l-80 -447h-170l80 447h-448z" />
<glyph unicode="&#xb2;" horiz-adv-x="978" d="M195 643l8 51q8 44 30 84.5t48.5 69t68 59.5t73.5 50.5t81 47.5l6 3t5 3t5 3q153 85 176 215q13 76 -22 115.5t-99 39.5q-45 0 -89 -19.5t-60 -51.5q27 8 49 2q35 -6 51 -31.5t11 -58.5q-9 -48 -46.5 -79.5t-89.5 -31.5q-51 0 -74.5 34.5t-13.5 94.5q13 83 103.5 152 t218.5 69q56 0 106 -14t90.5 -41.5t59.5 -75.5t8 -110q-10 -57 -37 -101.5t-71 -78t-88.5 -56.5t-110.5 -49q-149 -59 -192 -84q-68 -40 -83 -84q62 43 113 43q41 0 121.5 -11t114.5 -11q90 0 110 59q1 2 6 33l74 6q0 -43 -8 -70q-22 -97 -77.5 -147.5t-139.5 -50.5 q-50 0 -105.5 21t-102.5 42t-77 21t-50 -16t-24 -46h-77z" />
<glyph unicode="&#xb3;" horiz-adv-x="1032" d="M258 842q9 56 45 88.5t90 32.5q47 0 72.5 -29.5t17.5 -73.5q-7 -37 -40.5 -64.5t-84.5 -27.5q15 -29 49.5 -45t79.5 -16q69 0 124.5 43.5t68.5 117.5q12 69 -22 117.5t-103 48.5h-43l10 66h43q62 0 110.5 43t59.5 100q12 71 -24 112.5t-97 41.5q-43 0 -82 -17.5 t-59 -46.5q19 0 27 -2q32 -6 48 -30.5t11 -53.5q-8 -42 -40 -68t-79 -26q-49 0 -72 31.5t-14 85.5q15 88 99.5 145.5t201.5 57.5q134 0 205.5 -58t54.5 -158q-14 -75 -81.5 -124t-171.5 -58l-3 -10q106 -11 164 -66.5t43 -142.5q-18 -104 -122 -165.5t-248 -61.5 q-124 0 -189.5 58.5t-48.5 154.5z" />
<glyph unicode="&#xb4;" horiz-adv-x="1167" d="M543 1141l317 315h266l-485 -315h-98z" />
<glyph unicode="&#xb6;" horiz-adv-x="1511" d="M168 881.5q-6 64.5 4 134.5q15 86 57.5 164t110 140t166 99t215.5 37h846l-37 -211h-203l-184 -1038h203l-35 -207h-400l219 1245h-141l-219 -1245h-410l35 207h211l66 368h-82q-97 0 -175 23.5t-127.5 65t-81.5 97.5t-38 120.5z" />
<glyph unicode="&#xb7;" horiz-adv-x="700" d="M225 586q10 64 67.5 110.5t125.5 46.5q66 0 105 -46t28 -111q-12 -66 -68.5 -114t-122.5 -48q-67 0 -107 48t-28 114z" />
<glyph unicode="&#xb8;" horiz-adv-x="1007" d="M166 -389l70 76q51 -33 102 -33q53 0 86.5 24t40.5 56q5 32 -19.5 56t-72.5 24q-57 0 -127 -33l-27 47l197 172h131l-148 -113q40 7 60 7q96 0 142.5 -46.5t35.5 -109.5q-13 -73 -88.5 -127.5t-194.5 -54.5q-94 0 -188 55z" />
<glyph unicode="&#xb9;" horiz-adv-x="794" d="M182 655l21 115h188l72 412h-199l17 88q120 1 189 53t83 133h121l-121 -686h172l-20 -115h-523z" />
<glyph unicode="&#xbb;" horiz-adv-x="1269" d="M18 57l25 136l348 333l-229 336l28 168l502 -405l-26 -160zM518 57l25 136l348 333l-229 336l28 168l504 -405l-27 -160z" />
<glyph unicode="&#xbc;" horiz-adv-x="1740" d="M156 0l1323 1456h155l-1319 -1456h-159zM178 655l21 115h188l72 412h-199l16 88q120 1 189.5 53.5t83.5 132.5h121l-121 -686h137l-20 -115h-488zM860 223l17 94l419 484h189l-84 -482h125l-17 -96h-125l-20 -108h90l-18 -115h-357l19 115h114l21 108h-373zM997 319h252 l43 248q19 99 31 133z" />
<glyph unicode="&#xbd;" horiz-adv-x="1740" d="M156 0l1323 1456h155l-1319 -1456h-159zM178 655l21 115h188l72 412h-199l16 88q120 1 189.5 53.5t83.5 132.5h121l-121 -686h137l-20 -115h-488zM897 0l8 51q7 37 21.5 70.5t40.5 62.5t48 50.5t62 47.5t62 39.5t68 39.5q9 5 14 8q155 88 178 215q13 76 -23 115.5 t-100 39.5q-46 0 -89 -18.5t-61 -50.5q23 6 50 2q36 -6 51.5 -32t9.5 -60q-8 -48 -44.5 -78.5t-88.5 -30.5q-51 0 -75.5 34.5t-14.5 92.5q15 84 104 153.5t217 69.5q56 0 106.5 -14t90.5 -42t59 -76t8 -109q-10 -57 -36.5 -102t-70.5 -78.5t-88.5 -56.5t-109.5 -48 q-150 -60 -194 -86q-66 -40 -82 -82q59 41 112 41q41 0 121.5 -10.5t114.5 -10.5q91 0 111 60q3 6 8 31l74 8q0 -25 -9 -70q-46 -199 -217 -199q-50 0 -105.5 21t-102 42t-76.5 21q-65 0 -74 -61h-78z" />
<glyph unicode="&#xbe;" horiz-adv-x="1740" d="M160 842q9 56 45 88.5t90 32.5q47 0 72.5 -29.5t17.5 -73.5q-7 -37 -40.5 -64.5t-84.5 -27.5q15 -29 49.5 -45t79.5 -16q69 0 124.5 43.5t68.5 117.5q12 69 -22 117.5t-103 48.5h-43l10 66h43q62 0 110.5 43t59.5 100q12 71 -24 112.5t-97 41.5q-43 0 -82 -17.5 t-59 -46.5q18 0 26 -2q32 -6 48.5 -30.5t11.5 -53.5q-8 -42 -40 -68t-79 -26q-49 0 -72 31.5t-14 85.5q15 88 99.5 145.5t201.5 57.5q134 0 205.5 -58t54.5 -158q-14 -75 -82 -124t-172 -58l-2 -10q106 -11 164 -66.5t43 -142.5q-18 -104 -122.5 -165.5t-248.5 -61.5 q-123 0 -188.5 58.5t-48.5 154.5zM174 0l1323 1456h156l-1319 -1456h-160zM862 223l17 94l421 484h189l-84 -482h125l-17 -96h-124l-21 -108h88l-18 -115h-357l19 115h114l21 108h-373zM1001 319h250l43 248q14 70 31 133z" />
<glyph unicode="&#xbf;" horiz-adv-x="1089" d="M-75 -203q-13 59 1 133q15 86 55.5 155.5t93.5 115t114 83.5t121.5 71.5t111.5 68t88 82t47 106.5h160q0 -32 -8 -71q-11 -60 -36.5 -109.5t-59 -82t-74 -63t-81.5 -52.5t-81.5 -50.5t-73.5 -57.5t-58 -73t-34 -98q-19 -102 36.5 -158.5t153.5 -56.5q112 0 210 79 t128 228h260l-79 -446h-226l54 262h-13q-41 -142 -171.5 -221.5t-284.5 -79.5q-64 0 -121.5 14.5t-106 44t-81 73.5t-45.5 103zM520 913q12 66 66 111t119 45q66 0 102 -45t24 -111q-11 -64 -64 -109.5t-118 -45.5q-64 0 -102 46t-27 109z" />
<glyph unicode="&#xc0;" horiz-adv-x="1566" d="M-102 0l36 207h195l721 1284h246l250 -1284h196l-35 -207h-704l35 207h211l-37 244h-502l-123 -244h207l-35 -207h-661zM600 627h383q-6 23 -45.5 287t-40.5 298q-12 -33 -147 -296.5t-150 -288.5zM616 1790h314l252 -250h-121z" />
<glyph unicode="&#xc1;" horiz-adv-x="1566" d="M-102 0l36 207h195l721 1284h246l250 -1284h196l-35 -207h-704l35 207h211l-37 244h-502l-123 -244h207l-35 -207h-661zM600 627h383q-6 23 -45.5 287t-40.5 298q-12 -33 -147 -296.5t-150 -288.5zM793 1540l342 252h313l-535 -252h-120z" />
<glyph unicode="&#xc2;" horiz-adv-x="1566" d="M-102 0l36 207h195l721 1284h246l250 -1284h196l-35 -207h-704l35 207h211l-37 244h-502l-123 -244h207l-35 -207h-661zM600 627h383q-6 23 -45.5 287t-40.5 298q-12 -33 -147 -296.5t-150 -288.5zM621 1538l321 252h168l229 -252h-143l-207 131l-252 -131h-116z" />
<glyph unicode="&#xc3;" horiz-adv-x="1566" d="M-102 0l36 207h195l721 1284h246l250 -1284h196l-35 -207h-704l35 207h211l-37 244h-502l-123 -244h207l-35 -207h-661zM600 627h383q-6 23 -45.5 287t-40.5 298q-12 -33 -147 -296.5t-150 -288.5zM659 1559q35 113 102 175t148 62q51 0 93 -18t64.5 -39.5t54.5 -39.5 t65 -18q77 0 117 113l86 -14q-36 -117 -102 -178.5t-150 -61.5q-41 0 -79.5 18t-63 39.5t-59.5 39.5t-69 18q-43 0 -70.5 -27t-45.5 -82z" />
<glyph unicode="&#xc4;" horiz-adv-x="1566" d="M-102 0l36 207h195l721 1284h246l250 -1284h196l-35 -207h-704l35 207h211l-37 244h-502l-123 -244h207l-35 -207h-661zM600 627h383q-6 23 -45.5 287t-40.5 298q-12 -33 -147 -296.5t-150 -288.5zM651 1665q7 49 51 84t97 35q52 0 83 -34.5t23 -84.5q-9 -48 -52 -82.5 t-95 -34.5t-84 35t-23 82zM1104 1665q7 49 50.5 84t96.5 35q51 0 81.5 -35t23.5 -84q-9 -47 -52 -82t-94 -35q-52 0 -83.5 35t-22.5 82z" />
<glyph unicode="&#xc5;" horiz-adv-x="1566" d="M-102 0l36 207h195l721 1284h246l250 -1284h196l-35 -207h-704l35 207h211l-37 244h-502l-123 -244h207l-35 -207h-661zM600 627h383q-6 23 -45.5 287t-40.5 298q-12 -33 -147 -296.5t-150 -288.5zM743 1657q13 79 98.5 132.5t196.5 53.5q109 0 175 -53.5t53 -132.5 q-13 -78 -93.5 -120t-195.5 -42q-116 0 -181.5 41.5t-52.5 120.5zM864 1657q-6 -38 31.5 -64t93.5 -26t104 26.5t54 63.5q7 38 -31 63t-94 25q-57 0 -104 -24.5t-54 -63.5z" />
<glyph unicode="&#xc6;" horiz-adv-x="2203" d="M-225 0l37 207h174l915 1038h-262l37 211h1628l-90 -508h-178l24 144q12 67 -19 110t-118 43h-534l-70 -389h514l-35 -194h-514l-80 -455h535q167 0 194 162l25 135h178l-88 -504h-1366l35 207h221l43 242h-518l-201 -242h207l-35 -207h-659zM614 627h398l112 628 q-20 -26 -95 -121.5t-111 -141t-97.5 -121.5t-111 -134.5t-95.5 -109.5z" />
<glyph unicode="&#xc7;" horiz-adv-x="1548" d="M143 715q27 151 90 280t146.5 219t183.5 154t201.5 94.5t198.5 30.5q171 0 275 -73t124 -208h16l39 263h232l-90 -517h-250q20 149 -75.5 234.5t-256.5 85.5q-66 0 -133.5 -21t-132.5 -64t-118.5 -104t-93.5 -147t-57 -186q-44 -249 78 -397t340 -148q125 0 243 61 t202 172l149 -157q-101 -148 -269 -235.5t-364 -88.5l-98 -76q40 7 59 7q96 0 143 -46.5t36 -109.5q-13 -73 -88.5 -127.5t-194.5 -54.5q-95 0 -189 55l70 76q51 -33 103 -33q53 0 86 24t40 56q5 32 -19.5 56t-72.5 24q-57 0 -127 -33l-26 47l159 141q-214 20 -353 119.5 t-190.5 260t-15.5 366.5z" />
<glyph unicode="&#xc8;" horiz-adv-x="1517" d="M-16 0l34 207h222l184 1038h-221l37 211h1372l-90 -508h-179l25 144q12 68 -18.5 110.5t-118.5 42.5h-535l-69 -389h460l-34 -194h-461l-80 -455h535q167 0 194 162l25 135h178l-88 -504h-1372zM657 1790h314l252 -250h-121z" />
<glyph unicode="&#xc9;" horiz-adv-x="1517" d="M-16 0l34 207h222l184 1038h-221l37 211h1372l-90 -508h-179l25 144q12 68 -18.5 110.5t-118.5 42.5h-535l-69 -389h460l-34 -194h-461l-80 -455h535q167 0 194 162l25 135h178l-88 -504h-1372zM791 1540l342 252h313l-535 -252h-120z" />
<glyph unicode="&#xca;" horiz-adv-x="1517" d="M-16 0l34 207h222l184 1038h-221l37 211h1372l-90 -508h-179l25 144q12 68 -18.5 110.5t-118.5 42.5h-535l-69 -389h460l-34 -194h-461l-80 -455h535q167 0 194 162l25 135h178l-88 -504h-1372zM635 1538l321 252h168l230 -252h-144l-206 131l-252 -131h-117z" />
<glyph unicode="&#xcb;" horiz-adv-x="1517" d="M-16 0l34 207h222l184 1038h-221l37 211h1372l-90 -508h-179l25 144q12 68 -18.5 110.5t-118.5 42.5h-535l-69 -389h460l-34 -194h-461l-80 -455h535q167 0 194 162l25 135h178l-88 -504h-1372zM674 1665q7 49 50.5 84t96.5 35q52 0 83.5 -34.5t23.5 -84.5 q-9 -48 -52.5 -82.5t-95.5 -34.5t-83.5 35t-22.5 82zM1126 1665q7 49 51 84t97 35q51 0 81.5 -34.5t22.5 -84.5q-9 -48 -51.5 -82.5t-93.5 -34.5q-52 0 -84 35t-23 82z" />
<glyph unicode="&#xcc;" horiz-adv-x="849" d="M-16 0l34 207h224l184 1040h-223l37 209h718l-36 -209h-224l-184 -1040h223l-35 -207h-718zM246 1790h313l252 -250h-121z" />
<glyph unicode="&#xcd;" horiz-adv-x="849" d="M-16 0l34 207h224l184 1040h-223l37 209h718l-36 -209h-224l-184 -1040h223l-35 -207h-718zM436 1540l342 252h314l-535 -252h-121z" />
<glyph unicode="&#xce;" horiz-adv-x="849" d="M-16 0l34 207h224l184 1040h-223l37 209h718l-36 -209h-224l-184 -1040h223l-35 -207h-718zM256 1538l322 252h167l230 -252h-144l-206 131l-252 -131h-117z" />
<glyph unicode="&#xcf;" horiz-adv-x="849" d="M-16 0l34 207h224l184 1040h-223l37 209h718l-36 -209h-224l-184 -1040h223l-35 -207h-718zM285 1665q7 49 50.5 84t96.5 35q52 0 83.5 -34.5t23.5 -84.5q-9 -48 -52.5 -82.5t-95.5 -34.5t-83.5 35t-22.5 82zM737 1665q7 49 51 84t97 35q51 0 81.5 -34.5t22.5 -84.5 q-9 -48 -51.5 -82.5t-93.5 -34.5q-52 0 -84 35t-23 82z" />
<glyph unicode="&#xd0;" horiz-adv-x="1662" d="M-10 0l35 207h221l78 440h-205l31 170h204l76 430h-221l37 209h700q379 0 565 -192.5t125 -536.5q-63 -354 -307.5 -540.5t-638.5 -186.5h-700zM518 207h211q120 0 214.5 26t173.5 85t132.5 161t79.5 246q31 174 -12.5 292.5t-145 174t-253.5 55.5h-216l-75 -430h348 l-31 -170h-348z" />
<glyph unicode="&#xd1;" horiz-adv-x="1732" d="M-16 0l34 207h224l184 1040h-223l37 209h637q196 -510 272 -729t100 -350q16 151 62 407l82 463h-199l37 209h618l-37 -209h-204l-224 -1261h-225l-411 1013q-56 129 -95 265q-8 -86 -45 -308l-133 -749h201l-35 -207h-657zM754 1559q35 113 102 175t148 62 q51 0 92.5 -18t64.5 -39.5t54.5 -39.5t64.5 -18q77 0 117 113l86 -14q-36 -117 -102 -178.5t-150 -61.5q-41 0 -79.5 18t-63 39.5t-59 39.5t-68.5 18q-82 0 -117 -109z" />
<glyph unicode="&#xd2;" d="M145 727q38 215 167 390t323 275.5t412 100.5q223 0 381 -99.5t224 -274t27 -392.5q-39 -217 -168 -391.5t-321.5 -272.5t-411.5 -98q-165 0 -297.5 57.5t-216 158t-116 242t-3.5 304.5zM471 727q-52 -291 32 -425t310 -134q162 0 265 51.5t170 173.5t104 334 q52 293 -26.5 423t-315.5 130q-119 0 -204 -27t-151.5 -90.5t-110.5 -170t-73 -265.5zM741 1790h314l252 -250h-121z" />
<glyph unicode="&#xd3;" d="M145 727q38 215 167 390t323 275.5t412 100.5q223 0 381 -99.5t224 -274t27 -392.5q-39 -217 -168 -391.5t-321.5 -272.5t-411.5 -98q-165 0 -297.5 57.5t-216 158t-116 242t-3.5 304.5zM471 727q-52 -291 32 -425t310 -134q162 0 265 51.5t170 173.5t104 334 q52 293 -26.5 423t-315.5 130q-119 0 -204 -27t-151.5 -90.5t-110.5 -170t-73 -265.5zM799 1540l342 252h313l-534 -252h-121z" />
<glyph unicode="&#xd4;" d="M145 727q38 215 167 390t323 275.5t412 100.5q223 0 381 -99.5t224 -274t27 -392.5q-39 -217 -168 -391.5t-321.5 -272.5t-411.5 -98q-165 0 -297.5 57.5t-216 158t-116 242t-3.5 304.5zM471 727q-52 -291 32 -425t310 -134q162 0 265 51.5t170 173.5t104 334 q52 293 -26.5 423t-315.5 130q-119 0 -204 -27t-151.5 -90.5t-110.5 -170t-73 -265.5zM705 1538l321 252h168l229 -252h-143l-207 131l-252 -131h-116z" />
<glyph unicode="&#xd5;" d="M145 727q38 215 167 390t323 275.5t412 100.5q223 0 381 -99.5t224 -274t27 -392.5q-39 -217 -168 -391.5t-321.5 -272.5t-411.5 -98q-165 0 -297.5 57.5t-216 158t-116 242t-3.5 304.5zM471 727q-52 -291 32 -425t310 -134q162 0 265 51.5t170 173.5t104 334 q52 293 -26.5 423t-315.5 130q-119 0 -204 -27t-151.5 -90.5t-110.5 -170t-73 -265.5zM729 1559q35 113 102 175t148 62q51 0 92.5 -18t64.5 -39.5t54.5 -39.5t64.5 -18q77 0 117 113l86 -14q-36 -117 -102 -178.5t-150 -61.5q-41 0 -79.5 18t-63 39.5t-59 39.5t-68.5 18 q-82 0 -117 -109z" />
<glyph unicode="&#xd6;" d="M145 727q38 215 167 390t323 275.5t412 100.5q223 0 381 -99.5t224 -274t27 -392.5q-39 -217 -168 -391.5t-321.5 -272.5t-411.5 -98q-165 0 -297.5 57.5t-216 158t-116 242t-3.5 304.5zM471 727q-52 -291 32 -425t310 -134q162 0 265 51.5t170 173.5t104 334 q52 293 -26.5 423t-315.5 130q-119 0 -204 -27t-151.5 -90.5t-110.5 -170t-73 -265.5zM729 1665q7 49 51 84t97 35q52 0 83 -34.5t23 -84.5q-9 -48 -52 -82.5t-95 -34.5t-84 35t-23 82zM1182 1665q7 49 50.5 84t96.5 35q51 0 81.5 -35t23.5 -84q-9 -47 -52 -82t-94 -35 q-52 0 -83.5 35t-22.5 82z" />
<glyph unicode="&#xd7;" horiz-adv-x="1185" d="M123 256l373 317l-263 318l144 121l260 -318l371 316l100 -121l-371 -316l260 -315l-143 -119l-258 316l-375 -318z" />
<glyph unicode="&#xd8;" horiz-adv-x="1742" d="M106 -12l175 180q-92 101 -126.5 245t-4.5 314q39 218 167.5 393t321 274t412.5 99q230 0 395 -109l80 84h178l-160 -168q96 -104 132.5 -251t6.5 -322q-39 -217 -168 -391.5t-321.5 -272.5t-411.5 -98q-239 0 -401 113l-88 -90h-187zM475 727q-41 -224 4 -352l799 833 q-84 72 -264 72q-119 0 -204 -27t-151.5 -90.5t-110.5 -170t-73 -265.5zM547 252q90 -84 270 -84q162 0 265 51.5t170 173.5t104 334q44 241 -4 369z" />
<glyph unicode="&#xd9;" d="M186 1247l37 209h711l-37 -209h-227l-131 -743q-13 -73 6 -132t61.5 -95.5t100.5 -56t124 -19.5q92 0 175.5 33t146.5 103.5t80 166.5l131 743h-223l37 209h684l-37 -209h-213l-133 -758q-23 -126 -93.5 -228t-168.5 -165t-211 -96t-228 -33t-216 33t-177 96t-110 165 t-11 228l133 758h-211zM723 1790h313l252 -250h-121z" />
<glyph unicode="&#xda;" d="M186 1247l37 209h711l-37 -209h-227l-131 -743q-13 -73 6 -132t61.5 -95.5t100.5 -56t124 -19.5q92 0 175.5 33t146.5 103.5t80 166.5l131 743h-223l37 209h684l-37 -209h-213l-133 -758q-23 -126 -93.5 -228t-168.5 -165t-211 -96t-228 -33t-216 33t-177 96t-110 165 t-11 228l133 758h-211zM872 1540l342 252h314l-535 -252h-121z" />
<glyph unicode="&#xdb;" d="M186 1247l37 209h711l-37 -209h-227l-131 -743q-13 -73 6 -132t61.5 -95.5t100.5 -56t124 -19.5q92 0 175.5 33t146.5 103.5t80 166.5l131 743h-223l37 209h684l-37 -209h-213l-133 -758q-23 -126 -93.5 -228t-168.5 -165t-211 -96t-228 -33t-216 33t-177 96t-110 165 t-11 228l133 758h-211zM702 1538l322 252h168l229 -252h-143l-207 131l-252 -131h-117z" />
<glyph unicode="&#xdc;" d="M186 1247l37 209h711l-37 -209h-227l-131 -743q-13 -73 6 -132t61.5 -95.5t100.5 -56t124 -19.5q92 0 175.5 33t146.5 103.5t80 166.5l131 743h-223l37 209h684l-37 -209h-213l-133 -758q-23 -126 -93.5 -228t-168.5 -165t-211 -96t-228 -33t-216 33t-177 96t-110 165 t-11 228l133 758h-211zM739 1665q7 49 51 84t97 35q52 0 83 -34.5t23 -84.5q-9 -48 -52 -82.5t-95 -34.5t-84 35t-23 82zM1192 1665q7 49 50.5 84t96.5 35q51 0 81.5 -35t23.5 -84q-9 -47 -52 -82t-94 -35q-52 0 -83.5 35t-22.5 82z" />
<glyph unicode="&#xdd;" horiz-adv-x="1566" d="M109 1249l36 207h721l-37 -207h-200l227 -542l418 542h-193l37 207h651l-36 -207h-189l-612 -721l-58 -321h224l-35 -207h-719l35 207h223l51 282l-358 760h-186zM811 1540l342 252h313l-534 -252h-121z" />
<glyph unicode="&#xde;" horiz-adv-x="1482" d="M-14 0l34 207h222l184 1038h-221l37 211h702l-35 -201h-209l-16 -88h352q249 0 381.5 -114t98.5 -305q-33 -181 -203.5 -300.5t-448.5 -119.5h-327l-23 -123h229l-34 -205h-723zM569 514h322q129 0 209 64.5t96 158.5q18 100 -38.5 164t-188.5 64h-320z" />
<glyph unicode="&#xdf;" horiz-adv-x="1277" d="M2 0l35 207h184l109 616h-254l18 101h96q93 0 148.5 49.5t69.5 132.5q33 184 164 284.5t309 100.5q161 0 249.5 -82.5t63.5 -216.5q-10 -55 -38 -100.5t-62 -76t-67 -58t-59 -59.5t-32 -67q-7 -37 7.5 -69.5t41.5 -55.5t61 -50.5t66.5 -55.5t57.5 -69t34.5 -92.5 t-2.5 -125.5q-26 -151 -161 -241t-318 -90q-91 0 -176 30l63 174q57 -32 121 -32q73 0 126 43t65 114q7 38 -3 69.5t-31.5 54t-48.5 44.5t-53.5 46t-47 51.5t-29.5 69t0 91.5q10 57 40.5 104t68.5 80.5t75.5 66t67.5 79t40 102.5q14 80 -34 125t-123 45q-82 0 -149 -49 t-83 -139q-8 -45 -12.5 -126t-17.5 -161l-152 -864h-428z" />
<glyph unicode="&#xe0;" horiz-adv-x="1449" d="M76 518q41 232 213 392.5t375 160.5q165 0 252.5 -71t109.5 -189h12q18 190 23 221h237l-151 -825h201l-35 -207h-418q0 3 1 9.5t1 10.5q27 145 64 244h-13q-73 -133 -195 -214t-300 -81q-131 0 -226.5 70t-136.5 196.5t-14 282.5zM350 530q-30 -169 32.5 -273.5 t197.5 -104.5q140 0 247 104.5t136 273.5q31 169 -34.5 266t-205.5 97q-139 0 -241.5 -99t-131.5 -264zM543 1456h278l205 -315h-108z" />
<glyph unicode="&#xe1;" horiz-adv-x="1449" d="M76 518q41 232 213 392.5t375 160.5q165 0 252.5 -71t109.5 -189h12q18 190 23 221h237l-151 -825h201l-35 -207h-418q0 3 1 9.5t1 10.5q27 145 64 244h-13q-73 -133 -195 -214t-300 -81q-131 0 -226.5 70t-136.5 196.5t-14 282.5zM350 530q-30 -169 32.5 -273.5 t197.5 -104.5q140 0 247 104.5t136 273.5q31 169 -34.5 266t-205.5 97q-139 0 -241.5 -99t-131.5 -264zM625 1141l317 315h266l-485 -315h-98z" />
<glyph unicode="&#xe2;" horiz-adv-x="1449" d="M76 518q41 232 213 392.5t375 160.5q165 0 252.5 -71t109.5 -189h12q18 190 23 221h237l-151 -825h201l-35 -207h-418q0 3 1 9.5t1 10.5q27 145 64 244h-13q-73 -133 -195 -214t-300 -81q-131 0 -226.5 70t-136.5 196.5t-14 282.5zM350 530q-30 -169 32.5 -273.5 t197.5 -104.5q140 0 247 104.5t136 273.5q31 169 -34.5 266t-205.5 97q-139 0 -241.5 -99t-131.5 -264zM481 1141l299 315h152l186 -315h-127l-174 168l-231 -168h-105z" />
<glyph unicode="&#xe3;" horiz-adv-x="1449" d="M76 518q41 232 213 392.5t375 160.5q165 0 252.5 -71t109.5 -189h12q18 190 23 221h237l-151 -825h201l-35 -207h-418q0 3 1 9.5t1 10.5q27 145 64 244h-13q-73 -133 -195 -214t-300 -81q-131 0 -226.5 70t-136.5 196.5t-14 282.5zM350 530q-30 -169 32.5 -273.5 t197.5 -104.5q140 0 247 104.5t136 273.5q31 169 -34.5 266t-205.5 97q-139 0 -241.5 -99t-131.5 -264zM522 1208q32 124 96 192t146 68q38 0 68 -13t50 -31t38 -36.5t40.5 -31.5t49.5 -13q38 0 66.5 29.5t43.5 85.5l70 -12q-32 -123 -95 -191.5t-139 -68.5q-38 0 -73 19.5 t-57.5 43t-55.5 43t-68 19.5q-79 0 -114 -115z" />
<glyph unicode="&#xe4;" horiz-adv-x="1449" d="M76 518q41 232 213 392.5t375 160.5q165 0 252.5 -71t109.5 -189h12q18 190 23 221h237l-151 -825h201l-35 -207h-418q0 3 1 9.5t1 10.5q27 145 64 244h-13q-73 -133 -195 -214t-300 -81q-131 0 -226.5 70t-136.5 196.5t-14 282.5zM350 530q-30 -169 32.5 -273.5 t197.5 -104.5q140 0 247 104.5t136 273.5q31 169 -34.5 266t-205.5 97q-139 0 -241.5 -99t-131.5 -264zM498 1305q9 53 53 91t98 38t85 -38t22 -91q-9 -54 -53.5 -92.5t-98.5 -38.5t-84.5 38.5t-21.5 92.5zM952 1305q9 53 53.5 91t98.5 38t84.5 -38t21.5 -91 q-9 -54 -53 -92.5t-98 -38.5t-85 38.5t-22 92.5z" />
<glyph unicode="&#xe5;" horiz-adv-x="1449" d="M76 518q41 232 213 392.5t375 160.5q165 0 252.5 -71t109.5 -189h12q18 190 23 221h237l-151 -825h201l-35 -207h-418q0 3 1 9.5t1 10.5q27 145 64 244h-13q-73 -133 -195 -214t-300 -81q-131 0 -226.5 70t-136.5 196.5t-14 282.5zM350 530q-30 -169 32.5 -273.5 t197.5 -104.5q140 0 247 104.5t136 273.5q31 169 -34.5 266t-205.5 97q-139 0 -241.5 -99t-131.5 -264zM563 1305q17 95 95.5 156t175.5 61q98 0 154.5 -61t39.5 -156q-17 -92 -92 -143.5t-176 -51.5q-100 0 -157 51.5t-40 143.5zM680 1305q-9 -46 19 -74.5t77 -28.5 t87.5 28.5t47.5 74.5q7 46 -21 74t-77 28t-87.5 -28t-45.5 -74z" />
<glyph unicode="&#xe6;" horiz-adv-x="1851" d="M43 262q26 143 174 241.5t367 98.5q110 0 204 -22q19 65 25 98q49 285 -211 285q-63 0 -122 -20.5t-93 -53.5q55 -5 82.5 -35t17.5 -88q-10 -61 -60 -97t-114 -36q-62 0 -98 40.5t-25 112.5q22 114 151 198.5t318 84.5q288 0 353 -164q73 74 184 120t213 46 q238 0 341 -141.5t60 -392.5l-12 -56h-772q-14 -164 69.5 -250t229.5 -86q209 0 317 174l78 -49q-199 -305 -516 -305q-183 0 -287 104.5t-120 268.5q-50 -123 -134 -210t-172.5 -125t-177.5 -38q-138 0 -216.5 78.5t-53.5 218.5zM307 322q-11 -72 35 -114t121 -42 q43 0 84.5 16.5t84.5 53t79 104.5t59 160q-74 18 -139 18q-136 0 -222 -55.5t-102 -140.5zM1051 604h553q24 132 -34.5 211.5t-187.5 79.5q-118 0 -211 -80t-120 -211z" />
<glyph unicode="&#xe7;" horiz-adv-x="1075" d="M68 361.5q-4 73.5 8 152.5q27 156 120 283.5t233 201.5t298 74q169 0 266 -69.5t76 -190.5q-15 -82 -80.5 -138.5t-144.5 -56.5q-82 0 -126.5 44.5t-31.5 125.5q9 48 40.5 88.5t70.5 53.5q-40 18 -107 18q-96 0 -182 -57t-139 -143.5t-70 -182.5q-27 -157 45.5 -260.5 t233.5 -103.5q87 0 167 39.5t140 115.5l121 -170q-86 -101 -199 -157t-242 -62l-102 -80q40 7 59 7q96 0 142.5 -46.5t35.5 -109.5q-13 -73 -88 -127.5t-194 -54.5q-95 0 -189 55l70 76q51 -33 102 -33q53 0 86.5 24t40.5 56q5 32 -19.5 56t-72.5 24q-57 0 -127 -33l-26 47 l161 143q-86 11 -156 46t-114.5 86.5t-73 118t-32.5 140z" />
<glyph unicode="&#xe8;" horiz-adv-x="1179" d="M76 520q21 120 84.5 224.5t152 175.5t195.5 112t215 41q252 0 355.5 -156.5t45.5 -433.5h-780q-13 -165 69.5 -251.5t229.5 -86.5q212 0 320 177l77 -50q-201 -307 -516 -307q-154 0 -266.5 74t-160 201t-21.5 280zM371 608h553q22 133 -36 211t-186 78q-120 0 -212 -79 t-119 -210zM465 1456h278l205 -315h-108z" />
<glyph unicode="&#xe9;" horiz-adv-x="1179" d="M76 520q21 120 84.5 224.5t152 175.5t195.5 112t215 41q252 0 355.5 -156.5t45.5 -433.5h-780q-13 -165 69.5 -251.5t229.5 -86.5q212 0 320 177l77 -50q-201 -307 -516 -307q-154 0 -266.5 74t-160 201t-21.5 280zM371 608h553q22 133 -36 211t-186 78q-120 0 -212 -79 t-119 -210zM541 1141l317 315h266l-485 -315h-98z" />
<glyph unicode="&#xea;" horiz-adv-x="1179" d="M76 520q21 120 84.5 224.5t152 175.5t195.5 112t215 41q252 0 355.5 -156.5t45.5 -433.5h-780q-13 -165 69.5 -251.5t229.5 -86.5q212 0 320 177l77 -50q-201 -307 -516 -307q-154 0 -266.5 74t-160 201t-21.5 280zM371 608h553q22 133 -36 211t-186 78q-120 0 -212 -79 t-119 -210zM420 1141l299 315h151l187 -315h-127l-174 168l-232 -168h-104z" />
<glyph unicode="&#xeb;" horiz-adv-x="1179" d="M76 520q21 120 84.5 224.5t152 175.5t195.5 112t215 41q252 0 355.5 -156.5t45.5 -433.5h-780q-13 -165 69.5 -251.5t229.5 -86.5q212 0 320 177l77 -50q-201 -307 -516 -307q-154 0 -266.5 74t-160 201t-21.5 280zM371 608h553q22 133 -36 211t-186 78q-120 0 -212 -79 t-119 -210zM408 1305q9 53 53 91t98 38t85 -38t22 -91q-9 -54 -53.5 -92.5t-98.5 -38.5t-84.5 38.5t-21.5 92.5zM862 1305q9 53 53.5 91t98.5 38t84.5 -38t21.5 -91q-9 -54 -53 -92.5t-98 -38.5t-85 38.5t-22 92.5z" />
<glyph unicode="&#xec;" horiz-adv-x="700" d="M-35 0l35 207h201l108 616h-198l36 209h443l-146 -825h160l-35 -207h-604zM152 1456h278l205 -315h-109z" />
<glyph unicode="&#xed;" horiz-adv-x="700" d="M-35 0l35 207h201l108 616h-198l36 209h443l-146 -825h160l-35 -207h-604zM279 1141l317 315h266l-485 -315h-98z" />
<glyph unicode="&#xee;" horiz-adv-x="700" d="M-35 0l35 207h201l108 616h-198l36 209h443l-146 -825h160l-35 -207h-604zM131 1141l299 315h152l186 -315h-127l-174 168l-231 -168h-105z" />
<glyph unicode="&#xef;" horiz-adv-x="700" d="M-35 0l35 207h201l108 616h-198l36 209h443l-146 -825h160l-35 -207h-604zM137 1305q9 53 53.5 91t98.5 38t84.5 -38t21.5 -91q-9 -54 -53 -92.5t-98 -38.5t-85 38.5t-22 92.5zM592 1305q9 53 53 91t98 38t85 -38t22 -91q-9 -54 -53.5 -92.5t-98.5 -38.5t-84.5 38.5 t-21.5 92.5z" />
<glyph unicode="&#xf0;" horiz-adv-x="1271" d="M86 481q15 88 54.5 164t93.5 129.5t120 92t136.5 57t142.5 18.5q117 0 200.5 -49.5t110.5 -140.5q49 274 -26 424q-47 -20 -139.5 -60t-139.5 -59q-16 49 -39 110l240 105q-83 65 -228 65q-64 0 -149 -16q4 56 16 160q89 12 172 12q269 0 410 -127q110 46 250 109 l41 -113l-209 -88q140 -204 74 -582q-59 -331 -246.5 -529t-452.5 -198q-231 0 -352 143.5t-80 372.5zM373 469q-34 -193 2.5 -276.5t171.5 -83.5q280 0 348 387q27 152 -33.5 239.5t-173.5 87.5q-127 0 -205 -85.5t-110 -268.5z" />
<glyph unicode="&#xf1;" horiz-adv-x="1376" d="M-35 0l35 207h201l108 616h-200l36 209h390q-22 -148 -91 -375h21q44 133 127 229t179.5 141.5t199.5 45.5q147 0 219.5 -87.5t42.5 -254.5l-92 -524h149l-35 -207h-577l35 207h184l68 385q25 140 -15 198t-133 58q-108 0 -196.5 -69.5t-110.5 -190.5l-68 -381h160 l-35 -207h-602zM516 1208q32 124 96 192t146 68q38 0 68 -13t50 -31t38 -36.5t40.5 -31.5t49.5 -13q38 0 66.5 29.5t43.5 85.5l70 -12q-32 -123 -95 -191.5t-139 -68.5q-38 0 -73 19.5t-57.5 43t-55.5 43t-68 19.5q-79 0 -114 -115z" />
<glyph unicode="&#xf2;" horiz-adv-x="1271" d="M76 520q43 238 233 395.5t432 157.5q163 0 280 -71.5t167 -197.5t22 -284q-27 -155 -122.5 -282t-238.5 -200t-302 -73q-160 0 -278 73t-169 200t-24 282zM347.5 283q8.5 -87 61 -124.5t164.5 -37.5q88 0 142.5 16t93.5 63t61.5 118t44.5 194q26 139 20.5 226.5 t-57.5 127t-167 39.5q-162 0 -233 -81.5t-111 -311.5q-28 -142 -19.5 -229zM494 1456h278l205 -315h-109z" />
<glyph unicode="&#xf3;" horiz-adv-x="1271" d="M76 520q43 238 233 395.5t432 157.5q163 0 280 -71.5t167 -197.5t22 -284q-27 -155 -122.5 -282t-238.5 -200t-302 -73q-160 0 -278 73t-169 200t-24 282zM347.5 283q8.5 -87 61 -124.5t164.5 -37.5q88 0 142.5 16t93.5 63t61.5 118t44.5 194q26 139 20.5 226.5 t-57.5 127t-167 39.5q-162 0 -233 -81.5t-111 -311.5q-28 -142 -19.5 -229zM573 1141l318 315h266l-485 -315h-99z" />
<glyph unicode="&#xf4;" horiz-adv-x="1271" d="M76 520q43 238 233 395.5t432 157.5q163 0 280 -71.5t167 -197.5t22 -284q-27 -155 -122.5 -282t-238.5 -200t-302 -73q-160 0 -278 73t-169 200t-24 282zM347.5 283q8.5 -87 61 -124.5t164.5 -37.5q88 0 142.5 16t93.5 63t61.5 118t44.5 194q26 139 20.5 226.5 t-57.5 127t-167 39.5q-162 0 -233 -81.5t-111 -311.5q-28 -142 -19.5 -229zM446 1141l299 315h152l186 -315h-127l-174 168l-231 -168h-105z" />
<glyph unicode="&#xf5;" horiz-adv-x="1271" d="M76 520q43 238 233 395.5t432 157.5q163 0 280 -71.5t167 -197.5t22 -284q-27 -155 -122.5 -282t-238.5 -200t-302 -73q-160 0 -278 73t-169 200t-24 282zM347.5 283q8.5 -87 61 -124.5t164.5 -37.5q88 0 142.5 16t93.5 63t61.5 118t44.5 194q26 139 20.5 226.5 t-57.5 127t-167 39.5q-162 0 -233 -81.5t-111 -311.5q-28 -142 -19.5 -229zM455 1208q32 124 95.5 192t145.5 68q38 0 68 -13t50 -31t38 -36.5t40.5 -31.5t49.5 -13q38 0 67 30t44 85l69 -12q-32 -123 -94.5 -191.5t-138.5 -68.5q-38 0 -73 19.5t-57.5 43t-55.5 43t-68 19.5 q-80 0 -115 -115z" />
<glyph unicode="&#xf6;" horiz-adv-x="1271" d="M76 520q43 238 233 395.5t432 157.5q163 0 280 -71.5t167 -197.5t22 -284q-27 -155 -122.5 -282t-238.5 -200t-302 -73q-160 0 -278 73t-169 200t-24 282zM347.5 283q8.5 -87 61 -124.5t164.5 -37.5q88 0 142.5 16t93.5 63t61.5 118t44.5 194q26 139 20.5 226.5 t-57.5 127t-167 39.5q-162 0 -233 -81.5t-111 -311.5q-28 -142 -19.5 -229zM428 1305q9 53 53.5 91t98.5 38t84.5 -38t21.5 -91q-9 -54 -53 -92.5t-98 -38.5t-85 38.5t-22 92.5zM883 1305q9 53 53 91t98 38t85 -38t22 -91q-9 -54 -53.5 -92.5t-98.5 -38.5t-84.5 38.5 t-21.5 92.5z" />
<glyph unicode="&#xf7;" horiz-adv-x="1185" d="M66 487l30 170h1065l-31 -170h-1064zM395 205q11 62 62 105.5t114 43.5t99.5 -43.5t25.5 -105.5q-10 -63 -62.5 -107.5t-115.5 -44.5t-98.5 44.5t-24.5 107.5zM528 944q11 62 63.5 106t115.5 44q62 0 97.5 -44t24.5 -106q-11 -63 -62 -107t-114 -44t-99.5 44t-25.5 107z " />
<glyph unicode="&#xf8;" horiz-adv-x="1267" d="M25 -25l147 146q-137 153 -96 399q43 239 232.5 396t432.5 157q180 0 306 -90l67 68h137l-135 -133q136 -155 92 -398q-27 -155 -122.5 -282t-238 -200t-300.5 -73q-181 0 -301 88l-78 -78h-143zM344 295l559 543q-52 67 -194 67q-161 0 -232.5 -82t-111.5 -311 q-24 -132 -21 -217zM379 188q50 -67 192 -67q88 0 142.5 16t93.5 63t61.5 118t44.5 194q25 161 23 221z" />
<glyph unicode="&#xf9;" horiz-adv-x="1378" d="M102 823l37 209h424l-108 -616q-42 -232 153 -232q111 0 198 71.5t112 211.5l61 356h-234l37 209h478l-146 -825h170l-35 -207h-358q34 191 92 367h-20q-35 -100 -94.5 -178t-128.5 -125t-140.5 -71t-140.5 -24q-148 0 -222 87t-44 255l90 512h-181zM473 1456h279 l204 -315h-108z" />
<glyph unicode="&#xfa;" horiz-adv-x="1378" d="M102 823l37 209h424l-108 -616q-42 -232 153 -232q111 0 198 71.5t112 211.5l61 356h-234l37 209h478l-146 -825h170l-35 -207h-358q34 191 92 367h-20q-35 -100 -94.5 -178t-128.5 -125t-140.5 -71t-140.5 -24q-148 0 -222 87t-44 255l90 512h-181zM643 1141l318 315 h266l-486 -315h-98z" />
<glyph unicode="&#xfb;" horiz-adv-x="1378" d="M102 823l37 209h424l-108 -616q-42 -232 153 -232q111 0 198 71.5t112 211.5l61 356h-234l37 209h478l-146 -825h170l-35 -207h-358q34 191 92 367h-20q-35 -100 -94.5 -178t-128.5 -125t-140.5 -71t-140.5 -24q-148 0 -222 87t-44 255l90 512h-181zM469 1141l299 315 h152l186 -315h-127l-174 168l-232 -168h-104z" />
<glyph unicode="&#xfc;" horiz-adv-x="1378" d="M102 823l37 209h424l-108 -616q-42 -232 153 -232q111 0 198 71.5t112 211.5l61 356h-234l37 209h478l-146 -825h170l-35 -207h-358q34 191 92 367h-20q-35 -100 -94.5 -178t-128.5 -125t-140.5 -71t-140.5 -24q-148 0 -222 87t-44 255l90 512h-181zM461 1305q9 53 53 91 t98 38t85 -38t22 -91q-9 -54 -53.5 -92.5t-98.5 -38.5t-84.5 38.5t-21.5 92.5zM915 1305q9 53 53.5 91t98.5 38t85 -38t22 -91q-9 -54 -53.5 -92.5t-98.5 -38.5t-85 38.5t-22 92.5z" />
<glyph unicode="&#xfd;" horiz-adv-x="1153" d="M-164 -166q15 83 69 134.5t126 51.5q66 0 103 -44.5t26 -110.5q-12 -71 -74.5 -114.5t-126.5 -31.5q21 -29 48.5 -43t76.5 -14q99 0 170.5 72.5t161.5 275.5l-264 815h-119l35 207h559l-35 -207h-158q87 -301 150 -573q212 374 336 573h-158l35 207h491l-35 -207h-127 l-614 -936q-107 -163 -209 -239t-225 -76t-193 69.5t-49 190.5zM586 1141l317 315h266l-485 -315h-98z" />
<glyph unicode="&#xfe;" horiz-adv-x="1439" d="M-109 -401l37 206h197l254 1440h-201l37 211h447q-40 -214 -85 -412.5t-73 -269.5q17 17 35 29q69 120 184.5 194t275.5 74q200 0 310.5 -156.5t68.5 -398.5q-27 -152 -116 -279.5t-215.5 -200.5t-260.5 -73q-154 0 -237 63.5t-109 168.5q-22 19 -30 34 q-10 -171 -54 -424h197l-37 -206h-625zM492 506q-31 -174 38 -279.5t211 -105.5q134 0 232 106.5t129 278.5q29 163 -39 262.5t-205 99.5q-140 0 -237.5 -96t-128.5 -266z" />
<glyph unicode="&#xff;" horiz-adv-x="1153" d="M-164 -166q15 83 69 134.5t126 51.5q66 0 103 -44.5t26 -110.5q-12 -71 -74.5 -114.5t-126.5 -31.5q21 -29 48.5 -43t76.5 -14q99 0 170.5 72.5t161.5 275.5l-264 815h-119l35 207h559l-35 -207h-158q87 -301 150 -573q212 374 336 573h-158l35 207h491l-35 -207h-127 l-614 -936q-107 -163 -209 -239t-225 -76t-193 69.5t-49 190.5zM385 1305q9 53 53.5 91t98.5 38t84.5 -38t21.5 -91q-9 -54 -53 -92.5t-98 -38.5t-85 38.5t-22 92.5zM840 1305q9 53 53 91t98 38t85 -38t22 -91q-9 -54 -53.5 -92.5t-98.5 -38.5t-84.5 38.5t-21.5 92.5z" />
<glyph unicode="&#x152;" horiz-adv-x="2562" d="M150 727q39 217 168 392t321.5 274.5t411.5 99.5q127 0 249 -37h1362l-90 -508h-178l25 144q12 68 -19 110.5t-119 42.5h-698q121 -159 115 -389h456l-34 -194h-451q-65 -275 -276 -455h704q86 0 134 43t61 119l24 135h178l-88 -504h-1376q-119 -35 -248 -35 q-165 0 -297.5 57.5t-215.5 158t-115.5 242t-3.5 304.5zM475 727q-52 -291 32 -425t310 -134q162 0 265 51.5t170 173.5t104 334q52 293 -26.5 423t-315.5 130q-119 0 -204 -27t-151.5 -90.5t-110.5 -170t-73 -265.5z" />
<glyph unicode="&#x153;" horiz-adv-x="1978" d="M74 518q43 240 232.5 396.5t432.5 156.5q126 0 226.5 -47t154.5 -131q83 83 196.5 130.5t227.5 47.5q231 0 341.5 -137.5t68.5 -386.5q-4 -26 -15 -66h-772q-14 -164 69.5 -250t229.5 -86q100 0 182.5 44t135.5 130l78 -49q-199 -305 -516 -305q-115 0 -211.5 47.5 t-149.5 128.5q-87 -83 -202 -129.5t-238 -46.5q-160 0 -278 72.5t-169 199t-24 281.5zM344 281.5q9 -86.5 61.5 -123.5t165.5 -37q88 0 142.5 16t93.5 63t61 117t43 193q27 140 22 227.5t-57 126.5t-167 39q-162 0 -234 -81.5t-113 -311.5q-27 -142 -18 -228.5zM1192 604 h553q24 133 -33.5 212t-187.5 79q-119 0 -211 -80t-121 -211z" />
<glyph unicode="&#x178;" horiz-adv-x="1566" d="M109 1249l36 207h721l-37 -207h-200l227 -542l418 542h-193l37 207h651l-36 -207h-189l-612 -721l-58 -321h224l-35 -207h-719l35 207h223l51 282l-358 760h-186zM666 1665q7 49 50.5 84t96.5 35q52 0 83.5 -34.5t23.5 -84.5q-9 -48 -52.5 -82.5t-95.5 -34.5t-83.5 35 t-22.5 82zM1118 1665q7 49 51 84t97 35q51 0 81.5 -34.5t22.5 -84.5q-9 -48 -51.5 -82.5t-93.5 -34.5q-52 0 -84 35t-23 82z" />
<glyph unicode="&#x2c6;" horiz-adv-x="991" d="M317 1141l299 315h152l186 -315h-127l-174 168l-231 -168h-105z" />
<glyph unicode="&#x2dc;" horiz-adv-x="1052" d="M365 1208q32 124 95.5 192t145.5 68q38 0 68 -13t50 -31t38 -36.5t40.5 -31.5t49.5 -13q38 0 67 30t44 85l69 -12q-32 -123 -94.5 -191.5t-138.5 -68.5q-38 0 -73 19.5t-57.5 43t-55.5 43t-68 19.5q-80 0 -115 -115z" />
<glyph unicode="&#x2000;" horiz-adv-x="921" />
<glyph unicode="&#x2001;" horiz-adv-x="1843" />
<glyph unicode="&#x2002;" horiz-adv-x="921" />
<glyph unicode="&#x2003;" horiz-adv-x="1843" />
<glyph unicode="&#x2004;" horiz-adv-x="614" />
<glyph unicode="&#x2005;" horiz-adv-x="460" />
<glyph unicode="&#x2006;" horiz-adv-x="307" />
<glyph unicode="&#x2007;" horiz-adv-x="307" />
<glyph unicode="&#x2008;" horiz-adv-x="230" />
<glyph unicode="&#x2009;" horiz-adv-x="368" />
<glyph unicode="&#x200a;" horiz-adv-x="102" />
<glyph unicode="&#x2010;" horiz-adv-x="606" d="M57 465l37 211h492l-37 -211h-492z" />
<glyph unicode="&#x2011;" horiz-adv-x="606" d="M57 465l37 211h492l-37 -211h-492z" />
<glyph unicode="&#x2012;" horiz-adv-x="606" d="M57 465l37 211h492l-37 -211h-492z" />
<glyph unicode="&#x2013;" horiz-adv-x="1185" d="M66 481l32 183h1065l-33 -183h-1064z" />
<glyph unicode="&#x2014;" horiz-adv-x="1705" d="M66 481l32 183h1573l-33 -183h-1572z" />
<glyph unicode="&#x2018;" horiz-adv-x="548" d="M221 1186q28 163 123.5 266t247.5 131l2 -102q-102 -17 -166 -85.5t-78 -144.5q-7 -58 0 -73q41 47 111 47q59 0 89 -44.5t19 -111.5q-13 -69 -62.5 -115.5t-123.5 -46.5q-61 0 -103 41t-57 104.5t-2 133.5z" />
<glyph unicode="&#x2019;" horiz-adv-x="573" d="M225 950q102 16 166 84.5t78 145.5q11 57 0 73q-36 -47 -109 -47q-61 0 -90.5 43.5t-17.5 110.5q11 69 61 116.5t125 47.5q61 0 103.5 -41t58 -104.5t2.5 -133.5q-29 -163 -124.5 -262.5t-248.5 -128.5z" />
<glyph unicode="&#x201a;" horiz-adv-x="587" d="M10 -250q102 17 166 86t78 144q10 57 0 73q-41 -47 -109 -47q-60 0 -90.5 44.5t-19.5 111.5q13 69 63.5 116.5t124.5 47.5q92 0 137.5 -85.5t24.5 -195.5q-28 -163 -124 -265.5t-249 -131.5z" />
<glyph unicode="&#x201c;" horiz-adv-x="1026" d="M221 1186q28 162 122 262t247 129l4 -96q-102 -17 -166 -85.5t-78 -144.5q-7 -58 0 -73q41 47 111 47q59 0 89 -44.5t19 -111.5q-13 -69 -62.5 -115.5t-123.5 -46.5q-61 0 -103 41t-57 104.5t-2 133.5zM690 1186q28 162 122 262t247 129l4 -96q-102 -17 -166 -85.5 t-78 -144.5q-8 -61 0 -73q38 47 109 47q60 0 90.5 -44.5t19.5 -111.5q-13 -69 -62.5 -115.5t-123.5 -46.5q-61 0 -103 41t-57 104.5t-2 133.5z" />
<glyph unicode="&#x201d;" horiz-adv-x="1026" d="M225 950q102 16 166 84.5t78 145.5q11 57 0 73q-36 -47 -109 -47q-61 0 -90.5 43.5t-17.5 110.5q11 69 61 116.5t125 47.5q61 0 103.5 -41t58 -104.5t2.5 -133.5q-29 -163 -124.5 -262.5t-248.5 -128.5zM694 950q102 16 166 84.5t78 145.5q11 57 0 73q-36 -47 -109 -47 q-61 0 -90.5 43.5t-17.5 110.5q11 69 61 116.5t125 47.5q61 0 103 -41t57 -104.5t2 -133.5q-29 -164 -123.5 -263t-247.5 -128z" />
<glyph unicode="&#x201e;" horiz-adv-x="1026" d="M10 -250q102 17 166 86t78 144q10 57 0 73q-41 -47 -109 -47q-60 0 -90.5 44.5t-19.5 111.5q13 69 63.5 116.5t124.5 47.5q92 0 137.5 -85.5t24.5 -195.5q-28 -163 -124 -265.5t-249 -131.5zM479 -250q102 17 166 86t78 144q10 57 0 73q-41 -47 -109 -47 q-60 0 -90.5 44.5t-19.5 111.5q13 69 63.5 116.5t124.5 47.5q92 0 136.5 -85.5t23.5 -195.5q-28 -163 -123 -265.5t-248 -131.5z" />
<glyph unicode="&#x2022;" horiz-adv-x="1302" d="M199 709q34 199 200.5 341t366.5 142q131 0 230 -65t144 -176t23 -242q-23 -130 -107 -241t-206.5 -176t-253.5 -65t-230.5 65t-144.5 176t-22 241z" />
<glyph unicode="&#x2026;" horiz-adv-x="2037" d="M100 158q12 71 71.5 121.5t131.5 50.5q71 0 111 -50.5t28 -121.5q-12 -72 -70 -122t-130 -50t-113 50t-29 122zM786 158q12 70 72 121t131 51t112 -50.5t29 -121.5q-12 -72 -71 -122t-131 -50q-71 0 -112.5 50t-29.5 122zM1473 158q12 70 71.5 121t130.5 51 q72 0 113 -50.5t29 -121.5q-12 -72 -71.5 -122t-131.5 -50q-71 0 -112 50t-29 122z" />
<glyph unicode="&#x202f;" horiz-adv-x="368" />
<glyph unicode="&#x2039;" horiz-adv-x="776" d="M90 463l29 160l645 407l-25 -137l-346 -332l230 -336l-31 -168z" />
<glyph unicode="&#x203a;" horiz-adv-x="776" d="M39 57l24 136l349 333l-230 336l29 168l502 -405l-27 -160z" />
<glyph unicode="&#x205f;" horiz-adv-x="460" />
<glyph unicode="&#x20ac;" horiz-adv-x="1341" d="M35 500l57 145h98q0 3 11 70q4 22 35 145h-125l57 146h121q69 160 172.5 272.5t212 163.5t217.5 51q143 0 226 -71t93 -205h17l41 256h178l-82 -463h-197q13 117 -58 191.5t-187 74.5q-101 0 -190.5 -69t-153.5 -201h495l-55 -146h-496q-13 -43 -26 -106 q-10 -64 -13 -109h449l-55 -145h-390q15 -139 90 -215t201 -76q92 0 185 49.5t159 138.5l97 -196q-201 -236 -500 -236q-249 0 -389 143t-146 392h-149z" />
<glyph unicode="&#x2122;" horiz-adv-x="2045" d="M213 1141l55 315h715l-55 -315h-103l15 84q10 55 -10.5 82.5t-84.5 27.5h-61l-74 -422h121l-20 -120h-402l21 120h121l73 422h-61q-64 0 -92.5 -27.5t-38.5 -82.5l-15 -84h-104zM963 793l20 120h121l74 422h-121l22 121h373q3 -21 15.5 -112.5t18.5 -141.5t11.5 -124.5 t3.5 -125.5q25 72 66.5 160t97.5 197.5t74 146.5h344l-23 -121h-121l-73 -422h121l-21 -120h-367l21 120h92l57 320q4 28 15 77.5t14 65.5q-35 -84 -79 -179.5t-104 -220t-87 -183.5h-137q-6 46 -20 143t-22 154t-17.5 138t-14.5 148q-3 -31 -21 -141l-57 -322h92l-20 -120 h-348z" />
<glyph unicode="&#xe000;" horiz-adv-x="1034" d="M0 0v1034h1034v-1034h-1034z" />
</font>
</defs>
</svg>
