<?xml version="1.0" encoding="utf-8"?>
<!-- Generator: Adobe Illustrator 15.0.2, SVG Export Plug-In . SVG Version: 6.00 Build 0)  -->
<!DOCTYPE svg PUBLIC "-//W3C//DTD SVG 1.1//EN" "http://www.w3.org/Graphics/SVG/1.1/DTD/svg11.dtd">
<svg version="1.1" id="Ebene_1" xmlns="http://www.w3.org/2000/svg" xmlns:xlink="http://www.w3.org/1999/xlink" x="0px" y="0px"
	 width="1094px" height="902px" viewBox="0 0 1094 902" enable-background="new 0 0 1094 902" xml:space="preserve">
<g>
	<path d="M1551.711,396.399c-32.479,0-63.045,26.109-68.777,58.587c-5.73,32.477,15.922,58.586,48.398,58.586
		s63.045-26.109,68.775-58.586C1605.84,422.509,1584.188,396.399,1551.711,396.399z"/>
	<path d="M1966.514,327.07c-17.398-50.962-71.324-85.021-148.172-95.498c-20.86-20.726-52.321-30.674-85.777-30.674
		c-40.756,0-84.059,15.284-114.627,43.94c20.379-57.313,42.029-106.984,47.762-140.735c8.279-43.939-19.742-65.592-51.582-65.592
		c-31.203,0-66.229,21.652-73.869,64.318c-7.322,41.187,0.154,104.078-1.913,175.913c-62.47,27.474-116.473,63.841-155.226,105.014
		c-51.393,54.601-70.461,111.717-53.694,160.827c21.147,61.944,96.251,98.925,200.902,98.925c8.302,0,16.72-0.242,25.227-0.709
		c6.002,19.66,23.758,33.16,47.11,33.16c30.281,0,58.89-22.699,67.269-52.09c12.771-3.461,25.541-7.361,38.245-11.698
		c83.316-28.447,155.996-72.581,204.651-124.272C1964.212,433.298,1983.281,376.181,1966.514,327.07z M1887.333,463.91
		c-44.814,47.612-112.46,88.502-190.474,115.138c-9.37,3.199-18.772,6.142-28.176,8.835c-7.093-17.428-23.947-29.097-45.65-29.097
		c-29.17,0-56.784,21.065-66.262,48.885c-8.938,0.553-17.767,0.838-26.454,0.838c-43.994,0-82.907-7.194-112.534-20.805
		c-28.853-13.255-47.44-31.567-55.245-54.429c-12.375-36.246,3.981-80.827,46.058-125.53c32.247-34.26,76.315-65.039,127.561-89.531
		c-1.331,15.827-3.283,31.952-6.098,48.256h54.766c11.463-59.224,49.672-82.786,81.512-82.786c34.387,0,55.402,19.104,49.035,56.04
		c-12.736,72.596-105.074,82.148-117.811,155.382c-2.547,16.557-3.82,28.02-3.82,33.751h64.316
		c14.646-85.333,161.113-80.238,183.402-206.964c3.406-19.25,2.882-36.087-0.746-50.597c13.656,3.271,26.213,7.501,37.434,12.656
		c28.854,13.254,47.439,31.566,55.245,54.427C1945.767,374.626,1929.409,419.207,1887.333,463.91z"/>
</g>
<g>
	<g>
		<path d="M450.728,396.399c-32.479,0-63.045,26.109-68.777,58.587c-5.73,32.477,15.922,58.586,48.398,58.586
			s63.045-26.109,68.775-58.586C504.856,422.509,483.204,396.399,450.728,396.399z"/>
		<path d="M865.531,327.07c-17.399-50.962-71.325-85.021-148.173-95.498c-20.86-20.726-52.321-30.674-85.777-30.674
			c-40.756,0-84.059,15.284-114.627,43.94c20.379-57.313,42.029-106.984,47.762-140.735c8.279-43.939-19.742-65.592-51.582-65.592
			c-31.203,0-66.229,21.652-73.869,64.318c-7.322,41.187,0.154,104.078-1.913,175.913c-62.47,27.474-116.473,63.841-155.226,105.014
			c-51.393,54.601-70.461,111.717-53.694,160.827c21.147,61.944,96.251,98.925,200.902,98.925c8.302,0,16.72-0.242,25.227-0.709
			c6.002,19.66,23.758,33.16,47.11,33.16c30.281,0,58.89-22.699,67.269-52.09c12.771-3.461,25.541-7.361,38.246-11.698
			c83.316-28.447,155.996-72.581,204.651-124.272C863.229,433.298,882.298,376.181,865.531,327.07z M786.35,463.91
			c-44.814,47.612-112.459,88.502-190.474,115.138c-9.37,3.199-18.772,6.142-28.176,8.835c-7.093-17.428-23.947-29.097-45.65-29.097
			c-29.17,0-56.784,21.065-66.262,48.885c-8.938,0.553-17.767,0.838-26.454,0.838c-43.994,0-82.907-7.194-112.534-20.805
			c-28.853-13.255-47.44-31.567-55.245-54.429c-12.375-36.246,3.981-80.827,46.058-125.53
			c32.247-34.26,76.315-65.039,127.561-89.531c-1.331,15.827-3.283,31.952-6.098,48.256h54.766
			c11.463-59.224,49.672-82.786,81.512-82.786c34.387,0,55.402,19.104,49.035,56.04c-12.736,72.596-105.074,82.148-117.811,155.382
			c-2.547,16.557-3.82,28.02-3.82,33.751h64.316c14.646-85.333,161.113-80.238,183.402-206.964
			c3.406-19.25,2.882-36.087-0.747-50.597c13.656,3.271,26.214,7.501,37.435,12.656c28.853,13.254,47.439,31.566,55.245,54.427
			C844.783,374.626,828.426,419.207,786.35,463.91z"/>
	</g>
	<g>
		<path fill="#050507" d="M89.098,824.457c0-10.36,5.32-17.78,15.68-17.78c7.7,0,14.14,6.72,14.14,14.14
			c0,9.8-9.66,16.101-18.9,12.88c2.38,2.66,5.88,3.92,11.06,3.92c8.54,0,15.96-6.58,15.96-23.8l-24.08-50.26h-8.54v-20.3h43.82v20.3
			h-8.68c4.34,10.92,8.26,22.96,10.5,32.62c2.66-9.52,6.58-21.7,10.92-32.62h-9.52v-20.3h38.78v20.3h-8.26l-27.72,61.04
			c-6.72,14.7-19.459,20.72-30.939,20.72C100.718,845.316,89.098,839.156,89.098,824.457z"/>
		<path fill="#050507" d="M223.581,818.437c-23.66,0-42.14-18.34-42.14-39.479c0-22.4,19.46-38.78,42.14-38.78
			c23.66,0,42.14,16.521,42.14,38.78C265.721,800.097,246.821,818.437,223.581,818.437z M223.441,801.637
			c10.92,0,14.56-2.94,14.56-21.14c0-16.94-3.78-21.28-14.56-21.28c-9.8,0-14.7,3.64-14.7,21.28
			C208.741,797.997,212.521,801.637,223.441,801.637z"/>
		<path fill="#050507" d="M303.955,818.297c-18.48,0-25.48-9.24-25.48-25.9v-28.84h-10.92v-20.3h34.72v40.04
			c0,11.2,2.1,13.72,9.94,13.72c9.38,0,14.56-4.06,14.56-13.859v-19.601h-16.66v-20.3h40.32v52.22h11.48v20.58h-29.26
			c0.28-5.88,1.4-22.399,2.38-26.04h-1.4C329.854,810.457,315.575,818.297,303.955,818.297z"/>
		<path fill="#050507" d="M447.032,793.097c-1.54,15.54-14,25.34-27.16,25.34c-13.86,0-24.36-7.56-24.36-22.12
			c0-13.02,11.76-23.52,35.98-23.52c2.94,0,6.16,0.14,9.66,0.56c0.14-2.239,0.14-4.76,0.14-7c0-10.359-3.22-15.96-12.74-15.96
			c-3.08,0-5.6,0.421-8.68,1.4c4.76,2.24,6.3,6.021,6.3,9.8c0,7.42-6.58,11.48-13.44,11.48c-6.3,0-12.88-4.2-12.88-12.74
			c0-13.86,14.7-20.16,32.62-20.16c21.28,0,33.88,7.561,33.88,24.92c0,13.44-1.26,20.86-1.26,30.8c0,2.24,0.7,3.08,1.82,3.08
			c0.98,0,2.94-0.14,2.94-4.34v-6.86h11.34v7c0,13.721-5.46,22.54-18.06,22.54c-6.3,0-15.26-2.24-15.26-16.38
			c0-3.5,0.28-5.74,0.56-7.84H447.032z M420.432,791.696c0,4.761,3.5,7.28,7.98,7.28c5.32,0,12.04-2.66,12.6-16.66
			c-2.38-0.42-4.48-0.56-6.44-0.56C423.372,781.757,420.432,787.497,420.432,791.696z"/>
		<path fill="#050507" d="M538.996,740.177c13.3,0,18.62,8.82,18.62,17.08c0,7.7-5.46,15.54-15.4,15.54
			c-8.12,0-13.58-5.6-13.58-12.6c0-2.801,0.42-4.761,1.4-6.58c-1.12,0.7-2.38,1.26-3.36,2.239c-4.06,3.78-6.58,10.221-6.58,19.601
			v20.02h17.92v20.58h-55.02v-20.58h13.44v-31.92h-13.44v-20.3h32.2c0,5.74-1.12,14.7-1.96,20.72h1.12
			C516.876,751.657,525.976,740.177,538.996,740.177z"/>
		<path fill="#050507" d="M621.274,789.877l10.22,6.58c-6.86,14.56-17.08,21.979-32.9,21.979c-25.479,0-40.32-17.22-40.32-39.34
			c0-26.04,21.28-38.92,41.16-38.92c25.62,0,37.8,17.22,35.42,42.28h-50.68c0.84,12.319,8.4,18.76,19.88,18.76
			C612.174,801.217,618.194,797.577,621.274,789.877z M600.694,756.277c-8.68,0-14.42,5.88-15.96,13.02h28.98
			C613.854,760.477,608.534,756.277,600.694,756.277z"/>
		<path fill="#050507" d="M700.231,773.497c4.62-26.04,20.3-33.32,32.2-33.32c15.82,0,21.14,10.92,21.14,27.3v28h8.82v20.58h-42.98
			v-20.58h10.64v-18.76c0-11.62-2.38-14.979-10.08-14.979c-8.4,0-14.7,6.159-14.7,20.439v13.3h10.78v20.58h-47.88v-20.58h13.44
			v-58.38h-13.44v-20.58h37.1v1.961c0,14.56-2.66,38.359-6.3,55.02H700.231z"/>
		<path fill="#050507" d="M827.616,789.877l10.22,6.58c-6.86,14.56-17.08,21.979-32.9,21.979c-25.479,0-40.32-17.22-40.32-39.34
			c0-26.04,21.28-38.92,41.16-38.92c25.62,0,37.8,17.22,35.42,42.28h-50.68c0.84,12.319,8.4,18.76,19.88,18.76
			C818.516,801.217,824.536,797.577,827.616,789.877z M807.036,756.277c-8.68,0-14.42,5.88-15.96,13.02h28.98
			C820.196,760.477,814.876,756.277,807.036,756.277z"/>
		<path fill="#050507" d="M901.017,740.177c13.3,0,18.62,8.82,18.62,17.08c0,7.7-5.46,15.54-15.4,15.54
			c-8.12,0-13.58-5.6-13.58-12.6c0-2.801,0.42-4.761,1.4-6.58c-1.12,0.7-2.38,1.26-3.36,2.239c-4.06,3.78-6.58,10.221-6.58,19.601
			v20.02h17.92v20.58h-55.02v-20.58h13.44v-31.92h-13.44v-20.3h32.2c0,5.74-1.12,14.7-1.96,20.72h1.12
			C878.897,751.657,887.997,740.177,901.017,740.177z"/>
		<path fill="#050507" d="M962.281,818.437c-23.66,0-42.14-18.34-42.14-39.479c0-22.4,19.46-38.78,42.14-38.78
			c23.66,0,42.14,16.521,42.14,38.78C1004.421,800.097,985.521,818.437,962.281,818.437z M962.141,801.637
			c10.92,0,14.56-2.94,14.56-21.14c0-16.94-3.78-21.28-14.56-21.28c-9.8,0-14.7,3.64-14.7,21.28
			C947.441,797.997,951.221,801.637,962.141,801.637z"/>
	</g>
</g>
<g>
	<g>
		<path d="M2734.711,407.399c-32.479,0-63.045,26.109-68.777,58.587c-5.73,32.477,15.922,58.586,48.398,58.586
			s63.045-26.109,68.775-58.586C2788.84,433.509,2767.188,407.399,2734.711,407.399z"/>
	</g>
	<g>
		<path d="M3149.514,338.07c-17.398-50.961-71.324-85.021-148.172-95.498c-20.859-20.727-52.32-30.674-85.777-30.674
			c-40.756,0-84.059,15.284-114.627,43.94c20.379-57.313,42.029-106.984,47.762-140.735c8.279-43.939-19.742-65.592-51.582-65.592
			c-31.203,0-66.229,21.652-73.869,64.318c-7.322,41.187,0.154,104.078-1.912,175.913
			c-62.471,27.474-116.474,63.841-155.227,105.014c-51.393,54.601-70.461,111.718-53.694,160.827
			c21.147,61.943,96.251,98.925,200.901,98.925c8.303,0,16.721-0.242,25.228-0.71c6.003,19.66,23.758,33.16,47.11,33.16
			c30.281,0,58.891-22.699,67.269-52.09c12.771-3.461,25.541-7.361,38.245-11.698c83.316-28.446,155.996-72.581,204.651-124.272
			C3147.212,444.298,3166.281,387.182,3149.514,338.07z M3070.333,474.91c-44.814,47.611-112.46,88.502-190.474,115.138
			c-9.37,3.199-18.771,6.142-28.176,8.835c-7.094-17.428-23.947-29.097-45.65-29.097c-29.17,0-56.784,21.065-66.262,48.885
			c-8.938,0.553-17.768,0.838-26.455,0.838c-43.993,0-82.906-7.194-112.533-20.805c-28.854-13.255-47.44-31.567-55.245-54.429
			c-12.376-36.246,3.981-80.827,46.058-125.53c32.247-34.261,76.315-65.272,127.561-89.765c-1.33,15.826-3.283,32.02-6.098,48.02
			h54.766c11.463-59,49.672-82.551,81.512-82.551c34.387,0,55.402,19.222,49.035,56.157
			c-12.736,72.596-105.074,82.278-117.811,155.513c-2.547,16.557-3.82,27.881-3.82,33.881h64.316
			c14.646-85,161.113-80.311,183.402-207.035c3.406-19.25,2.882-36.124-0.746-50.634c13.656,3.271,26.213,7.483,37.434,12.638
			c28.854,13.256,47.439,31.559,55.245,54.419C3128.767,385.635,3112.409,430.207,3070.333,474.91z"/>
	</g>
</g>
<g>
	<path fill="#050507" d="M2254.08,835.457c0-10.36,5.32-17.78,15.68-17.78c7.7,0,14.141,6.72,14.141,14.14
		c0,9.8-9.66,16.101-18.9,12.88c2.381,2.66,5.881,3.92,11.061,3.92c8.539,0,15.959-6.58,15.959-23.8l-24.08-50.26h-8.539v-20.3
		h43.82v20.3h-8.681c4.34,10.92,8.26,22.96,10.5,32.62c2.66-9.52,6.58-21.7,10.92-32.62h-9.521v-20.3h38.78v20.3h-8.26l-27.72,61.04
		c-6.721,14.7-19.46,20.72-30.939,20.72C2265.7,856.316,2254.08,850.156,2254.08,835.457z"/>
	<path fill="#050507" d="M2388.563,829.437c-23.66,0-42.14-18.34-42.14-39.479c0-22.4,19.459-38.78,42.14-38.78
		c23.659,0,42.14,16.521,42.14,38.78C2430.703,811.097,2411.803,829.437,2388.563,829.437z M2388.424,812.637
		c10.92,0,14.56-2.94,14.56-21.14c0-16.94-3.78-21.28-14.56-21.28c-9.801,0-14.7,3.64-14.7,21.28
		C2373.724,808.997,2377.504,812.637,2388.424,812.637z"/>
	<path fill="#050507" d="M2468.938,829.297c-18.48,0-25.48-9.24-25.48-25.9v-28.84h-10.92v-20.3h34.72v40.04
		c0,11.2,2.101,13.72,9.94,13.72c9.38,0,14.56-4.06,14.56-13.859v-19.601h-16.659v-20.3h40.319v52.22h11.479v20.58h-29.26
		c0.28-5.88,1.4-22.399,2.381-26.04h-1.4C2494.837,821.457,2480.557,829.297,2468.938,829.297z"/>
	<path fill="#050507" d="M2581.48,804.097c-1.539,15.54-14,25.34-27.16,25.34c-13.859,0-24.359-7.56-24.359-22.12
		c0-13.02,11.76-23.52,35.98-23.52c2.939,0,6.16,0.14,9.66,0.56c0.139-2.239,0.139-4.76,0.139-7c0-10.359-3.219-15.96-12.739-15.96
		c-3.08,0-5.601,0.421-8.681,1.4c4.761,2.24,6.301,6.021,6.301,9.8c0,7.42-6.58,11.48-13.439,11.48
		c-6.301,0-12.881-4.2-12.881-12.74c0-13.86,14.7-20.16,32.62-20.16c21.28,0,33.88,7.561,33.88,24.92c0,13.44-1.26,20.86-1.26,30.8
		c0,2.24,0.699,3.08,1.82,3.08c0.979,0,2.939-0.14,2.939-4.34v-6.86h11.34v7c0,13.721-5.46,22.54-18.06,22.54
		c-6.3,0-15.261-2.24-15.261-16.38c0-3.5,0.281-5.74,0.561-7.84H2581.48z M2554.881,802.696c0,4.761,3.5,7.28,7.98,7.28
		c5.32,0,12.039-2.66,12.6-16.66c-2.38-0.42-4.48-0.56-6.439-0.56C2557.82,792.757,2554.881,798.497,2554.881,802.696z"/>
	<path fill="#050507" d="M2673.445,751.177c13.301,0,18.62,8.82,18.62,17.08c0,7.7-5.46,15.54-15.399,15.54
		c-8.12,0-13.58-5.6-13.58-12.6c0-2.801,0.42-4.761,1.4-6.58c-1.121,0.7-2.381,1.26-3.361,2.239
		c-4.059,3.78-6.579,10.221-6.579,19.601v20.02h17.92v20.58h-55.021v-20.58h13.44v-31.92h-13.44v-20.3h32.2
		c0,5.74-1.12,14.7-1.96,20.72h1.12C2651.326,762.657,2660.426,751.177,2673.445,751.177z"/>
	<path fill="#050507" d="M2755.724,800.877l10.22,6.58c-6.859,14.56-17.08,21.979-32.9,21.979c-25.479,0-40.319-17.22-40.319-39.34
		c0-26.04,21.28-38.92,41.16-38.92c25.62,0,37.8,17.22,35.42,42.28h-50.681c0.841,12.319,8.4,18.76,19.881,18.76
		C2746.623,812.217,2752.644,808.577,2755.724,800.877z M2735.144,767.277c-8.68,0-14.42,5.88-15.96,13.02h28.98
		C2748.304,771.477,2742.983,767.277,2735.144,767.277z"/>
	<path fill="#050507" d="M2802.412,784.497c4.62-26.04,20.301-33.32,32.2-33.32c15.819,0,21.14,10.92,21.14,27.3v28h8.82v20.58
		h-42.98v-20.58h10.641v-18.76c0-11.62-2.38-14.979-10.08-14.979c-8.4,0-14.699,6.159-14.699,20.439v13.3h10.779v20.58h-47.88
		v-20.58h13.44v-58.38h-13.44v-20.58h37.101v1.961c0,14.56-2.66,38.359-6.301,55.02H2802.412z"/>
	<path fill="#050507" d="M2929.797,800.877l10.221,6.58c-6.86,14.56-17.08,21.979-32.9,21.979c-25.479,0-40.32-17.22-40.32-39.34
		c0-26.04,21.281-38.92,41.16-38.92c25.62,0,37.801,17.22,35.42,42.28h-50.68c0.84,12.319,8.4,18.76,19.88,18.76
		C2920.697,812.217,2926.717,808.577,2929.797,800.877z M2909.217,767.277c-8.68,0-14.42,5.88-15.959,13.02h28.979
		C2922.377,771.477,2917.057,767.277,2909.217,767.277z"/>
	<path fill="#050507" d="M3003.198,751.177c13.3,0,18.62,8.82,18.62,17.08c0,7.7-5.461,15.54-15.4,15.54
		c-8.119,0-13.58-5.6-13.58-12.6c0-2.801,0.42-4.761,1.4-6.58c-1.12,0.7-2.381,1.26-3.36,2.239
		c-4.06,3.78-6.579,10.221-6.579,19.601v20.02h17.92v20.58h-55.021v-20.58h13.44v-31.92h-13.44v-20.3h32.2
		c0,5.74-1.12,14.7-1.961,20.72h1.121C2981.078,762.657,2990.178,751.177,3003.198,751.177z"/>
	<path fill="#050507" d="M3064.462,829.437c-23.66,0-42.14-18.34-42.14-39.479c0-22.4,19.459-38.78,42.14-38.78
		c23.659,0,42.14,16.521,42.14,38.78C3106.602,811.097,3087.701,829.437,3064.462,829.437z M3064.322,812.637
		c10.92,0,14.56-2.94,14.56-21.14c0-16.94-3.78-21.28-14.56-21.28c-9.801,0-14.7,3.64-14.7,21.28
		C3049.622,808.997,3053.402,812.637,3064.322,812.637z"/>
	<path fill="#050507" d="M3139.838,815.017c0,7.84-6.3,14.14-14.141,14.14c-7.84,0-14.139-6.3-14.139-14.14
		s6.299-14.14,14.139-14.14C3133.538,800.877,3139.838,807.177,3139.838,815.017z"/>
	<path fill="#050507" d="M3180.605,781.697c2.52-20.16,12.88-30.521,29.26-30.521c18.48,0,25.34,10.5,25.34,27.16v28.14h8.82v20.58
		h-42.98v-20.58h10.641v-18.2c0-11.199-2.24-13.72-10.08-13.72c-9.38,0-14.699,4.061-14.699,13.86v18.06h10.779v20.58h-47.88v-20.58
		h13.44v-31.92h-13.44v-20.3h31.36c0.14,5.74-0.98,22.26-1.961,27.44H3180.605z"/>
	<path fill="#050507" d="M3309.25,800.877l10.221,6.58c-6.86,14.56-17.08,21.979-32.9,21.979c-25.479,0-40.32-17.22-40.32-39.34
		c0-26.04,21.281-38.92,41.16-38.92c25.62,0,37.801,17.22,35.42,42.28h-50.68c0.84,12.319,8.4,18.76,19.88,18.76
		C3300.15,812.217,3306.17,808.577,3309.25,800.877z M3288.67,767.277c-8.68,0-14.42,5.88-15.959,13.02h28.979
		C3301.83,771.477,3296.51,767.277,3288.67,767.277z"/>
	<path fill="#050507" d="M3338.594,806.896v-32.34h-14.28v-12.04c15.399,0.28,26.319-8.26,26.18-29.539h11.62v21.279h29.12v20.3
		h-28.841v29.26c0,4.34,3.361,6.58,7.421,6.58s7.56-2.24,7.56-6.72v-9.24h13.86v13.16c0,15.12-13.58,22.12-26.32,22.12
		C3352.174,829.717,3338.594,822.297,3338.594,806.896z"/>
</g>
</svg>
