<?xml version="1.0" encoding="utf-8"?>
<!-- Generator: Adobe Illustrator 15.0.2, SVG Export Plug-In . SVG Version: 6.00 Build 0)  -->
<!DOCTYPE svg PUBLIC "-//W3C//DTD SVG 1.1//EN" "http://www.w3.org/Graphics/SVG/1.1/DTD/svg11.dtd">
<svg version="1.1" id="Ebene_1" xmlns="http://www.w3.org/2000/svg" xmlns:xlink="http://www.w3.org/1999/xlink" x="0px" y="0px"
	 width="712px" height="664px" viewBox="0 0 712 664" enable-background="new 0 0 712 664" xml:space="preserve">
<g>
	<path d="M257.711,372.399c-32.479,0-63.045,26.109-68.777,58.587c-5.73,32.477,15.922,58.586,48.398,58.586
		s63.045-26.109,68.775-58.586C311.84,398.509,290.188,372.399,257.711,372.399z"/>
	<path d="M672.514,303.07c-17.398-50.962-71.324-85.021-148.172-95.498c-20.86-20.726-52.321-30.674-85.777-30.674
		c-40.756,0-84.059,15.284-114.627,43.94c20.379-57.313,42.029-106.984,47.762-140.735c8.279-43.939-19.742-65.592-51.582-65.592
		c-31.203,0-66.229,21.652-73.869,64.318c-7.322,41.187,0.154,104.078-1.913,175.913c-62.47,27.474-116.473,63.841-155.226,105.014
		c-51.393,54.601-70.461,111.717-53.694,160.827c21.147,61.944,96.251,98.925,200.902,98.925c8.302,0,16.72-0.242,25.227-0.709
		c6.002,19.66,23.758,33.16,47.11,33.16c30.281,0,58.89-22.699,67.269-52.09c12.771-3.461,25.541-7.361,38.245-11.698
		c83.316-28.447,155.996-72.581,204.651-124.272C670.212,409.298,689.281,352.181,672.514,303.07z M593.333,439.91
		c-44.814,47.612-112.46,88.502-190.474,115.138c-9.37,3.199-18.772,6.142-28.176,8.835c-7.093-17.428-23.947-29.097-45.65-29.097
		c-29.17,0-56.784,21.065-66.262,48.885c-8.938,0.553-17.767,0.838-26.454,0.838c-43.994,0-82.907-7.194-112.534-20.805
		c-28.853-13.255-47.44-31.567-55.245-54.429c-12.375-36.246,3.981-80.827,46.058-125.53c32.247-34.26,76.315-65.039,127.561-89.531
		c-1.331,15.827-3.283,31.952-6.098,48.256h54.766c11.463-59.224,49.672-82.786,81.512-82.786c34.387,0,55.402,19.104,49.035,56.04
		c-12.736,72.596-105.074,82.148-117.811,155.382c-2.547,16.557-3.82,28.02-3.82,33.751h64.316
		c14.646-85.333,161.113-80.238,183.402-206.964c3.406-19.25,2.882-36.087-0.746-50.597c13.656,3.271,26.213,7.501,37.434,12.656
		c28.854,13.254,47.439,31.566,55.245,54.427C651.767,350.626,635.409,395.207,593.333,439.91z"/>
</g>
<g>
	<g>
		<path d="M-843.272,372.399c-32.479,0-63.045,26.109-68.777,58.587c-5.73,32.477,15.922,58.586,48.398,58.586
			s63.045-26.109,68.775-58.586C-789.144,398.509-810.796,372.399-843.272,372.399z"/>
		<path d="M-428.469,303.07c-17.399-50.962-71.325-85.021-148.173-95.498c-20.86-20.726-52.321-30.674-85.777-30.674
			c-40.756,0-84.059,15.284-114.627,43.94c20.379-57.313,42.029-106.984,47.762-140.735c8.279-43.939-19.742-65.592-51.582-65.592
			c-31.203,0-66.229,21.652-73.869,64.318c-7.322,41.187,0.154,104.078-1.913,175.913c-62.47,27.474-116.473,63.841-155.226,105.014
			c-51.393,54.601-70.461,111.717-53.694,160.827c21.147,61.944,96.251,98.925,200.902,98.925c8.302,0,16.72-0.242,25.227-0.709
			c6.002,19.66,23.758,33.16,47.11,33.16c30.281,0,58.89-22.699,67.269-52.09c12.771-3.461,25.541-7.361,38.246-11.698
			c83.316-28.447,155.996-72.581,204.651-124.272C-430.771,409.298-411.702,352.181-428.469,303.07z M-507.65,439.91
			c-44.814,47.612-112.459,88.502-190.474,115.138c-9.37,3.199-18.772,6.142-28.176,8.835c-7.093-17.428-23.947-29.097-45.65-29.097
			c-29.17,0-56.784,21.065-66.262,48.885c-8.938,0.553-17.767,0.838-26.454,0.838c-43.994,0-82.907-7.194-112.534-20.805
			c-28.853-13.255-47.44-31.567-55.245-54.429c-12.375-36.246,3.981-80.827,46.058-125.53
			c32.247-34.26,76.315-65.039,127.561-89.531c-1.331,15.827-3.283,31.952-6.098,48.256h54.766
			c11.463-59.224,49.672-82.786,81.512-82.786c34.387,0,55.402,19.104,49.035,56.04c-12.736,72.596-105.074,82.148-117.811,155.382
			c-2.547,16.557-3.82,28.02-3.82,33.751h64.316c14.646-85.333,161.113-80.238,183.402-206.964
			c3.406-19.25,2.882-36.087-0.747-50.597c13.656,3.271,26.214,7.501,37.435,12.656c28.853,13.254,47.439,31.566,55.245,54.427
			C-449.217,350.626-465.574,395.207-507.65,439.91z"/>
	</g>
	<g>
		<path fill="#050507" d="M-1204.902,800.457c0-10.36,5.32-17.78,15.68-17.78c7.7,0,14.14,6.72,14.14,14.14
			c0,9.8-9.66,16.101-18.9,12.88c2.38,2.66,5.88,3.92,11.06,3.92c8.54,0,15.96-6.58,15.96-23.8l-24.08-50.26h-8.54v-20.3h43.82v20.3
			h-8.68c4.34,10.92,8.26,22.96,10.5,32.62c2.66-9.52,6.58-21.7,10.92-32.62h-9.52v-20.3h38.78v20.3h-8.26l-27.72,61.04
			c-6.72,14.7-19.459,20.72-30.939,20.72C-1193.282,821.316-1204.902,815.156-1204.902,800.457z"/>
		<path fill="#050507" d="M-1070.419,794.437c-23.66,0-42.14-18.34-42.14-39.479c0-22.4,19.46-38.78,42.14-38.78
			c23.66,0,42.14,16.521,42.14,38.78C-1028.279,776.097-1047.179,794.437-1070.419,794.437z M-1070.559,777.637
			c10.92,0,14.56-2.94,14.56-21.14c0-16.94-3.78-21.28-14.56-21.28c-9.8,0-14.7,3.64-14.7,21.28
			C-1085.259,773.997-1081.479,777.637-1070.559,777.637z"/>
		<path fill="#050507" d="M-990.045,794.297c-18.48,0-25.48-9.24-25.48-25.9v-28.84h-10.92v-20.3h34.72v40.04
			c0,11.2,2.1,13.72,9.94,13.72c9.38,0,14.56-4.06,14.56-13.859v-19.601h-16.66v-20.3h40.32v52.22h11.48v20.58h-29.26
			c0.28-5.88,1.4-22.399,2.38-26.04h-1.4C-964.146,786.457-978.425,794.297-990.045,794.297z"/>
		<path fill="#050507" d="M-846.968,769.097c-1.54,15.54-14,25.34-27.16,25.34c-13.86,0-24.36-7.56-24.36-22.12
			c0-13.02,11.76-23.52,35.98-23.52c2.94,0,6.16,0.14,9.66,0.56c0.14-2.239,0.14-4.76,0.14-7c0-10.359-3.22-15.96-12.74-15.96
			c-3.08,0-5.6,0.421-8.68,1.4c4.76,2.24,6.3,6.021,6.3,9.8c0,7.42-6.58,11.48-13.44,11.48c-6.3,0-12.88-4.2-12.88-12.74
			c0-13.86,14.7-20.16,32.62-20.16c21.28,0,33.88,7.561,33.88,24.92c0,13.44-1.26,20.86-1.26,30.8c0,2.24,0.7,3.08,1.82,3.08
			c0.98,0,2.94-0.14,2.94-4.34v-6.86h11.34v7c0,13.721-5.46,22.54-18.06,22.54c-6.3,0-15.26-2.24-15.26-16.38
			c0-3.5,0.28-5.74,0.56-7.84H-846.968z M-873.568,767.696c0,4.761,3.5,7.28,7.98,7.28c5.32,0,12.04-2.66,12.6-16.66
			c-2.38-0.42-4.48-0.56-6.44-0.56C-870.628,757.757-873.568,763.497-873.568,767.696z"/>
		<path fill="#050507" d="M-755.004,716.177c13.3,0,18.62,8.82,18.62,17.08c0,7.7-5.46,15.54-15.4,15.54
			c-8.12,0-13.58-5.6-13.58-12.6c0-2.801,0.42-4.761,1.4-6.58c-1.12,0.7-2.38,1.26-3.36,2.239c-4.06,3.78-6.58,10.221-6.58,19.601
			v20.02h17.92v20.58h-55.02v-20.58h13.44v-31.92h-13.44v-20.3h32.2c0,5.74-1.12,14.7-1.96,20.72h1.12
			C-777.124,727.657-768.024,716.177-755.004,716.177z"/>
		<path fill="#050507" d="M-672.726,765.877l10.22,6.58c-6.86,14.56-17.08,21.979-32.9,21.979c-25.479,0-40.32-17.22-40.32-39.34
			c0-26.04,21.28-38.92,41.16-38.92c25.62,0,37.8,17.22,35.42,42.28h-50.68c0.84,12.319,8.4,18.76,19.88,18.76
			C-681.826,777.217-675.806,773.577-672.726,765.877z M-693.306,732.277c-8.68,0-14.42,5.88-15.96,13.02h28.98
			C-680.146,736.477-685.466,732.277-693.306,732.277z"/>
		<path fill="#050507" d="M-593.769,749.497c4.62-26.04,20.3-33.32,32.2-33.32c15.82,0,21.14,10.92,21.14,27.3v28h8.82v20.58h-42.98
			v-20.58h10.64v-18.76c0-11.62-2.38-14.979-10.08-14.979c-8.4,0-14.7,6.159-14.7,20.439v13.3h10.78v20.58h-47.88v-20.58h13.44
			v-58.38h-13.44v-20.58h37.1v1.961c0,14.56-2.66,38.359-6.3,55.02H-593.769z"/>
		<path fill="#050507" d="M-466.384,765.877l10.22,6.58c-6.86,14.56-17.08,21.979-32.9,21.979c-25.479,0-40.32-17.22-40.32-39.34
			c0-26.04,21.28-38.92,41.16-38.92c25.62,0,37.8,17.22,35.42,42.28h-50.68c0.84,12.319,8.4,18.76,19.88,18.76
			C-475.484,777.217-469.464,773.577-466.384,765.877z M-486.964,732.277c-8.68,0-14.42,5.88-15.96,13.02h28.98
			C-473.804,736.477-479.124,732.277-486.964,732.277z"/>
		<path fill="#050507" d="M-392.983,716.177c13.3,0,18.62,8.82,18.62,17.08c0,7.7-5.46,15.54-15.4,15.54
			c-8.12,0-13.58-5.6-13.58-12.6c0-2.801,0.42-4.761,1.4-6.58c-1.12,0.7-2.38,1.26-3.36,2.239c-4.06,3.78-6.58,10.221-6.58,19.601
			v20.02h17.92v20.58h-55.02v-20.58h13.44v-31.92h-13.44v-20.3h32.2c0,5.74-1.12,14.7-1.96,20.72h1.12
			C-415.103,727.657-406.003,716.177-392.983,716.177z"/>
		<path fill="#050507" d="M-331.719,794.437c-23.66,0-42.14-18.34-42.14-39.479c0-22.4,19.46-38.78,42.14-38.78
			c23.66,0,42.14,16.521,42.14,38.78C-289.579,776.097-308.479,794.437-331.719,794.437z M-331.859,777.637
			c10.92,0,14.56-2.94,14.56-21.14c0-16.94-3.78-21.28-14.56-21.28c-9.8,0-14.7,3.64-14.7,21.28
			C-346.559,773.997-342.779,777.637-331.859,777.637z"/>
	</g>
</g>
<g>
	<g>
		<path d="M1440.711,383.399c-32.479,0-63.045,26.109-68.777,58.587c-5.73,32.477,15.922,58.586,48.398,58.586
			s63.045-26.109,68.775-58.586C1494.84,409.509,1473.188,383.399,1440.711,383.399z"/>
	</g>
	<g>
		<path d="M1855.514,314.07c-17.398-50.961-71.324-85.021-148.172-95.498c-20.859-20.727-52.32-30.674-85.777-30.674
			c-40.756,0-84.059,15.284-114.627,43.94c20.379-57.313,42.029-106.984,47.762-140.735c8.279-43.939-19.742-65.592-51.582-65.592
			c-31.203,0-66.229,21.652-73.869,64.318c-7.322,41.187,0.154,104.078-1.912,175.913
			c-62.471,27.474-116.474,63.841-155.227,105.014c-51.393,54.601-70.461,111.718-53.694,160.827
			c21.147,61.943,96.251,98.925,200.901,98.925c8.303,0,16.721-0.242,25.228-0.71c6.003,19.66,23.758,33.16,47.11,33.16
			c30.281,0,58.891-22.699,67.269-52.09c12.771-3.461,25.541-7.361,38.245-11.698c83.316-28.446,155.996-72.581,204.651-124.272
			C1853.212,420.298,1872.281,363.182,1855.514,314.07z M1776.333,450.91c-44.814,47.611-112.46,88.502-190.474,115.138
			c-9.37,3.199-18.771,6.142-28.176,8.835c-7.094-17.428-23.947-29.097-45.65-29.097c-29.17,0-56.784,21.065-66.262,48.885
			c-8.938,0.553-17.768,0.838-26.455,0.838c-43.993,0-82.906-7.194-112.533-20.805c-28.854-13.255-47.44-31.567-55.245-54.429
			c-12.376-36.246,3.981-80.827,46.058-125.53c32.247-34.261,76.315-65.272,127.561-89.765c-1.33,15.826-3.283,32.02-6.098,48.02
			h54.766c11.463-59,49.672-82.551,81.512-82.551c34.387,0,55.402,19.222,49.035,56.157
			c-12.736,72.596-105.074,82.278-117.811,155.513c-2.547,16.557-3.82,27.881-3.82,33.881h64.316
			c14.646-85,161.113-80.311,183.402-207.035c3.406-19.25,2.882-36.124-0.746-50.634c13.656,3.271,26.213,7.483,37.434,12.638
			c28.854,13.256,47.439,31.559,55.245,54.419C1834.767,361.635,1818.409,406.207,1776.333,450.91z"/>
	</g>
</g>
<g>
	<path fill="#050507" d="M960.08,811.457c0-10.36,5.32-17.78,15.68-17.78c7.7,0,14.141,6.72,14.141,14.14
		c0,9.8-9.66,16.101-18.9,12.88c2.381,2.66,5.881,3.92,11.061,3.92c8.539,0,15.959-6.58,15.959-23.8l-24.08-50.26H965.4v-20.3h43.82
		v20.3h-8.681c4.34,10.92,8.26,22.96,10.5,32.62c2.66-9.52,6.58-21.7,10.92-32.62h-9.521v-20.3h38.78v20.3h-8.26l-27.72,61.04
		c-6.721,14.7-19.46,20.72-30.939,20.72C971.7,832.316,960.08,826.156,960.08,811.457z"/>
	<path fill="#050507" d="M1094.563,805.437c-23.66,0-42.14-18.34-42.14-39.479c0-22.4,19.459-38.78,42.14-38.78
		c23.659,0,42.14,16.521,42.14,38.78C1136.703,787.097,1117.803,805.437,1094.563,805.437z M1094.424,788.637
		c10.92,0,14.56-2.94,14.56-21.14c0-16.94-3.78-21.28-14.56-21.28c-9.801,0-14.7,3.64-14.7,21.28
		C1079.724,784.997,1083.504,788.637,1094.424,788.637z"/>
	<path fill="#050507" d="M1174.938,805.297c-18.48,0-25.48-9.24-25.48-25.9v-28.84h-10.92v-20.3h34.72v40.04
		c0,11.2,2.101,13.72,9.94,13.72c9.38,0,14.56-4.06,14.56-13.859v-19.601h-16.659v-20.3h40.319v52.22h11.479v20.58h-29.26
		c0.28-5.88,1.4-22.399,2.381-26.04h-1.4C1200.837,797.457,1186.557,805.297,1174.938,805.297z"/>
	<path fill="#050507" d="M1287.48,780.097c-1.539,15.54-14,25.34-27.16,25.34c-13.859,0-24.359-7.56-24.359-22.12
		c0-13.02,11.76-23.52,35.98-23.52c2.939,0,6.16,0.14,9.66,0.56c0.139-2.239,0.139-4.76,0.139-7c0-10.359-3.219-15.96-12.739-15.96
		c-3.08,0-5.601,0.421-8.681,1.4c4.761,2.24,6.301,6.021,6.301,9.8c0,7.42-6.58,11.48-13.439,11.48
		c-6.301,0-12.881-4.2-12.881-12.74c0-13.86,14.7-20.16,32.62-20.16c21.28,0,33.88,7.561,33.88,24.92c0,13.44-1.26,20.86-1.26,30.8
		c0,2.24,0.699,3.08,1.82,3.08c0.979,0,2.939-0.14,2.939-4.34v-6.86h11.34v7c0,13.721-5.46,22.54-18.06,22.54
		c-6.3,0-15.261-2.24-15.261-16.38c0-3.5,0.281-5.74,0.561-7.84H1287.48z M1260.881,778.696c0,4.761,3.5,7.28,7.98,7.28
		c5.32,0,12.039-2.66,12.6-16.66c-2.38-0.42-4.48-0.56-6.439-0.56C1263.82,768.757,1260.881,774.497,1260.881,778.696z"/>
	<path fill="#050507" d="M1379.445,727.177c13.301,0,18.62,8.82,18.62,17.08c0,7.7-5.46,15.54-15.399,15.54
		c-8.12,0-13.58-5.6-13.58-12.6c0-2.801,0.42-4.761,1.4-6.58c-1.121,0.7-2.381,1.26-3.361,2.239
		c-4.059,3.78-6.579,10.221-6.579,19.601v20.02h17.92v20.58h-55.021v-20.58h13.44v-31.92h-13.44v-20.3h32.2
		c0,5.74-1.12,14.7-1.96,20.72h1.12C1357.326,738.657,1366.426,727.177,1379.445,727.177z"/>
	<path fill="#050507" d="M1461.724,776.877l10.22,6.58c-6.859,14.56-17.08,21.979-32.9,21.979c-25.479,0-40.319-17.22-40.319-39.34
		c0-26.04,21.28-38.92,41.16-38.92c25.62,0,37.8,17.22,35.42,42.28h-50.681c0.841,12.319,8.4,18.76,19.881,18.76
		C1452.623,788.217,1458.644,784.577,1461.724,776.877z M1441.144,743.277c-8.68,0-14.42,5.88-15.96,13.02h28.98
		C1454.304,747.477,1448.983,743.277,1441.144,743.277z"/>
	<path fill="#050507" d="M1508.412,760.497c4.62-26.04,20.301-33.32,32.2-33.32c15.819,0,21.14,10.92,21.14,27.3v28h8.82v20.58
		h-42.98v-20.58h10.641v-18.76c0-11.62-2.38-14.979-10.08-14.979c-8.4,0-14.699,6.159-14.699,20.439v13.3h10.779v20.58h-47.88
		v-20.58h13.44v-58.38h-13.44v-20.58h37.101v1.961c0,14.56-2.66,38.359-6.301,55.02H1508.412z"/>
	<path fill="#050507" d="M1635.797,776.877l10.221,6.58c-6.86,14.56-17.08,21.979-32.9,21.979c-25.479,0-40.32-17.22-40.32-39.34
		c0-26.04,21.281-38.92,41.16-38.92c25.62,0,37.801,17.22,35.42,42.28h-50.68c0.84,12.319,8.4,18.76,19.88,18.76
		C1626.697,788.217,1632.717,784.577,1635.797,776.877z M1615.217,743.277c-8.68,0-14.42,5.88-15.959,13.02h28.979
		C1628.377,747.477,1623.057,743.277,1615.217,743.277z"/>
	<path fill="#050507" d="M1709.198,727.177c13.3,0,18.62,8.82,18.62,17.08c0,7.7-5.461,15.54-15.4,15.54
		c-8.119,0-13.58-5.6-13.58-12.6c0-2.801,0.42-4.761,1.4-6.58c-1.12,0.7-2.381,1.26-3.36,2.239
		c-4.06,3.78-6.579,10.221-6.579,19.601v20.02h17.92v20.58h-55.021v-20.58h13.44v-31.92h-13.44v-20.3h32.2
		c0,5.74-1.12,14.7-1.961,20.72h1.121C1687.078,738.657,1696.178,727.177,1709.198,727.177z"/>
	<path fill="#050507" d="M1770.462,805.437c-23.66,0-42.14-18.34-42.14-39.479c0-22.4,19.459-38.78,42.14-38.78
		c23.659,0,42.14,16.521,42.14,38.78C1812.602,787.097,1793.701,805.437,1770.462,805.437z M1770.322,788.637
		c10.92,0,14.56-2.94,14.56-21.14c0-16.94-3.78-21.28-14.56-21.28c-9.801,0-14.7,3.64-14.7,21.28
		C1755.622,784.997,1759.402,788.637,1770.322,788.637z"/>
	<path fill="#050507" d="M1845.838,791.017c0,7.84-6.3,14.14-14.141,14.14c-7.84,0-14.139-6.3-14.139-14.14
		s6.299-14.14,14.139-14.14C1839.538,776.877,1845.838,783.177,1845.838,791.017z"/>
	<path fill="#050507" d="M1886.605,757.697c2.52-20.16,12.88-30.521,29.26-30.521c18.48,0,25.34,10.5,25.34,27.16v28.14h8.82v20.58
		h-42.98v-20.58h10.641v-18.2c0-11.199-2.24-13.72-10.08-13.72c-9.38,0-14.699,4.061-14.699,13.86v18.06h10.779v20.58h-47.88v-20.58
		h13.44v-31.92h-13.44v-20.3h31.36c0.14,5.74-0.98,22.26-1.961,27.44H1886.605z"/>
	<path fill="#050507" d="M2015.25,776.877l10.221,6.58c-6.86,14.56-17.08,21.979-32.9,21.979c-25.479,0-40.32-17.22-40.32-39.34
		c0-26.04,21.281-38.92,41.16-38.92c25.62,0,37.801,17.22,35.42,42.28h-50.68c0.84,12.319,8.4,18.76,19.88,18.76
		C2006.15,788.217,2012.17,784.577,2015.25,776.877z M1994.67,743.277c-8.68,0-14.42,5.88-15.959,13.02h28.979
		C2007.83,747.477,2002.51,743.277,1994.67,743.277z"/>
	<path fill="#050507" d="M2044.594,782.896v-32.34h-14.28v-12.04c15.399,0.28,26.319-8.26,26.18-29.539h11.62v21.279h29.12v20.3
		h-28.841v29.26c0,4.34,3.361,6.58,7.421,6.58s7.56-2.24,7.56-6.72v-9.24h13.86v13.16c0,15.12-13.58,22.12-26.32,22.12
		C2058.174,805.717,2044.594,798.297,2044.594,782.896z"/>
</g>
</svg>
