<?xml version="1.0" standalone="no"?>
<!DOCTYPE svg PUBLIC "-//W3C//DTD SVG 1.1//EN" "http://www.w3.org/Graphics/SVG/1.1/DTD/svg11.dtd" >
<svg xmlns="http://www.w3.org/2000/svg">
<metadata></metadata>
<defs>
<font id="farao_bookitalic" horiz-adv-x="1509" >
<font-face units-per-em="2048" ascent="1638" descent="-410" />
<missing-glyph horiz-adv-x="471" />
<glyph unicode="&#xfb01;" horiz-adv-x="1327" d="M16 0l27 162h178l123 690h-262l12 72h84q100 0 158 50t72 138q28 157 153.5 261t319.5 104q98 0 169.5 -24t109 -65.5t51 -92t3.5 -107.5q-9 -54 -55 -92.5t-100 -38.5t-85 38.5t-22 92.5t54.5 92.5t99.5 38.5q-70 84 -238 84q-128 0 -214 -68.5t-101 -158.5 q-15 -83 40.5 -142t178.5 -59h412l-144 -813h160l-26 -162h-502l26 162h150l123 690h-434l-123 -690h145l-27 -162h-516z" />
<glyph unicode="&#xfb02;" horiz-adv-x="1327" d="M16 0l27 162h178l123 690h-262l12 72h84q100 0 158 50t72 138q28 159 155 268t320 109q98 0 170 -30t109 -79.5t50 -108.5t2 -122l-174 -987h160l-26 -162h-502l26 162h150l174 983q23 131 -22.5 194.5t-165.5 63.5q-118 0 -196 -78t-97 -182q-16 -90 21 -154.5 t122 -64.5h147l-12 -72h-282l-123 -690h145l-27 -162h-516z" />
<glyph unicode="&#xfb03;" horiz-adv-x="1943" d="M16 0l27 162h178l123 690h-262l12 72h84q100 0 158 50t72 138q31 178 148 271.5t280 93.5q122 0 176.5 -65.5t38.5 -160.5q-6 -37 -38.5 -63.5t-70.5 -26.5t-60 24.5t-16 61.5t40.5 60.5t74.5 23.5q-43 72 -147 72q-113 0 -191.5 -73t-97.5 -171q-16 -97 37.5 -166 t173.5 -69h59q94 0 149.5 50.5t69.5 137.5q28 157 153.5 261t319.5 104q98 0 170 -24t109 -65.5t51 -92t4 -107.5q-9 -54 -55 -92.5t-100 -38.5t-85 38.5t-22 92.5t54.5 92.5t99.5 38.5q-70 84 -238 84q-128 0 -214 -68.5t-101 -158.5q-15 -83 40.5 -142t178.5 -59h411 l-143 -813h160l-27 -162h-502l27 162h150l122 690h-434l-123 -690h146l-27 -162h-487l26 162h150l123 690h-434l-123 -690h145l-27 -162h-516z" />
<glyph unicode="&#xfb04;" horiz-adv-x="1943" d="M16 0l27 162h178l123 690h-262l12 72h84q100 0 158 50t72 138q31 178 148 271.5t280 93.5q122 0 176.5 -65.5t38.5 -160.5q-6 -37 -38.5 -63.5t-70.5 -26.5t-60 24.5t-16 61.5t40.5 60.5t74.5 23.5q-43 72 -147 72q-113 0 -191.5 -73t-97.5 -171q-11 -62 2 -113t60 -86.5 t124 -35.5h74q100 0 157.5 50t71.5 138q31 175 170 276t305 101q98 0 170 -30t109.5 -79.5t50.5 -108.5t2 -122l-174 -987h160l-27 -162h-502l27 162h150l174 983q23 131 -23 194.5t-166 63.5q-113 0 -191.5 -73t-97.5 -171q-16 -97 37.5 -166t173.5 -69h148l-12 -72h-355 l-123 -690h146l-27 -162h-487l26 162h150l123 690h-434l-123 -690h145l-27 -162h-516z" />
<glyph horiz-adv-x="2048" />
<glyph horiz-adv-x="2048" />
<glyph unicode="&#xd;" horiz-adv-x="2048" />
<glyph unicode=" "  horiz-adv-x="471" />
<glyph unicode="&#x09;" horiz-adv-x="471" />
<glyph unicode="&#xa0;" horiz-adv-x="471" />
<glyph unicode="!" horiz-adv-x="770" d="M186 133q9 57 57.5 98t106.5 41t91 -40.5t24 -98.5q-10 -58 -57.5 -98.5t-106.5 -40.5t-92 40.5t-23 98.5zM317 444q29 169 46 504t30 410q12 67 62 100t106 33q55 0 93 -33.5t26 -103.5q-13 -75 -111 -409.5t-127 -500.5h-125z" />
<glyph unicode="&#x22;" horiz-adv-x="921" d="M268 874l17 582h272l-182 -582h-107zM707 874l14 582h274l-184 -582h-104z" />
<glyph unicode="#" horiz-adv-x="1681" d="M-8 416l49 143h436l127 381h-436l49 143h438l125 373h174l-125 -373h351l125 373h174l-125 -373h436l-49 -143h-438l-127 -381h438l-51 -143h-437l-139 -416h-174l139 416h-350l-139 -416h-174l139 416h-436zM651 559h350l127 381h-350z" />
<glyph unicode="$" horiz-adv-x="1085" d="M82 215l57 324h199q-45 -256 217 -256q99 0 162 44.5t78 127.5q7 45 -9 78.5t-55 56.5t-79.5 37t-102.5 28q-73 17 -112.5 28t-98.5 37t-87 56t-45.5 80.5t-6.5 114.5q25 143 138.5 221t258.5 78l41 229h164l-72 -264q57 -29 84.5 -80.5t15.5 -122.5h17l35 199h161 l-55 -322h-199q41 258 -198 258q-74 0 -126 -37.5t-65 -107.5q-7 -42 6.5 -74t47.5 -54.5t71 -36.5t92 -28q160 -40 214 -62q153 -61 171 -177q6 -39 -2 -86q-20 -109 -89.5 -184t-162.5 -107.5t-204 -32.5l-35 -217h-164l68 250q-128 63 -117 205h-16l-35 -203h-162z" />
<glyph unicode="%" horiz-adv-x="1570" d="M10 0l1426 1456h188l-1421 -1456h-193zM156 1120q28 162 149.5 266.5t282.5 104.5q162 0 246.5 -104.5t56.5 -266.5q-28 -160 -151 -264t-283 -104q-161 0 -245 104t-56 264zM328.5 975q4.5 -56 39.5 -82.5t109 -26.5q60 0 96 11t61 42.5t38.5 76t27.5 124.5 q16 88 15.5 145t-35 85t-113.5 28q-108 0 -154 -54.5t-73 -203.5q-16 -89 -11.5 -145zM776 362q28 162 149.5 266.5t282.5 104.5q162 0 246.5 -104.5t56.5 -266.5q-29 -160 -151.5 -264t-282.5 -104q-161 0 -245.5 104t-55.5 264zM960.5 168.5q28.5 -59.5 137.5 -59.5 q60 0 96 10.5t61 42t38.5 76t27.5 124.5q16 88 15.5 145.5t-35 85.5t-113.5 28q-108 0 -155 -55t-72 -204q-29 -134 -0.5 -193.5z" />
<glyph unicode="&#x26;" horiz-adv-x="1687" d="M80 326q13 76 50 142.5t95 122.5t118 99t142 90q-62 188 -32 353q14 81 66 149.5t124.5 112.5t154.5 68t160 24q83 0 144.5 -25t93.5 -81.5t18 -137.5q-7 -39 -24.5 -75.5t-39 -65.5t-56 -59.5t-64.5 -52.5t-76.5 -50.5t-79.5 -47t-86.5 -48t-85.5 -47.5 q56 -138 151 -276.5t200 -239.5q207 187 254 430h-248l28 161h601l-29 -161h-186q-105 -292 -347 -494q115 -90 197 -90q60 0 110.5 34.5t61.5 98.5l27 156h84l-29 -170q-26 -141 -122 -214t-214 -73q-132 0 -297 133q-240 -135 -479 -135q-127 0 -220 40.5t-139.5 125.5 t-25.5 203zM309 352q-26 -151 38 -226t190 -75q154 0 340 103q-108 101 -202 238t-153 286q-181 -143 -213 -326zM641 1139q-21 -110 31 -260q66 35 108.5 59.5t94.5 60.5t83.5 68t57 74.5t33.5 87.5q14 78 -27 122t-111 44q-88 0 -169 -68t-101 -188z" />
<glyph unicode="'" horiz-adv-x="493" d="M268 874l17 582h272l-182 -582h-107z" />
<glyph unicode="(" horiz-adv-x="768" d="M173 329q-17 182 22 398q38 215 119.5 401.5t187.5 315.5t232.5 202.5t254.5 73.5l-28 -161q-142 0 -260 -111.5t-195.5 -295.5t-120.5 -427q-25 -139 -30 -262.5t11 -228t53 -180t100 -118t147 -42.5l-29 -162q-129 0 -230.5 74.5t-159 207.5t-74.5 315z" />
<glyph unicode=")" horiz-adv-x="768" d="M-127 -266l29 162q141 0 258 111t194 295t119 427q31 175 30.5 324.5t-32 263.5t-102.5 179t-176 65l28 161q130 0 231.5 -74.5t159.5 -207.5t75 -315t-23 -398q-37 -215 -118.5 -401.5t-187 -315.5t-232 -202.5t-253.5 -73.5z" />
<glyph unicode="*" horiz-adv-x="747" d="M166 1059q29 15 70.5 19t101.5 17t133 48q-61 35 -115 47.5t-93.5 16.5t-65.5 20l110 147q23 -16 41 -48.5t49.5 -76.5t87.5 -86q11 94 2.5 135.5t-18 83t-4.5 74.5h166q-5 -30 -27.5 -67t-50 -93.5t-45.5 -132.5q56 31 98 65.5t61 58.5t43.5 48.5t51.5 38.5l57 -147 q-30 -15 -70.5 -19.5t-100.5 -17.5t-134 -47q61 -33 115.5 -45.5t93 -17.5t65.5 -21l-110 -148q-20 13 -35.5 37t-26.5 48.5t-41 59t-75 66.5q-9 -93 -0.5 -135.5t17.5 -83.5t3 -74h-166q5 31 28 68t51 93t44 132q-69 -42 -115.5 -86t-76 -76t-62.5 -49z" />
<glyph unicode="+" horiz-adv-x="1185" d="M68 496l26 153h457l82 457h153l-81 -457h454l-26 -153h-455l-80 -455h-154l80 455h-456z" />
<glyph unicode="," horiz-adv-x="585" d="M25 -248q104 16 172 85t82 145q11 66 -5 90q-42 -58 -118 -58q-56 0 -87.5 41t-21.5 105q11 62 58 102.5t116 40.5q95 0 140.5 -78t25.5 -184q-27 -156 -124 -259t-234 -110z" />
<glyph unicode="-" horiz-adv-x="606" d="M59 477l31 185h492l-31 -185h-492z" />
<glyph unicode="." horiz-adv-x="514" d="M45 147q12 65 66 110.5t118 45.5t100.5 -45.5t24.5 -110.5q-10 -64 -62.5 -108.5t-117.5 -44.5t-102 44.5t-27 108.5z" />
<glyph unicode="/" horiz-adv-x="978" d="M-68 0l1031 1456h188l-1026 -1456h-193z" />
<glyph unicode="0" horiz-adv-x="1257" d="M135 725q39 219 138.5 393t239.5 271.5t296 97.5q118 0 208.5 -56.5t142 -158t67.5 -241t-15 -306.5q-38 -218 -138 -392t-239.5 -271t-293.5 -97q-155 0 -261 97t-144.5 271t-0.5 392zM351 236.5q46 -150.5 210 -150.5q117 0 192 56t130.5 194t99.5 389 q63 330 19.5 485.5t-216.5 155.5q-112 0 -188 -58.5t-133 -199t-100 -383.5q-60 -338 -14 -488.5z" />
<glyph unicode="1" horiz-adv-x="1257" d="M242 0l26 162h283l151 854h-315l19 110q178 4 296.5 96.5t145.5 233.5h125l-230 -1294h250l-26 -162h-725z" />
<glyph unicode="2" horiz-adv-x="1257" d="M74 0l16 94q10 55 32 106t58.5 97.5t71 83t90.5 80t93 70.5t103.5 72.5t98.5 68.5q68 48 116.5 88t96 91t77 108t40.5 120q11 58 2 104.5t-31.5 81.5t-56.5 57.5t-74.5 34t-85.5 11.5q-82 0 -157.5 -35.5t-106.5 -95.5q36 0 63 -10q51 -18 75 -60.5t15 -89.5 q-13 -82 -71 -128t-133 -46q-77 0 -117.5 53t-22.5 152q12 68 56 135.5t111.5 123t163 90t198.5 34.5q91 0 169 -26.5t134 -76t80.5 -127.5t7.5 -174q-14 -79 -54 -150.5t-103 -132t-127 -107t-150 -97.5q-44 -26 -117 -67.5t-117 -67t-101 -63t-91 -67.5t-62.5 -68 t-38.5 -77q57 46 166 46q61 0 196 -18.5t195 -18.5q166 0 213 104q12 32 17 57h96q-7 -38 -21 -84q-41 -163 -118.5 -227.5t-188.5 -64.5q-74 0 -172.5 26.5t-187 53t-137.5 26.5q-94 0 -107 -90h-102z" />
<glyph unicode="3" horiz-adv-x="1257" d="M117 338q17 99 75.5 152t135.5 53q75 0 116 -46t27 -128q-10 -62 -70 -111t-141 -49q27 -63 93.5 -98t148.5 -35q62 0 122 19.5t113 56.5t92 98t52 137q23 136 -44.5 229t-191.5 93h-72l19 104h72q111 0 203 81t110 185q13 74 -1.5 132t-51 92.5t-83.5 52.5t-102 18 q-77 0 -151.5 -34t-114.5 -91q30 0 51 -6q53 -14 79 -55.5t18 -89.5q-13 -77 -68 -121.5t-127 -44.5q-74 0 -113 50t-22 144q21 112 103 197t191 126.5t224 41.5q92 0 166 -23.5t127 -70.5t74 -123.5t4 -175.5q-22 -121 -114 -213.5t-249 -114.5l-4 -16q158 -29 233 -134 t48 -251q-18 -104 -76 -185.5t-140 -130.5t-176 -74.5t-192 -25.5q-90 0 -167.5 24.5t-135 71t-82.5 121.5t-8 168z" />
<glyph unicode="4" horiz-adv-x="1257" d="M70 395l24 144l795 917h239l-161 -921h196l-24 -140h-197l-43 -233h160l-27 -162h-553l27 162h209l43 233h-688zM270 535h512l92 524q22 137 54 244z" />
<glyph unicode="5" horiz-adv-x="1257" d="M117 348q18 99 77 152t136 53q75 0 116 -46t27 -128q-11 -62 -70.5 -111t-140.5 -49q27 -63 93.5 -98t148.5 -35q336 0 401 365q33 182 -30.5 276t-223.5 94q-116 0 -237 -73h-123l125 708q163 -24 381 -24q300 0 450 41l-8 -46q-7 -42 -36.5 -76.5t-87 -64t-157 -46.5 t-233.5 -17q-93 0 -211 16l-68 -385q47 33 116.5 52.5t144.5 19.5q98 0 177 -26t129.5 -71t82.5 -106t37.5 -132t-5.5 -149q-17 -92 -64.5 -176.5t-123 -153t-186.5 -109t-242 -40.5q-90 0 -167.5 24.5t-135 71t-83 121.5t-9.5 168z" />
<glyph unicode="6" horiz-adv-x="1257" d="M128.5 392q-17.5 134 12.5 300q37 213 153 396t279 291t332 108q107 0 188.5 -33t124 -102.5t25.5 -165.5q-14 -77 -69 -119.5t-117 -42.5q-59 0 -90 34.5t-21 98.5q8 49 54 89t108 40q-29 57 -81.5 82t-137.5 25q-197 0 -323 -159.5t-189 -510.5q58 107 167 167t230 60 q64 0 124.5 -19t112.5 -56.5t87 -93t48 -129t-3 -165.5q-41 -232 -209 -377t-381 -145q-117 0 -207.5 51.5t-145 146.5t-72 229zM340 479q-34 -191 28.5 -296t204.5 -105q149 0 219.5 92t104.5 293q37 203 -20.5 291t-192.5 88q-114 0 -214.5 -96.5t-129.5 -266.5z" />
<glyph unicode="7" horiz-adv-x="1257" d="M223 1073l68 383h172l-43 -237h16q94 264 303 264q58 0 111.5 -18t88 -39.5t79.5 -39.5t88 -18q93 0 108 88h95l-9 -43q-11 -64 -36.5 -131.5t-53 -120.5t-74 -124.5t-77.5 -114t-88.5 -119.5t-83.5 -113q-117 -164 -189 -304t-100 -304q-10 -53 -54 -83t-98 -30 q-53 0 -85 29t-23 82q15 88 48.5 172.5t72.5 151t96.5 139t105 123t113.5 116.5q18 18 70 69.5t72.5 72t62 64.5t61.5 71t47.5 64.5t43.5 71.5t26 69q-53 -62 -176 -62q-49 0 -165 23.5t-185 23.5q-85 0 -133.5 -42t-65.5 -134h-209z" />
<glyph unicode="8" horiz-adv-x="1257" d="M109 358q14 80 56.5 146.5t104 112t129 76t140.5 46.5q-119 36 -186 140t-44 235q28 159 171.5 268t334.5 109t295 -109t76 -268q-23 -134 -126.5 -218t-234.5 -110q156 -38 241 -148.5t58 -260.5q-34 -190 -190 -302t-389 -112q-235 0 -351 108t-85 287zM313 383 q-28 -161 42.5 -237t207.5 -76q140 0 224 74.5t108 205.5q26 155 -32 234t-230 123q-123 -14 -208 -95t-112 -229zM522 1128q-24 -130 29.5 -204.5t179.5 -104.5q119 19 180 85.5t86 201.5q47 278 -200 278q-110 0 -182 -69t-93 -187z" />
<glyph unicode="9" horiz-adv-x="1257" d="M82 158l151 145q18 -66 89 -115t163 -49q128 0 218.5 54t160.5 185.5t117 354.5q-59 -106 -173.5 -166.5t-236.5 -60.5q-81 0 -155.5 30t-132 86t-83.5 146.5t-7 200.5q41 232 209.5 377t381.5 145q118 0 208.5 -48.5t145.5 -140t72.5 -223t-12.5 -297.5 q-42 -237 -148.5 -422t-260.5 -288t-330 -103q-128 0 -226.5 49t-150.5 140zM436 979q-37 -203 20.5 -291t192.5 -88q114 0 214.5 96.5t129.5 266.5q34 191 -28.5 296t-204.5 105q-149 0 -219.5 -92t-104.5 -293z" />
<glyph unicode=":" horiz-adv-x="514" d="M45 147q12 65 66 110.5t118 45.5t100.5 -45.5t24.5 -110.5q-10 -64 -62.5 -108.5t-117.5 -44.5t-102 44.5t-27 108.5zM174 877q10 64 63.5 109.5t118.5 45.5q64 0 101 -45t26 -110q-10 -64 -62.5 -109t-117.5 -45t-102 45t-27 109z" />
<glyph unicode=";" horiz-adv-x="514" d="M25 -248q104 16 172 85t82 145q11 66 -5 90q-42 -58 -118 -58q-56 0 -87.5 41t-21.5 105q11 62 58 102.5t116 40.5q95 0 140.5 -78t25.5 -184q-27 -156 -124 -259t-234 -110zM174 877q10 64 63.5 109.5t118.5 45.5q64 0 101 -45t26 -110q-10 -64 -62.5 -109t-117.5 -45 t-102 45t-27 109z" />
<glyph unicode="&#x3c;" horiz-adv-x="1171" d="M119 508l26 149l1026 523l-20 -121l-811 -459l655 -422l-26 -153z" />
<glyph unicode="=" horiz-adv-x="1187" d="M47 393l29 154h1065l-29 -154h-1065zM131 860l27 154h1065l-27 -154h-1065z" />
<glyph unicode="&#x3e;" horiz-adv-x="1171" d="M47 25l21 120l811 459l-656 422l27 154l848 -484l-25 -149z" />
<glyph unicode="?" horiz-adv-x="1077" d="M115 1030l75 426h209l-47 -262h15q25 95 96.5 163.5t162 101t189.5 32.5q63 0 121 -14t106.5 -43.5t81.5 -71.5t46 -101t1 -128q-15 -87 -57 -157t-97 -116t-118.5 -84.5t-126 -71.5t-115.5 -68t-91 -83.5t-48 -108.5h-137q0 6 6 54q14 79 49.5 139t81.5 97.5t99 67.5 t105 58.5t97 61t78 83.5t45 119q21 111 -41 172.5t-166 61.5q-58 0 -116 -20.5t-110.5 -59.5t-92 -103.5t-54.5 -144.5h-247zM270 133q9 57 57.5 98t106.5 41t91 -40.5t24 -98.5q-10 -58 -57.5 -98.5t-106.5 -40.5t-92 40.5t-23 98.5z" />
<glyph unicode="@" horiz-adv-x="1691" d="M88 485q24 131 86 251t152.5 214t200 163.5t234 106.5t249.5 37q160 0 289.5 -56.5t210.5 -154.5t113 -235t5 -293q-21 -123 -67 -223t-103 -161t-117.5 -93.5t-117.5 -32.5q-158 0 -129 160q8 45 32 137h-16q-47 -104 -142 -164.5t-237 -60.5q-152 0 -236 107.5 t-53 287.5q31 173 164 294.5t299 121.5q131 0 196 -63t70 -162h17q-3 66 14 194h156l-113 -633q-8 -47 9 -64.5t55 -17.5q60 0 121 94t94 279q24 136 -4.5 254t-100 200.5t-183.5 129.5t-249 47t-265 -51t-227 -138.5t-168.5 -209t-93.5 -258.5q-33 -184 18.5 -330t179 -229 t310.5 -83q154 0 283 56l27 -121q-179 -74 -344 -74q-340 0 -510.5 209.5t-108.5 564.5zM618 485q-24 -137 29.5 -221t169.5 -84t205.5 85.5t112.5 219.5q25 135 -29.5 214t-171.5 79q-118 0 -204.5 -79.5t-111.5 -213.5z" />
<glyph unicode="A" d="M-113 0l29 162h207l741 1347h191l229 -1347h205l-27 -162h-649l27 162h211l-45 309h-535l-158 -309h205l-26 -162h-605zM543 612h440l-98 668z" />
<glyph unicode="B" horiz-adv-x="1542" d="M0 0l27 162h200l201 1130h-201l29 164h813q118 0 205.5 -31t133.5 -83t64 -114q10 -37 9 -76q0 -27 -4 -54q-23 -132 -135.5 -230t-270.5 -98l-4 -18q98 0 172 -31t115 -83q40 -52 56 -116q8 -35 9 -71q0 -31 -6 -62q-13 -74 -55 -142.5t-108 -124t-165 -89t-215 -33.5 h-870zM438 162h398q153 0 249 75.5t115 180.5q4 24 4 46q0 78 -54 140q-70 80 -220 80h-400zM559 846h399q114 0 188.5 63.5t90.5 151.5q3 20 3 39q0 70 -45 124q-58 68 -187 68h-369z" />
<glyph unicode="C" horiz-adv-x="1546" d="M164 705q26 149 88 278.5t144 221t180 157t198.5 97.5t196.5 32q371 0 411 -301h21l49 274h195l-80 -452h-228q3 22 3 42q0 118 -88 192q-103 88 -279 87q-90 0 -181.5 -38.5t-171.5 -108.5t-140.5 -180.5t-84.5 -243.5q-11 -65 -12 -125q0 -63 13 -121q24 -112 87 -189 t160 -120t217 -43q129 0 253.5 60t217.5 161l105 -162q-116 -125 -271.5 -191.5t-326.5 -66.5q-251 0 -418 93.5t-232 259.5q-41 104 -41 230q0 75 15 157z" />
<glyph unicode="D" horiz-adv-x="1677" d="M0 0l27 162h200l201 1130h-201l29 164h612q151 0 275 -27t222.5 -83.5t158 -143t81.5 -205.5q10 -52 10 -111q0 -75 -16 -161q-35 -196 -117.5 -337t-211 -225.5t-290 -123.5t-368.5 -39h-612zM438 162h201q119 0 208.5 12.5t177 49t149.5 98t109.5 163t72.5 240.5 q15 76 15 141q0 42 -6 78q-15 94 -55.5 160.5t-112 108t-159.5 60.5t-198 19h-201z" />
<glyph unicode="E" horiz-adv-x="1472" d="M0 0l27 162h200l201 1130h-201l29 164h1323l-82 -459h-147l30 170q2 11 2 22q0 39 -23 67q-29 36 -95 36h-625l-78 -438h488l-29 -160h-488l-94 -532h625q64 0 109.5 39t54.5 98l26 152h148l-78 -451h-1323z" />
<glyph unicode="F" horiz-adv-x="1411" d="M0 0l27 162h200l201 1130h-201l29 164h1323l-82 -459h-147l30 170q2 11 2 22q0 39 -23 67q-29 36 -95 36h-625l-86 -483h545l-29 -160h-545l-86 -487h242l-27 -162h-653z" />
<glyph unicode="G" horiz-adv-x="1726" d="M160 395q-12 64 -12 137q0 81 16 173q28 159 94.5 292.5t152.5 223t188.5 152t203.5 90.5t198 28q168 0 281 -80.5t123 -224.5h20l50 280h194l-82 -458h-227q2 19 2 38q0 74 -38 133q-49 74 -134.5 111t-190.5 37q-76 0 -150.5 -20.5t-147.5 -66t-133 -111.5t-106 -163.5 t-67 -215.5q-15 -90 -15 -165q0 -52 7 -97q17 -110 72.5 -182t136.5 -107t184 -35q191 0 327.5 108t164.5 267h-445l29 163h856l-29 -163h-178l-94 -537h-106q18 103 28 231.5t10 186.5h-20q-26 -88 -74 -166t-119 -144.5t-173.5 -105.5t-223.5 -39q-155 0 -275.5 51 t-195 146.5t-102.5 232.5z" />
<glyph unicode="H" horiz-adv-x="1710" d="M0 0l27 162h200l201 1130h-201l29 164h612l-28 -164h-201l-78 -440h723l78 440h-201l29 164h612l-28 -164h-201l-201 -1130h201l-27 -162h-612l27 162h200l92 520h-723l-92 -520h201l-27 -162h-612z" />
<glyph unicode="I" horiz-adv-x="776" d="M0 0l27 162h200l201 1130h-201l29 164h612l-28 -164h-201l-201 -1130h201l-27 -162h-612z" />
<glyph unicode="J" horiz-adv-x="1120" d="M4 406q9 49 32 96.5t57 87t83.5 64t104.5 24.5q72 0 115 -52q33 -40 33 -93q0 -15 -3 -31q-14 -73 -72 -123.5t-129 -50.5q-52 0 -89.5 27t-49.5 71q-6 -36 -6 -69q0 -40 9 -75q16 -64 53 -103.5t86 -60t106 -20.5q53 0 106.5 18t102.5 52.5t85.5 92.5t49.5 132l160 899 h-279l29 164h690l-29 -164h-200l-158 -891q-16 -90 -55 -163.5t-91 -123t-115.5 -83.5t-127.5 -49t-129 -15q-89 0 -162 25.5t-127.5 76t-76.5 137.5q-12 47 -12 101q0 47 9 99z" />
<glyph unicode="K" horiz-adv-x="1556" d="M0 0l27 162h200l201 1130h-201l29 164h612l-28 -164h-201l-109 -614l730 614h-197l29 164h559l-29 -164h-162l-602 -497l506 -633h133l-27 -162h-571l27 162h151l-385 495l-194 -159l-60 -336h201l-27 -162h-612z" />
<glyph unicode="L" horiz-adv-x="1339" d="M0 0l27 162h200l201 1130h-201l29 164h612l-28 -164h-201l-201 -1130h488q119 0 176 58t80 183l24 132h148l-94 -535h-1260z" />
<glyph unicode="M" horiz-adv-x="1988" d="M0 0l27 162h200l201 1130h-201l29 164h532q112 -614 201 -1182q351 730 588 1182h504l-29 -164h-201l-200 -1130h200l-26 -162h-596l26 162h201l152 852q34 206 63 323q-59 -134 -153 -315l-519 -1022h-149l-188 1020q-6 39 -18 103t-20.5 116t-13.5 98 q-12 -107 -49 -319l-151 -856h200l-26 -162h-584z" />
<glyph unicode="N" horiz-adv-x="1679" d="M0 0l27 162h200l201 1130h-201l29 164h532q263 -680 332 -869t86 -282q14 129 68 449l96 538h-201l29 164h580l-29 -164h-201l-231 -1312h-162l-453 1095q-35 82 -94 244q-11 -94 -45 -287l-153 -870h200l-26 -162h-584z" />
<glyph unicode="O" horiz-adv-x="1765" d="M168 725q39 219 166.5 394t318.5 273.5t410 98.5q167 0 298.5 -57.5t212.5 -158.5t112 -243q16 -73 16 -153q0 -74 -14 -154q-29 -163 -111 -304.5t-200 -241.5t-269 -157t-313 -57q-163 0 -294 57t-214 157q-83 99 -115 241q-17 75 -18 156q0 72 14 149zM432 725 q-20 -113 -20 -204q0 -161 62 -255q98 -146 347 -147q137 0 232 28.5t169.5 98t121.5 185.5t79 294q21 121 21 217q0 155 -55 245q-90 146 -355 146q-105 0 -185 -18t-149 -60t-118.5 -112.5t-87 -173.5t-62.5 -244z" />
<glyph unicode="P" horiz-adv-x="1437" d="M0 0l27 162h200l201 1130h-201l29 164h813q125 0 221 -36t149 -96.5t73 -135.5q12 -43 12 -89q0 -33 -6 -67q-14 -82 -62.5 -157.5t-125.5 -136t-192 -96.5t-251 -36h-369l-80 -444h221l-26 -162h-633zM545 762h377q134 0 223 79t108 183q4 25 4 49q-1 41 -13 79 q-20 60 -81 100t-155 40h-369z" />
<glyph unicode="Q" horiz-adv-x="1789" d="M168 725q39 219 166.5 394t318.5 273.5t410 98.5q167 0 298.5 -57.5t212.5 -158.5t112 -243q16 -73 16 -153q0 -74 -14 -154q-39 -224 -177.5 -402.5t-339.5 -273.5q5 -51 10 -85t16.5 -73.5t27.5 -62t43.5 -38t64.5 -15.5q84 0 125.5 47t59.5 145h61 q-26 -148 -99 -235.5t-192 -87.5q-48 0 -85 13t-62 40.5t-42 57t-28 75.5t-16.5 82t-10.5 90q-112 -37 -249 -37q-163 0 -294 57t-214 157t-115 241q-18 75 -18 156q0 72 14 149zM432 725q-20 -113 -20 -206q0 -341 280 -390q-61 45 -61 128q0 22 4 46q15 89 85.5 154 t178.5 65q57 0 100.5 -18t70.5 -46t46.5 -72.5t29 -86.5t17.5 -100q102 66 161.5 184t98.5 342q22 123 22 220q0 155 -55 243q-90 145 -356 145q-128 0 -222.5 -29t-171 -98t-127.5 -187.5t-81 -293.5zM702 268q-3 -14 -3 -28q0 -41 25 -76q34 -45 101 -45q129 0 213 24 q-8 57 -18 95.5t-29 75t-51.5 55t-79.5 18.5q-68 0 -109 -34.5t-49 -84.5z" />
<glyph unicode="R" horiz-adv-x="1581" d="M0 0l27 162h200l201 1130h-201l29 164h844q115 0 204 -31.5t139 -83.5t71 -117q13 -40 13 -82q0 -26 -5 -52q-18 -108 -101 -199.5t-223 -134.5q-112 -35 -272 -35l-4 -19q77 0 137 -13t97 -35.5t62 -53t33 -66.5t10 -74q0 -6 1 -12q0 -32 -9 -65q-8 -46 -22.5 -107 t-16.5 -75q-4 -20 -4 -35q0 -22 8 -33q13 -20 48 -20q31 0 60.5 29t39.5 89l18 103h76l-18 -113q-19 -97 -96.5 -172.5t-188.5 -75.5q-100 -1 -140 57q-27 38 -27 104q0 33 7 73q5 26 23 91.5t24 96.5q4 41 6 79q0 3 1 6q0 34 -14 63q-15 32 -43 55.5t-81 37t-127 13.5h-262 l-86 -487h201l-27 -162h-612zM551 801h387q144 0 224.5 63.5t99.5 167.5q8 32 8 62q0 22 -4 40q-9 48 -35.5 83t-85 55t-144.5 20h-362z" />
<glyph unicode="S" horiz-adv-x="1329" d="M45 0l78 453h248q-6 -38 -7 -72q0 -47 12 -89q20 -72 67 -116.5t107.5 -68t127.5 -23.5q116 0 208.5 63t114.5 189q5 29 5 56q0 86 -57 142q-75 73 -277 134q-82 25 -132.5 43.5t-117 56t-100.5 79.5q-34 41 -52 109q-10 37 -11 80q0 34 7 72q16 95 65.5 170t117.5 120.5 t146 69t159 23.5q154 0 254 -78q90 -70 89 -192q0 -13 -1 -27h14l47 262h209l-76 -426h-248q6 35 6 66q0 42 -10 78q-17 64 -55.5 103.5t-89.5 60t-109 20.5q-101 0 -183 -56t-99 -147q-5 -27 -5 -50q1 -73 47 -117q62 -60 251 -122q262 -86 372 -196q85 -85 85 -212 q0 -37 -7 -77q-18 -105 -73 -186.5t-131 -129.5t-160 -72t-170 -24q-109 0 -199 35t-146 108q-49 65 -50 149q0 11 1 22h-16l-49 -283h-207z" />
<glyph unicode="T" horiz-adv-x="1439" d="M121 1036l74 420h1398l-73 -420h-148l2 19q8 40 8 74q0 163 -178 163h-233l-201 -1130h211l-27 -162h-632l26 162h211l201 1130h-234q-212 0 -256 -235l-2 -21h-147z" />
<glyph unicode="U" horiz-adv-x="1667" d="M211 1292l29 164h612l-29 -164h-200l-144 -815q-6 -33 -5 -63q0 -42 10 -80q20 -64 65 -103t105 -60t130 -21q96 0 183.5 35t155.5 111t87 181l144 815h-201l29 164h594l-29 -164h-201l-145 -825q-21 -120 -86.5 -217t-157 -157t-197.5 -92t-215 -32t-203.5 32t-164.5 92 t-101 157q-18 58 -18 124q0 45 8 93l146 825h-201z" />
<glyph unicode="V" d="M117 1294l28 162h650l-29 -162h-211l129 -751q28 -185 47 -375q24 57 52.5 115.5t73 145t54.5 106.5l381 759h-205l29 162h604l-28 -162h-209l-725 -1327h-191l-245 1327h-205z" />
<glyph unicode="W" horiz-adv-x="2185" d="M147 1292l29 164h649l-28 -164h-222l52 -723q15 -224 20 -381q45 107 182 383l355 721h-223l28 164h613l-29 -164h-225l104 -731q35 -261 45 -373q46 129 152 385l295 719h-205l28 164h605l-29 -164h-209l-588 -1325h-200q-40 260 -144 1075q-198 -424 -534 -1075h-201 l-115 1325h-205z" />
<glyph unicode="X" horiz-adv-x="1671" d="M-41 2l29 162h188l586 551l-397 579h-183l29 162h649l-29 -162h-184l277 -440l444 440h-194l28 162h604l-28 -162h-193l-579 -542l403 -588h172l-29 -162h-649l29 162h194l-282 446l-451 -446h197l-29 -162h-602z" />
<glyph unicode="Y" d="M102 1294l29 162h649l-28 -162h-203l264 -626l475 626h-194l28 162h604l-28 -162h-199l-629 -757l-67 -375h201l-27 -162h-612l26 162h201l57 325l-352 807h-195z" />
<glyph unicode="Z" horiz-adv-x="1599" d="M25 0l16 94l1247 1211h-549q-157 0 -242 -91.5t-116 -267.5h-115l90 510h1270l-16 -94l-1252 -1210h541q214 0 317 96t142 315h110l-98 -563h-1345z" />
<glyph unicode="[" horiz-adv-x="768" d="M18 -268l353 1988h618l-28 -161h-429l-294 -1665h428l-29 -162h-619z" />
<glyph unicode="\" horiz-adv-x="978" d="M188 1456h189l518 -1456h-193z" />
<glyph unicode="]" horiz-adv-x="768" d="M-127 -266l29 162h426l293 1665h-428l28 161h619l-351 -1988h-616z" />
<glyph unicode="^" horiz-adv-x="1171" d="M18 522l680 934h150l326 -934h-154l-293 729l-588 -729h-121z" />
<glyph unicode="_" horiz-adv-x="1185" d="M-59 -207l26 154h1063l-26 -154h-1063z" />
<glyph unicode="`" horiz-adv-x="1167" d="M604 1456h248l221 -328h-78z" />
<glyph unicode="a" horiz-adv-x="1460" d="M88 290q-10 48 -10 100q0 58 12 122q25 147 112 272t211 198t255 73q78 0 140.5 -15.5t105 -42.5t72 -65t44.5 -79.5t21 -90.5h14q11 167 27 254h192l-151 -854h200l-26 -162h-394q25 145 72 289h-14q-71 -142 -200 -232t-310 -90q-95 0 -173.5 39.5t-129 111.5 t-70.5 172zM309 524q-10 -56 -11 -105q0 -110 51 -189q73 -115 224 -115q153 0 277 116.5t156 292.5q9 50 9 95q1 112 -55 190q-78 109 -231 109q-154 0 -272 -109t-148 -285z" />
<glyph unicode="b" horiz-adv-x="1419" d="M145 -20l232 1312h-201l29 164h393l-80 -452q-27 -146 -72 -273h15q73 142 202 232t310 90q95 0 173 -39.5t128.5 -111.5t70.5 -172q10 -48 9 -100q0 -58 -11 -122q-26 -146 -121.5 -272t-227 -198.5t-263.5 -72.5q-187 0 -278.5 81.5t-104.5 211.5h-14 q-62 -94 -101 -278h-88zM426 487q-8 -48 -8 -92q0 -117 60 -201q82 -116 235 -116q151 0 264.5 115t144.5 294q9 50 9 95q0 112 -57 190q-80 110 -234 109q-153 0 -267.5 -108.5t-146.5 -285.5z" />
<glyph unicode="c" horiz-adv-x="1062" d="M80 370q-2 19 -2 38q0 48 10 96q19 104 71.5 202t131.5 176t190.5 125.5t235.5 47.5q170 -1 262 -67q76 -55 76 -140q0 -19 -4 -39q-12 -72 -73 -124t-134 -52q-74 0 -116 44q-33 34 -33 83q0 15 3 31q9 53 44 92.5t79 46.5q-50 28 -143 28q-157 0 -277.5 -124.5 t-148.5 -286.5q-7 -50 -7 -97q1 -9 1 -18q2 -56 23.5 -105t56.5 -85.5t94 -58t135 -21.5q95 0 178.5 40.5t140.5 112.5l103 -157q-83 -91 -198 -142t-238 -51q-91 0 -167 21t-127.5 58.5t-90 88.5t-54.5 111t-22 126z" />
<glyph unicode="d" horiz-adv-x="1460" d="M88 290q-10 48 -10 100q0 58 12 122q25 147 112 272t211 198t255 73q78 0 140.5 -15.5t105 -42.5t72 -65t44.5 -79.5t21 -90.5h14q11 165 25 242l51 288h-201l29 164h393l-229 -1294h200l-26 -162h-394q25 145 72 289h-14q-71 -142 -200 -232t-310 -90q-95 0 -173.5 39.5 t-129 111.5t-70.5 172zM309 524q-10 -56 -11 -105q0 -110 51 -189q73 -115 224 -115q153 0 277 116.5t156 292.5q9 50 9 95q1 112 -55 190q-78 109 -231 109q-154 0 -272 -109t-148 -285z" />
<glyph unicode="e" horiz-adv-x="1169" d="M88 510q26 148 118 273.5t225 198.5t274 73q241 1 345 -151q71 -104 72 -265q0 -74 -16 -160h-799q-2 -24 -2 -47q0 -148 79 -228q91 -94 247 -93q223 0 340 180l49 -27q-198 -299 -506 -299q-141 0 -248 73q-108 72 -156 198q-31 81 -31 173q0 49 9 101zM324 571h616 q7 41 7 78q1 99 -47 167q-64 93 -214 93q-132 0 -233.5 -91.5t-128.5 -246.5z" />
<glyph unicode="f" horiz-adv-x="874" d="M16 0l27 162h178l123 690h-262l12 72h84q100 0 158 50t72 138q31 178 148 271.5t280 93.5q134 0 212 -69q62 -54 62 -139q0 -23 -4 -48q-11 -54 -56.5 -92.5t-99.5 -38.5t-85 38q-23 30 -23 68q0 12 2 25q9 54 54 92.5t99 38.5q-35 51 -151 51q-113 0 -189.5 -72.5 t-95.5 -171.5q-4 -24 -4 -45q0 -69 39 -122q50 -68 170 -68h137l-12 -72h-354l-123 -690h219l-27 -162h-590z" />
<glyph unicode="g" horiz-adv-x="1171" d="M-45 -197q14 90 96 152t195 80q-140 0 -190 40q-39 32 -39 84q0 14 3 29q14 81 86.5 147.5t155.5 98.5q-57 87 -57 180q0 30 6 60q27 159 168 271t330 112q30 0 97 -10.5t105 -10.5q78 0 142 58t77 127q2 12 2 23q0 26 -10 46q-17 -49 -53 -76.5t-82 -27.5q-55 0 -82 34 q-20 25 -20 61q0 13 2 26q10 59 55.5 100t126.5 41q98 0 139 -56q31 -41 31 -97q0 -20 -4 -42q-16 -99 -100.5 -179t-200.5 -81q85 -61 122 -141q23 -51 23 -116q0 -38 -8 -81q-28 -163 -153.5 -264.5t-311.5 -101.5q-90 0 -169 27.5t-132 70.5q-49 0 -101.5 -40t-62.5 -95 q-2 -10 -2 -19q0 -38 27 -57q34 -24 94 -24q13 0 164 4t328 4q156 0 233 -60q61 -49 61 -128q0 -21 -4 -44q-28 -162 -197.5 -264t-426.5 -102q-140 0 -237 17t-148.5 49.5t-70.5 75.5q-11 27 -11 59q0 19 4 40zM90 -154q-2 -9 -2 -17q0 -58 74 -88q83 -34 274 -34 q362 0 393 182q7 26 1 48.5t-24 39t-61.5 26t-111.5 9.5h-209q-88 0 -153 -14.5t-101.5 -39.5t-55 -52.5t-24.5 -59.5zM410 647q-5 -27 -5 -52q0 -81 51 -138q65 -74 183 -74q117 0 208.5 76.5t113.5 193.5q6 33 6 62q0 81 -45 135q-60 74 -183 74q-117 0 -212 -80 t-117 -197z" />
<glyph unicode="h" horiz-adv-x="1355" d="M-20 0l26 162h201l203 1130h-201l29 164h393l-15 -84q-23 -129 -83.5 -348t-108.5 -369h20q67 188 212.5 294t291.5 106q59 0 108.5 -18.5t85.5 -55.5q38 -37 52 -99q7 -32 7 -68q0 -35 -7 -75l-102 -577h159l-26 -162h-553l26 162h201l80 442q9 52 9 93q0 79 -32 123 q-49 67 -145 67q-69 0 -138.5 -33t-124.5 -100.5t-71 -153.5l-78 -438h160l-27 -162h-552z" />
<glyph unicode="i" horiz-adv-x="675" d="M-20 0l26 162h201l123 690h-201l29 164h393l-152 -854h160l-27 -162h-552zM387 1333q11 56 58 95.5t102 39.5q56 0 88 -40q24 -30 24 -70q0 -12 -2 -25q-9 -55 -55 -95t-102 -40q-54 0 -88 40q-26 31 -27 72q0 11 2 23z" />
<glyph unicode="j" horiz-adv-x="612" d="M-336 -174q9 54 54.5 92.5t99.5 38.5q55 0 86 -34q24 -26 24 -63q0 -11 -2 -24q-9 -54 -54 -92.5t-99 -38.5q7 -23 37.5 -37t68.5 -14q39 0 71 6t71 26t69 54t56.5 95.5t41.5 144.5l154 872h-201l29 164h393l-182 -1036q-16 -94 -52 -166t-81 -115.5t-102.5 -71 t-111.5 -37.5t-114 -10q-126 0 -202 65q-59 51 -59 133q0 23 5 48zM399 1333q11 56 58 95.5t102 39.5q56 0 89 -40q24 -31 24 -70q0 -12 -2 -25q-9 -55 -55.5 -95t-102.5 -40q-55 0 -88 40q-27 31 -27 72q0 11 2 23z" />
<glyph unicode="k" horiz-adv-x="1269" d="M-20 0l26 162h201l201 1130h-201l29 164h393l-178 -1014l489 412h-215l29 162h532l-29 -162h-155l-346 -287l295 -405h127l-27 -162h-551l27 162h170l-195 278l-178 -141l-51 -299h-393z" />
<glyph unicode="l" horiz-adv-x="665" d="M-31 0l29 162h199l200 1130h-200l28 164h393l-229 -1294h160l-27 -162h-553z" />
<glyph unicode="m" horiz-adv-x="1929" d="M-12 0l26 162h201l123 690h-201l29 164h354q-38 -221 -86 -361h21q64 193 181 294.5t245 101.5q119 0 169 -85q30 -52 30 -138q0 -54 -11 -121q-2 -16 -10 -52h20q60 192 192.5 296t278.5 104q54 0 97 -18t75 -57q30 -38 40 -98q4 -25 5 -54q0 -40 -8 -89l-102 -577h160 l-27 -162h-512l27 162h159l80 442q8 57 8 100q0 18 -2 32q-4 52 -28 84t-54 44.5t-69 12.5q-96 0 -181 -72.5t-108 -204.5l-78 -438h160l-27 -162h-512l27 162h160l88 491q9 53 9 94q0 63 -22 98q-37 58 -131 58q-104 0 -189.5 -85t-109.5 -218l-77 -438h145l-27 -162h-538z " />
<glyph unicode="n" horiz-adv-x="1355" d="M-20 0l26 162h201l123 690h-201l29 164h354q-26 -151 -88 -361h20q67 188 212.5 294t291.5 106q59 0 108.5 -18.5t85.5 -55.5q38 -37 52 -99q7 -32 7 -68q0 -35 -7 -75l-102 -577h159l-26 -162h-553l26 162h201l80 442q9 52 9 93q0 79 -32 123q-49 67 -145 67 q-69 0 -138.5 -33t-124.5 -100.5t-71 -153.5l-78 -438h160l-27 -162h-552z" />
<glyph unicode="o" horiz-adv-x="1249" d="M88 508q43 238 222.5 392.5t416.5 154.5q240 0 365 -154q93 -115 93 -276q0 -56 -11 -117q-27 -155 -118.5 -279.5t-227.5 -194t-291 -69.5q-236 -1 -363 153q-96 116 -96 280q0 52 10 110zM304 262q8 -96 66.5 -140t184.5 -44q67 0 115.5 8t86.5 29.5t63.5 51t46.5 81.5 t35 111t30 149q26 140 26 234v10q-2 96 -60 142t-191 46q-96 0 -158 -20.5t-106.5 -73.5t-70.5 -131t-48 -207q-22 -119 -22 -204q0 -22 2 -42z" />
<glyph unicode="p" horiz-adv-x="1452" d="M-86 -401l29 161h196l193 1094h-201l29 162h393q-28 -156 -74 -285h15q73 143 202 233.5t310 90.5q95 0 173 -40t128.5 -112t70.5 -173q10 -47 10 -100q0 -58 -12 -122q-40 -224 -209 -383.5t-368 -159.5q-187 0 -278.5 81.5t-104.5 211.5h-15q-11 -169 -26 -258 l-43 -240h196l-28 -161h-586zM459 487q-9 -48 -9 -92q0 -116 60 -201q82 -116 235 -116q151 0 265 115t145 294q9 50 9 94q0 112 -58 191q-80 109 -234 109q-152 0 -266.5 -108.5t-146.5 -285.5z" />
<glyph unicode="q" horiz-adv-x="1449" d="M88 290q-10 48 -10 100q0 58 12 122q25 147 112 272t211 198t255 73q325 0 383 -293h14q10 148 27 254h393l-29 -162h-201l-192 -1094h156l-29 -161h-553l29 161h204l43 240q25 145 72 289h-14q-55 -137 -190.5 -229.5t-319.5 -92.5q-95 0 -173.5 39.5t-129 111.5 t-70.5 172zM307 512q-9 -50 -9 -94q0 -112 58 -190q80 -109 234 -109q153 0 267.5 108.5t146.5 284.5q8 48 8 92q0 116 -60 201q-82 117 -235 117q-151 0 -265 -115.5t-145 -294.5z" />
<glyph unicode="r" horiz-adv-x="1017" d="M6 0l27 162h168l123 690h-201l29 164h354q-6 -36 -20.5 -95.5t-36.5 -145t-33 -132.5h20q27 106 78.5 188t115 129.5t129.5 71t130 23.5q103 1 165 -51q47 -39 46 -111q0 -22 -4 -47q-17 -98 -76.5 -145.5t-130.5 -47.5q-65 0 -104 44q-30 34 -30 79q0 14 3 29 q20 121 164 147q-29 15 -88 15q-51 0 -107.5 -26t-109 -73.5t-93.5 -124t-57 -168.5l-74 -413h238l-27 -162h-598z" />
<glyph unicode="s" horiz-adv-x="1085" d="M45 0l55 324h199q-7 -38 -6 -70q0 -186 223 -186q99 0 163 45t77 127q2 13 2 26q0 22 -8 42q-13 30 -32.5 49t-63 37.5t-73.5 27.5t-89 24q-71 18 -108 29t-93.5 37t-82.5 55t-42 78q-9 29 -9 62q0 23 5 49q25 142 135 220.5t242 78.5q119 0 195 -63q62 -52 62 -137 q0 -18 -3 -38h16l35 199h162l-58 -322h-198q6 37 6 69q0 189 -205 189q-74 0 -125.5 -37.5t-63.5 -107.5q-2 -13 -3 -25q-1 -20 7 -38q10 -28 29.5 -48t55.5 -37t67.5 -27.5t79.5 -23.5q155 -41 205 -61q140 -58 161 -164q4 -20 3 -41q0 -24 -4 -51q-15 -82 -58 -146 t-104 -102.5t-130.5 -58t-144.5 -19.5q-121 0 -200 63q-69 55 -69 148q0 13 1 27h-16l-35 -203h-162z" />
<glyph unicode="t" horiz-adv-x="917" d="M68 852l12 74q71 0 122.5 7t99.5 26t81.5 52.5t63.5 87t52 128.5t40 178h61l-68 -389h381l-28 -164h-381l-107 -598q-2 -13 -2 -26q-1 -46 29 -72q38 -34 100 -35q61 0 110.5 35t59.5 98l29 156h84l-31 -170q-25 -141 -121.5 -214t-214.5 -73q-113 0 -189 64 q-61 52 -61 128q0 18 3 37l118 670h-243z" />
<glyph unicode="u" horiz-adv-x="1355" d="M119 852l28 164h383l-110 -631q-7 -39 -7 -71q1 -72 35 -114q50 -61 144 -61q53 0 105 19.5t100.5 57t84.5 101t50 144.5l69 391h-229l29 164h422l-152 -854h170l-27 -162h-323q18 115 90 360h-20q-45 -127 -132 -218t-182.5 -132t-189.5 -41q-59 0 -108.5 19.5t-87 59 t-51.5 100.5q-7 30 -6 65q0 37 7 80l98 559h-190z" />
<glyph unicode="v" horiz-adv-x="1142" d="M37 854l29 162h520l-29 -162h-186q94 -290 178 -649q170 289 403 649h-166l29 162h455l-29 -162h-131l-586 -883h-88l-282 883h-117z" />
<glyph unicode="w" horiz-adv-x="1628" d="M43 854l29 162h516l-29 -162h-170q13 -67 38 -193.5t44 -229t35 -193.5q43 83 187.5 355.5t221.5 422.5h58q117 -550 155 -780q79 167 310 618h-183l29 162h465l-29 -162h-131l-493 -883h-84q-95 330 -162 686q-165 -322 -371 -686h-90l-229 883h-117z" />
<glyph unicode="x" horiz-adv-x="1298" d="M-27 0l27 162h176l397 321l-340 371h-110l29 162h493l-29 -162h-145l217 -252l303 252h-164l29 162h492l-29 -162h-176l-393 -328l335 -364h111l-27 -162h-491l27 162h145l-217 250l-299 -250h160l-27 -162h-494z" />
<glyph unicode="y" horiz-adv-x="1097" d="M-160 -188q12 67 57.5 109t100.5 42q56 0 86 -36q22 -27 22 -67q0 -13 -2 -28q-9 -52 -54 -88.5t-93 -36.5q14 -19 24.5 -29.5t33.5 -19t55 -8.5q97 0 161.5 65t190.5 285l-289 854h-117l29 162h520l-28 -162h-175q98 -305 191 -623q250 418 379 623h-166l29 162h454 l-28 -162h-131l-637 -956q-60 -89 -100 -141t-89 -97.5t-99.5 -64.5t-113.5 -19q-110 0 -170 66q-46 49 -46 122q0 23 5 48z" />
<glyph unicode="z" horiz-adv-x="1251" d="M10 0l17 94l934 811h-338q-159 0 -253 -92.5t-124 -265.5h-94l81 469h1000l-16 -94l-916 -811h274q217 0 330 98t150 313h90l-90 -522h-1045z" />
<glyph unicode="{" horiz-adv-x="768" d="M104 649l27 152h78q57 0 85.5 39t39.5 112q7 37 17.5 135.5t19.5 153.5q11 64 28 116.5t47 109t76 99t109.5 78t154.5 55t203 21.5l-28 -161q-91 -2 -161 -22.5t-114.5 -51.5t-76 -78.5t-47.5 -94t-27 -106.5q-7 -42 -16.5 -131t-16.5 -131q-17 -96 -56 -151t-122 -68 q77 -13 97 -69.5t3 -151.5q-7 -40 -29 -128t-30 -132q-10 -59 -10.5 -105.5t14.5 -94t48.5 -79t96 -52t152.5 -22.5l-29 -161q-96 1 -171.5 16.5t-126 40t-85 61.5t-52 76.5t-23.5 89t-3.5 95.5t12.5 100q10 55 35 152.5t31 134.5q13 76 -1.5 114.5t-70.5 38.5h-78z" />
<glyph unicode="|" horiz-adv-x="579" d="M31 -401l327 1857h211l-327 -1857h-211z" />
<glyph unicode="}" horiz-adv-x="768" d="M-129 -270l29 161q90 2 160 22.5t114 51.5t75.5 78.5t47 94t25.5 106.5q8 46 17.5 135t16.5 127q17 95 56.5 150.5t122.5 68.5q-77 13 -97.5 69.5t-3.5 151.5q6 37 28.5 125t29.5 135q11 59 11.5 105.5t-14 94t-48 79t-96 52t-152.5 22.5l28 161q96 -1 171.5 -16.5 t125.5 -40t84.5 -61.5t51.5 -76.5t23 -89t3.5 -95.5t-12.5 -100q-10 -55 -34 -152.5t-30 -134.5q-16 -69 -1 -111t71 -42h78l-27 -152h-78q-56 0 -84 -38.5t-41 -112.5q-7 -37 -17.5 -135.5t-19.5 -153.5q-14 -78 -35 -139.5t-66 -126.5t-109 -109t-167.5 -73t-236.5 -31z " />
<glyph unicode="~" horiz-adv-x="1323" d="M297 805q41 134 120 207t181 73q65 0 117 -23.5t80 -51t66.5 -51t80.5 -23.5q110 0 154 137l88 -14q-43 -135 -121.5 -208t-179.5 -73q-40 0 -77.5 15t-67.5 37l-60 44t-67 37t-76 15q-108 0 -150 -135z" />
<glyph unicode="&#xa1;" horiz-adv-x="770" d="M102 -295q13 72 111 406.5t127 502.5h125q-29 -167 -45.5 -500.5t-30.5 -412.5q-12 -67 -62 -100t-106 -33q-55 0 -93 33.5t-26 103.5zM317 926q10 58 57.5 98.5t106.5 40.5t92 -40.5t23 -98.5q-9 -57 -57.5 -98.5t-106.5 -41.5t-91 41t-24 99z" />
<glyph unicode="&#xa2;" horiz-adv-x="1085" d="M121 721q16 93 60 181t109 162.5t157 127.5t196 72l43 235h164l-62 -227q152 -8 233 -74t62 -172q-12 -72 -72.5 -124t-133.5 -52q-74 0 -117 44t-31 114q9 53 44 92.5t79 46.5q-69 36 -141 35t-143 -38t-129.5 -94t-100 -132.5t-55.5 -153.5q-8 -59 -6 -115t24 -105 t57.5 -85.5t94.5 -58t135 -21.5q95 0 178 40.5t139 112.5l105 -157q-80 -87 -188.5 -138t-225.5 -55l-39 -219h-164l62 230q-137 24 -221.5 105t-109.5 189t-3 234z" />
<glyph unicode="&#xa3;" horiz-adv-x="1437" d="M-12 168q15 93 98.5 154t200.5 61q96 0 198 -45q48 138 -2 317h-299l25 136h250q-24 166 -8 264q18 101 74 184.5t133 135.5t164.5 80t174.5 28q194 0 293.5 -67.5t79.5 -182.5q-14 -75 -65.5 -125.5t-122.5 -50.5q-74 0 -116 43t-30 114q9 53 44 93t79 47 q-56 35 -141 35q-134 0 -231.5 -84.5t-120.5 -217.5q-19 -108 -23 -296h422l-25 -136h-397q-3 -199 -63 -360q246 -129 415 -129q105 0 170 51.5t82 153.5l19 104h114l-28 -172q-28 -157 -128 -245.5t-229 -88.5q-67 0 -127 15t-124 51t-105.5 64.5t-118.5 86.5 q-61 -95 -153.5 -148.5t-198.5 -53.5q-100 0 -146.5 54t-33.5 130zM88 178q-9 -52 22.5 -80t86.5 -28q69 0 137.5 43.5t105.5 124.5q-80 61 -174 61q-70 0 -120 -36t-58 -85z" />
<glyph unicode="&#xa4;" horiz-adv-x="1384" d="M33 135l256 246q-104 148 -68 348q37 204 187 348l-166 244h176l108 -156q133 76 293 76q163 0 279 -82l168 162h176l-260 -252q92 -138 55 -340q-34 -199 -180 -338l176 -256h-180l-115 166q-138 -80 -297 -80q-151 0 -264 74l-164 -160h-180zM423 499q7 -89 62 -130 t174 -41q63 0 108.5 7.5t81 27.5t59 47.5t43.5 76t33 103.5t28 139q25 139 24 229t-55.5 133.5t-179.5 43.5q-90 0 -148 -19.5t-99.5 -69.5t-65.5 -123t-46 -194q-26 -141 -19 -230z" />
<glyph unicode="&#xa5;" d="M102 1294l29 162h649l-28 -162h-203l264 -626l475 626h-194l28 162h604l-28 -162h-199l-289 -348h263l-27 -153h-363l-141 -170h268l-26 -154h-326l-55 -307h201l-27 -162h-612l26 162h201l55 307h-323l26 154h240l-72 170h-342l27 153h248l-154 348h-195z" />
<glyph unicode="&#xa6;" horiz-adv-x="579" d="M31 -401l139 788h211l-139 -788h-211zM240 778l118 678h211l-118 -678h-211z" />
<glyph unicode="&#xa7;" horiz-adv-x="1261" d="M47 625q20 104 105.5 192t214.5 119q-16 21 -23 63t4 121q26 146 155 249.5t314 103.5q82 0 147 -20.5t103 -69.5t25 -119q-9 -60 -61.5 -105t-123.5 -45q-51 0 -86.5 37.5t-25.5 95.5q14 87 90 117q-33 20 -97 20q-95 0 -169.5 -63t-88.5 -145q-9 -48 1.5 -87.5 t33 -66.5t64 -51.5t79.5 -40t95 -33.5q16 -5 47 -15q85 -27 129 -43t111 -52.5t97 -76t48 -106t4 -149.5q-18 -100 -101 -186t-214 -126q33 -78 14 -184q-26 -146 -155 -249t-314 -103q-82 0 -146.5 20.5t-102.5 69.5t-25 119q9 60 61 104.5t123 44.5q51 0 87 -37.5 t26 -95.5q-14 -86 -91 -117q33 -20 97 -20q95 0 169.5 63t88.5 146q11 65 -6.5 112.5t-77 82.5t-99.5 50.5t-135 45.5l-18 6q-77 23 -125 41t-108 53.5t-90.5 76.5t-47 106t-2.5 147zM231 700q-12 -65 5.5 -113.5t68 -84t96.5 -56.5t127 -49q169 -60 235 -96 q100 -55 144 -127q123 67 148 205q13 71 -5 122.5t-78.5 90.5t-101.5 56.5t-139 50.5q-38 13 -57 20q-108 37 -182 80t-113 108q-123 -70 -148 -207z" />
<glyph unicode="&#xa8;" horiz-adv-x="1234" d="M393 1305q7 47 48.5 81.5t88.5 34.5t76 -34.5t21 -81.5q-9 -47 -50 -82t-88 -35t-76 35t-20 82zM840 1305q7 47 48.5 81.5t88.5 34.5t75.5 -34.5t20.5 -81.5q-9 -47 -49.5 -82t-87.5 -35t-76 35t-20 82z" />
<glyph unicode="&#xa9;" horiz-adv-x="1642" d="M127 721q27 152 110 290t200.5 237.5t266 158.5t300.5 59t279.5 -59t209.5 -158.5t117 -237.5t8 -290t-111 -290t-201.5 -238t-266 -159t-300.5 -59q-203 0 -356.5 100t-222.5 271.5t-33 374.5zM248 721q-30 -170 28 -314t187 -227.5t299 -83.5t328.5 83.5t267.5 227.5 t139 314q29 170 -29.5 314t-187.5 227.5t-299 83.5t-328.5 -83.5t-267 -227.5t-137.5 -314zM445.5 584q-3.5 65 5.5 133q16 87 60 168.5t110 146.5t159 104.5t197 39.5q141 0 217 -55.5t59 -149.5q-11 -60 -62 -104t-112 -44t-94.5 36.5t-23.5 96.5q8 44 36 76.5t66 38.5 q-72 35 -150 19t-145 -62.5t-116.5 -120.5t-63.5 -155q-14 -61 -3 -118.5t38 -102.5t84 -72t135 -27q79 0 148.5 33.5t115.5 93.5l86 -131q-69 -75 -165.5 -117.5t-197.5 -42.5q-91 0 -163 25t-116.5 68t-72.5 100.5t-31.5 122.5z" />
<glyph unicode="&#xab;" horiz-adv-x="1163" d="M98 469l27 149l573 379l-20 -120l-332 -316l221 -315l-28 -154zM545 469l26 149l574 379l-21 -120l-331 -316l221 -315l-29 -154z" />
<glyph unicode="&#xad;" horiz-adv-x="606" d="M59 477l31 185h492l-31 -185h-492z" />
<glyph unicode="&#xae;" horiz-adv-x="1120" d="M164 997q37 204 207 349t374 145q134 0 236 -66.5t148 -180t22 -247.5q-23 -134 -109 -247.5t-211.5 -179.5t-259.5 -66t-236 66t-148 179.5t-23 247.5zM248 997q-29 -170 69.5 -289.5t268.5 -119.5q169 0 310.5 119.5t170.5 289.5q20 111 -18 205.5t-122.5 149.5 t-195.5 55q-170 0 -311 -120.5t-172 -289.5zM362 752l17 86h92l57 333h-92l17 86h317q85 0 124.5 -38.5t31.5 -90.5q-10 -55 -63 -93t-150 -38v-4q76 0 109 -23t24 -75q-3 -11 -9.5 -33.5t-7.5 -32.5q-2 -9 3.5 -15.5t15.5 -6.5q15 0 27.5 10t15.5 31l10 49h41l-10 -49 q-9 -55 -46.5 -82t-92.5 -27q-42 0 -62.5 19t-13.5 57q2 16 9 40t9 38q6 32 -10 50t-53 18h-66l-20 -123h80l-17 -86h-287zM618 1024h70q52 0 82 22.5t35 53.5q5 30 -14 50.5t-60 20.5h-88z" />
<glyph unicode="&#xaf;" horiz-adv-x="983" d="M416 1245l24 137h459l-25 -137h-458z" />
<glyph unicode="&#xb0;" horiz-adv-x="823" d="M156 1120q28 162 149.5 266.5t282.5 104.5q162 0 246.5 -104.5t56.5 -266.5q-28 -160 -151 -264t-283 -104q-161 0 -245 104t-56 264zM328.5 975q4.5 -56 39.5 -82.5t109 -26.5q60 0 96 11t61 42.5t38.5 76t27.5 124.5q16 88 15.5 145t-35 85t-113.5 28 q-108 0 -154 -54.5t-73 -203.5q-16 -89 -11.5 -145z" />
<glyph unicode="&#xb1;" horiz-adv-x="1185" d="M-18 0l26 154h1065l-26 -154h-1065zM106 713l27 153h457l80 457h153l-80 -457h455l-27 -153h-454l-80 -455h-154l80 455h-457z" />
<glyph unicode="&#xb2;" horiz-adv-x="978" d="M207 645l8 51q7 36 22.5 68.5t42.5 63t51 53.5t65.5 51.5t66.5 44.5t72 45q151 91 172 217q13 77 -21 117.5t-98 40.5q-46 0 -92 -20t-62 -52q20 0 35 -6q28 -9 41 -32t8 -50q-7 -44 -38.5 -69t-71.5 -25q-44 0 -66 28.5t-12 83.5q13 77 99.5 143t199.5 66 q52 0 100.5 -13t89 -39t60.5 -72t10 -105q-18 -99 -84.5 -162t-190.5 -119q-11 -5 -45.5 -20t-47.5 -20.5t-42.5 -19.5t-43 -21.5t-36 -21t-34 -23.5t-25.5 -23.5t-21.5 -27t-11.5 -27.5q63 49 113 49q45 0 125 -8.5t112 -8.5q44 0 69.5 10.5t39.5 41.5q8 20 10 32h60 q-2 -15 -11 -47q-26 -100 -74 -150.5t-130 -50.5q-52 0 -153 38t-130 38q-51 0 -59 -49h-72z" />
<glyph unicode="&#xb3;" horiz-adv-x="1032" d="M268 844q10 55 43 83.5t76 28.5q41 0 63 -25.5t15 -70.5q-6 -34 -39 -61t-78 -27q15 -34 52 -54t81 -20q72 0 132.5 45t74.5 127q14 74 -23 125.5t-104 51.5h-41l10 57h41q60 0 111.5 45t60.5 102q14 79 -26 120.5t-105 41.5q-42 0 -83 -18.5t-64 -48.5q9 0 29 -5 q30 -9 44 -31t9 -48q-7 -43 -38 -68t-71 -25t-61 27.5t-12 79.5q16 92 101 146.5t185 54.5q123 0 193 -54t51 -161q-13 -74 -78.5 -121.5t-161.5 -59.5l-2 -10q97 -17 154 -69.5t43 -141.5q-14 -75 -71.5 -128.5t-132.5 -77t-159 -23.5q-68 0 -121 22.5t-81.5 72.5 t-16.5 118z" />
<glyph unicode="&#xb4;" horiz-adv-x="1167" d="M549 1128l336 328h248l-506 -328h-78z" />
<glyph unicode="&#xb6;" horiz-adv-x="1439" d="M194 1032q27 163 141 281q137 143 335 143h813l-29 -164h-174l-201 -1130h174l-26 -162h-342l227 1292h-176l-227 -1292h-349l27 162h176l80 444h-90q-212 0 -308 143q-78 117 -51 283z" />
<glyph unicode="&#xb7;" horiz-adv-x="675" d="M244 578q11 56 57.5 95.5t101.5 39.5q56 0 88.5 -40t22.5 -95q-9 -56 -56 -96t-102 -40t-88 40t-24 96z" />
<glyph unicode="&#xb8;" horiz-adv-x="808" d="M53 -389l37 70q67 -25 113 -25q57 0 91.5 25.5t39.5 60.5q7 33 -16.5 58.5t-73.5 25.5q-44 0 -115 -27l-20 49l178 152h104l-145 -121q39 8 73 8q86 0 126 -44.5t30 -104.5q-11 -67 -76 -115.5t-166 -48.5q-79 0 -180 37z" />
<glyph unicode="&#xb9;" horiz-adv-x="794" d="M223 655l17 90h155l82 469h-174l10 62q99 1 164.5 52t79.5 128h111l-125 -711h137l-16 -90h-441z" />
<glyph unicode="&#xbb;" horiz-adv-x="1163" d="M31 92l22 121l332 315l-221 316l26 153l443 -376l-27 -150zM477 92l23 121l331 315l-221 316l27 153l442 -376l-26 -150z" />
<glyph unicode="&#xbc;" horiz-adv-x="1740" d="M164 0l1323 1456h139l-1319 -1456h-143zM217 655l16 90h156l82 469h-174l10 62q99 1 164.5 52t79.5 128h111l-125 -711h137l-17 -90h-440zM840 217l14 80l436 504h172l-88 -506h109l-15 -78h-108l-23 -129h88l-14 -88h-344l14 88h115l23 129h-379zM950 295h283l51 287 q8 60 29 135z" />
<glyph unicode="&#xbd;" horiz-adv-x="1740" d="M164 0l1323 1456h139l-1319 -1456h-143zM217 655l16 90h156l82 469h-174l10 62q99 1 164.5 52t79.5 128h111l-125 -711h137l-17 -90h-440zM903 0l8 51q7 36 22.5 68.5t42.5 63t51 53.5t65.5 51.5t66.5 44.5t72 45q148 89 172 217q13 76 -21.5 117t-99.5 41 q-45 0 -90.5 -20t-63.5 -52q22 0 37 -6q27 -9 39.5 -32t7.5 -50q-7 -44 -38.5 -69t-71.5 -25q-43 0 -65 28.5t-13 83.5q13 77 99.5 143t199.5 66q52 0 100.5 -13t89.5 -39t61 -72t9 -105q-18 -100 -84 -162.5t-190 -118.5q-14 -6 -45.5 -20t-46.5 -20.5t-43 -19.5t-43 -21.5 t-36.5 -21.5t-34 -23.5t-26.5 -23.5t-21.5 -27t-11.5 -28q64 50 115 50q45 0 124.5 -8.5t111.5 -8.5q45 0 70.5 10t39.5 41l11 33h59q-11 -46 -12 -47q-49 -201 -205 -201q-52 0 -152 38t-129 38q-51 0 -59 -49h-72z" />
<glyph unicode="&#xbe;" horiz-adv-x="1740" d="M164 0l1323 1456h139l-1319 -1456h-143zM164 844q10 55 43 83.5t76 28.5q41 0 62.5 -25.5t14.5 -70.5q-6 -35 -38.5 -61.5t-77.5 -26.5q15 -34 52 -54t81 -20q72 0 132.5 45t74.5 127q14 74 -23 125.5t-104 51.5h-41l10 57h41q60 0 111.5 45t60.5 102q14 79 -26 120.5 t-105 41.5q-42 0 -83.5 -18.5t-64.5 -48.5q9 0 29 -5q30 -9 44 -31t9 -48q-7 -43 -37.5 -68t-70.5 -25t-61.5 27.5t-12.5 79.5q16 92 101.5 146.5t185.5 54.5q123 0 193 -54t51 -161q-13 -74 -78.5 -121.5t-161.5 -59.5l-2 -10q97 -17 153.5 -69.5t42.5 -141.5 q-14 -75 -71.5 -128.5t-132 -77t-158.5 -23.5q-68 0 -121 22.5t-81.5 72.5t-16.5 118zM840 217l14 80l436 504h172l-88 -506h109l-15 -78h-108l-23 -129h88l-14 -88h-344l14 88h115l23 129h-379zM950 295h283l51 287q8 60 29 135z" />
<glyph unicode="&#xbf;" horiz-adv-x="1077" d="M-76 -76q15 87 57 157t96.5 116t118 84t126 71.5t115 68t90.5 83t48 108.5h138q0 -5 -6 -53q-14 -79 -49.5 -139t-81.5 -97.5t-99 -68t-105 -58.5t-97 -61t-78 -84t-45 -119q-21 -111 40.5 -172t165.5 -61q58 0 116 20.5t110.5 59.5t92 103.5t54.5 144.5h248l-76 -426 h-209l47 262h-14q-25 -95 -96.5 -163.5t-162 -101t-189.5 -32.5q-80 0 -149.5 23t-121.5 66t-75.5 113t-8.5 156zM545 924q10 58 57.5 98.5t106.5 40.5q58 0 91.5 -40t22.5 -99q-11 -58 -58.5 -99t-105.5 -41t-91.5 41.5t-22.5 98.5z" />
<glyph unicode="&#xc0;" d="M-113 0l29 162h207l741 1347h191l229 -1347h205l-27 -162h-649l27 162h211l-45 309h-535l-158 -309h205l-26 -162h-605zM543 612h440l-98 668zM590 1798h287l278 -256h-90z" />
<glyph unicode="&#xc1;" d="M-113 0l29 162h207l741 1347h191l229 -1347h205l-27 -162h-649l27 162h211l-45 309h-535l-158 -309h205l-26 -162h-605zM543 612h440l-98 668zM780 1542l369 256h287l-566 -256h-90z" />
<glyph unicode="&#xc2;" d="M-113 0l29 162h207l741 1347h191l229 -1347h205l-27 -162h-649l27 162h211l-45 309h-535l-158 -309h205l-26 -162h-605zM543 612h440l-98 668zM623 1540l327 256h113l235 -256h-114l-211 139l-260 -139h-90z" />
<glyph unicode="&#xc3;" d="M-113 0l29 162h207l741 1347h191l229 -1347h205l-27 -162h-649l27 162h211l-45 309h-535l-158 -309h205l-26 -162h-605zM543 612h440l-98 668zM676 1573q32 101 91 156t136 55q40 0 72 -11.5t53.5 -28t40.5 -33.5t41.5 -28.5t48.5 -11.5q85 0 117 105l65 -13 q-31 -101 -90.5 -156t-136.5 -55q-36 0 -71 17.5t-59 38t-58.5 38t-69.5 17.5q-78 0 -115 -100z" />
<glyph unicode="&#xc4;" d="M-113 0l29 162h207l741 1347h191l229 -1347h205l-27 -162h-649l27 162h211l-45 309h-535l-158 -309h205l-26 -162h-605zM543 612h440l-98 668zM647 1663q7 47 48.5 82t88.5 35t76 -35t21 -82q-9 -47 -50 -82t-88 -35t-76 35t-20 82zM1094 1663q7 47 48.5 82t88.5 35 t75.5 -35t20.5 -82q-9 -47 -49.5 -82t-87.5 -35t-76 35t-20 82z" />
<glyph unicode="&#xc5;" d="M-113 0l29 162h207l741 1347h8q-74 14 -113.5 53.5t-29.5 96.5q14 74 97.5 126t191.5 52q107 0 171 -52t50 -126q-10 -57 -62 -96.5t-130 -53.5h8l229 -1347h205l-27 -162h-649l27 162h211l-45 309h-535l-158 -309h205l-26 -162h-605zM543 612h440l-98 668zM834 1659 q-6 -39 34.5 -67.5t100.5 -28.5q59 0 109.5 28.5t56.5 67.5q7 39 -32.5 67.5t-98.5 28.5q-61 0 -112 -28.5t-58 -67.5z" />
<glyph unicode="&#xc6;" horiz-adv-x="2136" d="M-254 0l29 162h178l971 1130h-226l29 164h1516l-82 -459h-148l31 170q8 52 -21.5 88.5t-95.5 36.5h-624l-78 -438h549l-29 -160h-549l-94 -532h624q64 0 109.5 39t54.5 98l27 152h147l-77 -451h-1313l26 162h201l55 309h-528l-256 -309h205l-27 -162h-604zM547 612h434 l121 680q-372 -469 -555 -680z" />
<glyph unicode="&#xc7;" horiz-adv-x="1546" d="M164 705q26 149 88 278.5t144 221t180 157t198.5 97.5t196.5 32q371 0 411 -301h21l49 274h195l-80 -452h-228q18 146 -85 233.5t-279 87.5q-90 0 -181.5 -38.5t-171.5 -108.5t-140.5 -180.5t-84.5 -243.5q-23 -133 1 -245.5t87 -189.5t160 -120t217 -43q129 0 253.5 60 t217.5 161l105 -162q-116 -125 -271.5 -191.5t-326.5 -66.5q-4 0 -12.5 1t-12.5 1l-104 -88q39 8 73 8q86 0 126 -44.5t30 -104.5q-11 -67 -76 -115.5t-166 -48.5q-79 0 -180 37l37 70q67 -25 113 -25q57 0 91.5 25.5t39.5 60.5q7 33 -16.5 58.5t-73.5 25.5q-45 0 -115 -27 l-21 49l144 123q-316 33 -462 231t-91 503z" />
<glyph unicode="&#xc8;" horiz-adv-x="1472" d="M0 0l27 162h200l201 1130h-201l29 164h1323l-82 -459h-147l30 170q8 52 -21 88.5t-95 36.5h-625l-78 -438h488l-29 -160h-488l-94 -532h625q64 0 109.5 39t54.5 98l26 152h148l-78 -451h-1323zM637 1798h287l278 -256h-90z" />
<glyph unicode="&#xc9;" horiz-adv-x="1472" d="M0 0l27 162h200l201 1130h-201l29 164h1323l-82 -459h-147l30 170q8 52 -21 88.5t-95 36.5h-625l-78 -438h488l-29 -160h-488l-94 -532h625q64 0 109.5 39t54.5 98l26 152h148l-78 -451h-1323zM795 1542l368 256h287l-565 -256h-90z" />
<glyph unicode="&#xca;" horiz-adv-x="1472" d="M0 0l27 162h200l201 1130h-201l29 164h1323l-82 -459h-147l30 170q8 52 -21 88.5t-95 36.5h-625l-78 -438h488l-29 -160h-488l-94 -532h625q64 0 109.5 39t54.5 98l26 152h148l-78 -451h-1323zM645 1540l328 256h112l236 -256h-115l-211 139l-260 -139h-90z" />
<glyph unicode="&#xcb;" horiz-adv-x="1472" d="M0 0l27 162h200l201 1130h-201l29 164h1323l-82 -459h-147l30 170q8 52 -21 88.5t-95 36.5h-625l-78 -438h488l-29 -160h-488l-94 -532h625q64 0 109.5 39t54.5 98l26 152h148l-78 -451h-1323zM682 1663q7 47 48.5 82t88.5 35t75.5 -35t20.5 -82q-9 -47 -49.5 -82 t-87.5 -35t-76 35t-20 82zM1128 1663q7 47 49 82t89 35t75.5 -35t20.5 -82q-9 -47 -49.5 -82t-87.5 -35t-76.5 35t-20.5 82z" />
<glyph unicode="&#xcc;" horiz-adv-x="776" d="M0 0l27 162h200l201 1130h-201l29 164h612l-28 -164h-201l-201 -1130h201l-27 -162h-612zM207 1798h287l278 -256h-90z" />
<glyph unicode="&#xcd;" horiz-adv-x="776" d="M0 0l27 162h200l201 1130h-201l29 164h612l-28 -164h-201l-201 -1130h201l-27 -162h-612zM422 1542l369 256h286l-565 -256h-90z" />
<glyph unicode="&#xce;" horiz-adv-x="776" d="M0 0l27 162h200l201 1130h-201l29 164h612l-28 -164h-201l-201 -1130h201l-27 -162h-612zM240 1540l327 256h113l235 -256h-114l-211 139l-260 -139h-90z" />
<glyph unicode="&#xcf;" horiz-adv-x="776" d="M0 0l27 162h200l201 1130h-201l29 164h612l-28 -164h-201l-201 -1130h201l-27 -162h-612zM258 1663q7 47 48.5 82t88.5 35t76 -35t21 -82q-9 -47 -50 -82t-88 -35t-76 35t-20 82zM705 1663q7 47 48.5 82t88.5 35t75.5 -35t20.5 -82q-9 -47 -49.5 -82t-87.5 -35t-76 35 t-20 82z" />
<glyph unicode="&#xd0;" horiz-adv-x="1640" d="M6 0l27 162h200l89 489h-201l26 154h201l86 487h-201l29 164h612q151 0 275 -27t222.5 -83.5t158.5 -143t82 -205.5t-6 -272q-28 -158 -87.5 -279.5t-145.5 -205.5t-202.5 -138t-252 -78t-300.5 -24h-612zM444 162h201q119 0 208.5 12.5t177 49t149.5 98t109.5 163 t72.5 240.5q24 124 9 218.5t-55.5 161t-112 108t-159.5 60.5t-198 19h-201l-86 -487h412l-27 -154h-412z" />
<glyph unicode="&#xd1;" horiz-adv-x="1679" d="M0 0l27 162h200l201 1130h-201l29 164h532q263 -680 332 -869t86 -282q14 129 68 449l96 538h-201l29 164h580l-29 -164h-201l-231 -1312h-162l-453 1095q-35 82 -94 244q-11 -94 -45 -287l-153 -870h200l-26 -162h-584zM768 1573q32 101 91 156t136 55q40 0 72 -11.5 t53.5 -28t40.5 -33.5t41.5 -28.5t48.5 -11.5q85 0 117 105l66 -13q-31 -101 -91 -156t-137 -55q-36 0 -71 17.5t-59 38t-58.5 38t-69.5 17.5q-77 0 -114 -100z" />
<glyph unicode="&#xd2;" horiz-adv-x="1765" d="M168 725q39 219 166.5 394t318.5 273.5t410 98.5q167 0 298.5 -57.5t212.5 -158.5t112 -243t2 -307q-29 -163 -111 -304.5t-200 -241.5t-269 -157t-313 -57q-163 0 -294 57t-214 157t-115.5 241.5t-3.5 304.5zM432 725q-55 -313 42.5 -459.5t346.5 -146.5q137 0 232 28.5 t169.5 98t121.5 185.5t79 294q56 316 -34 462t-355 146q-105 0 -185 -18t-149 -60t-118.5 -112.5t-87 -173.5t-62.5 -244zM743 1798h287l279 -256h-90z" />
<glyph unicode="&#xd3;" horiz-adv-x="1765" d="M168 725q39 219 166.5 394t318.5 273.5t410 98.5q167 0 298.5 -57.5t212.5 -158.5t112 -243t2 -307q-29 -163 -111 -304.5t-200 -241.5t-269 -157t-313 -57q-163 0 -294 57t-214 157t-115.5 241.5t-3.5 304.5zM432 725q-55 -313 42.5 -459.5t346.5 -146.5q137 0 232 28.5 t169.5 98t121.5 185.5t79 294q56 316 -34 462t-355 146q-105 0 -185 -18t-149 -60t-118.5 -112.5t-87 -173.5t-62.5 -244zM827 1542l369 256h287l-565 -256h-91z" />
<glyph unicode="&#xd4;" horiz-adv-x="1765" d="M168 725q39 219 166.5 394t318.5 273.5t410 98.5q167 0 298.5 -57.5t212.5 -158.5t112 -243t2 -307q-29 -163 -111 -304.5t-200 -241.5t-269 -157t-313 -57q-163 0 -294 57t-214 157t-115.5 241.5t-3.5 304.5zM432 725q-55 -313 42.5 -459.5t346.5 -146.5q137 0 232 28.5 t169.5 98t121.5 185.5t79 294q56 316 -34 462t-355 146q-105 0 -185 -18t-149 -60t-118.5 -112.5t-87 -173.5t-62.5 -244zM745 1540l328 256h113l235 -256h-114l-211 139l-260 -139h-91z" />
<glyph unicode="&#xd5;" horiz-adv-x="1765" d="M168 725q39 219 166.5 394t318.5 273.5t410 98.5q167 0 298.5 -57.5t212.5 -158.5t112 -243t2 -307q-29 -163 -111 -304.5t-200 -241.5t-269 -157t-313 -57q-163 0 -294 57t-214 157t-115.5 241.5t-3.5 304.5zM432 725q-55 -313 42.5 -459.5t346.5 -146.5q137 0 232 28.5 t169.5 98t121.5 185.5t79 294q56 316 -34 462t-355 146q-105 0 -185 -18t-149 -60t-118.5 -112.5t-87 -173.5t-62.5 -244zM782 1573q32 101 91.5 156t136.5 55q40 0 72 -11.5t53.5 -28t40.5 -33.5t41.5 -28.5t48.5 -11.5q84 0 116 105l66 -13q-31 -101 -90.5 -156 t-136.5 -55q-36 0 -71 17.5t-59 38t-58.5 38t-69.5 17.5q-78 0 -115 -100z" />
<glyph unicode="&#xd6;" horiz-adv-x="1765" d="M168 725q39 219 166.5 394t318.5 273.5t410 98.5q167 0 298.5 -57.5t212.5 -158.5t112 -243t2 -307q-29 -163 -111 -304.5t-200 -241.5t-269 -157t-313 -57q-163 0 -294 57t-214 157t-115.5 241.5t-3.5 304.5zM432 725q-55 -313 42.5 -459.5t346.5 -146.5q137 0 232 28.5 t169.5 98t121.5 185.5t79 294q56 316 -34 462t-355 146q-105 0 -185 -18t-149 -60t-118.5 -112.5t-87 -173.5t-62.5 -244zM760 1663q7 47 48.5 82t88.5 35t75.5 -35t20.5 -82q-9 -47 -49.5 -82t-87.5 -35t-76 35t-20 82zM1206 1663q7 47 48.5 82t88.5 35t76 -35t21 -82 q-9 -47 -49.5 -82t-87.5 -35t-76.5 35t-20.5 82z" />
<glyph unicode="&#xd7;" horiz-adv-x="1185" d="M127 250l381 323l-266 324l127 109l266 -324l379 322l90 -109l-379 -322l264 -321l-127 -109l-264 322l-381 -324z" />
<glyph unicode="&#xd8;" horiz-adv-x="1775" d="M139 0l162 168q-89 102 -123 245t-4 312q39 219 166.5 394t318.5 273.5t410 98.5q233 0 399 -113l76 78h166l-151 -156q95 -104 130 -251t5 -324q-29 -163 -111 -304.5t-200 -241.5t-269 -157t-313 -57q-246 0 -410 121l-82 -86h-170zM438 725q-45 -247 13 -401l892 923 q-100 86 -303 86q-105 0 -185 -18t-149 -60t-118.5 -112.5t-87 -173.5t-62.5 -244zM518 217q104 -98 309 -98q137 0 232.5 28.5t169.5 98t121.5 186t79.5 293.5q50 279 -13 426z" />
<glyph unicode="&#xd9;" horiz-adv-x="1667" d="M211 1292l29 164h612l-29 -164h-200l-144 -815q-14 -79 5.5 -143t64.5 -103t105 -60t130 -21q96 0 183.5 35t155.5 111t87 181l144 815h-201l29 164h594l-29 -164h-201l-145 -825q-21 -120 -86.5 -217t-157 -157t-197.5 -92t-215 -32t-203.5 32t-164.5 92t-101 157 t-10 217l146 825h-201zM682 1798h287l278 -256h-90z" />
<glyph unicode="&#xda;" horiz-adv-x="1667" d="M211 1292l29 164h612l-29 -164h-200l-144 -815q-14 -79 5.5 -143t64.5 -103t105 -60t130 -21q96 0 183.5 35t155.5 111t87 181l144 815h-201l29 164h594l-29 -164h-201l-145 -825q-21 -120 -86.5 -217t-157 -157t-197.5 -92t-215 -32t-203.5 32t-164.5 92t-101 157 t-10 217l146 825h-201zM840 1542l368 256h287l-565 -256h-90z" />
<glyph unicode="&#xdb;" horiz-adv-x="1667" d="M211 1292l29 164h612l-29 -164h-200l-144 -815q-14 -79 5.5 -143t64.5 -103t105 -60t130 -21q96 0 183.5 35t155.5 111t87 181l144 815h-201l29 164h594l-29 -164h-201l-145 -825q-21 -120 -86.5 -217t-157 -157t-197.5 -92t-215 -32t-203.5 32t-164.5 92t-101 157 t-10 217l146 825h-201zM686 1540l328 256h112l236 -256h-115l-211 139l-260 -139h-90z" />
<glyph unicode="&#xdc;" horiz-adv-x="1667" d="M211 1292l29 164h612l-29 -164h-200l-144 -815q-14 -79 5.5 -143t64.5 -103t105 -60t130 -21q96 0 183.5 35t155.5 111t87 181l144 815h-201l29 164h594l-29 -164h-201l-145 -825q-21 -120 -86.5 -217t-157 -157t-197.5 -92t-215 -32t-203.5 32t-164.5 92t-101 157 t-10 217l146 825h-201zM715 1663q7 47 48.5 82t88.5 35t75.5 -35t20.5 -82q-9 -47 -49.5 -82t-87.5 -35t-76 35t-20 82zM1161 1663q7 47 48.5 82t88.5 35t76 -35t21 -82q-9 -47 -50 -82t-88 -35t-76 35t-20 82z" />
<glyph unicode="&#xdd;" d="M102 1294l29 162h649l-28 -162h-203l264 -626l475 626h-194l28 162h604l-28 -162h-199l-629 -757l-67 -375h201l-27 -162h-612l26 162h201l57 325l-352 807h-195zM784 1542l369 256h287l-566 -256h-90z" />
<glyph unicode="&#xde;" horiz-adv-x="1439" d="M2 0l27 162h200l201 1130h-201l29 164h604l-28 -164h-193l-20 -114h401q125 0 220.5 -36t148.5 -96.5t73.5 -135.5t5.5 -156q-14 -82 -62 -157.5t-125.5 -136t-192 -96.5t-250.5 -36h-369l-31 -166h222l-27 -162h-633zM498 483h376q134 0 223.5 79t108.5 183 q12 68 -8.5 128t-81.5 100.5t-155 40.5h-369z" />
<glyph unicode="&#xdf;" horiz-adv-x="1245" d="M16 0l27 162h178l123 690h-262l12 72h84q100 0 158 50t72 138q31 179 153 279t283 100t239 -81.5t54 -213.5q-10 -57 -37.5 -103.5t-61 -77.5t-66 -58.5t-58 -59.5t-31.5 -68q-7 -38 8 -69.5t43.5 -54t64 -49t69.5 -53.5t60.5 -68.5t36.5 -93.5t-2 -128 q-24 -142 -161.5 -235.5t-303.5 -93.5q-109 0 -192 41l74 147q65 -43 143 -43q84 0 148 52.5t79 137.5q8 45 -4 81.5t-37 62t-56 48.5t-62.5 47.5t-55.5 52.5t-35 69t-2 92q10 55 39.5 98.5t66.5 73.5t74 61t67.5 76.5t41.5 104.5q14 88 -36 137t-132 49q-85 0 -159 -56 t-93 -157q-9 -53 -11.5 -135t-18.5 -172l-150 -852h-371z" />
<glyph unicode="&#xe0;" horiz-adv-x="1460" d="M88 290q-20 100 2 222q25 147 112 272t211 198t255 73q78 0 140.5 -15.5t105 -42.5t72 -65t44.5 -79.5t21 -90.5h14q11 167 27 254h192l-151 -854h200l-26 -162h-394q25 145 72 289h-14q-71 -142 -200 -232t-310 -90q-95 0 -173.5 39.5t-129 111.5t-70.5 172zM309 524 q-33 -179 40 -294t224 -115q153 0 277 116.5t156 292.5q31 176 -46.5 285t-230.5 109q-154 0 -272 -109t-148 -285zM551 1456h248l221 -328h-78z" />
<glyph unicode="&#xe1;" horiz-adv-x="1460" d="M88 290q-20 100 2 222q25 147 112 272t211 198t255 73q78 0 140.5 -15.5t105 -42.5t72 -65t44.5 -79.5t21 -90.5h14q11 167 27 254h192l-151 -854h200l-26 -162h-394q25 145 72 289h-14q-71 -142 -200 -232t-310 -90q-95 0 -173.5 39.5t-129 111.5t-70.5 172zM309 524 q-33 -179 40 -294t224 -115q153 0 277 116.5t156 292.5q31 176 -46.5 285t-230.5 109q-154 0 -272 -109t-148 -285zM616 1128l336 328h248l-506 -328h-78z" />
<glyph unicode="&#xe2;" horiz-adv-x="1460" d="M88 290q-20 100 2 222q25 147 112 272t211 198t255 73q78 0 140.5 -15.5t105 -42.5t72 -65t44.5 -79.5t21 -90.5h14q11 167 27 254h192l-151 -854h200l-26 -162h-394q25 145 72 289h-14q-71 -142 -200 -232t-310 -90q-95 0 -173.5 39.5t-129 111.5t-70.5 172zM309 524 q-33 -179 40 -294t224 -115q153 0 277 116.5t156 292.5q31 176 -46.5 285t-230.5 109q-154 0 -272 -109t-148 -285zM528 1128l301 328h97l184 -328h-98l-172 179l-234 -179h-78z" />
<glyph unicode="&#xe3;" horiz-adv-x="1460" d="M88 290q-20 100 2 222q25 147 112 272t211 198t255 73q78 0 140.5 -15.5t105 -42.5t72 -65t44.5 -79.5t21 -90.5h14q11 167 27 254h192l-151 -854h200l-26 -162h-394q25 145 72 289h-14q-71 -142 -200 -232t-310 -90q-95 0 -173.5 39.5t-129 111.5t-70.5 172zM309 524 q-33 -179 40 -294t224 -115q153 0 277 116.5t156 292.5q31 176 -46.5 285t-230.5 109q-154 0 -272 -109t-148 -285zM580 1208q32 116 88 179t125 63q44 0 78.5 -20t53 -44.5t44 -44.5t53.5 -20q76 0 108 119l60 -13q-32 -116 -87.5 -178.5t-125.5 -62.5q-33 0 -64 20 t-52 43.5t-52 43.5t-64 20q-72 0 -108 -117z" />
<glyph unicode="&#xe4;" horiz-adv-x="1460" d="M88 290q-20 100 2 222q25 147 112 272t211 198t255 73q78 0 140.5 -15.5t105 -42.5t72 -65t44.5 -79.5t21 -90.5h14q11 167 27 254h192l-151 -854h200l-26 -162h-394q25 145 72 289h-14q-71 -142 -200 -232t-310 -90q-95 0 -173.5 39.5t-129 111.5t-70.5 172zM309 524 q-33 -179 40 -294t224 -115q153 0 277 116.5t156 292.5q31 176 -46.5 285t-230.5 109q-154 0 -272 -109t-148 -285zM526 1305q7 47 48.5 81.5t89.5 34.5q47 0 75.5 -34.5t20.5 -81.5q-9 -47 -49.5 -82t-87.5 -35t-76.5 35t-20.5 82zM973 1305q7 47 48.5 81.5t88.5 34.5 t75.5 -34.5t20.5 -81.5q-9 -47 -49.5 -82t-87.5 -35t-76 35t-20 82z" />
<glyph unicode="&#xe5;" horiz-adv-x="1460" d="M88 290q-20 100 2 222q25 147 112 272t211 198t255 73q78 0 140.5 -15.5t105 -42.5t72 -65t44.5 -79.5t21 -90.5h14q11 167 27 254h192l-151 -854h200l-26 -162h-394q25 145 72 289h-14q-71 -142 -200 -232t-310 -90q-95 0 -173.5 39.5t-129 111.5t-70.5 172zM309 524 q-33 -179 40 -294t224 -115q153 0 277 116.5t156 292.5q31 176 -46.5 285t-230.5 109q-154 0 -272 -109t-148 -285zM645 1286q17 93 94 154t172 61t150.5 -61.5t38.5 -153.5q-17 -90 -89.5 -140t-170.5 -50q-99 0 -155.5 50t-39.5 140zM750 1286q-9 -50 21.5 -80t82.5 -30 t92 30t49 80t-20.5 80.5t-81.5 30.5t-93 -30.5t-50 -80.5z" />
<glyph unicode="&#xe6;" horiz-adv-x="1857" d="M61 252q24 137 171 237.5t350 100.5q113 0 237 -31q11 40 23 96q54 310 -221 310q-82 0 -157 -29t-108 -72q62 7 96 -19.5t23 -90.5q-9 -53 -52 -85t-99 -32q-57 0 -88 35.5t-19 101.5q9 47 43.5 95t89 90.5t138 69t178.5 26.5q274 0 342 -174q81 80 186 127t209 47 q241 0 345 -151.5t56 -424.5h-798q-14 -181 76.5 -274.5t246.5 -93.5q223 0 340 180l49 -27q-198 -299 -506 -299q-167 0 -283.5 107.5t-117.5 267.5q-45 -98 -106.5 -172.5t-128 -117.5t-131.5 -64t-128 -21q-127 0 -203.5 77t-52.5 210zM272 305q-14 -83 40.5 -131.5 t142.5 -48.5q47 0 94.5 20t95 62t88.5 118.5t68 178.5q-78 22 -162 22q-148 0 -249 -61t-118 -160zM1022 571h616q24 152 -40.5 245t-213.5 93q-132 0 -233.5 -91.5t-128.5 -246.5z" />
<glyph unicode="&#xe7;" horiz-adv-x="1062" d="M80 356q-3 72 8 148q19 104 71.5 202t131.5 176t190.5 125.5t235.5 47.5q170 0 262 -66.5t72 -179.5q-12 -72 -73 -124t-134 -52q-74 0 -116.5 44t-29.5 114q9 53 44 92.5t79 46.5q-50 28 -143 28q-157 0 -277.5 -124.5t-148.5 -286.5q-8 -59 -6.5 -115t23.5 -105 t57 -85.5t94 -58t135 -21.5q95 0 178.5 40.5t140.5 112.5l103 -157q-82 -88 -192.5 -139t-229.5 -54l-102 -86q39 8 73 8q86 0 126 -44.5t30 -104.5q-11 -67 -76 -115.5t-166 -48.5q-79 0 -180 37l37 70q67 -25 113 -25q57 0 91.5 25.5t39.5 60.5q7 33 -16.5 58.5 t-73.5 25.5q-45 0 -115 -27l-21 49l142 121q-90 11 -161 46t-114.5 86.5t-71 117t-30.5 137.5z" />
<glyph unicode="&#xe8;" horiz-adv-x="1169" d="M88 510q26 148 118 273.5t225 198.5t274 73q241 0 345 -151.5t56 -424.5h-799q-14 -181 77 -274.5t247 -93.5q223 0 340 180l49 -27q-198 -299 -506 -299q-141 0 -248.5 73t-155.5 198.5t-22 273.5zM324 571h616q24 152 -40.5 245t-213.5 93q-132 0 -233.5 -91.5 t-128.5 -246.5zM457 1456h248l221 -328h-78z" />
<glyph unicode="&#xe9;" horiz-adv-x="1169" d="M88 510q26 148 118 273.5t225 198.5t274 73q241 0 345 -151.5t56 -424.5h-799q-14 -181 77 -274.5t247 -93.5q223 0 340 180l49 -27q-198 -299 -506 -299q-141 0 -248.5 73t-155.5 198.5t-22 273.5zM324 571h616q24 152 -40.5 245t-213.5 93q-132 0 -233.5 -91.5 t-128.5 -246.5zM543 1128l336 328h247l-505 -328h-78z" />
<glyph unicode="&#xea;" horiz-adv-x="1169" d="M88 510q26 148 118 273.5t225 198.5t274 73q241 0 345 -151.5t56 -424.5h-799q-14 -181 77 -274.5t247 -93.5q223 0 340 180l49 -27q-198 -299 -506 -299q-141 0 -248.5 73t-155.5 198.5t-22 273.5zM324 571h616q24 152 -40.5 245t-213.5 93q-132 0 -233.5 -91.5 t-128.5 -246.5zM434 1128l301 328h96l185 -328h-98l-173 179l-233 -179h-78z" />
<glyph unicode="&#xeb;" horiz-adv-x="1169" d="M88 510q26 148 118 273.5t225 198.5t274 73q241 0 345 -151.5t56 -424.5h-799q-14 -181 77 -274.5t247 -93.5q223 0 340 180l49 -27q-198 -299 -506 -299q-141 0 -248.5 73t-155.5 198.5t-22 273.5zM324 571h616q24 152 -40.5 245t-213.5 93q-132 0 -233.5 -91.5 t-128.5 -246.5zM422 1305q7 47 48.5 81.5t88.5 34.5t75.5 -34.5t20.5 -81.5q-9 -47 -49.5 -82t-87.5 -35t-76 35t-20 82zM868 1305q7 47 48.5 81.5t89.5 34.5q47 0 75.5 -34.5t20.5 -81.5q-9 -47 -49.5 -82t-87.5 -35t-76.5 35t-20.5 82z" />
<glyph unicode="&#xec;" horiz-adv-x="675" d="M-20 0l26 162h201l123 690h-201l29 164h393l-152 -854h160l-27 -162h-552zM139 1456h248l221 -328h-78z" />
<glyph unicode="&#xed;" horiz-adv-x="675" d="M-20 0l26 162h201l123 690h-201l29 164h393l-152 -854h160l-27 -162h-552zM260 1128l336 328h248l-506 -328h-78z" />
<glyph unicode="&#xee;" horiz-adv-x="675" d="M-20 0l26 162h201l123 690h-201l29 164h393l-152 -854h160l-27 -162h-552zM139 1128l301 328h97l184 -328h-98l-172 179l-234 -179h-78z" />
<glyph unicode="&#xef;" horiz-adv-x="675" d="M-20 0l26 162h201l123 690h-201l29 164h393l-152 -854h160l-27 -162h-552zM139 1305q7 47 48.5 81.5t88.5 34.5t76 -34.5t21 -81.5q-9 -47 -49.5 -82t-87.5 -35t-76.5 35t-20.5 82zM586 1305q7 47 48.5 81.5t88.5 34.5t75.5 -34.5t20.5 -81.5q-9 -47 -49.5 -82t-87.5 -35 t-76 35t-20 82z" />
<glyph unicode="&#xf0;" horiz-adv-x="1257" d="M106 487q16 88 56 164.5t94.5 130.5t119.5 92.5t132 57t131 18.5q121 0 208.5 -60t110.5 -167q51 297 -36 459l-271 -119l-8 113l207 92q-80 65 -205 65q-83 0 -182 -30l-10 153q121 33 245 33q228 0 363 -129l252 113l10 -113l-197 -86q123 -205 56 -582 q-58 -328 -243.5 -527.5t-422.5 -199.5q-104 0 -189.5 37.5t-141 105t-77.5 165.5t-2 214zM327.5 251.5q4.5 -85.5 53.5 -129.5t151 -44q142 0 243 105.5t134 295.5q29 171 -37 267t-180 96q-135 0 -223 -88t-125 -291q-21 -126 -16.5 -211.5z" />
<glyph unicode="&#xf1;" horiz-adv-x="1355" d="M-20 0l26 162h201l123 690h-201l29 164h354q-26 -151 -88 -361h20q67 188 212.5 294t291.5 106q59 0 108.5 -18.5t86 -55.5t51 -99t0.5 -143l-102 -577h159l-26 -162h-553l26 162h201l80 442q26 149 -23 216t-145 67q-69 0 -138.5 -33t-124.5 -100.5t-71 -153.5l-78 -438 h160l-27 -162h-552zM535 1208q32 116 88 179t125 63q44 0 78.5 -20t53 -44.5t44 -44.5t53.5 -20q76 0 108 119l60 -13q-32 -116 -87.5 -178.5t-125.5 -62.5q-33 0 -64 20t-52 43.5t-52 43.5t-64 20q-72 0 -108 -117z" />
<glyph unicode="&#xf2;" horiz-adv-x="1249" d="M88 508q43 238 222.5 392.5t416.5 154.5q240 0 365 -154t82 -393q-27 -155 -118.5 -279.5t-227.5 -194t-291 -69.5q-236 0 -363 153.5t-86 389.5zM303.5 261.5q7.5 -95.5 66.5 -139.5t185 -44q67 0 115.5 8t86.5 29.5t63.5 51t46.5 81.5t35 111t30 149q27 148 25.5 244 t-59.5 142t-191 46q-96 0 -158 -20.5t-106.5 -73.5t-70.5 -131t-48 -207q-28 -151 -20.5 -246.5zM483 1456h248l221 -328h-78z" />
<glyph unicode="&#xf3;" horiz-adv-x="1249" d="M88 508q43 238 222.5 392.5t416.5 154.5q240 0 365 -154t82 -393q-27 -155 -118.5 -279.5t-227.5 -194t-291 -69.5q-236 0 -363 153.5t-86 389.5zM303.5 261.5q7.5 -95.5 66.5 -139.5t185 -44q67 0 115.5 8t86.5 29.5t63.5 51t46.5 81.5t35 111t30 149q27 148 25.5 244 t-59.5 142t-191 46q-96 0 -158 -20.5t-106.5 -73.5t-70.5 -131t-48 -207q-28 -151 -20.5 -246.5zM569 1128l336 328h248l-506 -328h-78z" />
<glyph unicode="&#xf4;" horiz-adv-x="1249" d="M88 508q43 238 222.5 392.5t416.5 154.5q240 0 365 -154t82 -393q-27 -155 -118.5 -279.5t-227.5 -194t-291 -69.5q-236 0 -363 153.5t-86 389.5zM303.5 261.5q7.5 -95.5 66.5 -139.5t185 -44q67 0 115.5 8t86.5 29.5t63.5 51t46.5 81.5t35 111t30 149q27 148 25.5 244 t-59.5 142t-191 46q-96 0 -158 -20.5t-106.5 -73.5t-70.5 -131t-48 -207q-28 -151 -20.5 -246.5zM467 1128l301 328h96l185 -328h-99l-172 179l-233 -179h-78z" />
<glyph unicode="&#xf5;" horiz-adv-x="1249" d="M88 508q43 238 222.5 392.5t416.5 154.5q240 0 365 -154t82 -393q-27 -155 -118.5 -279.5t-227.5 -194t-291 -69.5q-236 0 -363 153.5t-86 389.5zM303.5 261.5q7.5 -95.5 66.5 -139.5t185 -44q67 0 115.5 8t86.5 29.5t63.5 51t46.5 81.5t35 111t30 149q27 148 25.5 244 t-59.5 142t-191 46q-96 0 -158 -20.5t-106.5 -73.5t-70.5 -131t-48 -207q-28 -151 -20.5 -246.5zM471 1208q32 116 88 179t125 63q44 0 78.5 -20t53 -44.5t44 -44.5t53.5 -20q38 0 66 31.5t43 87.5l59 -13q-32 -116 -87.5 -178.5t-125.5 -62.5q-33 0 -64 20t-51.5 43.5 t-51.5 43.5t-64 20q-73 0 -109 -117z" />
<glyph unicode="&#xf6;" horiz-adv-x="1249" d="M88 508q43 238 222.5 392.5t416.5 154.5q240 0 365 -154t82 -393q-27 -155 -118.5 -279.5t-227.5 -194t-291 -69.5q-236 0 -363 153.5t-86 389.5zM303.5 261.5q7.5 -95.5 66.5 -139.5t185 -44q67 0 115.5 8t86.5 29.5t63.5 51t46.5 81.5t35 111t30 149q27 148 25.5 244 t-59.5 142t-191 46q-96 0 -158 -20.5t-106.5 -73.5t-70.5 -131t-48 -207q-28 -151 -20.5 -246.5zM436 1305q7 47 48.5 81.5t88.5 34.5t76 -34.5t21 -81.5q-9 -47 -50 -82t-88 -35t-76 35t-20 82zM883 1305q7 47 48.5 81.5t88.5 34.5t75.5 -34.5t20.5 -81.5q-9 -47 -49.5 -82 t-87.5 -35t-76 35t-20 82z" />
<glyph unicode="&#xf7;" horiz-adv-x="1185" d="M68 496l26 153h1065l-26 -153h-1065zM414 211q9 57 57.5 98t106.5 41t90.5 -40.5t23.5 -98.5q-10 -58 -57.5 -98.5t-106.5 -40.5q-58 0 -91.5 40t-22.5 99zM541 940q11 57 58.5 98t105.5 41t91.5 -41t22.5 -98q-9 -58 -57 -98.5t-107 -40.5q-58 0 -90.5 40t-23.5 99z" />
<glyph unicode="&#xf8;" horiz-adv-x="1245" d="M27 0l137 129q-118 150 -78 379q43 238 222.5 392.5t416.5 154.5q186 0 311 -101l64 62h127l-131 -123q118 -153 75 -385q-41 -236 -221 -389.5t-415 -153.5q-186 0 -310 98l-67 -63h-131zM301 260l629 596q-52 84 -225 84q-96 0 -158 -20.5t-106.5 -73.5t-70.5 -131 t-48 -207q-28 -175 -21 -248zM330 164q51 -86 223 -86q67 0 115.5 8t86.5 29.5t63.5 51t46.5 81.5t35 111t30 149q29 163 26 252z" />
<glyph unicode="&#xf9;" horiz-adv-x="1355" d="M119 852l28 164h383l-110 -631q-23 -124 27.5 -185t144.5 -61q53 0 105 19.5t100.5 57t84.5 101t50 144.5l69 391h-229l29 164h422l-152 -854h170l-27 -162h-323q18 115 90 360h-20q-45 -127 -132 -218t-182.5 -132t-189.5 -41q-59 0 -108.5 19.5t-87 59t-51 100.5 t0.5 145l98 559h-190zM442 1456h248l221 -328h-77z" />
<glyph unicode="&#xfa;" horiz-adv-x="1355" d="M119 852l28 164h383l-110 -631q-23 -124 27.5 -185t144.5 -61q53 0 105 19.5t100.5 57t84.5 101t50 144.5l69 391h-229l29 164h422l-152 -854h170l-27 -162h-323q18 115 90 360h-20q-45 -127 -132 -218t-182.5 -132t-189.5 -41q-59 0 -108.5 19.5t-87 59t-51 100.5 t0.5 145l98 559h-190zM639 1128l336 328h248l-506 -328h-78z" />
<glyph unicode="&#xfb;" horiz-adv-x="1355" d="M119 852l28 164h383l-110 -631q-23 -124 27.5 -185t144.5 -61q53 0 105 19.5t100.5 57t84.5 101t50 144.5l69 391h-229l29 164h422l-152 -854h170l-27 -162h-323q18 115 90 360h-20q-45 -127 -132 -218t-182.5 -132t-189.5 -41q-59 0 -108.5 19.5t-87 59t-51 100.5 t0.5 145l98 559h-190zM479 1128l301 328h97l184 -328h-98l-172 179l-234 -179h-78z" />
<glyph unicode="&#xfc;" horiz-adv-x="1355" d="M119 852l28 164h383l-110 -631q-23 -124 27.5 -185t144.5 -61q53 0 105 19.5t100.5 57t84.5 101t50 144.5l69 391h-229l29 164h422l-152 -854h170l-27 -162h-323q18 115 90 360h-20q-45 -127 -132 -218t-182.5 -132t-189.5 -41q-59 0 -108.5 19.5t-87 59t-51 100.5 t0.5 145l98 559h-190zM459 1305q7 47 48.5 81.5t88.5 34.5t75.5 -34.5t20.5 -81.5q-9 -47 -49.5 -82t-87.5 -35t-76 35t-20 82zM905 1305q7 47 48.5 81.5t88.5 34.5t76 -34.5t21 -81.5q-9 -47 -50 -82t-88 -35t-76 35t-20 82z" />
<glyph unicode="&#xfd;" horiz-adv-x="1097" d="M-160 -188q12 67 57.5 109t100.5 42q56 0 86 -36t20 -95q-9 -52 -54 -88.5t-93 -36.5q14 -19 24.5 -29.5t33.5 -19t55 -8.5q97 0 161.5 65t190.5 285l-289 854h-117l29 162h520l-28 -162h-175q98 -305 191 -623q250 418 379 623h-166l29 162h454l-28 -162h-131l-637 -956 q-60 -89 -100 -141t-89 -97.5t-99.5 -64.5t-113.5 -19q-110 0 -170 65.5t-41 170.5zM563 1128l336 328h248l-506 -328h-78z" />
<glyph unicode="&#xfe;" horiz-adv-x="1452" d="M-86 -401l29 161h196l271 1532h-201l29 164h393q-41 -227 -87 -449t-65 -276h15q73 143 202 233.5t310 90.5q95 0 173 -40t128.5 -112t70.5 -172.5t-2 -222.5q-40 -224 -209 -383.5t-368 -159.5q-187 0 -278.5 81.5t-104.5 211.5h-15q-11 -169 -26 -258l-43 -240h196 l-28 -161h-586zM459 487q-31 -176 51 -292.5t235 -116.5q151 0 265 115t145 294q32 175 -48.5 284.5t-234.5 109.5q-152 0 -266.5 -108.5t-146.5 -285.5z" />
<glyph unicode="&#xff;" horiz-adv-x="1097" d="M-160 -188q12 67 57.5 109t100.5 42q56 0 86 -36t20 -95q-9 -52 -54 -88.5t-93 -36.5q14 -19 24.5 -29.5t33.5 -19t55 -8.5q97 0 161.5 65t190.5 285l-289 854h-117l29 162h520l-28 -162h-175q98 -305 191 -623q250 418 379 623h-166l29 162h454l-28 -162h-131l-637 -956 q-60 -89 -100 -141t-89 -97.5t-99.5 -64.5t-113.5 -19q-110 0 -170 65.5t-41 170.5zM379 1305q7 47 48.5 81.5t88.5 34.5t75.5 -34.5t20.5 -81.5q-9 -47 -49.5 -82t-87.5 -35t-76 35t-20 82zM825 1305q7 47 48.5 81.5t89.5 34.5q47 0 75.5 -34.5t20.5 -81.5 q-9 -47 -49.5 -82t-87.5 -35t-76.5 35t-20.5 82z" />
<glyph unicode="&#x152;" horiz-adv-x="2588" d="M174 725q39 219 166.5 394t318.5 273.5t410 98.5q130 0 240 -35h1386l-82 -459h-147l31 170q8 52 -21.5 88.5t-95.5 36.5h-813q147 -170 141 -438h461l-29 -160h-452q-33 -161 -118 -297.5t-210 -234.5h819q64 0 109.5 39t54.5 98l27 152h147l-78 -451h-1392 q-116 -35 -246 -35q-163 0 -294 57t-214 157t-115.5 241.5t-3.5 304.5zM438 725q-55 -313 42.5 -459.5t346.5 -146.5q137 0 232.5 28.5t169.5 98t121.5 186t79.5 293.5q56 316 -34.5 462t-355.5 146q-105 0 -185 -18t-149 -60t-118.5 -112.5t-87 -173.5t-62.5 -244z" />
<glyph unicode="&#x153;" horiz-adv-x="1966" d="M86 508q43 238 222.5 392.5t416.5 154.5q130 0 229.5 -49t157.5 -138q88 88 198 137.5t226 49.5q241 0 345 -151.5t56 -424.5h-798q-14 -181 76.5 -274.5t246.5 -93.5q223 0 340 180l49 -27q-198 -299 -505 -299q-113 0 -207 49.5t-154 135.5q-89 -88 -205.5 -136.5 t-244.5 -48.5q-236 0 -363 153.5t-86 389.5zM301.5 261.5q7.5 -95.5 66.5 -139.5t185 -44q67 0 115.5 8t86.5 29.5t63.5 51t46.5 81.5t35 111t30 149q27 148 25.5 244t-59.5 142t-191 46q-96 0 -158 -20.5t-106.5 -73.5t-70.5 -131t-48 -207q-28 -151 -20.5 -246.5z M1155 571h617q24 152 -40.5 245t-213.5 93q-132 0 -234 -91.5t-129 -246.5z" />
<glyph unicode="&#x178;" d="M102 1294l29 162h649l-28 -162h-203l264 -626l475 626h-194l28 162h604l-28 -162h-199l-629 -757l-67 -375h201l-27 -162h-612l26 162h201l57 325l-352 807h-195zM641 1663q7 47 48.5 82t88.5 35t75.5 -35t20.5 -82q-9 -47 -49.5 -82t-87.5 -35t-76 35t-20 82zM1087 1663 q7 47 49 82t89 35t75.5 -35t20.5 -82q-9 -47 -49.5 -82t-87.5 -35t-76.5 35t-20.5 82z" />
<glyph unicode="&#x2c6;" horiz-adv-x="991" d="M322 1128l301 328h96l184 -328h-98l-172 179l-234 -179h-77z" />
<glyph unicode="&#x2dc;" horiz-adv-x="983" d="M336 1208q32 116 88 179t125 63q44 0 78.5 -20t53 -44.5t44 -44.5t53.5 -20q38 0 66 31.5t43 87.5l59 -13q-32 -116 -87.5 -178.5t-125.5 -62.5q-33 0 -64 20t-51.5 43.5t-51.5 43.5t-64 20q-73 0 -109 -117z" />
<glyph unicode="&#x2000;" horiz-adv-x="918" />
<glyph unicode="&#x2001;" horiz-adv-x="1837" />
<glyph unicode="&#x2002;" horiz-adv-x="918" />
<glyph unicode="&#x2003;" horiz-adv-x="1837" />
<glyph unicode="&#x2004;" horiz-adv-x="612" />
<glyph unicode="&#x2005;" horiz-adv-x="459" />
<glyph unicode="&#x2006;" horiz-adv-x="306" />
<glyph unicode="&#x2007;" horiz-adv-x="306" />
<glyph unicode="&#x2008;" horiz-adv-x="229" />
<glyph unicode="&#x2009;" horiz-adv-x="367" />
<glyph unicode="&#x200a;" horiz-adv-x="102" />
<glyph unicode="&#x2010;" horiz-adv-x="606" d="M59 477l31 185h492l-31 -185h-492z" />
<glyph unicode="&#x2011;" horiz-adv-x="606" d="M59 477l31 185h492l-31 -185h-492z" />
<glyph unicode="&#x2012;" horiz-adv-x="606" d="M59 477l31 185h492l-31 -185h-492z" />
<glyph unicode="&#x2013;" horiz-adv-x="1185" d="M68 496l26 153h1065l-26 -153h-1065z" />
<glyph unicode="&#x2014;" horiz-adv-x="1705" d="M68 496l26 153h1573l-27 -153h-1572z" />
<glyph unicode="&#x2018;" horiz-adv-x="528" d="M227 1194q53 292 344 369l2 -80q-96 -16 -160 -85t-77 -145q-11 -67 4 -90q36 54 109 54q53 0 81.5 -39t18.5 -103q-11 -62 -54.5 -102.5t-107.5 -40.5q-88 0 -133 78.5t-27 183.5z" />
<glyph unicode="&#x2019;" horiz-adv-x="565" d="M233 963q96 16 160.5 85t77.5 144q11 66 -2 90q-36 -53 -111 -53q-53 0 -81.5 39t-18.5 102q11 62 55.5 102.5t108.5 40.5q88 0 132.5 -78.5t25.5 -183.5q-50 -291 -344 -368z" />
<glyph unicode="&#x201a;" horiz-adv-x="585" d="M14 -248q96 16 160.5 85.5t77.5 144.5q11 66 -2 90q-39 -54 -111 -54q-53 0 -81.5 39t-18.5 103q11 62 55.5 102.5t108.5 40.5q88 0 132 -78.5t25 -183.5q-50 -292 -344 -369z" />
<glyph unicode="&#x201c;" horiz-adv-x="985" d="M227 1194q53 292 344 369l2 -80q-96 -16 -160 -85t-77 -145q-11 -67 4 -90q36 54 109 54q53 0 81.5 -39t18.5 -103q-11 -62 -54.5 -102.5t-107.5 -40.5q-88 0 -133 78.5t-27 183.5zM672 1194q53 292 344 369l2 -80q-96 -16 -160.5 -85.5t-77.5 -144.5q-11 -67 4 -90 q36 54 109 54q53 0 81.5 -39t18.5 -103q-11 -62 -54.5 -102.5t-107.5 -40.5q-88 0 -132.5 78.5t-26.5 183.5z" />
<glyph unicode="&#x201d;" horiz-adv-x="985" d="M233 963q96 16 160.5 85t77.5 144q11 66 -2 90q-36 -53 -111 -53q-53 0 -81.5 39t-18.5 102q11 62 55.5 102.5t108.5 40.5q88 0 132.5 -78.5t25.5 -183.5q-50 -291 -344 -368zM678 963q96 16 160 85t77 144q11 66 -2 90q-36 -53 -110 -53q-54 0 -82.5 39t-18.5 102 q11 62 55.5 102.5t108.5 40.5q88 0 132.5 -78.5t25.5 -183.5q-50 -291 -344 -368z" />
<glyph unicode="&#x201e;" horiz-adv-x="985" d="M14 -248q96 16 160.5 85.5t77.5 144.5q11 66 -2 90q-39 -54 -111 -54q-53 0 -81.5 39t-18.5 103q11 62 55.5 102.5t108.5 40.5q88 0 132 -78.5t25 -183.5q-50 -292 -344 -369zM459 -248q96 16 160 85t77 145q11 66 -2 90q-39 -54 -110 -54q-53 0 -82 39.5t-19 102.5 q11 62 55.5 102.5t108.5 40.5q88 0 132.5 -78.5t25.5 -183.5q-50 -292 -344 -369z" />
<glyph unicode="&#x2022;" horiz-adv-x="1355" d="M248 735q21 124 100.5 229.5t195.5 166.5t240 61t218.5 -61.5t137 -166.5t21.5 -229q-34 -189 -191.5 -322.5t-346.5 -133.5q-124 0 -218 61t-136.5 166t-20.5 229z" />
<glyph unicode="&#x2026;" horiz-adv-x="1882" d="M94 147q12 65 66.5 110.5t118.5 45.5t100 -45.5t24 -110.5q-10 -64 -62.5 -108.5t-117.5 -44.5t-102 44.5t-27 108.5zM719 147q12 65 66 110.5t118 45.5t100.5 -45.5t24.5 -110.5q-10 -64 -62.5 -108.5t-117.5 -44.5t-102 44.5t-27 108.5zM1346 147q12 65 66 110.5 t118 45.5t100.5 -45.5t24.5 -110.5q-10 -64 -62.5 -108.5t-117.5 -44.5t-102 44.5t-27 108.5z" />
<glyph unicode="&#x202f;" horiz-adv-x="367" />
<glyph unicode="&#x2039;" horiz-adv-x="729" d="M98 469l27 149l573 379l-20 -120l-332 -316l221 -315l-28 -154z" />
<glyph unicode="&#x203a;" horiz-adv-x="729" d="M61 92l23 121l332 315l-221 316l26 153l443 -376l-27 -150z" />
<glyph unicode="&#x205f;" horiz-adv-x="459" />
<glyph unicode="&#x20ac;" horiz-adv-x="1351" d="M23 498l53 133h112q1 10 11 74q13 76 41 169h-138l52 134h135q52 119 125.5 213t154 152t163 88t161.5 30q158 0 241.5 -77.5t94.5 -223.5h18l49 274h162l-80 -444h-190q13 92 -21 164.5t-101.5 110.5t-152.5 38q-118 0 -225 -84.5t-178 -240.5h559l-51 -134h-555 q-16 -57 -27 -112q-14 -79 -14 -131h500l-54 -133h-444q19 -158 106 -246t234 -88q108 0 213.5 60t187.5 161l82 -162q-207 -258 -540 -258q-244 0 -382.5 143.5t-144.5 389.5h-157z" />
<glyph unicode="&#x2122;" horiz-adv-x="2023" d="M219 1147l55 309h705l-55 -309h-93l15 80q10 58 -10 87t-86 29h-68l-78 -438h121l-18 -112h-392l19 112h121l77 438h-67q-65 0 -96 -29.5t-41 -86.5l-15 -80h-94zM958 793l19 112h121l78 438h-121l20 113h365l41 -360q11 -102 6 -174q37 108 69 174l177 360h335l-20 -113 h-121l-78 -438h121l-18 -112h-357l19 112h92l59 330q3 19 14.5 78t16.5 90q-18 -51 -74 -168l-206 -442h-132l-57 448l-20 158q-4 -50 -25 -158l-59 -336h92l-19 -112h-338z" />
<glyph unicode="&#xe000;" horiz-adv-x="1013" d="M0 0v1014h1014v-1014h-1014z" />
</font>
</defs>
</svg>
