<?xml version="1.0" standalone="no"?>
<!DOCTYPE svg PUBLIC "-//W3C//DTD SVG 1.1//EN" "http://www.w3.org/Graphics/SVG/1.1/DTD/svg11.dtd" >
<svg xmlns="http://www.w3.org/2000/svg">
<metadata></metadata>
<defs>
<font id="farao_textbold_italic" horiz-adv-x="1683" >
<font-face units-per-em="2048" ascent="1638" descent="-410" />
<missing-glyph horiz-adv-x="430" />
<glyph unicode="&#xfb01;" horiz-adv-x="1476" d="M-23 0l52 301h196l84 467h-235l28 162h117q80 0 129 41t58 90q19 109 81.5 195.5t149 138t183 78t192.5 26.5q88 0 164 -20.5t133.5 -60t84 -105.5t11.5 -150q-14 -80 -77 -124t-142 -44q-80 0 -121.5 36t-28.5 112q9 52 44.5 90t88.5 53q-49 49 -165 49q-69 0 -128 -20 t-102.5 -65t-54.5 -109q-17 -91 37 -131.5t178 -40.5h446l-118 -668h163l-51 -301h-655l51 301h145l84 467h-342l-84 -467h148l-51 -301h-693z" />
<glyph unicode="&#xfb02;" horiz-adv-x="1478" d="M-23 0l52 301h196l84 467h-235l28 162h117q80 0 129 41t58 90q34 191 194.5 314.5t413.5 123.5q218 0 322.5 -91.5t80.5 -233.5l-155 -873h165l-51 -301h-657l51 301h145l148 836q17 91 -20.5 137.5t-116.5 46.5q-93 0 -157 -59t-79 -138q-13 -80 31.5 -137t144.5 -57h56 l-29 -162h-236l-84 -467h148l-51 -301h-693z" />
<glyph unicode="&#xfb03;" horiz-adv-x="2166" d="M-23 0l52 301h196l84 467h-235l28 162h117q81 0 130.5 46t62.5 120q18 101 65 180.5t111 127t135 71.5t143 24q137 0 199.5 -75t42.5 -187q-13 -72 -63.5 -114t-110.5 -42q-74 0 -107 33t-22 94q12 79 76 117q-32 4 -56 4q-67 0 -120 -50.5t-68 -137.5q-9 -39 -3 -77 t22 -67.5t52.5 -48t88.5 -18.5h121q77 0 128 47t64 119q21 118 109.5 211t215.5 142.5t267 49.5q88 0 164 -20.5t133.5 -60t84 -105.5t11.5 -150q-14 -80 -77 -124t-142 -44q-80 0 -121.5 36t-28.5 112q9 51 44.5 89.5t89.5 53.5q-49 49 -166 49q-69 0 -128 -20t-102.5 -65 t-54.5 -109q-17 -91 37 -131.5t178 -40.5h447l-119 -668h164l-52 -301h-647l51 301h138l84 467h-342l-84 -467h139l-51 -301h-623l51 301h135l84 467h-342l-84 -467h138l-52 -301h-682z" />
<glyph unicode="&#xfb04;" horiz-adv-x="2166" d="M-23 0l52 301h196l84 467h-235l28 162h117q81 0 130.5 46t62.5 120q18 101 65 180.5t111 127t135 71.5t143 24q137 0 199.5 -75t42.5 -187q-13 -72 -63.5 -114t-110.5 -42q-74 0 -107 33t-22 94q12 79 76 117q-32 4 -56 4q-67 0 -120 -50.5t-68 -137.5q-9 -39 -3 -77 t22 -67.5t52.5 -48t88.5 -18.5h121q77 0 128 47t64 119q14 80 60 151.5t119 128t180.5 90t234.5 33.5q218 0 322.5 -91.5t80.5 -233.5l-155 -873h164l-52 -301h-647l51 301h138l147 836q17 91 -20.5 137.5t-116.5 46.5q-93 0 -157 -59t-79 -138q-13 -80 31.5 -137t144.5 -57 h56l-29 -162h-235l-84 -467h139l-51 -301h-623l51 301h135l84 467h-342l-84 -467h138l-52 -301h-682z" />
<glyph horiz-adv-x="2048" />
<glyph horiz-adv-x="2048" />
<glyph unicode="&#xd;" horiz-adv-x="2048" />
<glyph unicode=" "  horiz-adv-x="430" />
<glyph unicode="&#x09;" horiz-adv-x="430" />
<glyph unicode="&#xa0;" horiz-adv-x="430" />
<glyph unicode="!" horiz-adv-x="806" d="M162 160q13 78 78 133t143 55t123.5 -55t32.5 -133t-78.5 -133.5t-143.5 -55.5t-123.5 55.5t-31.5 133.5zM313 444q20 116 25.5 251t1 233.5t-4.5 201t11 162.5q18 97 87.5 152t150.5 55q83 0 134 -55.5t32 -155.5q-10 -58 -45.5 -159.5t-74 -199t-79.5 -232.5t-62 -253 h-176z" />
<glyph unicode="&#x22;" horiz-adv-x="958" d="M246 805l10 651h367l-213 -651h-164zM684 805l8 651h369l-215 -651h-162z" />
<glyph unicode="#" horiz-adv-x="1681" d="M-16 344l84 244h350l76 223h-351l84 244h351l137 401h303l-137 -401h225l137 401h297l-137 -401h385l-84 -244h-385l-76 -223h385l-86 -244h-381l-117 -344h-294l114 344h-225l-117 -344h-303l117 344h-352zM721 588h227l76 223h-227z" />
<glyph unicode="$" horiz-adv-x="1159" d="M47 176l72 416h313q-45 -260 191 -260q63 0 99 24.5t44 65.5q5 27 -5 48t-27.5 35.5t-57 29.5t-75.5 25t-101 26q-80 20 -136.5 42.5t-117 64t-84.5 110t-8 160.5q27 148 152 246t276 98l34 192h246l-65 -252q82 -64 88 -180h8l22 219h263l-72 -407h-320q40 243 -176 243 q-47 0 -81 -22.5t-40 -59.5q-3 -21 2 -38.5t14 -30t29 -24.5t36.5 -19.5t48 -17t51.5 -14t57 -13.5q66 -15 117 -31t109.5 -47t94 -69t53.5 -97.5t5 -132.5q-12 -72 -47 -131t-82.5 -97.5t-107 -65t-120.5 -38t-124 -12.5l-35 -199h-225l61 246q-83 54 -94 162h-8l-13 -195 h-264z" />
<glyph unicode="%" horiz-adv-x="1699" d="M70 0l1323 1456h311l-1319 -1456h-315zM156 1120q28 162 154 266.5t296 104.5q169 0 258.5 -104.5t61.5 -266.5q-28 -160 -156 -266t-295 -106q-169 0 -258 105.5t-61 266.5zM406 1120q-18 -103 2 -144.5t100 -41.5q82 0 111.5 36t50.5 150q12 64 11.5 106.5t-25.5 63.5 t-83 21q-80 0 -114 -40.5t-53 -150.5zM866 346q29 162 155 266.5t294 104.5q170 0 260 -104.5t61 -266.5q-28 -160 -156 -266.5t-296 -106.5t-257 106t-61 267zM1116 346q-18 -103 1.5 -144.5t99.5 -41.5q84 0 114 36t49 150q12 64 12.5 106.5t-24.5 63.5t-84 21 q-80 0 -113.5 -40.5t-54.5 -150.5z" />
<glyph unicode="&#x26;" horiz-adv-x="1783" d="M16 358q28 158 128 256.5t282 173.5q-46 159 -23 293q24 135 107.5 231t201 141.5t257.5 45.5q149 0 242.5 -70.5t70.5 -199.5q-13 -74 -49.5 -133.5t-112 -112t-121.5 -78t-154 -77.5q-17 -9 -26 -13q103 -268 311 -450q153 114 213 303h-196l53 297h600l-53 -297h-186 q-107 -233 -318 -394q71 -41 133 -41q60 0 103 30.5t53 94.5l16 84h160l-35 -196q-15 -81 -52 -138.5t-89.5 -87t-107.5 -42.5t-119 -13q-85 0 -179 31.5t-178 97.5q-103 -60 -238.5 -97.5t-250.5 -37.5q-237 0 -355 108.5t-88 290.5zM397 434q-27 -156 34.5 -221.5 t189.5 -65.5q108 0 208 41q-96 76 -183 190t-152 243q-81 -88 -97 -187zM772 1139q-16 -78 8 -193q129 64 188.5 124t71.5 136q10 57 -17.5 90t-78.5 33q-62 0 -108.5 -48t-63.5 -142z" />
<glyph unicode="'" horiz-adv-x="512" d="M233 805l11 651h366l-213 -651h-164z" />
<glyph unicode="(" horiz-adv-x="798" d="M147 467.5q-2 125.5 23 259.5q35 198 117.5 379t195 317t256.5 216.5t293 80.5l-43 -250q-145 0 -284.5 -210t-196.5 -533q-37 -223 -20 -388t80 -260t157 -95l-43 -252q-101 0 -187 36.5t-149 102.5t-109 158t-67 202.5t-23 236z" />
<glyph unicode=")" horiz-adv-x="798" d="M-139 -268l47 252q93 0 188 92.5t173 264.5t116 386q37 222 20 387t-80 260.5t-157 95.5l43 250q100 0 186 -36.5t148.5 -102.5t108.5 -158t67 -202t23 -235.5t-23 -258.5q-35 -199 -117.5 -381t-195 -317.5t-255.5 -216t-292 -80.5z" />
<glyph unicode="*" horiz-adv-x="1058" d="M145 905q33 19 77 24.5t86.5 5t114 15t150.5 51.5q-66 37 -132.5 53t-109 14.5t-86.5 4t-73 25.5l205 258q26 -18 45.5 -54.5t33.5 -74t53.5 -90t100.5 -97.5q11 88 1 154t-26.5 103t-28 78.5t-5.5 80.5h305q-5 -31 -22.5 -62t-40.5 -62.5t-48 -68.5t-51 -95.5 t-43 -127.5q79 45 137.5 97.5t85.5 90t62 74t72 54.5l96 -264q-34 -18 -78 -22t-85 -2t-112 -13.5t-151 -53.5q67 -36 133 -51t107.5 -14t84 -5t70.5 -26l-201 -258q-27 18 -46 52.5t-32 71t-53 90t-104 102.5q-8 -84 1.5 -153t26 -104.5t27.5 -77.5t4 -81h-305 q5 31 22.5 62t41.5 62.5t49 68.5t50.5 95.5t41.5 127.5q-64 -40 -114.5 -82t-79.5 -74.5t-53 -62t-50 -55t-57 -42.5z" />
<glyph unicode="+" horiz-adv-x="1185" d="M63 473l37 203h432l76 432h203l-76 -432h430l-37 -203h-430l-75 -430h-203l76 430h-433z" />
<glyph unicode="," horiz-adv-x="677" d="M25 -252q137 19 214 85.5t91 143.5l6 41q-55 -34 -127 -34q-83 0 -129 55.5t-31 138.5q14 81 80 136t164 55q89 0 146 -48.5t74.5 -121t2.5 -156.5q-32 -187 -156 -309.5t-325 -134.5z" />
<glyph unicode="-" horiz-adv-x="606" d="M51 438l47 267h492l-47 -267h-492z" />
<glyph unicode="." horiz-adv-x="630" d="M45 176q15 86 85.5 146.5t156.5 60.5t136.5 -60.5t35.5 -146.5t-86.5 -146.5t-157.5 -60.5t-135.5 60.5t-34.5 146.5z" />
<glyph unicode="/" horiz-adv-x="1392" d="M-76 0l1323 1456h312l-1319 -1456h-316z" />
<glyph unicode="0" horiz-adv-x="1398" d="M111 725q39 219 150.5 393t274.5 271.5t347 97.5q186 0 314 -97.5t177 -271t10 -393.5q-38 -218 -150.5 -392t-275 -271t-344.5 -97q-183 0 -311.5 97t-179.5 271t-12 392zM487 351.5q37 -115.5 175 -115.5q99 0 159 43.5t100.5 146.5t75.5 299q30 168 28 277.5 t-47.5 162t-143.5 52.5q-94 0 -155 -45.5t-104.5 -151.5t-76.5 -295q-48 -258 -11 -373.5z" />
<glyph unicode="1" horiz-adv-x="1398" d="M80 0l51 301h461l96 537h-448l45 260q535 0 604 358h254l-205 -1155h420l-51 -301h-1227z" />
<glyph unicode="2" horiz-adv-x="1398" d="M-14 0l16 94q8 49 23.5 93.5t34 80.5t46 70t51.5 59.5t61 53t64 45t70 41t70 37t72.5 36t70.5 35.5q73 36 123 68t101.5 77.5t83.5 105t45 132.5q24 136 -48 207.5t-188 71.5q-78 0 -150.5 -33t-109.5 -90q65 30 141 30q95 0 137.5 -58.5t28.5 -141.5q-19 -102 -108 -179 t-226 -77q-78 0 -130.5 40.5t-71 106t-3.5 144.5q11 64 43 126.5t89 121.5t132 103.5t181 71.5t227 27q117 0 214 -29.5t168 -87.5t102 -152t10 -214q-10 -57 -31 -107.5t-45.5 -90t-63.5 -76t-73 -63t-86 -53t-89.5 -43t-97 -37t-95.5 -31t-97 -28.5q-65 -19 -84.5 -25 t-72.5 -23t-75.5 -27.5t-58 -27.5t-57.5 -35.5t-39 -39.5q55 33 100 44.5t107 11.5q56 0 206 -31t218 -31q80 0 136 35.5t68 101.5q7 28 4 58l183 37q17 -105 0 -209q-17 -93 -61.5 -163t-107 -111t-133 -61t-147.5 -20q-78 0 -145.5 19.5t-113.5 46.5t-87 54.5t-84.5 47 t-87.5 19.5q-78 0 -127.5 -43.5t-60.5 -114.5h-172z" />
<glyph unicode="3" horiz-adv-x="1398" d="M67.5 271q-0.5 39 4.5 77q21 110 99 182t216 72q109 0 160.5 -64t36.5 -147q-13 -76 -77.5 -127t-176.5 -51q58 -70 227 -70q116 0 195 76t98 180q19 109 -38.5 188t-188.5 79h-76l26 147h76q122 0 199 73.5t96 176.5q19 101 -28 175.5t-150 74.5q-82 0 -144.5 -28 t-84.5 -75q24 4 38 4q69 0 103.5 -51t21.5 -119q-12 -74 -76 -127t-173 -53q-86 0 -138 36t-66.5 89.5t-2.5 120.5q12 69 54.5 134t114.5 122t185.5 92t251.5 35q120 0 217 -22.5t159.5 -61t102 -89.5t52 -107t1.5 -115q-25 -139 -161 -236.5t-355 -97.5l-2 -21 q119 0 208 -31t137 -83.5t67 -118t6 -137.5q-11 -62 -44 -120t-93 -111.5t-140.5 -93.5t-193.5 -63.5t-246 -23.5q-86 0 -159 12t-125 33.5t-93.5 51t-65 63.5t-39 72.5t-16 77.5z" />
<glyph unicode="4" horiz-adv-x="1398" d="M55 426l41 225l727 805h402l-140 -788h291l-43 -242h-291l-22 -125h170l-51 -301h-701l51 301h209l23 125h-666zM397 668h367l53 307q33 177 57 258z" />
<glyph unicode="5" horiz-adv-x="1398" d="M84 336q19 108 102.5 185t192.5 77q102 0 160.5 -56t40.5 -155q-12 -73 -67 -123t-132 -51q24 -34 71 -55t103 -21q50 0 97.5 16.5t91.5 51.5t77.5 97t48.5 144q26 148 -21.5 239t-174.5 91q-131 0 -238 -74h-164l136 766q236 -28 483 -28q265 0 491 28l-22 -122 q-9 -52 -32 -92t-59 -66t-78 -43t-98.5 -25.5t-109.5 -12t-121 -3.5q-149 0 -338 22l-43 -243q120 82 318 82q141 0 247.5 -42.5t165 -113t80.5 -158.5t6 -184q-17 -97 -72 -186t-141.5 -161t-213.5 -115.5t-275 -43.5q-121 0 -216 22t-154 59t-95 86t-46.5 101t-0.5 107z " />
<glyph unicode="6" horiz-adv-x="1398" d="M125 453.5q-2 110.5 18 238.5q23 128 67.5 243t116.5 218t164 177.5t217 118.5t269 44q82 0 148 -15t108 -41t73 -61t43 -74t17 -81t-4 -82q-18 -95 -81.5 -146t-137.5 -51q-69 0 -113 42.5t-31 113.5q11 60 53 96.5t103 36.5q-6 42 -53 64t-117 22q-343 0 -432 -504 q127 115 340 115q108 0 193.5 -29.5t142 -86t78 -143.5t2.5 -198q-40 -223 -216.5 -365.5t-443.5 -142.5q-130 0 -229.5 35t-161 99.5t-96.5 155t-37 201zM489.5 403.5q-1.5 -62.5 8.5 -103t34.5 -64.5t58 -33.5t81.5 -9.5q110 0 169.5 67.5t90.5 243.5q14 91 9.5 158.5 t-44.5 106t-115 38.5q-111 0 -183.5 -71t-92.5 -183q-15 -87 -16.5 -149.5z" />
<glyph unicode="7" horiz-adv-x="1398" d="M154 885l100 571h235l-71 -323h16q55 205 133 284.5t191 79.5q56 0 102 -17.5t77.5 -43t61.5 -51t68 -43t82 -17.5q52 0 97.5 43t53.5 88h173l-15 -82q-9 -49 -22 -96t-26.5 -85.5t-35.5 -81t-37.5 -71.5t-44.5 -69.5t-45 -62.5t-50.5 -62t-49 -56.5t-52.5 -58t-51 -55.5 q-79 -87 -129 -153.5t-98.5 -169t-68.5 -214.5q-13 -82 -86.5 -131t-159.5 -49q-85 0 -138.5 51.5t-35.5 145.5q15 83 51 159.5t78.5 132.5t107.5 114.5t116 96t126 86.5q91 61 135.5 92.5t106.5 81.5t96 94t51 91q-27 -21 -60.5 -32t-56.5 -13t-57 -2q-55 0 -199.5 20.5 t-212.5 20.5q-76 0 -128 -53.5t-70 -159.5h-258z" />
<glyph unicode="8" horiz-adv-x="1398" d="M74 338q23 130 140.5 225.5t303.5 116.5q-149 54 -223.5 162t-48.5 252q9 52 33.5 103.5t74.5 106t117.5 95t172 66.5t230.5 26q137 0 239 -27.5t158.5 -75.5t79 -108.5t9.5 -130.5q-19 -108 -118 -186.5t-265 -108.5q166 -62 250.5 -183t58.5 -265q-35 -204 -224 -323.5 t-517 -119.5q-133 0 -232.5 32t-154 86t-76 119.5t-8.5 137.5zM461 373q-42 -232 170 -232q122 0 187 52t83 155q18 97 -46.5 168t-225.5 115q-61 -37 -107.5 -103.5t-60.5 -154.5zM637 1155q-15 -88 36.5 -142t194.5 -106q118 66 144 211q9 62 2.5 108t-46 72.5 t-114.5 26.5q-91 0 -147 -45t-70 -125z" />
<glyph unicode="9" horiz-adv-x="1398" d="M72 248l247 178q52 -174 269 -174q60 0 121 24.5t117.5 71.5t99.5 127t61 180q-72 -71 -163 -114t-224 -43q-101 0 -183.5 30.5t-140 89.5t-80 154t-1.5 215q40 223 216 365.5t443 142.5q130 0 229.5 -35t161.5 -99.5t97 -155t37 -201t-19 -238.5q-28 -160 -92 -300 t-164.5 -254.5t-248.5 -181t-327 -65.5q-353 0 -456 283zM586 971q-58 -320 153 -320q226 0 275 289q34 195 -6.5 277.5t-159.5 82.5q-111 0 -170 -70.5t-92 -258.5z" />
<glyph unicode=":" horiz-adv-x="630" d="M45 176q15 86 85.5 146.5t156.5 60.5t136.5 -60.5t35.5 -146.5t-86.5 -146.5t-157.5 -60.5t-135.5 60.5t-34.5 146.5zM170 893q15 86 86.5 146.5t157.5 60.5t135.5 -60.5t34.5 -146.5q-13 -86 -84.5 -146.5t-157.5 -60.5t-136 60t-36 147z" />
<glyph unicode=";" horiz-adv-x="677" d="M25 -252q137 19 214 85.5t91 143.5l6 41q-55 -34 -127 -34q-83 0 -129 55.5t-31 138.5q14 81 80 136t164 55q89 0 146 -48.5t74.5 -121t2.5 -156.5q-32 -187 -156 -309.5t-325 -134.5zM197 893q15 86 86 146.5t157 60.5t135.5 -60.5t34.5 -146.5q-13 -86 -84 -146.5 t-157 -60.5t-136 60t-36 147z" />
<glyph unicode="&#x3c;" horiz-adv-x="1179" d="M84 530l29 164l1120 570l-41 -238l-580 -395l445 -371l-45 -258z" />
<glyph unicode="=" horiz-adv-x="1185" d="M39 344l43 244h1065l-43 -244h-1065zM121 811l43 244h1065l-43 -244h-1065z" />
<glyph unicode="&#x3e;" horiz-adv-x="1179" d="M-6 2l39 238l579 395l-444 371l45 258l928 -529l-29 -164z" />
<glyph unicode="?" horiz-adv-x="1112" d="M111 967l86 489h254l-64 -262h10q32 97 108.5 167.5t170 104t192.5 33.5q81 0 150.5 -24t121.5 -70t74 -122.5t5 -172.5q-15 -83 -53 -150.5t-87.5 -112.5t-107 -83.5t-113.5 -71.5t-104 -67t-82 -80t-43 -101h-207q0 29 12 109q8 48 31.5 89.5t54.5 72.5t67 60t72.5 58 t67.5 60t54.5 72t31.5 88q15 87 -28.5 133.5t-129.5 46.5t-161 -67t-101 -199h-282zM295 160q13 78 78 133t143 55t123.5 -55t32.5 -133q-14 -78 -78.5 -133.5t-142.5 -55.5t-124 55.5t-32 133.5z" />
<glyph unicode="@" horiz-adv-x="1708" d="M42 263.5q-7 103.5 15 217.5q22 121 74 238.5t141.5 228t204 194t272.5 133.5t336 50q203 0 353.5 -89t216.5 -238.5t35 -327.5q-23 -131 -75.5 -238.5t-121.5 -176.5t-149.5 -106.5t-163.5 -37.5q-72 0 -107 37.5t-22 107.5q0 17 8 45h-10q-42 -87 -121 -137.5 t-180 -50.5t-173.5 55.5t-101.5 149t-10 204.5q32 180 145 288t262 108q184 0 230 -156h8q0 90 6 139h256l-90 -512q-4 -22 2.5 -34.5t20.5 -12.5q39 0 82 68t67 204q39 218 -67 343.5t-349 125.5q-120 0 -225 -33t-182 -89.5t-136.5 -132t-95 -158.5t-51.5 -172 q-8 -59 -9.5 -116t12.5 -111t37 -101t63 -86.5t90.5 -67.5t120.5 -43.5t153 -15.5q268 0 455 94l61 -233q-136 -71 -274.5 -105.5t-319.5 -34.5q-134 0 -245.5 28t-191 79t-137 123.5t-85 162t-34.5 193zM772 510q-15 -93 7.5 -144t80.5 -51q64 0 101.5 46.5t54.5 148.5 q38 207 -92 207q-56 0 -95 -55t-57 -152z" />
<glyph unicode="A" d="M-82 0l53 301h170l680 1155h359l293 -1155h180l-51 -301h-818l52 301h208l-16 107h-438l-51 -107h211l-52 -301h-780zM719 657h266q-22 66 -40 187.5t-23 228.5q-43 -106 -102.5 -228t-100.5 -188z" />
<glyph unicode="B" horiz-adv-x="1576" d="M-47 0l51 301h238l151 854h-237l53 301h958q237 0 345 -105q84 -82 83 -207q0 -35 -6 -73q-9 -51 -40 -102.5t-83 -98.5t-135 -76.5t-182 -29.5l-2 -21q101 0 178.5 -33.5t118.5 -86t57 -112.5q10 -37 10 -73q0 -23 -4 -45q-31 -182 -182.5 -287.5t-388.5 -105.5h-983z M639 301h252q108 0 166 42.5t73 111.5q3 15 3 29q1 46 -33 77q-44 41 -152 41h-256zM743 877h234q89 0 142 39.5t63 99.5q2 14 2 27q0 45 -30 75q-38 38 -128 37h-233z" />
<glyph unicode="C" horiz-adv-x="1550" d="M89 480q-4 40 -4 81q0 84 15 176q27 153 93 282t152.5 216t190.5 148t208.5 88.5t205.5 27.5q86 0 163 -25.5t135 -81t73 -132.5h8l25 233h301l-113 -641h-295q4 30 4 57q1 111 -63 175q-78 80 -209 81q-71 0 -140 -25t-132 -74t-110.5 -133t-66.5 -192q-9 -52 -9 -98 q1 -51 11 -95q20 -86 68.5 -137.5t113.5 -78.5t140 -27q115 0 218 64t173 198l244 -149q-68 -193 -264 -325t-445 -132q-156 0 -281 36.5t-209.5 104.5t-137 163.5t-63.5 214.5z" />
<glyph unicode="D" horiz-adv-x="1703" d="M-47 0l51 301h262l152 854h-262l53 301h881q106 0 196 -21t156.5 -59t118.5 -90.5t82 -115.5q31 -64 49 -136q17 -65 16 -135v-15q-2 -76 -14 -155q-19 -109 -66 -213.5t-123 -198t-173 -164t-225.5 -112t-270.5 -41.5h-883zM664 301h231q137 0 237.5 123.5t131.5 302.5 q10 69 10 130q0 44 -5 84q-13 95 -68 154.5t-140 59.5h-246z" />
<glyph unicode="E" horiz-adv-x="1611" d="M-47 0l51 301h264l152 854h-264l53 301h1472l-106 -606h-238l17 92q6 37 6 67q0 60 -24 94q-38 52 -167 52h-352l-51 -291h403l-47 -266h-403l-53 -297h352q128 0 184 52t76 161l16 100h238l-107 -614h-1472z" />
<glyph unicode="F" horiz-adv-x="1527" d="M-47 0l51 301h264l152 854h-264l53 301h1472l-108 -612h-238l19 98q6 37 6 67q0 60 -24 94q-38 52 -167 52h-352l-51 -291h467l-47 -266h-467l-53 -297h354l-51 -301h-1016z" />
<glyph unicode="G" horiz-adv-x="1757" d="M94 450q-9 54 -9 114q0 81 17 173q27 150 93.5 277.5t155.5 215t196.5 149.5t216 91t213.5 29q143 0 253 -63t138 -181h16l25 238h303l-108 -612h-291v12q0 134 -83 210q-88 79 -224 79q-59 0 -118 -16t-116.5 -50.5t-104.5 -85t-83 -125t-52 -164.5q-10 -65 -10 -121 q0 -50 8 -93q17 -90 65.5 -148.5t111.5 -86.5t135 -28q116 0 219.5 71t148.5 200h-336l44 249h880l-43 -249h-211l-94 -533h-203q29 155 29 262h-16q-96 -148 -240.5 -223.5t-323.5 -75.5q-107 0 -204.5 28.5t-182 88.5t-139 151.5t-76.5 216.5z" />
<glyph unicode="H" horiz-adv-x="1978" d="M-47 0l51 301h264l152 854h-264l53 301h919l-53 -301h-258l-49 -278h582l49 278h-254l53 301h920l-54 -301h-268l-151 -854h268l-51 -301h-920l51 301h254l53 301h-581l-53 -301h258l-52 -301h-919z" />
<glyph unicode="I" horiz-adv-x="1001" d="M-47 0l51 301h266l152 854h-266l53 301h932l-54 -301h-268l-151 -854h268l-51 -301h-932z" />
<glyph unicode="J" horiz-adv-x="1298" d="M-6 422q11 63 40.5 124.5t75.5 114.5t115 86t148 33q105 0 167 -70q48 -54 48 -126q0 -21 -4 -45q-19 -101 -102.5 -171.5t-186.5 -70.5q-76 0 -131 39q22 -65 81 -99t136 -34q69 0 130 26t110 87.5t65 150.5l121 688h-342l53 301h930l-53 -301h-191l-114 -645 q-22 -129 -93 -236t-168 -173.5t-208 -103t-220 -36.5q-96 0 -177.5 29t-141 84.5t-84.5 145.5q-13 49 -13 105q0 46 9 97z" />
<glyph unicode="K" horiz-adv-x="1806" d="M-47 0l51 301h266l152 854h-266l53 301h856l-53 -301h-195l-69 -399l518 399h-185l54 301h761l-53 -301h-211l-442 -324l403 -530h162l-51 -301h-815l51 301h168l-223 307l-189 -139l-30 -168h204l-51 -301h-866z" />
<glyph unicode="L" horiz-adv-x="1486" d="M-47 0l51 301h264l152 854h-264l53 301h930l-54 -301h-268l-151 -854h292q129 0 186 52.5t77 160.5l34 199h275l-125 -713h-1452z" />
<glyph unicode="M" horiz-adv-x="2320" d="M-47 0l51 301h266l152 854h-266l53 301h860q25 -133 66.5 -455.5t50.5 -517.5q80 199 239.5 519t237.5 454h797l-54 -301h-268l-151 -854h268l-51 -301h-846l51 301h197l96 537q11 62 78 331q-30 -88 -138 -313l-415 -856h-330l-121 854q-16 112 -22 309q-7 -65 -45 -313 l-99 -549h201l-51 -301h-807z" />
<glyph unicode="N" horiz-adv-x="1841" d="M-47 0l51 301h264l152 854h-264l53 301h844q1 -2 51.5 -148t70.5 -206.5t59.5 -185t64 -219.5t38.5 -175q5 56 47 324l56 309h-195l53 301h697l-53 -301h-213l-203 -1155h-352l-340 848q-67 173 -89 303q-17 -177 -49 -350l-88 -500h203l-51 -301h-807z" />
<glyph unicode="O" horiz-adv-x="1677" d="M102 733q33 190 143 350.5t273 266.5q230 149 500 149q169 0 305.5 -59.5t220.5 -161.5q85 -102 119 -244q19 -78 19 -161q0 -68 -13 -140q-29 -160 -113.5 -302.5t-205.5 -246t-278.5 -163.5t-326.5 -60q-168 0 -303.5 60t-219 163.5t-116.5 245.5q-18 76 -18 157 q0 71 14 146zM553 733q-19 -108 -20 -189q1 -104 33 -165q56 -107 235 -107q178 0 271 106.5t138 354.5q19 107 19 187q1 102 -31 158q-56 100 -237 100q-182 0 -273.5 -99.5t-134.5 -345.5z" />
<glyph unicode="P" horiz-adv-x="1572" d="M-47 0l51 301h264l152 854h-264l53 301h913q92 0 175 -16t157 -52t124 -89.5t72 -134.5q12 -44 11 -94q0 -42 -8 -87q-17 -97 -71 -180.5t-140.5 -148t-213.5 -101.5t-280 -37h-243l-39 -215h284l-51 -301h-946zM752 782h213q115 0 181 54t79 135q4 24 4 44q1 56 -31 92 q-44 48 -160 48h-221z" />
<glyph unicode="Q" horiz-adv-x="1675" d="M100 729q38 213 169.5 389t329.5 278.5t419 102.5q169 0 305 -60t220 -163t117 -245q18 -77 18 -159q0 -70 -13 -143q-37 -206 -160 -378t-307 -275q7 -24 14.5 -41t22 -39t39.5 -33.5t57 -11.5q55 0 103 33t57 86h141q-17 -96 -46 -173t-74 -138t-111.5 -94.5 t-149.5 -33.5q-134 0 -201.5 81t-105.5 268q-91 -23 -199 -23q-168 0 -303.5 60t-219.5 163t-117 246q-18 77 -18 159q0 70 13 144zM538 470q11 -103 66 -171q-3 17 -3 33q0 21 5 41q19 109 95.5 166t183.5 57q81 0 143 -50t84 -149q67 153 98 332q19 109 19 189 q0 102 -31 158q-54 100 -235 100q-182 0 -273.5 -100.5t-134.5 -346.5q-20 -112 -20 -197q0 -33 3 -62zM754 295q-1 -7 -1 -13q0 -15 9 -27q12 -17 39 -17q62 0 114 14q-2 28 -5 44.5t-10.5 34t-22.5 26t-39 8.5q-34 0 -56.5 -20.5t-27.5 -49.5z" />
<glyph unicode="R" horiz-adv-x="1716" d="M-47 0l51 301h264l152 854h-264l53 301h952q129 0 228.5 -32t156.5 -86q56 -54 79 -124q14 -43 14 -90q0 -28 -5 -57q-26 -148 -145 -244t-311 -102l-4 -21q144 0 204 -64q44 -47 44 -122q0 -27 -5 -57q-11 -60 -32.5 -129t-24.5 -90q-3 -15 6.5 -24t26.5 -9 q27 0 52 19.5t32 64.5l30 174h187l-29 -172q-21 -113 -88 -189.5t-156 -108.5t-196 -32q-131 0 -201 61q-54 46 -54 127q0 25 5 54q7 39 26.5 107.5t26.5 111.5q2 15 2 29q0 49 -30 82q-38 42 -134 42h-151l-49 -274h231l-51 -301h-893zM758 817h166q82 0 140 13.5t90 39 t47.5 53.5t21.5 64q3 15 3 30q0 51 -36 89q-46 49 -154 49h-219z" />
<glyph unicode="S" horiz-adv-x="1507" d="M53 -25l103 576h358q-6 -38 -6 -72q0 -45 10 -85q18 -68 57.5 -108t88.5 -59.5t104 -19.5q92 0 157.5 42t78.5 122q2 12 2 24q0 23 -9 41q-14 28 -35.5 45.5t-69.5 33.5t-80 23t-97 19q-55 10 -101 21.5t-92.5 27t-82.5 33t-71.5 41t-58.5 50.5t-43.5 61.5t-27.5 74.5 q-8 38 -11 86q-1 10 -1 20q0 39 10 83q35 196 207.5 319t398.5 123q145 0 236 -62t116 -173h8l29 229h291l-105 -588h-346q8 50 8 92q1 101 -43 165q-62 90 -190 89q-72 0 -121.5 -39.5t-60.5 -101.5q-3 -18 -3 -34q0 -18 4 -32q8 -26 39.5 -52t96.5 -47.5t170 -41.5 q124 -23 211 -58.5t147.5 -90.5t81.5 -136q11 -43 11 -92q0 -45 -9 -96q-19 -109 -84.5 -199t-156 -146.5t-194.5 -87t-206 -30.5q-73 0 -131 11t-109.5 37t-87.5 72t-55 112h-12l-29 -222h-295z" />
<glyph unicode="T" horiz-adv-x="1617" d="M49 743l125 713h1618l-125 -713h-276l34 199q6 37 6 67q-1 60 -25 94q-38 52 -165 52h-115l-151 -854h268l-51 -301h-930l51 301h265l151 854h-113q-129 0 -184 -52t-74 -161l-34 -199h-275z" />
<glyph unicode="U" horiz-adv-x="1875" d="M135 1155l53 301h910l-54 -301h-276l-106 -598q-4 -25 -5 -47q0 -84 63 -138q79 -68 208 -67.5t230 67.5t122 185l106 598h-272l53 301h869l-54 -301h-235l-109 -618q-17 -95 -59.5 -178t-103 -144.5t-135 -110t-157.5 -78.5t-168 -45.5t-169 -15.5q-103 0 -197 21.5 t-174.5 68t-135.5 112.5q-55 65 -77 161q-12 50 -12 105q0 50 10 104l109 618h-234z" />
<glyph unicode="V" d="M121 1155l53 301h846l-53 -301h-232l72 -342q48 -238 48 -412q0 -28 -1 -55q65 191 223 494l164 315h-205l54 301h768l-54 -301h-174l-678 -1155h-358l-295 1155h-178z" />
<glyph unicode="W" horiz-adv-x="2371" d="M121 1155l53 301h793l-54 -301h-194l67 -399q33 -210 33 -367q31 112 148 375l174 391h-158l53 301h690l-53 -301h-160l37 -395q17 -191 17 -303q0 -39 -2 -68q62 170 164 367l206 399h-192l53 301h750l-54 -301h-180l-676 -1155h-331q-2 14 -19.5 163t-24 209t-16 172 t-12.5 195q-39 -105 -97 -234t-131.5 -284t-103.5 -221h-332l-270 1155h-178z" />
<glyph unicode="X" horiz-adv-x="1744" d="M-51 0l51 301h170l514 418l-358 436h-174l53 301h835l-53 -301h-178l160 -231l256 231h-168l53 301h778l-53 -301h-174l-514 -416l362 -438h174l-51 -301h-825l51 301h168l-164 231l-256 -231h182l-51 -301h-788z" />
<glyph unicode="Y" d="M121 1155l53 301h868l-53 -301h-196l153 -371l301 371h-188l53 301h746l-54 -301h-170l-575 -643l-39 -211h266l-51 -301h-930l51 301h269l34 191l-368 663h-170z" />
<glyph unicode="Z" horiz-adv-x="1562" d="M-31 0l49 283l1059 872h-358q-129 0 -184 -52t-74 -161l-39 -217h-275l129 731h1403l-49 -282l-1083 -873h430q129 0 185.5 52t76.5 161l37 217h274l-127 -731h-1454z" />
<glyph unicode="[" horiz-adv-x="794" d="M16 -268l353 1988h663l-45 -250h-350l-262 -1486h350l-45 -252h-664z" />
<glyph unicode="\" horiz-adv-x="1392" d="M178 1456h311l811 -1456h-315z" />
<glyph unicode="]" horiz-adv-x="798" d="M-143 -266l43 250h348l262 1486h-350l45 252h663l-350 -1988h-661z" />
<glyph unicode="^" horiz-adv-x="1241" d="M18 522l680 934h211l326 -934h-301l-211 514l-457 -514h-248z" />
<glyph unicode="_" horiz-adv-x="1644" d="M-123 -326l29 166h1620l-31 -166h-1618z" />
<glyph unicode="`" horiz-adv-x="1298" d="M459 1456h342l174 -293h-172z" />
<glyph unicode="a" horiz-adv-x="1431" d="M53 535q28 164 117.5 295.5t216.5 203.5t266 72q125 0 209.5 -50t116.5 -141h10q4 72 17 150h323l-149 -764h200l-51 -301h-471q3 34 21 106.5t34 108.5h-6q-160 -246 -467 -246q-141 0 -239.5 76.5t-136.5 205.5q-22 76 -22 161q0 60 11 123zM440 545q-10 -60 -10 -110 q0 -74 22 -124q37 -84 138 -84q235 0 291 318q12 66 12 116q1 71 -23 112q-40 71 -159 71q-105 0 -175 -78t-96 -221z" />
<glyph unicode="b" horiz-adv-x="1372" d="M68 -35l208 1190h-196l53 301h543l-8 -49q-13 -70 -52.5 -222.5t-76.5 -269.5h10q67 92 168.5 141.5t226.5 49.5q139 0 239.5 -72t144.5 -203q26 -80 26 -172q0 -59 -11 -124q-20 -115 -79 -219.5t-141 -180.5t-186 -121t-210 -45q-171 0 -266 67t-127 179h-6 q-45 -112 -68 -250h-192zM516 545q-11 -61 -11 -110q0 -208 191 -208q101 0 168 84.5t92 233.5q10 55 10 100q0 73 -26 121q-42 78 -147 78q-117 0 -182.5 -70.5t-94.5 -228.5z" />
<glyph unicode="c" horiz-adv-x="1101" d="M53 537q20 116 72.5 212.5t122.5 162t155 111t171.5 66.5t170.5 21q80 0 149 -18t121 -52.5t77 -91.5q16 -38 16 -81q0 -23 -4 -48q-17 -96 -93.5 -161.5t-166.5 -65.5q-181 0 -181 144q0 23 5 50q19 95 77 144h-28q-115 0 -206 -100.5t-114 -227.5q-7 -43 -7 -81 q0 -95 46 -156q66 -86 180 -86q72 0 148.5 37.5t140.5 121.5l156 -196q-205 -277 -559 -277q-155 0 -268 78.5t-160 208.5q-30 84 -30 178q0 52 9 107z" />
<glyph unicode="d" horiz-adv-x="1431" d="M53 535q28 164 117.5 295.5t216.5 203.5t266 72q125 0 209.5 -50t116.5 -141h10q5 80 29 218l4 22h-234l54 301h542l-204 -1155h200l-51 -301h-471q3 34 21 106.5t34 108.5h-6q-160 -246 -467 -246q-141 0 -239.5 76.5t-136.5 205.5q-22 76 -22 161q0 60 11 123zM440 545 q-10 -60 -10 -110q0 -74 22 -124q37 -84 138 -84q235 0 291 318q12 66 12 116q1 71 -23 112q-40 71 -159 71q-105 0 -175 -78t-96 -221z" />
<glyph unicode="e" horiz-adv-x="1198" d="M53 541q20 111 71.5 205t122 160t156 113t175 69t178.5 22q138 0 236 -45t146 -127q48 -80 57 -194q2 -21 1 -44q0 -96 -31 -208h-741q-3 -25 -3 -48q1 -98 53 -156q64 -71 192 -71q187 0 280 166l133 -96q-104 -162 -234.5 -242t-301.5 -80q-137 0 -241.5 44.5 t-164.5 122.5q-61 77 -83 182q-12 54 -11 113q0 55 10 114zM465 684h424q6 30 6 55q0 54 -29 87q-43 48 -133 48q-92 0 -164 -54t-104 -136z" />
<glyph unicode="f" horiz-adv-x="933" d="M-23 0l52 301h196l84 467h-235l28 162h117q81 0 130.5 46t62.5 120q18 101 65 180.5t111 127t135 71.5t143 24q157 0 232 -67q58 -51 58 -139q0 -26 -5 -56q-14 -75 -73 -122.5t-140 -47.5t-122 33q-31 26 -31 72q0 13 3 28q13 83 86 125q-32 4 -55 4q-66 0 -117 -50 t-63 -118q-5 -32 1 -62t23 -57t53.5 -43t88.5 -16h182l-37 -215h-293l-84 -467h230l-51 -301h-775z" />
<glyph unicode="g" horiz-adv-x="1202" d="M-68 -180q25 146 213 213q-61 5 -99 48q-30 34 -30 77q0 12 2 24q12 66 79 125t147 78q-66 43 -102 120q-23 51 -23 110q0 29 6 61q32 183 194 296t381 113q76 0 163.5 -23.5t123.5 -23.5q52 0 96.5 35t51.5 72q3 17 -7 33q-74 -52 -149 -52q-73 0 -111 46q-29 34 -29 83 q0 17 3 35q14 86 81.5 141.5t170.5 55.5q55 0 97.5 -15t68 -41t42 -60t17.5 -71v-12q0 -31 -4 -63q-15 -89 -77 -166.5t-171 -108.5q41 -39 59 -111q9 -39 9 -82q0 -37 -7 -77q-32 -183 -179.5 -286t-366.5 -103q-90 0 -230 33q-49 0 -77 -18t-33 -42q-3 -20 14 -33.5 t53 -13.5q110 0 269.5 10.5t234.5 10.5q159 0 240 -70q64 -56 64 -143q0 -24 -5 -50q-14 -78 -65 -150.5t-136 -133t-216 -97t-287 -36.5q-257 0 -377 74q-102 62 -102 155q0 16 3 33zM240 -61q-1 -4 -1 -8q0 -38 59 -56q65 -20 202 -20q100 0 173 22t81 66q5 28 -21.5 42.5 t-97.5 14.5h-307q-39 0 -61 -18.5t-27 -42.5zM489 657q-5 -30 -5 -55q0 -55 25 -84q37 -43 124 -43q79 0 135.5 47t71.5 135q5 29 5 53q0 56 -27 90q-38 48 -120 48q-83 0 -137.5 -48t-71.5 -143z" />
<glyph unicode="h" horiz-adv-x="1419" d="M-61 0l53 301h194l152 854h-197l54 301h542l-6 -29q-28 -161 -94.5 -391.5t-138.5 -412.5h18q39 110 93 196.5t111 140t121 88.5t120 48.5t112 13.5q112 0 174 -50q61 -50 73 -139q4 -34 5 -72q0 -63 -12 -138l-74 -410h129l-51 -301h-629l51 301h156l49 274 q12 64 12 107q0 42 -12 66q-23 46 -108 47q-98 0 -170 -74.5t-99 -224.5l-35 -195h158l-51 -301h-700z" />
<glyph unicode="i" horiz-adv-x="749" d="M-61 0l53 301h196l84 467h-196l51 297h543l-135 -764h163l-51 -301h-708zM340 1294q14 78 80.5 133.5t148.5 55.5q83 1 131 -55q38 -44 38 -102q0 -15 -3 -32q-14 -78 -81.5 -134t-149.5 -56t-130 56q-37 43 -37 100q0 16 3 34z" />
<glyph unicode="j" horiz-adv-x="706" d="M-326 -190q15 82 77.5 131t148.5 49q61 0 94 -42q25 -31 25 -73q0 -14 -3 -29q-12 -80 -82 -126q-44 -30 -89 -30q-25 0 -50 9q27 -39 107 -39q81 0 130.5 60.5t65.5 158.5l158 889h-195l52 297h542l-178 -1018q-41 -228 -190.5 -353.5t-364.5 -125.5q-134 0 -202 62 q-51 48 -51 128q0 24 5 52zM326 1294q14 78 80.5 133.5t148.5 55.5t131 -55q38 -44 38 -102q0 -16 -3 -32q-14 -78 -82 -134t-150 -56q-81 0 -129 56q-37 43 -37 100q0 16 3 34z" />
<glyph unicode="k" horiz-adv-x="1421" d="M-61 0l53 301h194l152 854h-197l54 301h544l-157 -893l276 201h-127l53 301h668l-53 -301h-182l-203 -139l231 -324h125l-51 -301h-682l51 301h113l-86 123l-180 -123l-52 -301h-544z" />
<glyph unicode="l" horiz-adv-x="749" d="M-61 0l53 301h194l152 854h-197l54 301h542l-205 -1155h166l-51 -301h-708z" />
<glyph unicode="m" horiz-adv-x="2048" d="M-61 0l53 301h194l84 467h-196l51 297h459q-17 -78 -51 -210.5t-50 -168.5h21q58 190 182 302t287 112q139 0 192 -80q37 -57 37 -132q0 -31 -6 -65q-6 -44 -14 -71h14q28 106 101 189.5t162 126t175 42.5q182 0 253 -108q48 -73 49 -179q0 -49 -11 -106l-74 -416h146 l-51 -301h-623l51 301h133l52 283q11 60 11 100q0 38 -10 58q-20 42 -98 42q-185 0 -219 -202l-51 -281h133l-51 -301h-608l51 301h131l51 283q11 61 11 101q0 37 -10 57q-20 42 -97 42q-185 0 -219 -202l-52 -281h136l-52 -301h-677z" />
<glyph unicode="n" horiz-adv-x="1419" d="M-61 0l53 301h194l84 467h-196l51 297h459q-9 -62 -43.5 -202.5t-55.5 -198.5h21q66 220 195.5 333t310.5 113q195 0 265 -102q47 -69 47 -179q0 -53 -11 -116l-74 -412h129l-51 -301h-629l51 301h156l47 266q11 60 11 100q0 41 -12 61q-23 40 -110 40q-213 0 -251 -203 l-48 -264h158l-51 -301h-700z" />
<glyph unicode="o" horiz-adv-x="1314" d="M53 543q28 160 136 291t262 203.5t319 72.5q128 0 234.5 -43t175 -118t98.5 -181q17 -62 17 -128q0 -47 -9 -97q-20 -114 -87 -220.5t-163.5 -185t-219 -125.5t-247.5 -47q-169 0 -297.5 79.5t-186.5 212.5q-40 92 -40 193q0 46 8 93zM433 389v-20q1 -41 7 -69 q8 -36 31.5 -55t56 -26.5t82.5 -7.5q64 0 103 10.5t72 44t53.5 93.5t38.5 161q15 93 17 153v8q0 53 -20 87q-21 36 -57 49.5t-98 13.5q-57 0 -96.5 -12.5t-74 -46t-58.5 -95t-41 -157.5q-14 -78 -16 -131z" />
<glyph unicode="p" horiz-adv-x="1413" d="M-152 -401l54 297h194l154 872h-197l51 297h506q-18 -92 -55 -205h8q50 82 107 135.5t136.5 84t178.5 30.5q211 0 326 -162q84 -120 84 -286q0 -60 -11 -127q-29 -161 -121 -295t-224.5 -210.5t-274.5 -76.5q-123 0 -211 64.5t-119 162.5h-8q1 -29 1 -56q0 -125 -15 -228 h196l-53 -297h-707zM557 545q-11 -66 -11 -118q0 -81 27 -128q45 -78 164 -78q203 0 260 324q10 55 10 100q0 73 -26 121q-42 78 -147 78q-117 0 -182.5 -70.5t-94.5 -228.5z" />
<glyph unicode="q" horiz-adv-x="1413" d="M53 535q28 165 117.5 297t216.5 205t266 73q146 0 224 -62.5t112 -187.5h8q0 91 15 205h506l-52 -297h-196l-154 -872h197l-53 -297h-709l53 297h197q25 137 84 284h-8q-67 -98 -178 -162.5t-234 -64.5q-142 0 -246.5 76.5t-148.5 210.5q-28 81 -28 174q0 58 11 121z M440 545q-12 -67 -12 -121q0 -73 22 -120q38 -83 140 -83q119 0 190.5 78t100.5 246q12 66 12 116q0 71 -23 112q-41 71 -159 71q-105 0 -175 -78t-96 -221z" />
<glyph unicode="r" horiz-adv-x="1112" d="M-61 0l53 301h194l84 467h-196l51 297h471q-18 -110 -82 -303h16q56 144 171.5 246t250.5 102q70 0 120.5 -21.5t75.5 -58.5q26 -36 34 -80q4 -22 4 -45q0 -22 -4 -45q-16 -91 -90 -159t-177 -68q-87 0 -133 53q-35 41 -35 96q0 17 3 35q8 54 36 96q-49 -27 -55 -32 q-112 -91 -145 -287l-54 -293h263l-52 -301h-804z" />
<glyph unicode="s" horiz-adv-x="1159" d="M12 -20l74 415h313q-8 -43 -8 -79q0 -76 34 -118q50 -64 173 -63q57 0 91 23t42 63q2 11 2 21q0 53 -53 82q-40 22 -183 57l-32 8q-61 15 -108.5 31.5t-100.5 47.5t-85 70q-31 40 -47 100q-8 33 -9 69q0 31 6 65q17 97 86 175.5t163.5 120.5t192.5 42q137 0 210 -62 q71 -61 71 -170v-6h6l31 218h262l-72 -408h-319q5 38 5 68q0 27 -4 50q-8 47 -37 75t-64 39.5t-81 11.5q-47 0 -78.5 -22.5t-37.5 -59.5q-5 -28 6.5 -51t30 -37.5t56 -28.5t66 -21.5t80.5 -19.5q66 -15 116 -31t108.5 -47t93.5 -69q36 -37 54 -97q10 -35 11 -74 q0 -28 -6 -59q-16 -91 -65 -159.5t-118 -107.5t-144.5 -58t-155.5 -19q-249 0 -285 217h-10l-17 -202h-264z" />
<glyph unicode="t" horiz-adv-x="1021" d="M39 768l31 176h10q170 0 288 103q122 106 160 329h170l-55 -311h426l-51 -297h-422l-76 -428q-2 -11 -2 -22q0 -30 20 -48q26 -26 72 -26q47 0 83.5 25.5t45.5 72.5l25 135h203l-35 -192q-14 -80 -59 -143.5t-108 -102t-133.5 -58.5t-142.5 -20t-135.5 21t-111.5 61 q-49 39 -71 105q-13 39 -13 84q0 30 6 63l84 473h-209z" />
<glyph unicode="u" horiz-adv-x="1421" d="M74 768l51 297h508l-103 -586q-11 -61 -11 -101t11 -60q22 -39 109 -39q215 0 250 202l51 287h-244l52 297h589l-135 -764h168l-51 -301h-428q17 80 50.5 212.5t49.5 168.5h-20q-38 -107 -99 -190t-130.5 -130t-139.5 -70.5t-137 -23.5q-197 0 -269 95q-49 65 -48 174 q0 50 10 110l75 422h-159z" />
<glyph unicode="v" horiz-adv-x="1259" d="M53 768l51 297h644l-52 -297h-135q26 -109 46.5 -253t25.5 -245q79 205 250 498h-140l52 297h569l-51 -297h-121l-492 -768h-274l-250 768h-123z" />
<glyph unicode="w" horiz-adv-x="1851" d="M53 768l51 297h644l-52 -297h-137q37 -216 37 -395v-27q42 95 105.5 221t144 277t115.5 221h225q6 -38 33.5 -205t45 -295t21.5 -219q76 217 184 422h-135l51 297h570l-51 -297h-121l-453 -768h-272q-73 413 -86 662q-78 -198 -314 -662h-272l-213 768h-121z" />
<glyph unicode="x" horiz-adv-x="1310" d="M-61 0l53 301h110l355 234l-252 233h-131l51 297h643l-51 -297h-96l102 -145l135 145h-84l51 297h570l-52 -297h-112l-352 -219l249 -248h132l-52 -301h-643l51 301h97l-99 154l-139 -154h84l-51 -301h-569z" />
<glyph unicode="y" horiz-adv-x="1265" d="M-170 -123q21 118 92 189t180 71q84 0 135 -62q40 -49 40 -110q0 -17 -3 -35q-13 -70 -64.5 -123t-115.5 -69q-28 -7 -56 -7q-36 0 -73 11q42 -57 150 -57q49 0 93.5 19.5t84.5 59.5t70.5 109t46.5 160l-222 735h-125l52 297h641l-51 -297h-127q57 -259 69 -477 q113 249 244 477h-139l51 297h567l-51 -297h-121l-563 -893q-97 -152 -233.5 -227.5t-272.5 -75.5q-150 0 -238 77q-67 59 -67 161q0 32 6 67z" />
<glyph unicode="z" horiz-adv-x="1292" d="M-23 0l33 188l774 631h-159q-119 0 -196.5 -76t-109.5 -262h-208l102 584h1100l-33 -188l-772 -631h180q60 0 108 17t90 56t73 110t49 173h225l-105 -602h-1151z" />
<glyph unicode="{" horiz-adv-x="794" d="M72 592l49 274h45q69 0 107.5 50t62.5 186q29 160 74.5 271t121.5 191.5t188.5 118t268.5 37.5l-45 -250q-150 0 -224.5 -81t-107.5 -267q-33 -189 -110 -285t-209 -102q122 -9 165.5 -124.5t10.5 -303.5q-31 -173 16.5 -248t196.5 -75l-45 -252q-293 0 -394 131.5 t-48 437.5q22 127 22 186t-22.5 82t-81.5 23h-41z" />
<glyph unicode="|" horiz-adv-x="528" d="M-31 -461l336 1917h260l-338 -1917h-258z" />
<glyph unicode="}" horiz-adv-x="794" d="M-98 -266l43 250q149 0 222.5 81t106.5 267q33 188 111 284.5t209 102.5q-122 9 -165.5 124.5t-10.5 303.5q31 173 -16.5 248t-196.5 75l45 252q294 0 395 -131.5t47 -437.5q-22 -127 -22 -186t22.5 -82t81.5 -23h41l-49 -274h-45q-69 0 -107.5 -50t-62.5 -186 q-29 -161 -74.5 -271.5t-120.5 -191t-187 -118t-267 -37.5z" />
<glyph unicode="~" horiz-adv-x="1191" d="M147 672q36 200 136 295.5t233 95.5q48 0 86.5 -14t61 -34.5t43 -44.5t34 -44.5t30.5 -34.5t36 -14q43 0 73 30t44 107h223q-17 -95 -59 -175.5t-95 -132.5t-112.5 -81t-114.5 -29q-46 0 -83 15t-59 38t-43 49.5t-37.5 49.5t-40.5 38t-52 15q-35 0 -57 -26t-34 -103h-213 z" />
<glyph unicode="&#xa1;" horiz-adv-x="806" d="M80 -217q12 70 64.5 210t111 312t84.5 322h176q-20 -116 -25.5 -251t-1 -233.5t4.5 -201t-11 -162.5q-16 -97 -85 -152t-150 -55q-83 0 -134.5 55.5t-33.5 155.5zM291 911q14 78 78.5 133.5t142.5 55.5t124 -55.5t32 -133.5q-13 -78 -78.5 -133t-143.5 -55t-123.5 55 t-31.5 133z" />
<glyph unicode="&#xa2;" horiz-adv-x="1101" d="M86 729q17 94 55 176t89.5 143t116 108.5t133 78t141.5 47.5l38 217h246l-53 -203q141 -19 224 -95.5t61 -201.5q-18 -95 -90.5 -155t-163.5 -60q-99 0 -147.5 52.5t-30.5 156.5q12 78 73 129q-135 -4 -226 -96.5t-116 -224.5q-26 -150 48 -240t190 -90q142 0 266 160 l156 -197q-182 -242 -471 -272l-35 -199h-230l56 207q-182 43 -273.5 199.5t-56.5 359.5z" />
<glyph unicode="&#xa3;" horiz-adv-x="1437" d="M-16 188q14 94 98 153.5t205 59.5q75 0 164 -24q11 56 -23 205h-289l35 202h207q-26 150 -4 265q18 107 83 195t157 143t199 84.5t216 29.5q150 0 262 -40t169.5 -121.5t37.5 -192.5q-22 -125 -94 -192.5t-166 -67.5q-99 0 -148.5 52.5t-29.5 156.5q12 77 74 129 q-37 69 -131 69q-109 0 -179 -77.5t-100 -241.5q-21 -128 -29 -191h373l-35 -202h-364q-31 -174 -66 -240q239 -68 379 -68q97 0 154.5 43t68.5 111l17 90h200l-30 -172q-30 -175 -149 -279t-302 -104q-111 0 -209.5 46t-218.5 145q-68 -91 -152.5 -130.5t-195.5 -39.5 q-99 0 -150.5 54t-33.5 150zM147 193q-6 -35 19 -55.5t65 -20.5q126 0 177 106q-52 49 -140 49q-106 0 -121 -79z" />
<glyph unicode="&#xa4;" horiz-adv-x="1376" d="M16 86l269 297q-60 70 -84 162t-6 190q34 198 202 340l-157 289h274l90 -170q112 41 221 41q116 0 203 -37l150 166h274l-258 -285q121 -140 84 -344q-19 -99 -76 -191t-143 -163l166 -295h-277l-100 176q-104 -33 -201 -33q-100 0 -194 33l-160 -176h-277zM529.5 602 q-1.5 -47 5.5 -78.5t27.5 -48.5t49 -24t72.5 -7q56 0 90.5 9.5t63.5 39.5t46.5 83t33.5 141q13 81 14.5 134t-17 83.5t-50 42.5t-85.5 12q-67 0 -109 -20.5t-75 -81t-53 -170.5q-12 -68 -13.5 -115z" />
<glyph unicode="&#xa5;" d="M121 1155l53 301h868l-53 -301h-196l153 -371l301 371h-188l53 301h746l-54 -301h-170l-178 -199h186l-30 -170h-309l-138 -155h312l-31 -172h-397l-29 -158h266l-51 -301h-930l51 301h269l28 158h-426l31 172h324l-86 155h-320l31 170h194l-110 199h-170z" />
<glyph unicode="&#xa6;" horiz-adv-x="528" d="M-31 -461l140 809h260l-142 -809h-258zM184 774l121 682h260l-121 -682h-260z" />
<glyph unicode="&#xa7;" horiz-adv-x="1429" d="M49 541q11 59 34.5 106t51 78.5t70 58t79 42.5t89.5 34q-45 86 -23 215q18 106 78 189.5t144 134t179.5 76.5t192.5 26q114 0 205 -33t141 -102t33 -162q-16 -91 -86.5 -138.5t-157.5 -47.5q-85 0 -142 45t-44 121q11 61 40.5 96t78.5 55q-49 21 -105 21 q-81 0 -143 -46.5t-76 -131.5q-7 -33 -2 -60t16.5 -48.5t32 -39t45 -31t54.5 -25t61.5 -21.5t66.5 -20q7 -2 11 -3q87 -26 136 -43t122 -52.5t109 -72.5t58.5 -95.5t10.5 -129.5q-13 -68 -40.5 -119t-73 -87.5t-92.5 -60.5t-118 -51q44 -94 23 -217q-19 -106 -79 -189.5 t-144 -134t-179 -76.5t-192 -26q-114 0 -205 33t-141 102t-33 162q16 91 86.5 138.5t157.5 47.5q85 0 141.5 -45t42.5 -120q-18 -111 -119 -152q53 -21 107 -21q81 0 143 47t76 132q8 45 -2 79t-31.5 55.5t-60 39t-75.5 28t-90 23.5q-19 4 -29.5 7t-27 7t-30.5 8 q-65 18 -120.5 41.5t-109 59t-88.5 76.5t-51.5 97.5t-5.5 119.5zM350 682q-7 -37 6.5 -67.5t34.5 -50.5t67 -39.5t80 -30t97 -27.5q80 -21 119.5 -32.5t105 -35.5t111 -54t78.5 -69q45 42 59 119q7 39 -7 70.5t-39.5 52.5t-71 39.5t-87 31t-103.5 28.5l-24 6 q-132 36 -221.5 75t-144.5 105q-46 -43 -60 -121z" />
<glyph unicode="&#xa8;" horiz-adv-x="1185" d="M348 1303q10 64 63.5 109.5t118.5 45.5q64 0 102 -45t27 -110q-12 -65 -66 -110.5t-118 -45.5q-65 0 -102 46t-25 110zM819 1303q10 64 63.5 109.5t118.5 45.5q64 0 102 -45t27 -110q-12 -65 -66 -110.5t-118 -45.5q-65 0 -102 46t-25 110z" />
<glyph unicode="&#xa9;" horiz-adv-x="1685" d="M139 731q28 156 113 298.5t203.5 245t268.5 163.5t302 61q204 0 358 -103t222.5 -279.5t31.5 -385.5q-36 -209 -167.5 -385.5t-322 -279.5t-394.5 -103q-152 0 -280.5 61t-210.5 163.5t-116.5 245t-7.5 298.5zM328 727q-21 -119 4.5 -227t87 -186t157 -124.5t209.5 -46.5 q152 0 295 78.5t242 213t127 292.5t-24 293t-167.5 213t-267.5 78t-295 -78.5t-241.5 -213t-126.5 -292.5zM442 733q16 96 59.5 176t101 134t128.5 91.5t142 54.5t141 17q88 0 158.5 -27t110.5 -85t26 -136q-13 -80 -73 -129t-134 -49q-83 0 -123.5 43t-26.5 129 q12 66 62 107q-113 -3 -187 -79.5t-94 -186.5q-22 -124 38.5 -198.5t156.5 -74.5q115 0 219 133l129 -164q-171 -227 -463 -227q-128 0 -221.5 64.5t-132.5 172.5t-17 234z" />
<glyph unicode="&#xab;" horiz-adv-x="1484" d="M76 449l33 182l790 465l-31 -168l-376 -367l245 -377l-35 -198zM688 449l33 182l790 465l-30 -168l-377 -367l246 -377l-35 -198z" />
<glyph unicode="&#xad;" horiz-adv-x="606" d="M51 438l47 267h492l-47 -267h-492z" />
<glyph unicode="&#xae;" horiz-adv-x="1191" d="M113 997q28 156 129 288.5t247 210t302 77.5t275 -77.5t172.5 -210t25.5 -288.5q-27 -156 -127.5 -288.5t-246.5 -209.5t-302 -77t-275 77t-173 209.5t-27 288.5zM215 997q-35 -204 76 -338.5t315 -134.5t362 134.5t193 338.5q37 204 -74 338.5t-315 134.5t-362 -134.5 t-195 -338.5zM338 711l20 125h109l61 346h-108l22 123h389q104 0 154 -45.5t39 -112.5q-9 -60 -58.5 -100t-129.5 -41l-2 -13q60 0 84 -23.5t16 -70.5q-5 -27 -13.5 -55.5t-9.5 -36.5q-1 -4 3 -7t12 -3q27 0 32 32l13 72h76l-13 -72q-11 -68 -61 -100.5t-117 -32.5 q-53 0 -82 25.5t-20 75.5q3 14 10 40.5t10 45.5q5 28 -9.5 44.5t-53.5 16.5h-64l-20 -108h96l-21 -125h-364zM664 1042h69q109 0 121 72q5 29 -13 48.5t-61 19.5h-92z" />
<glyph unicode="&#xaf;" horiz-adv-x="1191" d="M444 1194l39 213h656l-39 -213h-656z" />
<glyph unicode="&#xb0;" horiz-adv-x="837" d="M150 1120q28 162 154 266.5t296 104.5q169 0 258.5 -104.5t61.5 -266.5q-28 -160 -156 -266t-295 -106q-169 0 -258 105.5t-61 266.5zM399 1120q-18 -103 2.5 -144.5t100.5 -41.5q82 0 111.5 36t50.5 150q12 64 11.5 106.5t-25.5 63.5t-83 21q-80 0 -114.5 -40.5 t-53.5 -150.5z" />
<glyph unicode="&#xb1;" horiz-adv-x="1185" d="M-18 0l34 203h1065l-34 -203h-1065zM111 741l36 203h433l75 432h203l-76 -432h430l-36 -203h-431l-75 -430h-203l76 430h-432z" />
<glyph unicode="&#xb2;" horiz-adv-x="978" d="M168 641l8 51q7 38 19.5 70.5t35 59.5t39.5 45t52 39.5t50.5 31t58 30.5t54.5 27q83 41 132 87.5t61 123.5q14 74 -25.5 113t-103.5 39q-43 0 -82 -18.5t-59 -49.5q34 19 75 19q53 0 76.5 -32.5t15.5 -78.5q-10 -56 -59.5 -98.5t-124.5 -42.5q-65 0 -94 46t-18 114 q17 98 113.5 172.5t256.5 74.5q135 0 215 -68.5t58 -197.5q-7 -40 -24 -74t-37.5 -59t-52.5 -47.5t-58 -36.5t-67 -30t-66 -23.5t-68 -20.5q-68 -20 -94 -28t-65 -27t-56 -41q48 29 115 29q30 0 112.5 -16.5t120.5 -16.5q44 0 75.5 19.5t37.5 56.5q2 8 2 30l100 21 q8 -56 -2 -115q-18 -99 -86.5 -146.5t-159.5 -47.5q-53 0 -97.5 16t-69.5 35t-56.5 35t-60.5 16q-42 0 -69.5 -24t-33.5 -62h-94z" />
<glyph unicode="&#xb3;" horiz-adv-x="1032" d="M236 836q12 61 54.5 100t119.5 39q59 0 87 -35t21 -80q-8 -42 -43 -70t-96 -28q31 -39 125 -39q64 0 107 41.5t53 99.5q10 61 -20.5 104.5t-102.5 43.5h-43l12 80h43q66 0 109 40.5t53 96.5t-16 96.5t-83 40.5q-45 0 -78.5 -14.5t-45.5 -40.5q3 0 11 1t11 1 q38 0 56 -28.5t12 -65.5q-7 -40 -42.5 -69.5t-95.5 -29.5q-69 0 -95.5 38.5t-16.5 96.5q14 83 100.5 147t233.5 64q159 0 232 -65t58 -152q-13 -77 -87 -130.5t-195 -53.5l-2 -12q127 0 185.5 -59.5t45.5 -143.5q-17 -93 -118 -160t-277 -67q-81 0 -140 19t-88 51t-39.5 68 t-4.5 75z" />
<glyph unicode="&#xb4;" horiz-adv-x="1167" d="M532 1163l277 293h305l-446 -293h-136z" />
<glyph unicode="&#xb6;" horiz-adv-x="1654" d="M129 987q17 97 69 180t136.5 148.5t211 103t281.5 37.5h914l-53 -301h-265l-151 -854h264l-51 -301h-514l203 1155h-74l-203 -1155h-535l52 301h284l39 215h-67q-153 0 -267.5 37t-178.5 102t-88 149.5t-7 182.5z" />
<glyph unicode="&#xb7;" horiz-adv-x="749" d="M188 600q15 86 89.5 146.5t164.5 60.5t143 -60.5t38 -146.5q-15 -87 -89.5 -149t-164.5 -62q-89 0 -142.5 61.5t-38.5 149.5z" />
<glyph unicode="&#xb8;" horiz-adv-x="1409" d="M395 -393l135 90q5 -20 29.5 -34.5t56.5 -14.5q47 0 76.5 19.5t34.5 47.5t-18 50t-68 22q-52 0 -85 -10.5t-73 -36.5l-41 41l238 219h184l-153 -98q14 2 39 2q117 0 172.5 -49.5t44.5 -120.5q-15 -85 -110.5 -151t-250.5 -66q-130 0 -211 90z" />
<glyph unicode="&#xb9;" horiz-adv-x="794" d="M98 655l29 166h254l53 295h-248l25 144q295 0 334 196h139l-113 -635h248l-28 -166h-693z" />
<glyph unicode="&#xbb;" horiz-adv-x="1484" d="M-6 -14l29 168l376 366l-245 377l34 199l627 -463l-33 -182zM604 -14l31 168l377 366l-246 377l35 199l626 -463l-32 -182z" />
<glyph unicode="&#xbc;" horiz-adv-x="1740" d="M98 655l29 166h254l53 295h-248l25 144q295 0 334 196h139l-113 -635h138l-29 -166h-582zM139 0l1323 1456h191l-1319 -1456h-195zM897 233l21 125l391 443h221l-76 -434h160l-23 -134h-159l-13 -67h92l-28 -166h-381l28 166h115l12 67h-360zM1094 367h186l31 170 q3 18 8.5 44t11.5 53l8 36z" />
<glyph unicode="&#xbd;" horiz-adv-x="1740" d="M98 655l29 166h254l53 295h-248l25 144q295 0 334 196h139l-113 -635h138l-29 -166h-582zM139 0l1323 1456h191l-1319 -1456h-195zM883 0l8 51q6 34 18.5 63.5t25 51.5t35.5 44.5t38.5 36t46.5 31.5t46 26t51 26l48 24q82 40 130.5 87t62.5 124q13 74 -26.5 113 t-102.5 39q-43 0 -83 -18.5t-61 -49.5q38 19 78 19q53 0 75.5 -32.5t14.5 -78.5q-8 -56 -57.5 -98.5t-124.5 -42.5q-65 0 -94.5 45.5t-18.5 113.5q17 98 113 173t256 75q136 0 215.5 -68.5t56.5 -197.5q-8 -46 -27 -84t-50.5 -66.5t-61 -49t-76 -39t-77 -28t-80.5 -24.5 q-128 -38 -166 -59q-31 -17 -47 -37q48 29 114 29q30 0 113 -16.5t121 -16.5q44 0 75 19.5t37 56.5q2 8 2 30l101 21q8 -56 -2 -115q-18 -99 -86.5 -146.5t-159.5 -47.5q-53 0 -97.5 16t-70 35t-57 35t-60.5 16q-42 0 -69 -24t-33 -62h-94z" />
<glyph unicode="&#xbe;" horiz-adv-x="1740" d="M150 836q12 61 54.5 100t119.5 39q59 0 87 -35t21 -80q-8 -42 -43 -70t-96 -28q31 -39 125 -39q64 0 107 41.5t53 99.5q10 61 -20.5 104.5t-102.5 43.5h-43l12 80h43q66 0 109 40.5t53 96.5t-16 96.5t-83 40.5q-45 0 -78.5 -14.5t-45.5 -40.5q3 0 11 1t11 1 q38 0 56 -28.5t12 -65.5q-7 -40 -42.5 -69.5t-95.5 -29.5q-69 0 -95.5 38.5t-16.5 96.5q14 83 100.5 147t233.5 64q159 0 232 -65t58 -152q-13 -77 -87 -130.5t-195 -53.5l-2 -12q127 0 185.5 -59.5t45.5 -143.5q-17 -93 -118 -160t-277 -67q-81 0 -140 19t-88 51t-39.5 68 t-4.5 75zM195 0l1323 1456h190l-1319 -1456h-194zM907 233l21 125l391 443h221l-76 -434h160l-22 -134h-160l-12 -67h92l-29 -166h-381l29 166h114l13 67h-361zM1104 367h186l31 170q4 24 16.5 77.5t12.5 55.5z" />
<glyph unicode="&#xbf;" horiz-adv-x="1112" d="M-70 -55q14 83 51.5 150.5t87 112.5t106.5 83t113 71t104 67t82 80t44 101h207q0 -4 -2 -22t-4 -40t-6 -46q-9 -48 -32.5 -89.5t-54.5 -72.5t-67 -60l-72 -58t-67 -60t-54.5 -72t-31.5 -88q-17 -87 27.5 -133.5t130.5 -46.5t161 67t101 199h282l-86 -489h-254l64 262h-10 q-32 -97 -108.5 -167.5t-170 -104t-192.5 -33.5q-81 0 -150.5 24t-120.5 70t-73 122.5t-5 172.5zM475 895q13 78 78 133t143 55t123.5 -55t32.5 -133t-79 -133t-144 -55t-123 55t-31 133z" />
<glyph unicode="&#xc0;" d="M-82 0l53 301h170l680 1155h359l293 -1155h180l-51 -301h-818l52 301h208l-16 107h-438l-51 -107h211l-52 -301h-780zM672 1778h370l199 -240h-184zM719 657h266q-22 66 -40 187.5t-23 228.5q-43 -106 -102.5 -228t-100.5 -188z" />
<glyph unicode="&#xc1;" d="M-82 0l53 301h170l680 1155h359l293 -1155h180l-51 -301h-818l52 301h208l-16 107h-438l-51 -107h211l-52 -301h-780zM719 657h266q-22 66 -40 187.5t-23 228.5q-43 -106 -102.5 -228t-100.5 -188zM823 1538l285 240h371l-471 -240h-185z" />
<glyph unicode="&#xc2;" d="M-82 0l53 301h170l680 1155h359l293 -1155h180l-51 -301h-818l52 301h208l-16 107h-438l-51 -107h211l-52 -301h-780zM621 1536l303 240h282l219 -240h-198l-201 111l-238 -111h-167zM719 657h266q-22 66 -40 187.5t-23 228.5q-43 -106 -102.5 -228t-100.5 -188z" />
<glyph unicode="&#xc3;" d="M-82 0l53 301h170l680 1155h359l293 -1155h180l-51 -301h-818l52 301h208l-16 107h-438l-51 -107h211l-52 -301h-780zM627 1530q40 136 124.5 214.5t174.5 78.5q46 0 84.5 -12.5t64.5 -30.5t50 -36.5t53.5 -31t62.5 -12.5q40 0 67 30t50 99l123 -19q-43 -145 -120 -218.5 t-173 -73.5q-53 0 -99 19t-72.5 41t-60.5 41t-67 19q-47 0 -75 -27.5t-50 -94.5zM719 657h266q-22 66 -40 187.5t-23 228.5q-43 -106 -102.5 -228t-100.5 -188z" />
<glyph unicode="&#xc4;" d="M-82 0l53 301h170l680 1155h359l293 -1155h180l-51 -301h-818l52 301h208l-16 107h-438l-51 -107h211l-52 -301h-780zM659 1671q9 51 59 87t111 36t97.5 -36t27.5 -87q-8 -50 -57.5 -85.5t-110.5 -35.5t-98 35.5t-29 85.5zM719 657h266q-22 66 -40 187.5t-23 228.5 q-43 -106 -102.5 -228t-100.5 -188zM1124 1671q9 51 59 87t111 36q60 0 96 -36t27 -87q-7 -49 -56.5 -85t-109.5 -36q-61 0 -98 35.5t-29 85.5z" />
<glyph unicode="&#xc5;" d="M-82 0l53 301h170l680 1155h359l293 -1155h180l-51 -301h-818l52 301h208l-16 107h-438l-51 -107h211l-52 -301h-780zM719 657h266q-22 66 -40 187.5t-23 228.5q-43 -106 -102.5 -228t-100.5 -188zM776 1651q15 90 103.5 146t205.5 56t186 -56t54 -146 q-16 -88 -98.5 -128t-206.5 -40t-192 40t-52 128zM930 1651q-6 -34 26 -55t80 -21q49 0 90.5 21t47.5 55q6 37 -27 56t-84 19t-89 -19t-44 -56z" />
<glyph unicode="&#xc6;" horiz-adv-x="2338" d="M-172 0l53 301h170l807 854h-334l54 301h1853l-107 -606h-237l16 92q19 109 -18.5 161t-165.5 52h-352l-51 -291h444l-47 -266h-445l-53 -297h352q128 0 184.5 52t76.5 161l16 100h237l-106 -614h-1473l52 301h264l20 107h-499l-90 -107h210l-51 -301h-780zM756 657h325 l93 525q-14 -18 -129 -167.5t-183.5 -235t-105.5 -122.5z" />
<glyph unicode="&#xc7;" horiz-adv-x="1550" d="M100 737q27 153 93 282t152.5 216t190.5 148t208.5 88.5t205.5 27.5q86 0 163 -25.5t135 -81t73 -132.5h8l25 233h301l-113 -641h-295q19 152 -59.5 232.5t-208.5 80.5q-71 0 -140 -25t-132 -74t-110.5 -133t-66.5 -192q-18 -108 1.5 -193.5t68.5 -137t114 -78.5t140 -27 q115 0 218 64t173 198l244 -149q-65 -180 -241 -308.5t-404 -146.5l-96 -61q14 2 38 2q117 0 173 -49.5t45 -120.5q-15 -85 -110.5 -151t-250.5 -66q-130 0 -211 90l135 90q5 -20 29.5 -34.5t56.5 -14.5q47 0 76.5 19.5t34.5 47.5t-18 50t-68 22q-52 0 -85 -10.5t-73 -36.5 l-41 41l199 184q-336 29 -486.5 237.5t-91.5 534.5z" />
<glyph unicode="&#xc8;" horiz-adv-x="1611" d="M-47 0l51 301h264l152 854h-264l53 301h1472l-106 -606h-238l17 92q19 109 -18.5 161t-166.5 52h-352l-51 -291h403l-47 -266h-403l-53 -297h352q128 0 184 52t76 161l16 100h238l-107 -614h-1472zM700 1778h371l199 -240h-185z" />
<glyph unicode="&#xc9;" horiz-adv-x="1611" d="M-47 0l51 301h264l152 854h-264l53 301h1472l-106 -606h-238l17 92q19 109 -18.5 161t-166.5 52h-352l-51 -291h403l-47 -266h-403l-53 -297h352q128 0 184 52t76 161l16 100h238l-107 -614h-1472zM782 1538l285 240h371l-471 -240h-185z" />
<glyph unicode="&#xca;" horiz-adv-x="1611" d="M-47 0l51 301h264l152 854h-264l53 301h1472l-106 -606h-238l17 92q19 109 -18.5 161t-166.5 52h-352l-51 -291h403l-47 -266h-403l-53 -297h352q128 0 184 52t76 161l16 100h238l-107 -614h-1472zM618 1536l304 240h282l219 -240h-198l-201 111l-238 -111h-168z" />
<glyph unicode="&#xcb;" horiz-adv-x="1611" d="M-47 0l51 301h264l152 854h-264l53 301h1472l-106 -606h-238l17 92q19 109 -18.5 161t-166.5 52h-352l-51 -291h403l-47 -266h-403l-53 -297h352q128 0 184 52t76 161l16 100h238l-107 -614h-1472zM655 1671q9 51 59 87t111 36t97.5 -36t27.5 -87q-8 -50 -57.5 -85.5 t-110.5 -35.5t-98 35.5t-29 85.5zM1120 1671q9 51 59 87t111 36q60 0 96 -36t27 -87q-7 -49 -56.5 -85t-109.5 -36q-61 0 -98 35.5t-29 85.5z" />
<glyph unicode="&#xcc;" horiz-adv-x="1001" d="M-47 0l51 301h266l152 854h-266l53 301h932l-54 -301h-268l-151 -854h268l-51 -301h-932zM319 1778h371l199 -240h-184z" />
<glyph unicode="&#xcd;" horiz-adv-x="1001" d="M-47 0l51 301h266l152 854h-266l53 301h932l-54 -301h-268l-151 -854h268l-51 -301h-932zM469 1538l285 240h370l-471 -240h-184z" />
<glyph unicode="&#xce;" horiz-adv-x="1001" d="M-47 0l51 301h266l152 854h-266l53 301h932l-54 -301h-268l-151 -854h268l-51 -301h-932zM285 1536l303 240h282l220 -240h-199l-201 111l-237 -111h-168z" />
<glyph unicode="&#xcf;" horiz-adv-x="1001" d="M-47 0l51 301h266l152 854h-266l53 301h932l-54 -301h-268l-151 -854h268l-51 -301h-932zM332 1671q9 51 59 87t111 36t97.5 -36t27.5 -87q-8 -50 -57.5 -85.5t-110.5 -35.5t-98 35.5t-29 85.5zM797 1671q9 51 59 87t111 36q60 0 96 -36t27 -87q-7 -49 -56.5 -85 t-109.5 -36q-61 0 -98 35.5t-29 85.5z" />
<glyph unicode="&#xd0;" horiz-adv-x="1705" d="M-45 0l51 301h262l60 336h-211l37 203h211l55 315h-262l53 301h881q106 0 196 -21t156.5 -59t118.5 -90.5t82 -116t48.5 -136t16.5 -149t-14 -155.5q-19 -109 -66 -213.5t-123 -198t-173 -164t-225.5 -112t-270.5 -41.5h-883zM666 301h231q137 0 237.5 123.5t131.5 302.5 q18 119 5 214t-68 154.5t-140 59.5h-246l-55 -315h223l-37 -203h-223z" />
<glyph unicode="&#xd1;" horiz-adv-x="1841" d="M-47 0l51 301h264l152 854h-264l53 301h844q1 -2 51.5 -148t70.5 -206.5t59.5 -185t64 -219.5t38.5 -175q5 56 47 324l56 309h-195l53 301h697l-53 -301h-213l-203 -1155h-352l-340 848q-67 173 -89 303q-17 -177 -49 -350l-88 -500h203l-51 -301h-807zM727 1530 q40 136 124.5 214.5t174.5 78.5q46 0 84.5 -12.5t64.5 -30.5t50 -36.5t53.5 -31t62.5 -12.5q40 0 67 30t50 99l123 -19q-43 -145 -120 -218.5t-173 -73.5q-53 0 -99 19t-72.5 41t-60.5 41t-67 19q-47 0 -75 -27.5t-50 -94.5z" />
<glyph unicode="&#xd2;" horiz-adv-x="1677" d="M102 733q33 190 143 350.5t273 266.5q230 149 500 149q169 0 305.5 -59.5t221 -162t118.5 -244t6 -300.5q-29 -160 -113.5 -302.5t-205.5 -246t-278.5 -163.5t-326.5 -60q-168 0 -303.5 60t-219 163.5t-116.5 246t-4 302.5zM553 733q-44 -247 12.5 -354t235.5 -107 q178 0 271 106.5t138 354.5q43 246 -12.5 345.5t-236.5 99.5q-182 0 -273.5 -99.5t-134.5 -345.5zM737 1778h371l199 -240h-185z" />
<glyph unicode="&#xd3;" horiz-adv-x="1677" d="M102 733q33 190 143 350.5t273 266.5q230 149 500 149q169 0 305.5 -59.5t221 -162t118.5 -244t6 -300.5q-29 -160 -113.5 -302.5t-205.5 -246t-278.5 -163.5t-326.5 -60q-168 0 -303.5 60t-219 163.5t-116.5 246t-4 302.5zM553 733q-44 -247 12.5 -354t235.5 -107 q178 0 271 106.5t138 354.5q43 246 -12.5 345.5t-236.5 99.5q-182 0 -273.5 -99.5t-134.5 -345.5zM741 1538l285 240h371l-471 -240h-185z" />
<glyph unicode="&#xd4;" horiz-adv-x="1677" d="M102 733q33 190 143 350.5t273 266.5q230 149 500 149q169 0 305.5 -59.5t221 -162t118.5 -244t6 -300.5q-29 -160 -113.5 -302.5t-205.5 -246t-278.5 -163.5t-326.5 -60q-168 0 -303.5 60t-219 163.5t-116.5 246t-4 302.5zM553 733q-44 -247 12.5 -354t235.5 -107 q178 0 271 106.5t138 354.5q43 246 -12.5 345.5t-236.5 99.5q-182 0 -273.5 -99.5t-134.5 -345.5zM625 1536l303 240h282l220 -240h-199l-201 111l-237 -111h-168z" />
<glyph unicode="&#xd5;" horiz-adv-x="1677" d="M102 733q33 190 143 350.5t273 266.5q230 149 500 149q169 0 305.5 -59.5t221 -162t118.5 -244t6 -300.5q-29 -160 -113.5 -302.5t-205.5 -246t-278.5 -163.5t-326.5 -60q-168 0 -303.5 60t-219 163.5t-116.5 246t-4 302.5zM553 733q-44 -247 12.5 -354t235.5 -107 q178 0 271 106.5t138 354.5q43 246 -12.5 345.5t-236.5 99.5q-182 0 -273.5 -99.5t-134.5 -345.5zM623 1530q40 136 124.5 214.5t174.5 78.5q46 0 84.5 -12.5t64.5 -30.5t50 -36.5t53.5 -31t62.5 -12.5q40 0 67 30t50 99l123 -19q-43 -145 -120 -218.5t-173 -73.5 q-53 0 -99 19t-72.5 41t-60.5 41t-67 19q-47 0 -75 -27.5t-50 -94.5z" />
<glyph unicode="&#xd6;" horiz-adv-x="1677" d="M102 733q33 190 143 350.5t273 266.5q230 149 500 149q169 0 305.5 -59.5t221 -162t118.5 -244t6 -300.5q-29 -160 -113.5 -302.5t-205.5 -246t-278.5 -163.5t-326.5 -60q-168 0 -303.5 60t-219 163.5t-116.5 246t-4 302.5zM553 733q-44 -247 12.5 -354t235.5 -107 q178 0 271 106.5t138 354.5q43 246 -12.5 345.5t-236.5 99.5q-182 0 -273.5 -99.5t-134.5 -345.5zM670 1671q9 51 59 87t111 36t97.5 -36t27.5 -87q-8 -50 -57.5 -85.5t-110.5 -35.5t-98 35.5t-29 85.5zM1135 1671q9 51 59 87t111 36q60 0 95.5 -36t26.5 -87 q-8 -49 -56.5 -85t-108.5 -36q-61 0 -98 35.5t-29 85.5z" />
<glyph unicode="&#xd7;" horiz-adv-x="1185" d="M115 270l358 305l-252 306l170 143l250 -305l356 303l119 -143l-356 -304l250 -303l-168 -143l-250 303l-361 -305z" />
<glyph unicode="&#xd8;" horiz-adv-x="1677" d="M47 -39l195 207q-95 105 -132.5 250.5t-7.5 314.5q33 190 143 350.5t273 266.5q230 149 500 149q221 0 383 -98l94 98h203l-180 -192q101 -106 141 -254.5t10 -319.5q-39 -214 -169.5 -389.5t-328.5 -277t-423 -101.5q-221 0 -383 98l-97 -102h-221zM537 481l612 652 q-62 45 -188 45q-182 0 -273.5 -99.5t-134.5 -345.5q-28 -153 -16 -252zM608 326q63 -54 193 -54q178 0 271 106.5t138 354.5q28 167 15 256z" />
<glyph unicode="&#xd9;" horiz-adv-x="1875" d="M135 1155l53 301h910l-54 -301h-276l-106 -598q-21 -117 58 -184.5t208 -67.5t230 67t122 185l106 598h-272l53 301h869l-54 -301h-235l-109 -618q-17 -95 -59.5 -178t-103 -144.5t-135 -110t-157.5 -78.5t-168 -45.5t-169 -15.5q-103 0 -197 21.5t-174.5 68 t-135.5 112.5t-77 161.5t-2 208.5l109 618h-234zM805 1778h371l198 -240h-184z" />
<glyph unicode="&#xda;" horiz-adv-x="1875" d="M135 1155l53 301h910l-54 -301h-276l-106 -598q-21 -117 58 -184.5t208 -67.5t230 67t122 185l106 598h-272l53 301h869l-54 -301h-235l-109 -618q-17 -95 -59.5 -178t-103 -144.5t-135 -110t-157.5 -78.5t-168 -45.5t-169 -15.5q-103 0 -197 21.5t-174.5 68 t-135.5 112.5t-77 161.5t-2 208.5l109 618h-234zM942 1538l285 240h370l-471 -240h-184z" />
<glyph unicode="&#xdb;" horiz-adv-x="1875" d="M135 1155l53 301h910l-54 -301h-276l-106 -598q-21 -117 58 -184.5t208 -67.5t230 67t122 185l106 598h-272l53 301h869l-54 -301h-235l-109 -618q-17 -95 -59.5 -178t-103 -144.5t-135 -110t-157.5 -78.5t-168 -45.5t-169 -15.5q-103 0 -197 21.5t-174.5 68 t-135.5 112.5t-77 161.5t-2 208.5l109 618h-234zM741 1536l303 240h283l219 -240h-198l-201 111l-238 -111h-168z" />
<glyph unicode="&#xdc;" horiz-adv-x="1875" d="M135 1155l53 301h910l-54 -301h-276l-106 -598q-21 -117 58 -184.5t208 -67.5t230 67t122 185l106 598h-272l53 301h869l-54 -301h-235l-109 -618q-17 -95 -59.5 -178t-103 -144.5t-135 -110t-157.5 -78.5t-168 -45.5t-169 -15.5q-103 0 -197 21.5t-174.5 68 t-135.5 112.5t-77 161.5t-2 208.5l109 618h-234zM788 1671q9 51 59 87t111 36t97.5 -36t27.5 -87q-8 -50 -57.5 -85.5t-110.5 -35.5t-98 35.5t-29 85.5zM1253 1671q9 51 59 87t111 36q60 0 96 -36t27 -87q-7 -49 -56.5 -85t-109.5 -36q-61 0 -98 35.5t-29 85.5z" />
<glyph unicode="&#xdd;" d="M121 1155l53 301h868l-53 -301h-196l153 -371l301 371h-188l53 301h746l-54 -301h-170l-575 -643l-39 -211h266l-51 -301h-930l51 301h269l34 191l-368 663h-170zM870 1538l285 240h371l-471 -240h-185z" />
<glyph unicode="&#xde;" horiz-adv-x="1572" d="M-47 0l51 301h264l152 854h-264l53 301h907l-49 -274h-246l-6 -33h252q97 0 176.5 -9.5t158.5 -37t129 -71.5t73.5 -119.5t5.5 -174.5q-34 -194 -209.5 -299.5t-485.5 -105.5h-243l-6 -35h245l-51 -297h-907zM715 578h213q121 0 180.5 36t73.5 111q13 82 -29.5 112.5 t-165.5 30.5h-221z" />
<glyph unicode="&#xdf;" horiz-adv-x="1347" d="M-23 0l52 301h196l84 467h-235l28 162h117q81 0 130.5 46t62.5 120q34 195 184.5 297t359.5 102q78 0 147.5 -20.5t122 -58t77.5 -97t12 -131.5q-9 -52 -38 -96t-64.5 -74t-70.5 -57t-61.5 -58t-31.5 -65q-7 -36 5.5 -68.5t36.5 -58t54 -55t59 -59t51.5 -71t31 -90.5 t-2.5 -117q-30 -171 -163 -259.5t-347 -88.5q-58 0 -141 17l41 231q44 -12 76 -12q100 0 116 90q6 34 -9.5 63.5t-40.5 52t-49.5 58t-36 81t0.5 120.5q11 62 43.5 115.5t72 93t78.5 76.5t70 83.5t41 98.5q10 65 -33 102t-106 37q-76 0 -130 -36t-67 -105q-3 -17 -14 -138 t-31 -235l-133 -764h-545z" />
<glyph unicode="&#xe0;" horiz-adv-x="1431" d="M53 535q-26 -155 11.5 -284t136 -205.5t239.5 -76.5q307 0 467 246h6q-16 -36 -34 -108.5t-21 -106.5h471l51 301h-200l149 764h-323q-13 -78 -17 -150h-10q-32 91 -116.5 141t-209.5 50q-139 0 -266 -72t-216.5 -203.5t-117.5 -295.5zM440 545q26 143 96 221t175 78 q118 0 158.5 -71t11.5 -228q-56 -318 -291 -318q-101 0 -138 84t-12 234zM530 1456h342l175 -293h-173z" />
<glyph unicode="&#xe1;" horiz-adv-x="1431" d="M53 535q-26 -155 11.5 -284t136 -205.5t239.5 -76.5q307 0 467 246h6q-16 -36 -34 -108.5t-21 -106.5h471l51 301h-200l149 764h-323q-13 -78 -17 -150h-10q-32 91 -116.5 141t-209.5 50q-139 0 -266 -72t-216.5 -203.5t-117.5 -295.5zM440 545q26 143 96 221t175 78 q118 0 158.5 -71t11.5 -228q-56 -318 -291 -318q-101 0 -138 84t-12 234zM647 1163l277 293h305l-447 -293h-135z" />
<glyph unicode="&#xe2;" horiz-adv-x="1431" d="M53 535q-26 -155 11.5 -284t136 -205.5t239.5 -76.5q307 0 467 246h6q-16 -36 -34 -108.5t-21 -106.5h471l51 301h-200l149 764h-323q-13 -78 -17 -150h-10q-32 91 -116.5 141t-209.5 50q-139 0 -266 -72t-216.5 -203.5t-117.5 -295.5zM430 1163l295 293h260l191 -293 h-185l-176 150l-229 -150h-156zM440 545q26 143 96 221t175 78q118 0 158.5 -71t11.5 -228q-56 -318 -291 -318q-101 0 -138 84t-12 234z" />
<glyph unicode="&#xe3;" horiz-adv-x="1431" d="M53 535q-26 -155 11.5 -284t136 -205.5t239.5 -76.5q307 0 467 246h6q-16 -36 -34 -108.5t-21 -106.5h471l51 301h-200l149 764h-323q-13 -78 -17 -150h-10q-32 91 -116.5 141t-209.5 50q-139 0 -266 -72t-216.5 -203.5t-117.5 -295.5zM440 545q26 143 96 221t175 78 q118 0 158.5 -71t11.5 -228q-56 -318 -291 -318q-101 0 -138 84t-12 234zM471 1210q33 137 114 216t185 79q41 0 74.5 -12t56 -29t43.5 -34t48.5 -29t60.5 -12q83 0 112 108l92 -16q-35 -137 -111.5 -217t-166.5 -80q-49 0 -90 19.5t-65 43t-59.5 43t-74.5 19.5 q-52 0 -83 -27t-48 -86z" />
<glyph unicode="&#xe4;" horiz-adv-x="1431" d="M53 535q-26 -155 11.5 -284t136 -205.5t239.5 -76.5q307 0 467 246h6q-16 -36 -34 -108.5t-21 -106.5h471l51 301h-200l149 764h-323q-13 -78 -17 -150h-10q-32 91 -116.5 141t-209.5 50q-139 0 -266 -72t-216.5 -203.5t-117.5 -295.5zM422 1303q10 64 63.5 109.5 t118.5 45.5q64 0 102 -45t27 -110q-12 -65 -66 -110.5t-118 -45.5q-65 0 -102 46t-25 110zM440 545q26 143 96 221t175 78q118 0 158.5 -71t11.5 -228q-56 -318 -291 -318q-101 0 -138 84t-12 234zM893 1303q10 64 63.5 109.5t118.5 45.5q64 0 102 -45t27 -110 q-12 -65 -66 -110.5t-118 -45.5q-65 0 -102 46t-25 110z" />
<glyph unicode="&#xe5;" horiz-adv-x="1431" d="M53 535q-26 -155 11.5 -284t136 -205.5t239.5 -76.5q307 0 467 246h6q-16 -36 -34 -108.5t-21 -106.5h471l51 301h-200l149 764h-323q-13 -78 -17 -150h-10q-32 91 -116.5 141t-209.5 50q-139 0 -266 -72t-216.5 -203.5t-117.5 -295.5zM440 545q26 143 96 221t175 78 q118 0 158.5 -71t11.5 -228q-56 -318 -291 -318q-101 0 -138 84t-12 234zM543 1343q18 98 98.5 160t181.5 62q102 0 161.5 -62t41.5 -160q-17 -97 -94 -149.5t-182 -52.5t-164.5 52.5t-42.5 149.5zM684 1341q-7 -40 18 -63t68 -23t75.5 23t39.5 63t-18 62t-68 22t-75.5 -22 t-39.5 -62z" />
<glyph unicode="&#xe6;" horiz-adv-x="1841" d="M8 289q28 150 181 247t407 97q74 0 139 -8q10 40 21 102q20 115 -25.5 174.5t-157.5 59.5q-47 0 -120 -21q85 -43 67 -143q-13 -78 -79 -123t-146 -45q-76 0 -124 49t-32 137q13 74 63.5 131.5t127 92.5t168 53t192.5 18q117 0 211.5 -40.5t122.5 -113.5q57 67 178 110.5 t221 43.5q111 0 194 -30t133.5 -84.5t72.5 -131t14 -171t-45 -201.5h-721q-15 -132 53 -201.5t197 -69.5q182 0 272 162l133 -96q-104 -162 -234.5 -242t-301.5 -80q-105 0 -186 29t-129.5 80.5t-72 117.5t-20.5 144h-12q-44 -165 -177.5 -268t-283.5 -103q-158 0 -242 84.5 t-59 239.5zM385 356q-9 -51 19 -78.5t79 -27.5q174 0 228 244q-44 8 -93 8q-111 0 -167.5 -44.5t-65.5 -101.5zM1112 676h424q18 94 -25 142t-133 48q-91 0 -162.5 -54t-103.5 -136z" />
<glyph unicode="&#xe7;" horiz-adv-x="1101" d="M53 537q20 116 72.5 212.5t122.5 162t155 111t171.5 66.5t170.5 21q80 0 149 -18t121 -52.5t77 -91.5t12 -129q-17 -96 -93.5 -161.5t-166.5 -65.5q-210 0 -176 194q19 95 77 144h-28q-115 0 -206 -100.5t-114 -227.5q-26 -151 39.5 -237t179.5 -86q72 0 148.5 37.5 t140.5 121.5l156 -196q-181 -244 -469 -271l-107 -69q14 2 39 2q117 0 172.5 -49.5t44.5 -120.5q-15 -85 -110 -151t-250 -66q-130 0 -211 90l135 90q5 -20 29.5 -34.5t56.5 -14.5q47 0 76.5 19.5t34.5 47.5t-18 50t-68 22q-52 0 -85 -10.5t-73 -36.5l-41 41l205 190 q-199 29 -302.5 190.5t-66.5 375.5z" />
<glyph unicode="&#xe8;" horiz-adv-x="1198" d="M53 541q20 111 71.5 205t122 160t156 113t175 69t178.5 22q138 0 236 -45t146 -126.5t57 -195t-30 -251.5h-741q-15 -133 49.5 -204t192.5 -71q187 0 280 166l133 -96q-104 -162 -234.5 -242t-301.5 -80q-137 0 -241.5 44.5t-164.5 122t-82.5 182.5t-1.5 227zM465 684 h424q20 94 -23 142t-133 48q-92 0 -164 -54t-104 -136zM475 1456h342l174 -293h-172z" />
<glyph unicode="&#xe9;" horiz-adv-x="1198" d="M53 541q20 111 71.5 205t122 160t156 113t175 69t178.5 22q138 0 236 -45t146 -126.5t57 -195t-30 -251.5h-741q-15 -133 49.5 -204t192.5 -71q187 0 280 166l133 -96q-104 -162 -234.5 -242t-301.5 -80q-137 0 -241.5 44.5t-164.5 122t-82.5 182.5t-1.5 227zM465 684 h424q20 94 -23 142t-133 48q-92 0 -164 -54t-104 -136zM539 1163l276 293h305l-446 -293h-135z" />
<glyph unicode="&#xea;" horiz-adv-x="1198" d="M53 541q20 111 71.5 205t122 160t156 113t175 69t178.5 22q138 0 236 -45t146 -126.5t57 -195t-30 -251.5h-741q-15 -133 49.5 -204t192.5 -71q187 0 280 166l133 -96q-104 -162 -234.5 -242t-301.5 -80q-137 0 -241.5 44.5t-164.5 122t-82.5 182.5t-1.5 227zM395 1163 l295 293h260l191 -293h-185l-176 150l-229 -150h-156zM465 684h424q20 94 -23 142t-133 48q-92 0 -164 -54t-104 -136z" />
<glyph unicode="&#xeb;" horiz-adv-x="1198" d="M53 541q20 111 71.5 205t122 160t156 113t175 69t178.5 22q138 0 236 -45t146 -126.5t57 -195t-30 -251.5h-741q-15 -133 49.5 -204t192.5 -71q187 0 280 166l133 -96q-104 -162 -234.5 -242t-301.5 -80q-137 0 -241.5 44.5t-164.5 122t-82.5 182.5t-1.5 227zM381 1303 q10 64 63.5 109.5t118.5 45.5q64 0 102 -45t27 -110q-12 -65 -66 -110.5t-118 -45.5q-65 0 -102 46t-25 110zM465 684h424q20 94 -23 142t-133 48q-92 0 -164 -54t-104 -136zM852 1303q10 64 63.5 109.5t118.5 45.5q64 0 102 -45t27 -110q-12 -65 -66 -110.5t-118 -45.5 q-65 0 -102 46t-25 110z" />
<glyph unicode="&#xec;" horiz-adv-x="749" d="M-61 0l53 301h196l84 467h-196l51 297h543l-135 -764h163l-51 -301h-708zM168 1456h342l174 -293h-172z" />
<glyph unicode="&#xed;" horiz-adv-x="749" d="M-61 0l53 301h196l84 467h-196l51 297h543l-135 -764h163l-51 -301h-708zM315 1163l277 293h305l-446 -293h-136z" />
<glyph unicode="&#xee;" horiz-adv-x="749" d="M-61 0l53 301h196l84 467h-196l51 297h543l-135 -764h163l-51 -301h-708zM115 1163l295 293h260l190 -293h-184l-176 150l-230 -150h-155z" />
<glyph unicode="&#xef;" horiz-adv-x="749" d="M-61 0l53 301h196l84 467h-196l51 297h543l-135 -764h163l-51 -301h-708zM127 1303q10 64 63.5 109.5t118.5 45.5q64 0 102 -45t27 -110q-12 -65 -66 -110.5t-118 -45.5q-65 0 -102 46t-25 110zM598 1303q10 64 63.5 109.5t118.5 45.5q64 0 102 -45t27 -110 q-12 -65 -66 -110.5t-118 -45.5q-65 0 -102 46t-25 110z" />
<glyph unicode="&#xf0;" horiz-adv-x="1302" d="M45 471q39 219 196 338t380 119q214 0 303 -115q39 228 -13 352l-295 -121l-98 111l305 127q-115 83 -356 80l68 170q340 -18 530 -152l248 103l100 -111l-233 -96q174 -207 108 -584q-28 -162 -89 -293.5t-154.5 -229.5t-226 -152t-294.5 -54q-179 0 -297 67.5 t-162.5 181.5t-19.5 259zM418 296q12 -69 50 -96.5t112 -27.5q81 0 133.5 28.5t93 108.5t65.5 223q21 112 -26.5 183t-159.5 71q-110 0 -169.5 -78.5t-86.5 -224.5q-24 -118 -12 -187z" />
<glyph unicode="&#xf1;" horiz-adv-x="1419" d="M-61 0l53 301h194l84 467h-196l51 297h459q-9 -62 -43.5 -202.5t-55.5 -198.5h21q66 220 195.5 333t310.5 113q195 0 265 -102.5t36 -294.5l-74 -412h129l-51 -301h-629l51 301h156l47 266q22 122 -1 161.5t-110 39.5q-213 0 -251 -203l-48 -264h158l-51 -301h-700z M479 1210q33 137 114 216t185 79q41 0 74.5 -12t56 -29t43.5 -34t48.5 -29t60.5 -12q84 0 113 108l92 -16q-35 -137 -112 -217t-167 -80q-49 0 -90 19.5t-65 43t-59.5 43t-74.5 19.5q-52 0 -83 -27t-48 -86z" />
<glyph unicode="&#xf2;" horiz-adv-x="1314" d="M53 543q28 160 136 291t262 203.5t319 72.5q128 0 234.5 -43t175 -118t98 -180.5t8.5 -225.5q-20 -114 -87 -220.5t-163.5 -185t-219 -125.5t-247.5 -47q-169 0 -297.5 79.5t-186.5 212.5t-32 286zM433 389q-2 -53 6.5 -88.5t32 -55t56 -27t82.5 -7.5q64 0 103 10.5 t72 44t53.5 93.5t38.5 161q15 93 16.5 153t-19.5 95.5t-57 49t-98 13.5q-57 0 -96.5 -12.5t-74 -46t-58.5 -95t-41 -157.5q-14 -78 -16 -131zM510 1456h342l174 -293h-172z" />
<glyph unicode="&#xf3;" horiz-adv-x="1314" d="M53 543q28 160 136 291t262 203.5t319 72.5q128 0 234.5 -43t175 -118t98 -180.5t8.5 -225.5q-20 -114 -87 -220.5t-163.5 -185t-219 -125.5t-247.5 -47q-169 0 -297.5 79.5t-186.5 212.5t-32 286zM433 389q-2 -53 6.5 -88.5t32 -55t56 -27t82.5 -7.5q64 0 103 10.5 t72 44t53.5 93.5t38.5 161q15 93 16.5 153t-19.5 95.5t-57 49t-98 13.5q-57 0 -96.5 -12.5t-74 -46t-58.5 -95t-41 -157.5q-14 -78 -16 -131zM586 1163l276 293h305l-446 -293h-135z" />
<glyph unicode="&#xf4;" horiz-adv-x="1314" d="M53 543q28 160 136 291t262 203.5t319 72.5q128 0 234.5 -43t175 -118t98 -180.5t8.5 -225.5q-20 -114 -87 -220.5t-163.5 -185t-219 -125.5t-247.5 -47q-169 0 -297.5 79.5t-186.5 212.5t-32 286zM412 1163l295 293h260l190 -293h-184l-176 150l-230 -150h-155zM433 389 q-2 -53 6.5 -88.5t32 -55t56 -27t82.5 -7.5q64 0 103 10.5t72 44t53.5 93.5t38.5 161q15 93 16.5 153t-19.5 95.5t-57 49t-98 13.5q-57 0 -96.5 -12.5t-74 -46t-58.5 -95t-41 -157.5q-14 -78 -16 -131z" />
<glyph unicode="&#xf5;" horiz-adv-x="1314" d="M53 543q28 160 136 291t262 203.5t319 72.5q128 0 234.5 -43t175 -118t98 -180.5t8.5 -225.5q-20 -114 -87 -220.5t-163.5 -185t-219 -125.5t-247.5 -47q-169 0 -297.5 79.5t-186.5 212.5t-32 286zM420 1210q33 137 114 216t185 79q50 0 90 -18t62 -40t56 -40t74 -18 q84 0 113 108l92 -16q-35 -137 -111.5 -217t-166.5 -80q-49 0 -90 19.5t-65 43t-59.5 43t-74.5 19.5q-52 0 -83 -27t-48 -86zM433 389q-2 -53 6.5 -88.5t32 -55t56 -27t82.5 -7.5q64 0 103 10.5t72 44t53.5 93.5t38.5 161q15 93 16.5 153t-19.5 95.5t-57 49t-98 13.5 q-57 0 -96.5 -12.5t-74 -46t-58.5 -95t-41 -157.5q-14 -78 -16 -131z" />
<glyph unicode="&#xf6;" horiz-adv-x="1314" d="M53 543q28 160 136 291t262 203.5t319 72.5q128 0 234.5 -43t175 -118t98 -180.5t8.5 -225.5q-20 -114 -87 -220.5t-163.5 -185t-219 -125.5t-247.5 -47q-169 0 -297.5 79.5t-186.5 212.5t-32 286zM416 1303q10 64 63.5 109.5t118.5 45.5q64 0 102 -45t27 -110 q-12 -65 -66 -110.5t-118 -45.5q-65 0 -102 46t-25 110zM433 389q-2 -53 6.5 -88.5t32 -55t56 -27t82.5 -7.5q64 0 103 10.5t72 44t53.5 93.5t38.5 161q15 93 16.5 153t-19.5 95.5t-57 49t-98 13.5q-57 0 -96.5 -12.5t-74 -46t-58.5 -95t-41 -157.5q-14 -78 -16 -131z M887 1303q10 64 63.5 109.5t118.5 45.5q64 0 102 -45t27 -110q-12 -65 -66 -110.5t-118 -45.5q-65 0 -102 46t-25 110z" />
<glyph unicode="&#xf7;" horiz-adv-x="1185" d="M63 473l37 203h1065l-37 -203h-1065zM358 193q12 71 71.5 121.5t131.5 50.5t114 -50.5t30 -121.5q-12 -72 -72.5 -123.5t-132.5 -51.5t-113 51.5t-29 123.5zM502 950q14 72 72.5 122t130.5 50t113 -50t28 -122q-12 -72 -70.5 -122t-130.5 -50t-113.5 50t-29.5 122z" />
<glyph unicode="&#xf8;" horiz-adv-x="1314" d="M23 -72l170 178q-87 79 -125 194.5t-15 242.5q28 160 136 291t262 203.5t319 72.5q166 0 297 -72l76 82h157l-139 -151q80 -79 114 -189t11 -237q-20 -114 -87 -220.5t-163.5 -185t-219 -125.5t-247.5 -47q-155 0 -282 68l-92 -105h-172zM432 365l414 438q-43 28 -127 28 q-57 0 -96.5 -12.5t-74 -46t-58.5 -95t-41 -157.5q-17 -107 -17 -155zM481 238q39 -27 129 -27q64 0 103 10.5t72 44t53.5 93.5t38.5 161q19 103 16 162z" />
<glyph unicode="&#xf9;" horiz-adv-x="1421" d="M74 768l51 297h508l-103 -586q-22 -122 0 -161t109 -39q215 0 250 202l51 287h-244l52 297h589l-135 -764h168l-51 -301h-428q17 80 50.5 212.5t49.5 168.5h-20q-38 -107 -99 -190t-130.5 -130t-139.5 -70.5t-137 -23.5q-197 0 -268.5 95t-38.5 284l75 422h-159z M528 1456h342l174 -293h-172z" />
<glyph unicode="&#xfa;" horiz-adv-x="1421" d="M74 768l51 297h508l-103 -586q-22 -122 0 -161t109 -39q215 0 250 202l51 287h-244l52 297h589l-135 -764h168l-51 -301h-428q17 80 50.5 212.5t49.5 168.5h-20q-38 -107 -99 -190t-130.5 -130t-139.5 -70.5t-137 -23.5q-197 0 -268.5 95t-38.5 284l75 422h-159z M659 1163l277 293h305l-446 -293h-136z" />
<glyph unicode="&#xfb;" horiz-adv-x="1421" d="M74 768l51 297h508l-103 -586q-22 -122 0 -161t109 -39q215 0 250 202l51 287h-244l52 297h589l-135 -764h168l-51 -301h-428q17 80 50.5 212.5t49.5 168.5h-20q-38 -107 -99 -190t-130.5 -130t-139.5 -70.5t-137 -23.5q-197 0 -268.5 95t-38.5 284l75 422h-159z M455 1163l295 293h260l190 -293h-184l-176 150l-230 -150h-155z" />
<glyph unicode="&#xfc;" horiz-adv-x="1421" d="M74 768l51 297h508l-103 -586q-22 -122 0 -161t109 -39q215 0 250 202l51 287h-244l52 297h589l-135 -764h168l-51 -301h-428q17 80 50.5 212.5t49.5 168.5h-20q-38 -107 -99 -190t-130.5 -130t-139.5 -70.5t-137 -23.5q-197 0 -268.5 95t-38.5 284l75 422h-159z M467 1303q10 64 63.5 109.5t118.5 45.5q64 0 102 -45t27 -110q-12 -65 -66 -110.5t-118 -45.5q-65 0 -102 46t-25 110zM938 1303q10 64 63.5 109.5t118.5 45.5q64 0 102 -45t27 -110q-12 -65 -66 -110.5t-118 -45.5q-65 0 -102 46t-25 110z" />
<glyph unicode="&#xfd;" horiz-adv-x="1265" d="M-170 -123q21 118 92 189t180 71q84 0 135 -62t37 -145q-13 -70 -64.5 -123t-115 -69t-129.5 4q42 -57 150 -57q49 0 93.5 19.5t84.5 59.5t70.5 109t46.5 160l-222 735h-125l52 297h641l-51 -297h-127q57 -259 69 -477q113 249 244 477h-139l51 297h567l-51 -297h-121 l-563 -893q-97 -152 -233.5 -227.5t-272.5 -75.5q-150 0 -238 77t-61 228zM635 1163l276 293h306l-447 -293h-135z" />
<glyph unicode="&#xfe;" horiz-adv-x="1413" d="M-152 -401l54 297h194l221 1259h-196l53 301h551q-62 -327 -166 -594q156 248 426 248q211 0 326 -162.5t73 -412.5q-29 -161 -121 -295t-224.5 -210.5t-274.5 -76.5q-124 0 -211.5 65t-120.5 154q-1 -62 -20 -276h196l-53 -297h-707zM557 545q-29 -169 15.5 -250.5 t162.5 -81.5q101 0 167.5 85.5t94.5 246.5q26 143 -16 221t-147 78q-117 0 -182.5 -70.5t-94.5 -228.5z" />
<glyph unicode="&#xff;" horiz-adv-x="1265" d="M-170 -123q21 118 92 189t180 71q84 0 135 -62t37 -145q-13 -70 -64.5 -123t-115 -69t-129.5 4q42 -57 150 -57q49 0 93.5 19.5t84.5 59.5t70.5 109t46.5 160l-222 735h-125l52 297h641l-51 -297h-127q57 -259 69 -477q113 249 244 477h-139l51 297h567l-51 -297h-121 l-563 -893q-97 -152 -233.5 -227.5t-272.5 -75.5q-150 0 -238 77t-61 228zM397 1303q10 64 64 109.5t119 45.5q64 0 102 -45t27 -110q-12 -65 -66.5 -110.5t-118.5 -45.5q-65 0 -102 46t-25 110zM868 1303q10 64 64 109.5t119 45.5q64 0 102 -45t27 -110 q-12 -65 -66.5 -110.5t-118.5 -45.5q-65 0 -102 46t-25 110z" />
<glyph unicode="&#x152;" horiz-adv-x="2506" d="M102 733q33 190 143 350.5t273 266.5q230 149 500 149q144 0 266 -43h1315l-107 -606h-237l16 92q19 109 -18.5 161t-165.5 52h-465q59 -130 59 -291h447l-47 -266h-447q-56 -165 -170 -297h471q128 0 184 52t76 161l17 100h237l-106 -614h-1346q-119 -35 -249 -35 q-224 0 -386 101.5t-230.5 277t-29.5 389.5zM553 733q-44 -247 12.5 -354t235.5 -107q178 0 271 106.5t138 354.5q43 246 -12.5 345.5t-236.5 99.5q-182 0 -273.5 -99.5t-134.5 -345.5z" />
<glyph unicode="&#x153;" horiz-adv-x="2000" d="M53 543q28 160 136 291t262 203.5t319 72.5q116 0 219 -44.5t154 -117.5q71 73 191.5 117.5t228.5 44.5q78 0 149 -18t130 -53.5t98 -89.5t55 -125.5t0 -161.5q-14 -88 -43 -170h-721q-15 -132 53 -201.5t197 -69.5q182 0 272 162l133 -96q-104 -162 -234.5 -242 t-301.5 -80q-121 0 -222 45t-145 119q-80 -74 -192.5 -119t-221.5 -45q-169 0 -297.5 79.5t-186.5 212.5t-32 286zM433 389q-2 -53 6.5 -88.5t32 -55t56 -27t82.5 -7.5q64 0 103 10.5t72 44t53.5 93.5t38.5 161q15 93 16.5 153t-19.5 95.5t-57 49t-98 13.5 q-57 0 -96.5 -12.5t-74 -46t-58.5 -95t-41 -157.5q-14 -78 -16 -131zM1272 676h424q18 94 -25 142t-133 48q-91 0 -162.5 -54t-103.5 -136z" />
<glyph unicode="&#x178;" d="M121 1155l53 301h868l-53 -301h-196l153 -371l301 371h-188l53 301h746l-54 -301h-170l-575 -643l-39 -211h266l-51 -301h-930l51 301h269l34 191l-368 663h-170zM715 1671q9 51 59 87t111 36t97.5 -36t27.5 -87q-8 -50 -57.5 -85.5t-110.5 -35.5t-98 35.5t-29 85.5z M1180 1671q9 51 59 87t111 36q60 0 96 -36t27 -87q-7 -49 -56.5 -85t-109.5 -36q-61 0 -98 35.5t-29 85.5z" />
<glyph unicode="&#x2c6;" horiz-adv-x="989" d="M311 1163l295 293h260l191 -293h-185l-176 150l-229 -150h-156z" />
<glyph unicode="&#x2dc;" horiz-adv-x="1191" d="M420 1210q33 137 114 216t185 79q50 0 90 -18t62 -40t56 -40t74 -18q84 0 113 108l92 -16q-35 -137 -111.5 -217t-166.5 -80q-49 0 -90 19.5t-65 43t-59.5 43t-74.5 19.5q-52 0 -83 -27t-48 -86z" />
<glyph unicode="&#x2000;" horiz-adv-x="926" />
<glyph unicode="&#x2001;" horiz-adv-x="1853" />
<glyph unicode="&#x2002;" horiz-adv-x="926" />
<glyph unicode="&#x2003;" horiz-adv-x="1853" />
<glyph unicode="&#x2004;" horiz-adv-x="617" />
<glyph unicode="&#x2005;" horiz-adv-x="463" />
<glyph unicode="&#x2006;" horiz-adv-x="308" />
<glyph unicode="&#x2007;" horiz-adv-x="308" />
<glyph unicode="&#x2008;" horiz-adv-x="231" />
<glyph unicode="&#x2009;" horiz-adv-x="370" />
<glyph unicode="&#x200a;" horiz-adv-x="102" />
<glyph unicode="&#x2010;" horiz-adv-x="606" d="M51 438l47 267h492l-47 -267h-492z" />
<glyph unicode="&#x2011;" horiz-adv-x="606" d="M51 438l47 267h492l-47 -267h-492z" />
<glyph unicode="&#x2012;" horiz-adv-x="606" d="M51 438l47 267h492l-47 -267h-492z" />
<glyph unicode="&#x2013;" horiz-adv-x="1185" d="M59 453l43 243h1065l-43 -243h-1065z" />
<glyph unicode="&#x2014;" horiz-adv-x="1705" d="M59 453l43 243h1573l-43 -243h-1573z" />
<glyph unicode="&#x2018;" horiz-adv-x="589" d="M203 1169q35 195 146 320t284 137l4 -149q-117 -19 -180.5 -85.5t-75.5 -144.5l-8 -41q47 35 108 35q74 0 108 -54t21 -128q-15 -82 -77.5 -142.5t-157.5 -60.5q-67 0 -112 47.5t-59.5 118t-0.5 147.5z" />
<glyph unicode="&#x2019;" horiz-adv-x="589" d="M209 924q60 10 108 34.5t77.5 57.5t47 67.5t23.5 69.5l6 41q-47 -35 -109 -35q-74 0 -106.5 54t-19.5 128q15 83 76.5 143t156.5 60q67 0 112 -47.5t59.5 -118t0.5 -147.5q-33 -192 -141.5 -308t-282.5 -128z" />
<glyph unicode="&#x201a;" horiz-adv-x="589" d="M2 -252q60 10 108 34.5t77.5 57.5t47 67.5t23.5 69.5l6 41q-46 -34 -108 -34q-74 0 -107 54t-20 128q13 82 75.5 142.5t157.5 60.5q67 0 112 -47.5t59.5 -118.5t0.5 -148q-34 -194 -145 -319t-283 -137z" />
<glyph unicode="&#x201c;" horiz-adv-x="1112" d="M203 1169q35 193 143 309t283 128l8 -129q-117 -19 -180.5 -85.5t-75.5 -144.5l-8 -41q47 35 108 35q74 0 108 -54t21 -128q-15 -82 -77.5 -142.5t-157.5 -60.5q-67 0 -112 47.5t-59.5 118t-0.5 147.5zM721 1169q35 193 143 309t283 128l8 -129q-117 -19 -180.5 -85.5 t-75.5 -144.5l-8 -41q47 35 108 35q74 0 108 -54t21 -128q-15 -82 -77.5 -142.5t-157.5 -60.5q-67 0 -112 47.5t-59.5 118t-0.5 147.5z" />
<glyph unicode="&#x201d;" horiz-adv-x="1112" d="M209 924q60 10 108 34.5t77.5 57.5t47 67.5t23.5 69.5l6 41q-47 -35 -109 -35q-74 0 -106.5 54t-19.5 128q15 83 76.5 143t156.5 60q67 0 112 -47.5t59.5 -118t0.5 -147.5q-33 -192 -141.5 -308t-282.5 -128zM727 924q60 10 108 34.5t77.5 57.5t47 67.5t23.5 69.5l6 41 q-47 -35 -108 -35q-74 0 -107 54t-20 128q15 83 76.5 143t156.5 60q67 0 112 -47.5t59.5 -118t0.5 -147.5q-33 -192 -141.5 -308t-282.5 -128z" />
<glyph unicode="&#x201e;" horiz-adv-x="1112" d="M2 -252q60 10 108 34.5t77.5 57.5t47 67.5t23.5 69.5l6 41q-46 -34 -108 -34q-74 0 -107 54t-20 128q13 82 75.5 142.5t157.5 60.5q67 0 112 -47.5t59.5 -118.5t0.5 -148q-34 -194 -145 -319t-283 -137zM520 -252q60 10 108 34.5t77.5 57.5t47 67.5t23.5 69.5l6 41 q-46 -34 -108 -34q-74 0 -107 54t-20 128q13 82 75.5 142.5t157.5 60.5q67 0 112 -47.5t59.5 -118.5t0.5 -148q-34 -194 -145 -319t-283 -137z" />
<glyph unicode="&#x2022;" horiz-adv-x="1196" d="M98 657q25 145 118.5 268.5t229.5 195t281 71.5q109 0 200 -42.5t150 -114t84 -170.5t6 -208q-25 -145 -118 -268t-229 -194.5t-281 -71.5t-255.5 71.5t-160.5 194.5t-25 268z" />
<glyph unicode="&#x2026;" horiz-adv-x="2351" d="M111 176q15 86 85 146.5t156 60.5t136.5 -60.5t35.5 -146.5t-86 -146.5t-157 -60.5t-135.5 60.5t-34.5 146.5zM924 176q15 86 85 146.5t156 60.5t136.5 -60.5t35.5 -146.5t-86 -146.5t-157 -60.5t-135.5 60.5t-34.5 146.5zM1731 176q15 86 85 146.5t156 60.5t136.5 -60.5 t35.5 -146.5t-86 -146.5t-157 -60.5t-135.5 60.5t-34.5 146.5z" />
<glyph unicode="&#x202f;" horiz-adv-x="370" />
<glyph unicode="&#x2039;" horiz-adv-x="874" d="M76 449l33 182l790 465l-31 -168l-376 -367l245 -377l-35 -198z" />
<glyph unicode="&#x203a;" horiz-adv-x="874" d="M-4 -14l29 168l376 366l-245 377l34 199l627 -463l-33 -182z" />
<glyph unicode="&#x205f;" horiz-adv-x="463" />
<glyph unicode="&#x20ac;" horiz-adv-x="1323" d="M61 506l68 172h72q0 19 8 59q14 72 20 97h-98l68 172h90q103 243 264 368t336 125q116 0 196 -56t93 -169h10l26 219h211l-88 -502h-207q0 72 -52.5 123t-133.5 51q-69 0 -121.5 -37t-105.5 -122h368l-67 -172h-375q-1 -7 -8.5 -40t-11.5 -53q-6 -37 -9 -63h344l-67 -172 h-279q13 -101 66.5 -151t138.5 -50q59 0 120.5 27t100.5 96l125 -272q-96 -95 -204 -145t-214 -50q-260 0 -403 145.5t-152 399.5h-129z" />
<glyph unicode="&#x2122;" horiz-adv-x="2093" d="M203 1133l57 323h733l-57 -323h-125l16 90q8 50 -9 73t-75 23h-51l-67 -387h120l-24 -135h-422l25 135h120l68 387h-51q-59 0 -84 -23t-33 -73l-16 -90h-125zM977 797l24 135h121l68 387h-121l25 137h389q1 -5 15 -103.5t24.5 -188.5t13.5 -148q18 45 53 118t60.5 122.5 t64.5 124t39 75.5h361l-25 -137h-121l-67 -387h120l-24 -135h-383l24 135h88l43 244q6 43 33 143q-23 -66 -59 -135l-189 -387h-149l-55 387q-9 79 -9 141q-11 -89 -22 -143l-43 -250h90l-25 -135h-364z" />
<glyph unicode="&#xe000;" horiz-adv-x="1064" d="M0 0v1065h1065v-1065h-1065z" />
</font>
</defs>
</svg>
